M48
;DRILL file {kicad (2015-01-16 BZR 5376)-product} date 1/21/2016 2:57:45 PM
;FORMAT={-:-/ absolute / metric / decimal}
FMAT,2
METRIC,TZ
T1C0.400
T2C1.001
T3C1.016
%
G90
G05
M71
T1
X88.4Y-94.
X98.4Y-81.
X103.Y-81.
X109.Y-83.8
X109.2Y-91.4
X109.5Y-95.
X120.8Y-90.2
X126.6Y-95.4
X136.2Y-88.8
T2
X139.5Y-86.2
X139.5Y-93.8
T3
X105.6Y-79.075
X108.14Y-79.075
X110.68Y-79.075
X113.22Y-79.075
X115.76Y-79.075
X118.3Y-79.075
X122.46Y-85.
X122.46Y-87.54
X122.46Y-90.08
X122.46Y-92.62
X125.Y-85.
X125.Y-87.54
X125.Y-90.08
X125.Y-92.62
X128.75Y-81.5
X128.75Y-84.04
X128.75Y-86.58
X128.75Y-89.12
X128.75Y-91.66
X128.75Y-94.2
T2
X94.251Y-87.901G85X94.251Y-89.899
G05
X96.251Y-93.599G85X98.25Y-93.599
G05
X100.25Y-87.901G85X100.25Y-89.899
G05
T0
M30
