G04 #@! TF.FileFunction,Soldermask,Bot*
%FSLAX46Y46*%
G04 Gerber Fmt 4.6, Leading zero omitted, Abs format (unit mm)*
G04 Created by KiCad (PCBNEW (2015-01-16 BZR 5376)-product) date 1/21/2016 3:46:14 PM*
%MOMM*%
G01*
G04 APERTURE LIST*
%ADD10C,0.100000*%
%ADD11C,0.150000*%
%ADD12C,3.600000*%
%ADD13R,2.432000X2.127200*%
%ADD14O,2.432000X2.127200*%
%ADD15R,1.400760X1.400760*%
%ADD16C,2.400000*%
%ADD17R,0.900000X1.300000*%
%ADD18R,1.300000X0.900000*%
%ADD19R,2.127200X2.432000*%
%ADD20O,2.127200X2.432000*%
%ADD21R,3.900120X3.900120*%
%ADD22R,1.150000X1.200000*%
%ADD23R,1.200000X1.150000*%
%ADD24R,0.999440X1.400760*%
%ADD25R,2.127200X2.127200*%
%ADD26O,2.127200X2.127200*%
G04 APERTURE END LIST*
D10*
D11*
X206000000Y-77500000D02*
X206000000Y-77000000D01*
X206000000Y-77000000D02*
X146000000Y-77000000D01*
X146000000Y-77000000D02*
X146000000Y-96500000D01*
X146000000Y-96500000D02*
X206000000Y-96500000D01*
X206000000Y-96500000D02*
X206000000Y-77500000D01*
X206000000Y-116050000D02*
X206000000Y-97050000D01*
X146000000Y-116050000D02*
X206000000Y-116050000D01*
X146000000Y-96550000D02*
X146000000Y-116050000D01*
X206000000Y-96550000D02*
X146000000Y-96550000D01*
X206000000Y-97050000D02*
X206000000Y-96550000D01*
X146000000Y-97050000D02*
X146000000Y-96550000D01*
X146000000Y-96550000D02*
X86000000Y-96550000D01*
X86000000Y-96550000D02*
X86000000Y-116050000D01*
X86000000Y-116050000D02*
X146000000Y-116050000D01*
X146000000Y-116050000D02*
X146000000Y-97050000D01*
X146000000Y-96500000D02*
X146000000Y-77500000D01*
X86000000Y-96500000D02*
X146000000Y-96500000D01*
X86000000Y-77000000D02*
X86000000Y-96500000D01*
X146000000Y-77000000D02*
X86000000Y-77000000D01*
X146000000Y-77500000D02*
X146000000Y-77000000D01*
D12*
X149750000Y-80750000D03*
D13*
X188750000Y-81500000D03*
D14*
X188750000Y-84040000D03*
X188750000Y-86580000D03*
X188750000Y-89120000D03*
X188750000Y-91660000D03*
X188750000Y-94200000D03*
D15*
X148500000Y-85400820D03*
X148500000Y-92599180D03*
D16*
X199500000Y-93799840D03*
X199500000Y-86200160D03*
D17*
X177650000Y-86800000D03*
X179150000Y-86800000D03*
D18*
X176250000Y-93125000D03*
X176250000Y-94625000D03*
D17*
X179700000Y-94400000D03*
X178200000Y-94400000D03*
D19*
X165600000Y-79075000D03*
D20*
X168140000Y-79075000D03*
X170680000Y-79075000D03*
X173220000Y-79075000D03*
X175760000Y-79075000D03*
X178300000Y-79075000D03*
D12*
X202000000Y-80500000D03*
D21*
X160250140Y-88900000D03*
X154250660Y-88900000D03*
X157250400Y-93599000D03*
D22*
X172600000Y-92950000D03*
X172600000Y-91450000D03*
D23*
X151500000Y-92500000D03*
X153000000Y-92500000D03*
D24*
X176077500Y-91306640D03*
X175125000Y-89193360D03*
X174172500Y-91306640D03*
X177797500Y-90368360D03*
X178750000Y-92481640D03*
X179702500Y-90368360D03*
D25*
X185000000Y-85000000D03*
D26*
X182460000Y-85000000D03*
X185000000Y-87540000D03*
X182460000Y-87540000D03*
X185000000Y-90080000D03*
X182460000Y-90080000D03*
X185000000Y-92620000D03*
X182460000Y-92620000D03*
D25*
X185000000Y-104550000D03*
D26*
X182460000Y-104550000D03*
X185000000Y-107090000D03*
X182460000Y-107090000D03*
X185000000Y-109630000D03*
X182460000Y-109630000D03*
X185000000Y-112170000D03*
X182460000Y-112170000D03*
D24*
X177797500Y-109918360D03*
X178750000Y-112031640D03*
X179702500Y-109918360D03*
X176077500Y-110856640D03*
X175125000Y-108743360D03*
X174172500Y-110856640D03*
D23*
X151500000Y-112050000D03*
X153000000Y-112050000D03*
D22*
X172600000Y-112500000D03*
X172600000Y-111000000D03*
D21*
X160250140Y-108450000D03*
X154250660Y-108450000D03*
X157250400Y-113149000D03*
D12*
X202000000Y-100050000D03*
D19*
X165600000Y-98625000D03*
D20*
X168140000Y-98625000D03*
X170680000Y-98625000D03*
X173220000Y-98625000D03*
X175760000Y-98625000D03*
X178300000Y-98625000D03*
D17*
X179700000Y-113950000D03*
X178200000Y-113950000D03*
D18*
X176250000Y-112675000D03*
X176250000Y-114175000D03*
D17*
X177650000Y-106350000D03*
X179150000Y-106350000D03*
D16*
X199500000Y-113349840D03*
X199500000Y-105750160D03*
D15*
X148500000Y-104950820D03*
X148500000Y-112149180D03*
D13*
X188750000Y-101050000D03*
D14*
X188750000Y-103590000D03*
X188750000Y-106130000D03*
X188750000Y-108670000D03*
X188750000Y-111210000D03*
X188750000Y-113750000D03*
D12*
X149750000Y-100300000D03*
X89750000Y-100300000D03*
D13*
X128750000Y-101050000D03*
D14*
X128750000Y-103590000D03*
X128750000Y-106130000D03*
X128750000Y-108670000D03*
X128750000Y-111210000D03*
X128750000Y-113750000D03*
D15*
X88500000Y-104950820D03*
X88500000Y-112149180D03*
D16*
X139500000Y-113349840D03*
X139500000Y-105750160D03*
D17*
X117650000Y-106350000D03*
X119150000Y-106350000D03*
D18*
X116250000Y-112675000D03*
X116250000Y-114175000D03*
D17*
X119700000Y-113950000D03*
X118200000Y-113950000D03*
D19*
X105600000Y-98625000D03*
D20*
X108140000Y-98625000D03*
X110680000Y-98625000D03*
X113220000Y-98625000D03*
X115760000Y-98625000D03*
X118300000Y-98625000D03*
D12*
X142000000Y-100050000D03*
D21*
X100250140Y-108450000D03*
X94250660Y-108450000D03*
X97250400Y-113149000D03*
D22*
X112600000Y-112500000D03*
X112600000Y-111000000D03*
D23*
X91500000Y-112050000D03*
X93000000Y-112050000D03*
D24*
X116077500Y-110856640D03*
X115125000Y-108743360D03*
X114172500Y-110856640D03*
X117797500Y-109918360D03*
X118750000Y-112031640D03*
X119702500Y-109918360D03*
D25*
X125000000Y-104550000D03*
D26*
X122460000Y-104550000D03*
X125000000Y-107090000D03*
X122460000Y-107090000D03*
X125000000Y-109630000D03*
X122460000Y-109630000D03*
X125000000Y-112170000D03*
X122460000Y-112170000D03*
D25*
X125000000Y-85000000D03*
D26*
X122460000Y-85000000D03*
X125000000Y-87540000D03*
X122460000Y-87540000D03*
X125000000Y-90080000D03*
X122460000Y-90080000D03*
X125000000Y-92620000D03*
X122460000Y-92620000D03*
D24*
X117797500Y-90368360D03*
X118750000Y-92481640D03*
X119702500Y-90368360D03*
X116077500Y-91306640D03*
X115125000Y-89193360D03*
X114172500Y-91306640D03*
D23*
X91500000Y-92500000D03*
X93000000Y-92500000D03*
D22*
X112600000Y-92950000D03*
X112600000Y-91450000D03*
D21*
X100250140Y-88900000D03*
X94250660Y-88900000D03*
X97250400Y-93599000D03*
D12*
X142000000Y-80500000D03*
D19*
X105600000Y-79075000D03*
D20*
X108140000Y-79075000D03*
X110680000Y-79075000D03*
X113220000Y-79075000D03*
X115760000Y-79075000D03*
X118300000Y-79075000D03*
D17*
X119700000Y-94400000D03*
X118200000Y-94400000D03*
D18*
X116250000Y-93125000D03*
X116250000Y-94625000D03*
D17*
X117650000Y-86800000D03*
X119150000Y-86800000D03*
D16*
X139500000Y-93799840D03*
X139500000Y-86200160D03*
D15*
X88500000Y-85400820D03*
X88500000Y-92599180D03*
D13*
X128750000Y-81500000D03*
D14*
X128750000Y-84040000D03*
X128750000Y-86580000D03*
X128750000Y-89120000D03*
X128750000Y-91660000D03*
X128750000Y-94200000D03*
D12*
X89750000Y-80750000D03*
M02*
