G04 #@! TF.FileFunction,Soldermask,Top*
%FSLAX46Y46*%
G04 Gerber Fmt 4.6, Leading zero omitted, Abs format (unit mm)*
G04 Created by KiCad (PCBNEW (2015-01-16 BZR 5376)-product) date 1/21/2016 3:46:14 PM*
%MOMM*%
G01*
G04 APERTURE LIST*
%ADD10C,0.100000*%
%ADD11C,0.150000*%
%ADD12C,3.600000*%
%ADD13R,2.432000X2.127200*%
%ADD14O,2.432000X2.127200*%
%ADD15R,5.000000X1.790000*%
%ADD16R,9.800000X11.200000*%
%ADD17R,0.900000X1.300000*%
%ADD18R,2.548840X1.901140*%
%ADD19R,4.057600X2.432000*%
%ADD20R,1.416000X2.432000*%
%ADD21C,2.400000*%
%ADD22R,1.300000X0.900000*%
%ADD23R,1.200100X1.200100*%
%ADD24R,2.127200X2.432000*%
%ADD25O,2.127200X2.432000*%
%ADD26R,3.900120X3.900120*%
%ADD27R,1.200000X1.150000*%
%ADD28R,2.127200X2.127200*%
%ADD29O,2.127200X2.127200*%
G04 APERTURE END LIST*
D10*
D11*
X206000000Y-77500000D02*
X206000000Y-77000000D01*
X206000000Y-77000000D02*
X146000000Y-77000000D01*
X146000000Y-77000000D02*
X146000000Y-96500000D01*
X146000000Y-96500000D02*
X206000000Y-96500000D01*
X206000000Y-96500000D02*
X206000000Y-77500000D01*
X206000000Y-116050000D02*
X206000000Y-97050000D01*
X146000000Y-116050000D02*
X206000000Y-116050000D01*
X146000000Y-96550000D02*
X146000000Y-116050000D01*
X206000000Y-96550000D02*
X146000000Y-96550000D01*
X206000000Y-97050000D02*
X206000000Y-96550000D01*
X146000000Y-97050000D02*
X146000000Y-96550000D01*
X146000000Y-96550000D02*
X86000000Y-96550000D01*
X86000000Y-96550000D02*
X86000000Y-116050000D01*
X86000000Y-116050000D02*
X146000000Y-116050000D01*
X146000000Y-116050000D02*
X146000000Y-97050000D01*
X146000000Y-96500000D02*
X146000000Y-77500000D01*
X86000000Y-96500000D02*
X146000000Y-96500000D01*
X86000000Y-77000000D02*
X86000000Y-96500000D01*
X146000000Y-77000000D02*
X86000000Y-77000000D01*
X146000000Y-77500000D02*
X146000000Y-77000000D01*
D12*
X149750000Y-80750000D03*
D13*
X188750000Y-81500000D03*
D14*
X188750000Y-84040000D03*
X188750000Y-86580000D03*
X188750000Y-89120000D03*
X188750000Y-91660000D03*
X188750000Y-94200000D03*
D15*
X165775000Y-89475000D03*
D16*
X174925000Y-89475000D03*
D15*
X165775000Y-92015000D03*
X165775000Y-86935000D03*
D17*
X164300000Y-82675000D03*
X165800000Y-82675000D03*
X165750000Y-84500000D03*
X167250000Y-84500000D03*
D18*
X156998860Y-82500000D03*
X160001140Y-82500000D03*
D19*
X194000000Y-84198000D03*
D20*
X194000000Y-90802000D03*
X196286000Y-90802000D03*
X191714000Y-90802000D03*
D21*
X199500000Y-93799840D03*
X199500000Y-86200160D03*
D22*
X181250000Y-80500000D03*
X181250000Y-82000000D03*
D23*
X183050000Y-80500760D03*
X184950000Y-80500760D03*
X184000000Y-78501780D03*
D24*
X165600000Y-79075000D03*
D25*
X168140000Y-79075000D03*
X170680000Y-79075000D03*
X173220000Y-79075000D03*
X175760000Y-79075000D03*
X178300000Y-79075000D03*
D12*
X202000000Y-80500000D03*
D26*
X160250140Y-88900000D03*
X154250660Y-88900000D03*
X157250400Y-93599000D03*
D18*
X167998860Y-82000000D03*
X171001140Y-82000000D03*
X156998860Y-79500000D03*
X160001140Y-79500000D03*
D27*
X165250000Y-94500000D03*
X163750000Y-94500000D03*
D28*
X185000000Y-85000000D03*
D29*
X182460000Y-85000000D03*
X185000000Y-87540000D03*
X182460000Y-87540000D03*
X185000000Y-90080000D03*
X182460000Y-90080000D03*
X185000000Y-92620000D03*
X182460000Y-92620000D03*
D28*
X185000000Y-104550000D03*
D29*
X182460000Y-104550000D03*
X185000000Y-107090000D03*
X182460000Y-107090000D03*
X185000000Y-109630000D03*
X182460000Y-109630000D03*
X185000000Y-112170000D03*
X182460000Y-112170000D03*
D27*
X165250000Y-114050000D03*
X163750000Y-114050000D03*
D18*
X156998860Y-99050000D03*
X160001140Y-99050000D03*
X167998860Y-101550000D03*
X171001140Y-101550000D03*
D26*
X160250140Y-108450000D03*
X154250660Y-108450000D03*
X157250400Y-113149000D03*
D12*
X202000000Y-100050000D03*
D24*
X165600000Y-98625000D03*
D25*
X168140000Y-98625000D03*
X170680000Y-98625000D03*
X173220000Y-98625000D03*
X175760000Y-98625000D03*
X178300000Y-98625000D03*
D23*
X183050000Y-100050760D03*
X184950000Y-100050760D03*
X184000000Y-98051780D03*
D22*
X181250000Y-100050000D03*
X181250000Y-101550000D03*
D21*
X199500000Y-113349840D03*
X199500000Y-105750160D03*
D19*
X194000000Y-103748000D03*
D20*
X194000000Y-110352000D03*
X196286000Y-110352000D03*
X191714000Y-110352000D03*
D18*
X156998860Y-102050000D03*
X160001140Y-102050000D03*
D17*
X165750000Y-104050000D03*
X167250000Y-104050000D03*
X164300000Y-102225000D03*
X165800000Y-102225000D03*
D15*
X165775000Y-109025000D03*
D16*
X174925000Y-109025000D03*
D15*
X165775000Y-111565000D03*
X165775000Y-106485000D03*
D13*
X188750000Y-101050000D03*
D14*
X188750000Y-103590000D03*
X188750000Y-106130000D03*
X188750000Y-108670000D03*
X188750000Y-111210000D03*
X188750000Y-113750000D03*
D12*
X149750000Y-100300000D03*
X89750000Y-100300000D03*
D13*
X128750000Y-101050000D03*
D14*
X128750000Y-103590000D03*
X128750000Y-106130000D03*
X128750000Y-108670000D03*
X128750000Y-111210000D03*
X128750000Y-113750000D03*
D15*
X105775000Y-109025000D03*
D16*
X114925000Y-109025000D03*
D15*
X105775000Y-111565000D03*
X105775000Y-106485000D03*
D17*
X104300000Y-102225000D03*
X105800000Y-102225000D03*
X105750000Y-104050000D03*
X107250000Y-104050000D03*
D18*
X96998860Y-102050000D03*
X100001140Y-102050000D03*
D19*
X134000000Y-103748000D03*
D20*
X134000000Y-110352000D03*
X136286000Y-110352000D03*
X131714000Y-110352000D03*
D21*
X139500000Y-113349840D03*
X139500000Y-105750160D03*
D22*
X121250000Y-100050000D03*
X121250000Y-101550000D03*
D23*
X123050000Y-100050760D03*
X124950000Y-100050760D03*
X124000000Y-98051780D03*
D24*
X105600000Y-98625000D03*
D25*
X108140000Y-98625000D03*
X110680000Y-98625000D03*
X113220000Y-98625000D03*
X115760000Y-98625000D03*
X118300000Y-98625000D03*
D12*
X142000000Y-100050000D03*
D26*
X100250140Y-108450000D03*
X94250660Y-108450000D03*
X97250400Y-113149000D03*
D18*
X107998860Y-101550000D03*
X111001140Y-101550000D03*
X96998860Y-99050000D03*
X100001140Y-99050000D03*
D27*
X105250000Y-114050000D03*
X103750000Y-114050000D03*
D28*
X125000000Y-104550000D03*
D29*
X122460000Y-104550000D03*
X125000000Y-107090000D03*
X122460000Y-107090000D03*
X125000000Y-109630000D03*
X122460000Y-109630000D03*
X125000000Y-112170000D03*
X122460000Y-112170000D03*
D28*
X125000000Y-85000000D03*
D29*
X122460000Y-85000000D03*
X125000000Y-87540000D03*
X122460000Y-87540000D03*
X125000000Y-90080000D03*
X122460000Y-90080000D03*
X125000000Y-92620000D03*
X122460000Y-92620000D03*
D27*
X105250000Y-94500000D03*
X103750000Y-94500000D03*
D18*
X96998860Y-79500000D03*
X100001140Y-79500000D03*
X107998860Y-82000000D03*
X111001140Y-82000000D03*
D26*
X100250140Y-88900000D03*
X94250660Y-88900000D03*
X97250400Y-93599000D03*
D12*
X142000000Y-80500000D03*
D24*
X105600000Y-79075000D03*
D25*
X108140000Y-79075000D03*
X110680000Y-79075000D03*
X113220000Y-79075000D03*
X115760000Y-79075000D03*
X118300000Y-79075000D03*
D23*
X123050000Y-80500760D03*
X124950000Y-80500760D03*
X124000000Y-78501780D03*
D22*
X121250000Y-80500000D03*
X121250000Y-82000000D03*
D21*
X139500000Y-93799840D03*
X139500000Y-86200160D03*
D19*
X134000000Y-84198000D03*
D20*
X134000000Y-90802000D03*
X136286000Y-90802000D03*
X131714000Y-90802000D03*
D18*
X96998860Y-82500000D03*
X100001140Y-82500000D03*
D17*
X105750000Y-84500000D03*
X107250000Y-84500000D03*
X104300000Y-82675000D03*
X105800000Y-82675000D03*
D15*
X105775000Y-89475000D03*
D16*
X114925000Y-89475000D03*
D15*
X105775000Y-92015000D03*
X105775000Y-86935000D03*
D13*
X128750000Y-81500000D03*
D14*
X128750000Y-84040000D03*
X128750000Y-86580000D03*
X128750000Y-89120000D03*
X128750000Y-91660000D03*
X128750000Y-94200000D03*
D12*
X89750000Y-80750000D03*
M02*
