G04 #@! TF.FileFunction,Legend,Bot*
%FSLAX46Y46*%
G04 Gerber Fmt 4.6, Leading zero omitted, Abs format (unit mm)*
G04 Created by KiCad (PCBNEW (2015-01-16 BZR 5376)-product) date 1/21/2016 3:46:14 PM*
%MOMM*%
G01*
G04 APERTURE LIST*
%ADD10C,0.100000*%
%ADD11C,0.250000*%
%ADD12C,0.150000*%
%ADD13C,0.075000*%
%ADD14C,0.002540*%
%ADD15C,0.254000*%
%ADD16C,0.127000*%
%ADD17C,0.152400*%
%ADD18C,0.099060*%
G04 APERTURE END LIST*
D10*
D11*
X166345239Y-84928571D02*
X166011905Y-84928571D01*
X165869048Y-85452381D02*
X166345239Y-85452381D01*
X166345239Y-84452381D01*
X165869048Y-84452381D01*
X165535715Y-85452381D02*
X165011905Y-84785714D01*
X165535715Y-84785714D02*
X165011905Y-85452381D01*
X164630953Y-84785714D02*
X164630953Y-85785714D01*
X164630953Y-84833333D02*
X164535715Y-84785714D01*
X164345238Y-84785714D01*
X164250000Y-84833333D01*
X164202381Y-84880952D01*
X164154762Y-84976190D01*
X164154762Y-85261905D01*
X164202381Y-85357143D01*
X164250000Y-85404762D01*
X164345238Y-85452381D01*
X164535715Y-85452381D01*
X164630953Y-85404762D01*
X163583334Y-85452381D02*
X163678572Y-85404762D01*
X163726191Y-85309524D01*
X163726191Y-84452381D01*
X163059524Y-85452381D02*
X163154762Y-85404762D01*
X163202381Y-85357143D01*
X163250000Y-85261905D01*
X163250000Y-84976190D01*
X163202381Y-84880952D01*
X163154762Y-84833333D01*
X163059524Y-84785714D01*
X162916666Y-84785714D01*
X162821428Y-84833333D01*
X162773809Y-84880952D01*
X162726190Y-84976190D01*
X162726190Y-85261905D01*
X162773809Y-85357143D01*
X162821428Y-85404762D01*
X162916666Y-85452381D01*
X163059524Y-85452381D01*
X162297619Y-85452381D02*
X162297619Y-84785714D01*
X162297619Y-84976190D02*
X162250000Y-84880952D01*
X162202381Y-84833333D01*
X162107143Y-84785714D01*
X162011904Y-84785714D01*
X161297618Y-85404762D02*
X161392856Y-85452381D01*
X161583333Y-85452381D01*
X161678571Y-85404762D01*
X161726190Y-85309524D01*
X161726190Y-84928571D01*
X161678571Y-84833333D01*
X161583333Y-84785714D01*
X161392856Y-84785714D01*
X161297618Y-84833333D01*
X161249999Y-84928571D01*
X161249999Y-85023810D01*
X161726190Y-85119048D01*
X160821428Y-84928571D02*
X160488094Y-84928571D01*
X160345237Y-85452381D02*
X160821428Y-85452381D01*
X160821428Y-84452381D01*
X160345237Y-84452381D01*
X159916666Y-85452381D02*
X159916666Y-84785714D01*
X159916666Y-84880952D02*
X159869047Y-84833333D01*
X159773809Y-84785714D01*
X159630951Y-84785714D01*
X159535713Y-84833333D01*
X159488094Y-84928571D01*
X159488094Y-85452381D01*
X159488094Y-84928571D02*
X159440475Y-84833333D01*
X159345237Y-84785714D01*
X159202380Y-84785714D01*
X159107142Y-84833333D01*
X159059523Y-84928571D01*
X159059523Y-85452381D01*
X158583333Y-85452381D02*
X158583333Y-84452381D01*
X158583333Y-84833333D02*
X158488095Y-84785714D01*
X158297618Y-84785714D01*
X158202380Y-84833333D01*
X158154761Y-84880952D01*
X158107142Y-84976190D01*
X158107142Y-85261905D01*
X158154761Y-85357143D01*
X158202380Y-85404762D01*
X158297618Y-85452381D01*
X158488095Y-85452381D01*
X158583333Y-85404762D01*
X157297618Y-85404762D02*
X157392856Y-85452381D01*
X157583333Y-85452381D01*
X157678571Y-85404762D01*
X157726190Y-85309524D01*
X157726190Y-84928571D01*
X157678571Y-84833333D01*
X157583333Y-84785714D01*
X157392856Y-84785714D01*
X157297618Y-84833333D01*
X157249999Y-84928571D01*
X157249999Y-85023810D01*
X157726190Y-85119048D01*
X156392856Y-85452381D02*
X156392856Y-84452381D01*
X156392856Y-85404762D02*
X156488094Y-85452381D01*
X156678571Y-85452381D01*
X156773809Y-85404762D01*
X156821428Y-85357143D01*
X156869047Y-85261905D01*
X156869047Y-84976190D01*
X156821428Y-84880952D01*
X156773809Y-84833333D01*
X156678571Y-84785714D01*
X156488094Y-84785714D01*
X156392856Y-84833333D01*
X155488094Y-85452381D02*
X155488094Y-84452381D01*
X155488094Y-85404762D02*
X155583332Y-85452381D01*
X155773809Y-85452381D01*
X155869047Y-85404762D01*
X155916666Y-85357143D01*
X155964285Y-85261905D01*
X155964285Y-84976190D01*
X155916666Y-84880952D01*
X155869047Y-84833333D01*
X155773809Y-84785714D01*
X155583332Y-84785714D01*
X155488094Y-84833333D01*
X154630951Y-85404762D02*
X154726189Y-85452381D01*
X154916666Y-85452381D01*
X155011904Y-85404762D01*
X155059523Y-85309524D01*
X155059523Y-84928571D01*
X155011904Y-84833333D01*
X154916666Y-84785714D01*
X154726189Y-84785714D01*
X154630951Y-84833333D01*
X154583332Y-84928571D01*
X154583332Y-85023810D01*
X155059523Y-85119048D01*
X153726189Y-85452381D02*
X153726189Y-84452381D01*
X153726189Y-85404762D02*
X153821427Y-85452381D01*
X154011904Y-85452381D01*
X154107142Y-85404762D01*
X154154761Y-85357143D01*
X154202380Y-85261905D01*
X154202380Y-84976190D01*
X154154761Y-84880952D01*
X154107142Y-84833333D01*
X154011904Y-84785714D01*
X153821427Y-84785714D01*
X153726189Y-84833333D01*
X153249999Y-85357143D02*
X153202380Y-85404762D01*
X153249999Y-85452381D01*
X153297618Y-85404762D01*
X153249999Y-85357143D01*
X153249999Y-85452381D01*
X152345237Y-85404762D02*
X152440475Y-85452381D01*
X152630952Y-85452381D01*
X152726190Y-85404762D01*
X152773809Y-85357143D01*
X152821428Y-85261905D01*
X152821428Y-84976190D01*
X152773809Y-84880952D01*
X152726190Y-84833333D01*
X152630952Y-84785714D01*
X152440475Y-84785714D01*
X152345237Y-84833333D01*
X151773809Y-85452381D02*
X151869047Y-85404762D01*
X151916666Y-85357143D01*
X151964285Y-85261905D01*
X151964285Y-84976190D01*
X151916666Y-84880952D01*
X151869047Y-84833333D01*
X151773809Y-84785714D01*
X151630951Y-84785714D01*
X151535713Y-84833333D01*
X151488094Y-84880952D01*
X151440475Y-84976190D01*
X151440475Y-85261905D01*
X151488094Y-85357143D01*
X151535713Y-85404762D01*
X151630951Y-85452381D01*
X151773809Y-85452381D01*
X151011904Y-85452381D02*
X151011904Y-84785714D01*
X151011904Y-84880952D02*
X150964285Y-84833333D01*
X150869047Y-84785714D01*
X150726189Y-84785714D01*
X150630951Y-84833333D01*
X150583332Y-84928571D01*
X150583332Y-85452381D01*
X150583332Y-84928571D02*
X150535713Y-84833333D01*
X150440475Y-84785714D01*
X150297618Y-84785714D01*
X150202380Y-84833333D01*
X150154761Y-84928571D01*
X150154761Y-85452381D01*
D12*
X206000000Y-77500000D02*
X206000000Y-77000000D01*
X206000000Y-77000000D02*
X146000000Y-77000000D01*
X146000000Y-77000000D02*
X146000000Y-96500000D01*
X146000000Y-96500000D02*
X206000000Y-96500000D01*
X206000000Y-96500000D02*
X206000000Y-77500000D01*
X206000000Y-116050000D02*
X206000000Y-97050000D01*
X146000000Y-116050000D02*
X206000000Y-116050000D01*
X146000000Y-96550000D02*
X146000000Y-116050000D01*
X206000000Y-96550000D02*
X146000000Y-96550000D01*
X206000000Y-97050000D02*
X206000000Y-96550000D01*
D11*
X166345239Y-104478571D02*
X166011905Y-104478571D01*
X165869048Y-105002381D02*
X166345239Y-105002381D01*
X166345239Y-104002381D01*
X165869048Y-104002381D01*
X165535715Y-105002381D02*
X165011905Y-104335714D01*
X165535715Y-104335714D02*
X165011905Y-105002381D01*
X164630953Y-104335714D02*
X164630953Y-105335714D01*
X164630953Y-104383333D02*
X164535715Y-104335714D01*
X164345238Y-104335714D01*
X164250000Y-104383333D01*
X164202381Y-104430952D01*
X164154762Y-104526190D01*
X164154762Y-104811905D01*
X164202381Y-104907143D01*
X164250000Y-104954762D01*
X164345238Y-105002381D01*
X164535715Y-105002381D01*
X164630953Y-104954762D01*
X163583334Y-105002381D02*
X163678572Y-104954762D01*
X163726191Y-104859524D01*
X163726191Y-104002381D01*
X163059524Y-105002381D02*
X163154762Y-104954762D01*
X163202381Y-104907143D01*
X163250000Y-104811905D01*
X163250000Y-104526190D01*
X163202381Y-104430952D01*
X163154762Y-104383333D01*
X163059524Y-104335714D01*
X162916666Y-104335714D01*
X162821428Y-104383333D01*
X162773809Y-104430952D01*
X162726190Y-104526190D01*
X162726190Y-104811905D01*
X162773809Y-104907143D01*
X162821428Y-104954762D01*
X162916666Y-105002381D01*
X163059524Y-105002381D01*
X162297619Y-105002381D02*
X162297619Y-104335714D01*
X162297619Y-104526190D02*
X162250000Y-104430952D01*
X162202381Y-104383333D01*
X162107143Y-104335714D01*
X162011904Y-104335714D01*
X161297618Y-104954762D02*
X161392856Y-105002381D01*
X161583333Y-105002381D01*
X161678571Y-104954762D01*
X161726190Y-104859524D01*
X161726190Y-104478571D01*
X161678571Y-104383333D01*
X161583333Y-104335714D01*
X161392856Y-104335714D01*
X161297618Y-104383333D01*
X161249999Y-104478571D01*
X161249999Y-104573810D01*
X161726190Y-104669048D01*
X160821428Y-104478571D02*
X160488094Y-104478571D01*
X160345237Y-105002381D02*
X160821428Y-105002381D01*
X160821428Y-104002381D01*
X160345237Y-104002381D01*
X159916666Y-105002381D02*
X159916666Y-104335714D01*
X159916666Y-104430952D02*
X159869047Y-104383333D01*
X159773809Y-104335714D01*
X159630951Y-104335714D01*
X159535713Y-104383333D01*
X159488094Y-104478571D01*
X159488094Y-105002381D01*
X159488094Y-104478571D02*
X159440475Y-104383333D01*
X159345237Y-104335714D01*
X159202380Y-104335714D01*
X159107142Y-104383333D01*
X159059523Y-104478571D01*
X159059523Y-105002381D01*
X158583333Y-105002381D02*
X158583333Y-104002381D01*
X158583333Y-104383333D02*
X158488095Y-104335714D01*
X158297618Y-104335714D01*
X158202380Y-104383333D01*
X158154761Y-104430952D01*
X158107142Y-104526190D01*
X158107142Y-104811905D01*
X158154761Y-104907143D01*
X158202380Y-104954762D01*
X158297618Y-105002381D01*
X158488095Y-105002381D01*
X158583333Y-104954762D01*
X157297618Y-104954762D02*
X157392856Y-105002381D01*
X157583333Y-105002381D01*
X157678571Y-104954762D01*
X157726190Y-104859524D01*
X157726190Y-104478571D01*
X157678571Y-104383333D01*
X157583333Y-104335714D01*
X157392856Y-104335714D01*
X157297618Y-104383333D01*
X157249999Y-104478571D01*
X157249999Y-104573810D01*
X157726190Y-104669048D01*
X156392856Y-105002381D02*
X156392856Y-104002381D01*
X156392856Y-104954762D02*
X156488094Y-105002381D01*
X156678571Y-105002381D01*
X156773809Y-104954762D01*
X156821428Y-104907143D01*
X156869047Y-104811905D01*
X156869047Y-104526190D01*
X156821428Y-104430952D01*
X156773809Y-104383333D01*
X156678571Y-104335714D01*
X156488094Y-104335714D01*
X156392856Y-104383333D01*
X155488094Y-105002381D02*
X155488094Y-104002381D01*
X155488094Y-104954762D02*
X155583332Y-105002381D01*
X155773809Y-105002381D01*
X155869047Y-104954762D01*
X155916666Y-104907143D01*
X155964285Y-104811905D01*
X155964285Y-104526190D01*
X155916666Y-104430952D01*
X155869047Y-104383333D01*
X155773809Y-104335714D01*
X155583332Y-104335714D01*
X155488094Y-104383333D01*
X154630951Y-104954762D02*
X154726189Y-105002381D01*
X154916666Y-105002381D01*
X155011904Y-104954762D01*
X155059523Y-104859524D01*
X155059523Y-104478571D01*
X155011904Y-104383333D01*
X154916666Y-104335714D01*
X154726189Y-104335714D01*
X154630951Y-104383333D01*
X154583332Y-104478571D01*
X154583332Y-104573810D01*
X155059523Y-104669048D01*
X153726189Y-105002381D02*
X153726189Y-104002381D01*
X153726189Y-104954762D02*
X153821427Y-105002381D01*
X154011904Y-105002381D01*
X154107142Y-104954762D01*
X154154761Y-104907143D01*
X154202380Y-104811905D01*
X154202380Y-104526190D01*
X154154761Y-104430952D01*
X154107142Y-104383333D01*
X154011904Y-104335714D01*
X153821427Y-104335714D01*
X153726189Y-104383333D01*
X153249999Y-104907143D02*
X153202380Y-104954762D01*
X153249999Y-105002381D01*
X153297618Y-104954762D01*
X153249999Y-104907143D01*
X153249999Y-105002381D01*
X152345237Y-104954762D02*
X152440475Y-105002381D01*
X152630952Y-105002381D01*
X152726190Y-104954762D01*
X152773809Y-104907143D01*
X152821428Y-104811905D01*
X152821428Y-104526190D01*
X152773809Y-104430952D01*
X152726190Y-104383333D01*
X152630952Y-104335714D01*
X152440475Y-104335714D01*
X152345237Y-104383333D01*
X151773809Y-105002381D02*
X151869047Y-104954762D01*
X151916666Y-104907143D01*
X151964285Y-104811905D01*
X151964285Y-104526190D01*
X151916666Y-104430952D01*
X151869047Y-104383333D01*
X151773809Y-104335714D01*
X151630951Y-104335714D01*
X151535713Y-104383333D01*
X151488094Y-104430952D01*
X151440475Y-104526190D01*
X151440475Y-104811905D01*
X151488094Y-104907143D01*
X151535713Y-104954762D01*
X151630951Y-105002381D01*
X151773809Y-105002381D01*
X151011904Y-105002381D02*
X151011904Y-104335714D01*
X151011904Y-104430952D02*
X150964285Y-104383333D01*
X150869047Y-104335714D01*
X150726189Y-104335714D01*
X150630951Y-104383333D01*
X150583332Y-104478571D01*
X150583332Y-105002381D01*
X150583332Y-104478571D02*
X150535713Y-104383333D01*
X150440475Y-104335714D01*
X150297618Y-104335714D01*
X150202380Y-104383333D01*
X150154761Y-104478571D01*
X150154761Y-105002381D01*
X106345239Y-104478571D02*
X106011905Y-104478571D01*
X105869048Y-105002381D02*
X106345239Y-105002381D01*
X106345239Y-104002381D01*
X105869048Y-104002381D01*
X105535715Y-105002381D02*
X105011905Y-104335714D01*
X105535715Y-104335714D02*
X105011905Y-105002381D01*
X104630953Y-104335714D02*
X104630953Y-105335714D01*
X104630953Y-104383333D02*
X104535715Y-104335714D01*
X104345238Y-104335714D01*
X104250000Y-104383333D01*
X104202381Y-104430952D01*
X104154762Y-104526190D01*
X104154762Y-104811905D01*
X104202381Y-104907143D01*
X104250000Y-104954762D01*
X104345238Y-105002381D01*
X104535715Y-105002381D01*
X104630953Y-104954762D01*
X103583334Y-105002381D02*
X103678572Y-104954762D01*
X103726191Y-104859524D01*
X103726191Y-104002381D01*
X103059524Y-105002381D02*
X103154762Y-104954762D01*
X103202381Y-104907143D01*
X103250000Y-104811905D01*
X103250000Y-104526190D01*
X103202381Y-104430952D01*
X103154762Y-104383333D01*
X103059524Y-104335714D01*
X102916666Y-104335714D01*
X102821428Y-104383333D01*
X102773809Y-104430952D01*
X102726190Y-104526190D01*
X102726190Y-104811905D01*
X102773809Y-104907143D01*
X102821428Y-104954762D01*
X102916666Y-105002381D01*
X103059524Y-105002381D01*
X102297619Y-105002381D02*
X102297619Y-104335714D01*
X102297619Y-104526190D02*
X102250000Y-104430952D01*
X102202381Y-104383333D01*
X102107143Y-104335714D01*
X102011904Y-104335714D01*
X101297618Y-104954762D02*
X101392856Y-105002381D01*
X101583333Y-105002381D01*
X101678571Y-104954762D01*
X101726190Y-104859524D01*
X101726190Y-104478571D01*
X101678571Y-104383333D01*
X101583333Y-104335714D01*
X101392856Y-104335714D01*
X101297618Y-104383333D01*
X101249999Y-104478571D01*
X101249999Y-104573810D01*
X101726190Y-104669048D01*
X100821428Y-104478571D02*
X100488094Y-104478571D01*
X100345237Y-105002381D02*
X100821428Y-105002381D01*
X100821428Y-104002381D01*
X100345237Y-104002381D01*
X99916666Y-105002381D02*
X99916666Y-104335714D01*
X99916666Y-104430952D02*
X99869047Y-104383333D01*
X99773809Y-104335714D01*
X99630951Y-104335714D01*
X99535713Y-104383333D01*
X99488094Y-104478571D01*
X99488094Y-105002381D01*
X99488094Y-104478571D02*
X99440475Y-104383333D01*
X99345237Y-104335714D01*
X99202380Y-104335714D01*
X99107142Y-104383333D01*
X99059523Y-104478571D01*
X99059523Y-105002381D01*
X98583333Y-105002381D02*
X98583333Y-104002381D01*
X98583333Y-104383333D02*
X98488095Y-104335714D01*
X98297618Y-104335714D01*
X98202380Y-104383333D01*
X98154761Y-104430952D01*
X98107142Y-104526190D01*
X98107142Y-104811905D01*
X98154761Y-104907143D01*
X98202380Y-104954762D01*
X98297618Y-105002381D01*
X98488095Y-105002381D01*
X98583333Y-104954762D01*
X97297618Y-104954762D02*
X97392856Y-105002381D01*
X97583333Y-105002381D01*
X97678571Y-104954762D01*
X97726190Y-104859524D01*
X97726190Y-104478571D01*
X97678571Y-104383333D01*
X97583333Y-104335714D01*
X97392856Y-104335714D01*
X97297618Y-104383333D01*
X97249999Y-104478571D01*
X97249999Y-104573810D01*
X97726190Y-104669048D01*
X96392856Y-105002381D02*
X96392856Y-104002381D01*
X96392856Y-104954762D02*
X96488094Y-105002381D01*
X96678571Y-105002381D01*
X96773809Y-104954762D01*
X96821428Y-104907143D01*
X96869047Y-104811905D01*
X96869047Y-104526190D01*
X96821428Y-104430952D01*
X96773809Y-104383333D01*
X96678571Y-104335714D01*
X96488094Y-104335714D01*
X96392856Y-104383333D01*
X95488094Y-105002381D02*
X95488094Y-104002381D01*
X95488094Y-104954762D02*
X95583332Y-105002381D01*
X95773809Y-105002381D01*
X95869047Y-104954762D01*
X95916666Y-104907143D01*
X95964285Y-104811905D01*
X95964285Y-104526190D01*
X95916666Y-104430952D01*
X95869047Y-104383333D01*
X95773809Y-104335714D01*
X95583332Y-104335714D01*
X95488094Y-104383333D01*
X94630951Y-104954762D02*
X94726189Y-105002381D01*
X94916666Y-105002381D01*
X95011904Y-104954762D01*
X95059523Y-104859524D01*
X95059523Y-104478571D01*
X95011904Y-104383333D01*
X94916666Y-104335714D01*
X94726189Y-104335714D01*
X94630951Y-104383333D01*
X94583332Y-104478571D01*
X94583332Y-104573810D01*
X95059523Y-104669048D01*
X93726189Y-105002381D02*
X93726189Y-104002381D01*
X93726189Y-104954762D02*
X93821427Y-105002381D01*
X94011904Y-105002381D01*
X94107142Y-104954762D01*
X94154761Y-104907143D01*
X94202380Y-104811905D01*
X94202380Y-104526190D01*
X94154761Y-104430952D01*
X94107142Y-104383333D01*
X94011904Y-104335714D01*
X93821427Y-104335714D01*
X93726189Y-104383333D01*
X93249999Y-104907143D02*
X93202380Y-104954762D01*
X93249999Y-105002381D01*
X93297618Y-104954762D01*
X93249999Y-104907143D01*
X93249999Y-105002381D01*
X92345237Y-104954762D02*
X92440475Y-105002381D01*
X92630952Y-105002381D01*
X92726190Y-104954762D01*
X92773809Y-104907143D01*
X92821428Y-104811905D01*
X92821428Y-104526190D01*
X92773809Y-104430952D01*
X92726190Y-104383333D01*
X92630952Y-104335714D01*
X92440475Y-104335714D01*
X92345237Y-104383333D01*
X91773809Y-105002381D02*
X91869047Y-104954762D01*
X91916666Y-104907143D01*
X91964285Y-104811905D01*
X91964285Y-104526190D01*
X91916666Y-104430952D01*
X91869047Y-104383333D01*
X91773809Y-104335714D01*
X91630951Y-104335714D01*
X91535713Y-104383333D01*
X91488094Y-104430952D01*
X91440475Y-104526190D01*
X91440475Y-104811905D01*
X91488094Y-104907143D01*
X91535713Y-104954762D01*
X91630951Y-105002381D01*
X91773809Y-105002381D01*
X91011904Y-105002381D02*
X91011904Y-104335714D01*
X91011904Y-104430952D02*
X90964285Y-104383333D01*
X90869047Y-104335714D01*
X90726189Y-104335714D01*
X90630951Y-104383333D01*
X90583332Y-104478571D01*
X90583332Y-105002381D01*
X90583332Y-104478571D02*
X90535713Y-104383333D01*
X90440475Y-104335714D01*
X90297618Y-104335714D01*
X90202380Y-104383333D01*
X90154761Y-104478571D01*
X90154761Y-105002381D01*
D12*
X146000000Y-97050000D02*
X146000000Y-96550000D01*
X146000000Y-96550000D02*
X86000000Y-96550000D01*
X86000000Y-96550000D02*
X86000000Y-116050000D01*
X86000000Y-116050000D02*
X146000000Y-116050000D01*
X146000000Y-116050000D02*
X146000000Y-97050000D01*
X146000000Y-96500000D02*
X146000000Y-77500000D01*
X86000000Y-96500000D02*
X146000000Y-96500000D01*
X86000000Y-77000000D02*
X86000000Y-96500000D01*
X146000000Y-77000000D02*
X86000000Y-77000000D01*
X146000000Y-77500000D02*
X146000000Y-77000000D01*
D11*
X106345239Y-84928571D02*
X106011905Y-84928571D01*
X105869048Y-85452381D02*
X106345239Y-85452381D01*
X106345239Y-84452381D01*
X105869048Y-84452381D01*
X105535715Y-85452381D02*
X105011905Y-84785714D01*
X105535715Y-84785714D02*
X105011905Y-85452381D01*
X104630953Y-84785714D02*
X104630953Y-85785714D01*
X104630953Y-84833333D02*
X104535715Y-84785714D01*
X104345238Y-84785714D01*
X104250000Y-84833333D01*
X104202381Y-84880952D01*
X104154762Y-84976190D01*
X104154762Y-85261905D01*
X104202381Y-85357143D01*
X104250000Y-85404762D01*
X104345238Y-85452381D01*
X104535715Y-85452381D01*
X104630953Y-85404762D01*
X103583334Y-85452381D02*
X103678572Y-85404762D01*
X103726191Y-85309524D01*
X103726191Y-84452381D01*
X103059524Y-85452381D02*
X103154762Y-85404762D01*
X103202381Y-85357143D01*
X103250000Y-85261905D01*
X103250000Y-84976190D01*
X103202381Y-84880952D01*
X103154762Y-84833333D01*
X103059524Y-84785714D01*
X102916666Y-84785714D01*
X102821428Y-84833333D01*
X102773809Y-84880952D01*
X102726190Y-84976190D01*
X102726190Y-85261905D01*
X102773809Y-85357143D01*
X102821428Y-85404762D01*
X102916666Y-85452381D01*
X103059524Y-85452381D01*
X102297619Y-85452381D02*
X102297619Y-84785714D01*
X102297619Y-84976190D02*
X102250000Y-84880952D01*
X102202381Y-84833333D01*
X102107143Y-84785714D01*
X102011904Y-84785714D01*
X101297618Y-85404762D02*
X101392856Y-85452381D01*
X101583333Y-85452381D01*
X101678571Y-85404762D01*
X101726190Y-85309524D01*
X101726190Y-84928571D01*
X101678571Y-84833333D01*
X101583333Y-84785714D01*
X101392856Y-84785714D01*
X101297618Y-84833333D01*
X101249999Y-84928571D01*
X101249999Y-85023810D01*
X101726190Y-85119048D01*
X100821428Y-84928571D02*
X100488094Y-84928571D01*
X100345237Y-85452381D02*
X100821428Y-85452381D01*
X100821428Y-84452381D01*
X100345237Y-84452381D01*
X99916666Y-85452381D02*
X99916666Y-84785714D01*
X99916666Y-84880952D02*
X99869047Y-84833333D01*
X99773809Y-84785714D01*
X99630951Y-84785714D01*
X99535713Y-84833333D01*
X99488094Y-84928571D01*
X99488094Y-85452381D01*
X99488094Y-84928571D02*
X99440475Y-84833333D01*
X99345237Y-84785714D01*
X99202380Y-84785714D01*
X99107142Y-84833333D01*
X99059523Y-84928571D01*
X99059523Y-85452381D01*
X98583333Y-85452381D02*
X98583333Y-84452381D01*
X98583333Y-84833333D02*
X98488095Y-84785714D01*
X98297618Y-84785714D01*
X98202380Y-84833333D01*
X98154761Y-84880952D01*
X98107142Y-84976190D01*
X98107142Y-85261905D01*
X98154761Y-85357143D01*
X98202380Y-85404762D01*
X98297618Y-85452381D01*
X98488095Y-85452381D01*
X98583333Y-85404762D01*
X97297618Y-85404762D02*
X97392856Y-85452381D01*
X97583333Y-85452381D01*
X97678571Y-85404762D01*
X97726190Y-85309524D01*
X97726190Y-84928571D01*
X97678571Y-84833333D01*
X97583333Y-84785714D01*
X97392856Y-84785714D01*
X97297618Y-84833333D01*
X97249999Y-84928571D01*
X97249999Y-85023810D01*
X97726190Y-85119048D01*
X96392856Y-85452381D02*
X96392856Y-84452381D01*
X96392856Y-85404762D02*
X96488094Y-85452381D01*
X96678571Y-85452381D01*
X96773809Y-85404762D01*
X96821428Y-85357143D01*
X96869047Y-85261905D01*
X96869047Y-84976190D01*
X96821428Y-84880952D01*
X96773809Y-84833333D01*
X96678571Y-84785714D01*
X96488094Y-84785714D01*
X96392856Y-84833333D01*
X95488094Y-85452381D02*
X95488094Y-84452381D01*
X95488094Y-85404762D02*
X95583332Y-85452381D01*
X95773809Y-85452381D01*
X95869047Y-85404762D01*
X95916666Y-85357143D01*
X95964285Y-85261905D01*
X95964285Y-84976190D01*
X95916666Y-84880952D01*
X95869047Y-84833333D01*
X95773809Y-84785714D01*
X95583332Y-84785714D01*
X95488094Y-84833333D01*
X94630951Y-85404762D02*
X94726189Y-85452381D01*
X94916666Y-85452381D01*
X95011904Y-85404762D01*
X95059523Y-85309524D01*
X95059523Y-84928571D01*
X95011904Y-84833333D01*
X94916666Y-84785714D01*
X94726189Y-84785714D01*
X94630951Y-84833333D01*
X94583332Y-84928571D01*
X94583332Y-85023810D01*
X95059523Y-85119048D01*
X93726189Y-85452381D02*
X93726189Y-84452381D01*
X93726189Y-85404762D02*
X93821427Y-85452381D01*
X94011904Y-85452381D01*
X94107142Y-85404762D01*
X94154761Y-85357143D01*
X94202380Y-85261905D01*
X94202380Y-84976190D01*
X94154761Y-84880952D01*
X94107142Y-84833333D01*
X94011904Y-84785714D01*
X93821427Y-84785714D01*
X93726189Y-84833333D01*
X93249999Y-85357143D02*
X93202380Y-85404762D01*
X93249999Y-85452381D01*
X93297618Y-85404762D01*
X93249999Y-85357143D01*
X93249999Y-85452381D01*
X92345237Y-85404762D02*
X92440475Y-85452381D01*
X92630952Y-85452381D01*
X92726190Y-85404762D01*
X92773809Y-85357143D01*
X92821428Y-85261905D01*
X92821428Y-84976190D01*
X92773809Y-84880952D01*
X92726190Y-84833333D01*
X92630952Y-84785714D01*
X92440475Y-84785714D01*
X92345237Y-84833333D01*
X91773809Y-85452381D02*
X91869047Y-85404762D01*
X91916666Y-85357143D01*
X91964285Y-85261905D01*
X91964285Y-84976190D01*
X91916666Y-84880952D01*
X91869047Y-84833333D01*
X91773809Y-84785714D01*
X91630951Y-84785714D01*
X91535713Y-84833333D01*
X91488094Y-84880952D01*
X91440475Y-84976190D01*
X91440475Y-85261905D01*
X91488094Y-85357143D01*
X91535713Y-85404762D01*
X91630951Y-85452381D01*
X91773809Y-85452381D01*
X91011904Y-85452381D02*
X91011904Y-84785714D01*
X91011904Y-84880952D02*
X90964285Y-84833333D01*
X90869047Y-84785714D01*
X90726189Y-84785714D01*
X90630951Y-84833333D01*
X90583332Y-84928571D01*
X90583332Y-85452381D01*
X90583332Y-84928571D02*
X90535713Y-84833333D01*
X90440475Y-84785714D01*
X90297618Y-84785714D01*
X90202380Y-84833333D01*
X90154761Y-84928571D01*
X90154761Y-85452381D01*
D12*
X187480000Y-82770000D02*
X187480000Y-95470000D01*
X187480000Y-95470000D02*
X190020000Y-95470000D01*
X190020000Y-95470000D02*
X190020000Y-82770000D01*
X187200000Y-79950000D02*
X187200000Y-81500000D01*
X187480000Y-82770000D02*
X190020000Y-82770000D01*
X190300000Y-81500000D02*
X190300000Y-79950000D01*
X190300000Y-79950000D02*
X187200000Y-79950000D01*
D13*
X192090000Y-82120000D02*
X192090000Y-82580000D01*
X192000000Y-82120000D02*
X191950000Y-82120000D01*
X192050000Y-82150000D02*
X192000000Y-82120000D01*
X192070000Y-82170000D02*
X192050000Y-82150000D01*
X192090000Y-82240000D02*
X192070000Y-82170000D01*
X191650000Y-82580000D02*
X191600000Y-82550000D01*
X191750000Y-82580000D02*
X191650000Y-82580000D01*
X191790000Y-82550000D02*
X191750000Y-82580000D01*
X191810000Y-82480000D02*
X191790000Y-82550000D01*
X191810000Y-82210000D02*
X191810000Y-82480000D01*
X191780000Y-82150000D02*
X191810000Y-82210000D01*
X191740000Y-82120000D02*
X191780000Y-82150000D01*
X191640000Y-82120000D02*
X191740000Y-82120000D01*
X191600000Y-82160000D02*
X191640000Y-82120000D01*
X191580000Y-82230000D02*
X191600000Y-82160000D01*
X191580000Y-82350000D02*
X191580000Y-82230000D01*
X191580000Y-82350000D02*
X191810000Y-82350000D01*
X192330000Y-82210000D02*
X192330000Y-82580000D01*
X192360000Y-82150000D02*
X192330000Y-82210000D01*
X192400000Y-82120000D02*
X192360000Y-82150000D01*
X192500000Y-82120000D02*
X192400000Y-82120000D01*
X192550000Y-82150000D02*
X192500000Y-82120000D01*
X192490000Y-82310000D02*
X192540000Y-82340000D01*
X192370000Y-82310000D02*
X192490000Y-82310000D01*
X192330000Y-82280000D02*
X192370000Y-82310000D01*
X192380000Y-82580000D02*
X192330000Y-82540000D01*
X192500000Y-82580000D02*
X192380000Y-82580000D01*
X192550000Y-82540000D02*
X192500000Y-82580000D01*
X192570000Y-82480000D02*
X192550000Y-82540000D01*
X192570000Y-82410000D02*
X192570000Y-82480000D01*
X192540000Y-82340000D02*
X192570000Y-82410000D01*
X193120000Y-82120000D02*
X193020000Y-82580000D01*
X193020000Y-82580000D02*
X192930000Y-82240000D01*
X192930000Y-82240000D02*
X192830000Y-82580000D01*
X192830000Y-82580000D02*
X192730000Y-82120000D01*
X193310000Y-82550000D02*
X193350000Y-82580000D01*
X193350000Y-82580000D02*
X193460000Y-82580000D01*
X193460000Y-82580000D02*
X193500000Y-82550000D01*
X193500000Y-82550000D02*
X193520000Y-82520000D01*
X193520000Y-82520000D02*
X193550000Y-82450000D01*
X193550000Y-82450000D02*
X193550000Y-82250000D01*
X193550000Y-82250000D02*
X193520000Y-82180000D01*
X193520000Y-82180000D02*
X193500000Y-82150000D01*
X193500000Y-82150000D02*
X193440000Y-82110000D01*
X193440000Y-82110000D02*
X193370000Y-82110000D01*
X193370000Y-82110000D02*
X193310000Y-82150000D01*
X193310000Y-81880000D02*
X193310000Y-82580000D01*
X193830000Y-82240000D02*
X193810000Y-82170000D01*
X193810000Y-82170000D02*
X193790000Y-82150000D01*
X193790000Y-82150000D02*
X193740000Y-82120000D01*
X193740000Y-82120000D02*
X193690000Y-82120000D01*
X193830000Y-82120000D02*
X193830000Y-82580000D01*
X194280000Y-82340000D02*
X194310000Y-82410000D01*
X194310000Y-82410000D02*
X194310000Y-82480000D01*
X194310000Y-82480000D02*
X194290000Y-82540000D01*
X194290000Y-82540000D02*
X194240000Y-82580000D01*
X194240000Y-82580000D02*
X194120000Y-82580000D01*
X194120000Y-82580000D02*
X194070000Y-82540000D01*
X194070000Y-82280000D02*
X194110000Y-82310000D01*
X194110000Y-82310000D02*
X194230000Y-82310000D01*
X194230000Y-82310000D02*
X194280000Y-82340000D01*
X194290000Y-82150000D02*
X194240000Y-82120000D01*
X194240000Y-82120000D02*
X194140000Y-82120000D01*
X194140000Y-82120000D02*
X194100000Y-82150000D01*
X194100000Y-82150000D02*
X194070000Y-82210000D01*
X194070000Y-82210000D02*
X194070000Y-82580000D01*
X194740000Y-82190000D02*
X194720000Y-82150000D01*
X194720000Y-82150000D02*
X194670000Y-82120000D01*
X194670000Y-82120000D02*
X194590000Y-82120000D01*
X194590000Y-82120000D02*
X194550000Y-82150000D01*
X194550000Y-82150000D02*
X194530000Y-82210000D01*
X194530000Y-82210000D02*
X194530000Y-82580000D01*
X194740000Y-81880000D02*
X194740000Y-82580000D01*
X195790000Y-82350000D02*
X196020000Y-82350000D01*
X195570000Y-82180000D02*
X195550000Y-82150000D01*
X195550000Y-82150000D02*
X195510000Y-82120000D01*
X195510000Y-82120000D02*
X195420000Y-82120000D01*
X195420000Y-82120000D02*
X195380000Y-82150000D01*
X195380000Y-82150000D02*
X195360000Y-82210000D01*
X195360000Y-82210000D02*
X195360000Y-82580000D01*
X195570000Y-82120000D02*
X195570000Y-82580000D01*
X195790000Y-82350000D02*
X195790000Y-82230000D01*
X195790000Y-82230000D02*
X195810000Y-82160000D01*
X195810000Y-82160000D02*
X195850000Y-82120000D01*
X195850000Y-82120000D02*
X195950000Y-82120000D01*
X195950000Y-82120000D02*
X195990000Y-82150000D01*
X195990000Y-82150000D02*
X196020000Y-82210000D01*
X196020000Y-82210000D02*
X196020000Y-82480000D01*
X196020000Y-82480000D02*
X196000000Y-82550000D01*
X196000000Y-82550000D02*
X195960000Y-82580000D01*
X195960000Y-82580000D02*
X195860000Y-82580000D01*
X195860000Y-82580000D02*
X195810000Y-82550000D01*
X196450000Y-82150000D02*
X196410000Y-82120000D01*
X196410000Y-82120000D02*
X196310000Y-82120000D01*
X196310000Y-82120000D02*
X196270000Y-82150000D01*
X196270000Y-82150000D02*
X196240000Y-82180000D01*
X196240000Y-82180000D02*
X196220000Y-82240000D01*
X196220000Y-82240000D02*
X196220000Y-82460000D01*
X196220000Y-82460000D02*
X196240000Y-82520000D01*
X196240000Y-82520000D02*
X196260000Y-82550000D01*
X196260000Y-82550000D02*
X196300000Y-82580000D01*
X196300000Y-82580000D02*
X196400000Y-82580000D01*
X196400000Y-82580000D02*
X196450000Y-82550000D01*
X196450000Y-82820000D02*
X196450000Y-82120000D01*
X196760000Y-82120000D02*
X196840000Y-82120000D01*
X196840000Y-82120000D02*
X196880000Y-82150000D01*
X196880000Y-82150000D02*
X196900000Y-82180000D01*
X196900000Y-82180000D02*
X196930000Y-82250000D01*
X196840000Y-82580000D02*
X196760000Y-82580000D01*
X196760000Y-82580000D02*
X196710000Y-82550000D01*
X196710000Y-82550000D02*
X196690000Y-82520000D01*
X196690000Y-82520000D02*
X196670000Y-82450000D01*
X196670000Y-82450000D02*
X196670000Y-82250000D01*
X196670000Y-82250000D02*
X196690000Y-82190000D01*
X196690000Y-82190000D02*
X196710000Y-82160000D01*
X196710000Y-82160000D02*
X196760000Y-82120000D01*
X196930000Y-82250000D02*
X196930000Y-82450000D01*
X196930000Y-82450000D02*
X196910000Y-82510000D01*
X196910000Y-82510000D02*
X196890000Y-82540000D01*
X196890000Y-82540000D02*
X196840000Y-82580000D01*
D14*
G36*
X195763840Y-81745360D02*
X195738440Y-81730120D01*
X195680020Y-81694560D01*
X195596200Y-81638680D01*
X195497140Y-81572640D01*
X195398080Y-81506600D01*
X195316800Y-81453260D01*
X195260920Y-81415160D01*
X195235520Y-81402460D01*
X195222820Y-81407540D01*
X195177100Y-81430400D01*
X195108520Y-81465960D01*
X195067880Y-81486280D01*
X195006920Y-81511680D01*
X194973900Y-81519300D01*
X194968820Y-81509140D01*
X194945960Y-81460880D01*
X194910400Y-81379600D01*
X194864680Y-81270380D01*
X194808800Y-81143380D01*
X194752920Y-81008760D01*
X194694500Y-80869060D01*
X194638620Y-80734440D01*
X194590360Y-80615060D01*
X194549720Y-80518540D01*
X194524320Y-80449960D01*
X194514160Y-80422020D01*
X194516700Y-80414400D01*
X194549720Y-80383920D01*
X194603060Y-80343280D01*
X194722440Y-80246760D01*
X194839280Y-80101980D01*
X194910400Y-79936880D01*
X194933260Y-79751460D01*
X194912940Y-79581280D01*
X194846900Y-79418720D01*
X194732600Y-79271400D01*
X194592900Y-79162180D01*
X194430340Y-79093600D01*
X194250000Y-79070740D01*
X194077280Y-79091060D01*
X193909640Y-79157100D01*
X193762320Y-79268860D01*
X193698820Y-79339980D01*
X193612460Y-79489840D01*
X193564200Y-79647320D01*
X193559120Y-79687960D01*
X193566740Y-79863220D01*
X193617540Y-80033400D01*
X193711520Y-80183260D01*
X193841060Y-80307720D01*
X193856300Y-80317880D01*
X193914720Y-80363600D01*
X193955360Y-80394080D01*
X193985840Y-80419480D01*
X193762320Y-80957960D01*
X193726760Y-81041780D01*
X193665800Y-81189100D01*
X193612460Y-81316100D01*
X193569280Y-81417700D01*
X193538800Y-81483740D01*
X193526100Y-81511680D01*
X193526100Y-81514220D01*
X193505780Y-81516760D01*
X193465140Y-81501520D01*
X193388940Y-81465960D01*
X193340680Y-81440560D01*
X193282260Y-81412620D01*
X193256860Y-81402460D01*
X193234000Y-81415160D01*
X193180660Y-81450720D01*
X193099380Y-81504060D01*
X193002860Y-81567560D01*
X192911420Y-81631060D01*
X192827600Y-81686940D01*
X192766640Y-81725040D01*
X192736160Y-81742820D01*
X192731080Y-81742820D01*
X192705680Y-81727580D01*
X192657420Y-81686940D01*
X192583760Y-81618360D01*
X192479620Y-81514220D01*
X192464380Y-81498980D01*
X192378020Y-81412620D01*
X192309440Y-81338960D01*
X192263720Y-81288160D01*
X192245940Y-81265300D01*
X192245940Y-81265300D01*
X192261180Y-81234820D01*
X192299280Y-81173860D01*
X192355160Y-81087500D01*
X192423740Y-80988440D01*
X192601540Y-80729360D01*
X192505020Y-80485520D01*
X192474540Y-80409320D01*
X192436440Y-80320420D01*
X192408500Y-80254380D01*
X192393260Y-80226440D01*
X192367860Y-80216280D01*
X192299280Y-80201040D01*
X192202760Y-80180720D01*
X192088460Y-80160400D01*
X191976700Y-80140080D01*
X191877640Y-80119760D01*
X191806520Y-80107060D01*
X191773500Y-80099440D01*
X191765880Y-80094360D01*
X191758260Y-80079120D01*
X191755720Y-80046100D01*
X191753180Y-79985140D01*
X191750640Y-79891160D01*
X191750640Y-79751460D01*
X191750640Y-79736220D01*
X191753180Y-79606680D01*
X191755720Y-79500000D01*
X191758260Y-79433960D01*
X191763340Y-79406020D01*
X191763340Y-79406020D01*
X191793820Y-79398400D01*
X191864940Y-79383160D01*
X191964000Y-79365380D01*
X192083380Y-79342520D01*
X192091000Y-79339980D01*
X192207840Y-79317120D01*
X192306900Y-79296800D01*
X192378020Y-79281560D01*
X192405960Y-79271400D01*
X192413580Y-79263780D01*
X192436440Y-79218060D01*
X192469460Y-79144400D01*
X192510100Y-79055500D01*
X192548200Y-78961520D01*
X192581220Y-78877700D01*
X192604080Y-78816740D01*
X192611700Y-78788800D01*
X192609160Y-78786260D01*
X192591380Y-78758320D01*
X192550740Y-78697360D01*
X192494860Y-78613540D01*
X192426280Y-78511940D01*
X192421200Y-78504320D01*
X192352620Y-78405260D01*
X192296740Y-78318900D01*
X192261180Y-78260480D01*
X192245940Y-78232540D01*
X192245940Y-78230000D01*
X192268800Y-78199520D01*
X192319600Y-78143640D01*
X192393260Y-78067440D01*
X192479620Y-77978540D01*
X192507560Y-77953140D01*
X192606620Y-77856620D01*
X192672660Y-77795660D01*
X192715840Y-77762640D01*
X192736160Y-77755020D01*
X192736160Y-77755020D01*
X192766640Y-77772800D01*
X192830140Y-77813440D01*
X192913960Y-77871860D01*
X193015560Y-77940440D01*
X193023180Y-77945520D01*
X193122240Y-78014100D01*
X193206060Y-78069980D01*
X193264480Y-78110620D01*
X193292420Y-78125860D01*
X193294960Y-78125860D01*
X193335600Y-78113160D01*
X193406720Y-78087760D01*
X193495620Y-78054740D01*
X193587060Y-78016640D01*
X193670880Y-77981080D01*
X193734380Y-77953140D01*
X193764860Y-77935360D01*
X193764860Y-77935360D01*
X193775020Y-77899800D01*
X193792800Y-77823600D01*
X193813120Y-77722000D01*
X193838520Y-77600080D01*
X193841060Y-77579760D01*
X193863920Y-77460380D01*
X193881700Y-77361320D01*
X193896940Y-77292740D01*
X193904560Y-77264800D01*
X193919800Y-77262260D01*
X193978220Y-77257180D01*
X194067120Y-77254640D01*
X194176340Y-77254640D01*
X194288100Y-77254640D01*
X194397320Y-77257180D01*
X194491300Y-77259720D01*
X194559880Y-77264800D01*
X194587820Y-77269880D01*
X194587820Y-77272420D01*
X194597980Y-77310520D01*
X194615760Y-77384180D01*
X194636080Y-77488320D01*
X194658940Y-77610240D01*
X194664020Y-77633100D01*
X194686880Y-77749940D01*
X194707200Y-77849000D01*
X194719900Y-77915040D01*
X194727520Y-77942980D01*
X194740220Y-77948060D01*
X194788480Y-77968380D01*
X194867220Y-78001400D01*
X194966280Y-78042040D01*
X195194880Y-78133480D01*
X195476820Y-77942980D01*
X195502220Y-77925200D01*
X195603820Y-77856620D01*
X195685100Y-77800740D01*
X195743520Y-77762640D01*
X195766380Y-77749940D01*
X195768920Y-77749940D01*
X195796860Y-77775340D01*
X195852740Y-77828680D01*
X195928940Y-77902340D01*
X196017840Y-77988700D01*
X196081340Y-78054740D01*
X196160080Y-78133480D01*
X196208340Y-78186820D01*
X196236280Y-78219840D01*
X196243900Y-78240160D01*
X196241360Y-78255400D01*
X196223580Y-78283340D01*
X196182940Y-78344300D01*
X196124520Y-78430660D01*
X196055940Y-78529720D01*
X196000060Y-78613540D01*
X195939100Y-78707520D01*
X195901000Y-78773560D01*
X195885760Y-78806580D01*
X195890840Y-78819280D01*
X195908620Y-78875160D01*
X195944180Y-78958980D01*
X195984820Y-79058040D01*
X196083880Y-79279020D01*
X196228660Y-79306960D01*
X196317560Y-79324740D01*
X196439480Y-79347600D01*
X196558860Y-79370460D01*
X196741740Y-79406020D01*
X196749360Y-80081660D01*
X196721420Y-80094360D01*
X196693480Y-80101980D01*
X196624900Y-80117220D01*
X196528380Y-80137540D01*
X196411540Y-80157860D01*
X196315020Y-80175640D01*
X196215960Y-80195960D01*
X196144840Y-80208660D01*
X196114360Y-80216280D01*
X196104200Y-80226440D01*
X196081340Y-80274700D01*
X196045780Y-80350900D01*
X196005140Y-80442340D01*
X195967040Y-80536320D01*
X195931480Y-80625220D01*
X195908620Y-80691260D01*
X195898460Y-80724280D01*
X195911160Y-80752220D01*
X195949260Y-80810640D01*
X196002600Y-80891920D01*
X196071180Y-80990980D01*
X196137220Y-81087500D01*
X196195640Y-81171320D01*
X196233740Y-81232280D01*
X196251520Y-81260220D01*
X196241360Y-81278000D01*
X196203260Y-81326260D01*
X196129600Y-81402460D01*
X196017840Y-81511680D01*
X196000060Y-81529460D01*
X195913700Y-81613280D01*
X195840040Y-81681860D01*
X195786700Y-81727580D01*
X195763840Y-81745360D01*
X195763840Y-81745360D01*
G37*
X195763840Y-81745360D02*
X195738440Y-81730120D01*
X195680020Y-81694560D01*
X195596200Y-81638680D01*
X195497140Y-81572640D01*
X195398080Y-81506600D01*
X195316800Y-81453260D01*
X195260920Y-81415160D01*
X195235520Y-81402460D01*
X195222820Y-81407540D01*
X195177100Y-81430400D01*
X195108520Y-81465960D01*
X195067880Y-81486280D01*
X195006920Y-81511680D01*
X194973900Y-81519300D01*
X194968820Y-81509140D01*
X194945960Y-81460880D01*
X194910400Y-81379600D01*
X194864680Y-81270380D01*
X194808800Y-81143380D01*
X194752920Y-81008760D01*
X194694500Y-80869060D01*
X194638620Y-80734440D01*
X194590360Y-80615060D01*
X194549720Y-80518540D01*
X194524320Y-80449960D01*
X194514160Y-80422020D01*
X194516700Y-80414400D01*
X194549720Y-80383920D01*
X194603060Y-80343280D01*
X194722440Y-80246760D01*
X194839280Y-80101980D01*
X194910400Y-79936880D01*
X194933260Y-79751460D01*
X194912940Y-79581280D01*
X194846900Y-79418720D01*
X194732600Y-79271400D01*
X194592900Y-79162180D01*
X194430340Y-79093600D01*
X194250000Y-79070740D01*
X194077280Y-79091060D01*
X193909640Y-79157100D01*
X193762320Y-79268860D01*
X193698820Y-79339980D01*
X193612460Y-79489840D01*
X193564200Y-79647320D01*
X193559120Y-79687960D01*
X193566740Y-79863220D01*
X193617540Y-80033400D01*
X193711520Y-80183260D01*
X193841060Y-80307720D01*
X193856300Y-80317880D01*
X193914720Y-80363600D01*
X193955360Y-80394080D01*
X193985840Y-80419480D01*
X193762320Y-80957960D01*
X193726760Y-81041780D01*
X193665800Y-81189100D01*
X193612460Y-81316100D01*
X193569280Y-81417700D01*
X193538800Y-81483740D01*
X193526100Y-81511680D01*
X193526100Y-81514220D01*
X193505780Y-81516760D01*
X193465140Y-81501520D01*
X193388940Y-81465960D01*
X193340680Y-81440560D01*
X193282260Y-81412620D01*
X193256860Y-81402460D01*
X193234000Y-81415160D01*
X193180660Y-81450720D01*
X193099380Y-81504060D01*
X193002860Y-81567560D01*
X192911420Y-81631060D01*
X192827600Y-81686940D01*
X192766640Y-81725040D01*
X192736160Y-81742820D01*
X192731080Y-81742820D01*
X192705680Y-81727580D01*
X192657420Y-81686940D01*
X192583760Y-81618360D01*
X192479620Y-81514220D01*
X192464380Y-81498980D01*
X192378020Y-81412620D01*
X192309440Y-81338960D01*
X192263720Y-81288160D01*
X192245940Y-81265300D01*
X192245940Y-81265300D01*
X192261180Y-81234820D01*
X192299280Y-81173860D01*
X192355160Y-81087500D01*
X192423740Y-80988440D01*
X192601540Y-80729360D01*
X192505020Y-80485520D01*
X192474540Y-80409320D01*
X192436440Y-80320420D01*
X192408500Y-80254380D01*
X192393260Y-80226440D01*
X192367860Y-80216280D01*
X192299280Y-80201040D01*
X192202760Y-80180720D01*
X192088460Y-80160400D01*
X191976700Y-80140080D01*
X191877640Y-80119760D01*
X191806520Y-80107060D01*
X191773500Y-80099440D01*
X191765880Y-80094360D01*
X191758260Y-80079120D01*
X191755720Y-80046100D01*
X191753180Y-79985140D01*
X191750640Y-79891160D01*
X191750640Y-79751460D01*
X191750640Y-79736220D01*
X191753180Y-79606680D01*
X191755720Y-79500000D01*
X191758260Y-79433960D01*
X191763340Y-79406020D01*
X191763340Y-79406020D01*
X191793820Y-79398400D01*
X191864940Y-79383160D01*
X191964000Y-79365380D01*
X192083380Y-79342520D01*
X192091000Y-79339980D01*
X192207840Y-79317120D01*
X192306900Y-79296800D01*
X192378020Y-79281560D01*
X192405960Y-79271400D01*
X192413580Y-79263780D01*
X192436440Y-79218060D01*
X192469460Y-79144400D01*
X192510100Y-79055500D01*
X192548200Y-78961520D01*
X192581220Y-78877700D01*
X192604080Y-78816740D01*
X192611700Y-78788800D01*
X192609160Y-78786260D01*
X192591380Y-78758320D01*
X192550740Y-78697360D01*
X192494860Y-78613540D01*
X192426280Y-78511940D01*
X192421200Y-78504320D01*
X192352620Y-78405260D01*
X192296740Y-78318900D01*
X192261180Y-78260480D01*
X192245940Y-78232540D01*
X192245940Y-78230000D01*
X192268800Y-78199520D01*
X192319600Y-78143640D01*
X192393260Y-78067440D01*
X192479620Y-77978540D01*
X192507560Y-77953140D01*
X192606620Y-77856620D01*
X192672660Y-77795660D01*
X192715840Y-77762640D01*
X192736160Y-77755020D01*
X192736160Y-77755020D01*
X192766640Y-77772800D01*
X192830140Y-77813440D01*
X192913960Y-77871860D01*
X193015560Y-77940440D01*
X193023180Y-77945520D01*
X193122240Y-78014100D01*
X193206060Y-78069980D01*
X193264480Y-78110620D01*
X193292420Y-78125860D01*
X193294960Y-78125860D01*
X193335600Y-78113160D01*
X193406720Y-78087760D01*
X193495620Y-78054740D01*
X193587060Y-78016640D01*
X193670880Y-77981080D01*
X193734380Y-77953140D01*
X193764860Y-77935360D01*
X193764860Y-77935360D01*
X193775020Y-77899800D01*
X193792800Y-77823600D01*
X193813120Y-77722000D01*
X193838520Y-77600080D01*
X193841060Y-77579760D01*
X193863920Y-77460380D01*
X193881700Y-77361320D01*
X193896940Y-77292740D01*
X193904560Y-77264800D01*
X193919800Y-77262260D01*
X193978220Y-77257180D01*
X194067120Y-77254640D01*
X194176340Y-77254640D01*
X194288100Y-77254640D01*
X194397320Y-77257180D01*
X194491300Y-77259720D01*
X194559880Y-77264800D01*
X194587820Y-77269880D01*
X194587820Y-77272420D01*
X194597980Y-77310520D01*
X194615760Y-77384180D01*
X194636080Y-77488320D01*
X194658940Y-77610240D01*
X194664020Y-77633100D01*
X194686880Y-77749940D01*
X194707200Y-77849000D01*
X194719900Y-77915040D01*
X194727520Y-77942980D01*
X194740220Y-77948060D01*
X194788480Y-77968380D01*
X194867220Y-78001400D01*
X194966280Y-78042040D01*
X195194880Y-78133480D01*
X195476820Y-77942980D01*
X195502220Y-77925200D01*
X195603820Y-77856620D01*
X195685100Y-77800740D01*
X195743520Y-77762640D01*
X195766380Y-77749940D01*
X195768920Y-77749940D01*
X195796860Y-77775340D01*
X195852740Y-77828680D01*
X195928940Y-77902340D01*
X196017840Y-77988700D01*
X196081340Y-78054740D01*
X196160080Y-78133480D01*
X196208340Y-78186820D01*
X196236280Y-78219840D01*
X196243900Y-78240160D01*
X196241360Y-78255400D01*
X196223580Y-78283340D01*
X196182940Y-78344300D01*
X196124520Y-78430660D01*
X196055940Y-78529720D01*
X196000060Y-78613540D01*
X195939100Y-78707520D01*
X195901000Y-78773560D01*
X195885760Y-78806580D01*
X195890840Y-78819280D01*
X195908620Y-78875160D01*
X195944180Y-78958980D01*
X195984820Y-79058040D01*
X196083880Y-79279020D01*
X196228660Y-79306960D01*
X196317560Y-79324740D01*
X196439480Y-79347600D01*
X196558860Y-79370460D01*
X196741740Y-79406020D01*
X196749360Y-80081660D01*
X196721420Y-80094360D01*
X196693480Y-80101980D01*
X196624900Y-80117220D01*
X196528380Y-80137540D01*
X196411540Y-80157860D01*
X196315020Y-80175640D01*
X196215960Y-80195960D01*
X196144840Y-80208660D01*
X196114360Y-80216280D01*
X196104200Y-80226440D01*
X196081340Y-80274700D01*
X196045780Y-80350900D01*
X196005140Y-80442340D01*
X195967040Y-80536320D01*
X195931480Y-80625220D01*
X195908620Y-80691260D01*
X195898460Y-80724280D01*
X195911160Y-80752220D01*
X195949260Y-80810640D01*
X196002600Y-80891920D01*
X196071180Y-80990980D01*
X196137220Y-81087500D01*
X196195640Y-81171320D01*
X196233740Y-81232280D01*
X196251520Y-81260220D01*
X196241360Y-81278000D01*
X196203260Y-81326260D01*
X196129600Y-81402460D01*
X196017840Y-81511680D01*
X196000060Y-81529460D01*
X195913700Y-81613280D01*
X195840040Y-81681860D01*
X195786700Y-81727580D01*
X195763840Y-81745360D01*
D15*
X147798960Y-90300480D02*
X147100460Y-91600960D01*
X149201040Y-90300480D02*
X149899540Y-91600960D01*
X149201040Y-87699520D02*
X149899540Y-86399040D01*
X147100460Y-86399040D02*
X147798960Y-87699520D01*
X147100460Y-86399040D02*
X147100460Y-91600960D01*
X147100460Y-91600960D02*
X149899540Y-91600960D01*
X149899540Y-91600960D02*
X149899540Y-86399040D01*
X149899540Y-86399040D02*
X147100460Y-86399040D01*
X147798960Y-87699520D02*
X147798960Y-90300480D01*
X147798960Y-90300480D02*
X149201040Y-90300480D01*
X149201040Y-90300480D02*
X149201040Y-87699520D01*
X149201040Y-87699520D02*
X147798960Y-87699520D01*
X146699140Y-86000260D02*
X146699140Y-91999740D01*
X146699140Y-91999740D02*
X150300860Y-91999740D01*
X150300860Y-91999740D02*
X150300860Y-86000260D01*
X150300860Y-86000260D02*
X146699140Y-86000260D01*
D12*
X200500760Y-90000000D02*
G75*
G03X200500760Y-90000000I-1000760J0D01*
G01*
X205700140Y-90000000D02*
G75*
G03X205700140Y-90000000I-6200140J0D01*
G01*
X178900000Y-86125000D02*
X177900000Y-86125000D01*
X177900000Y-87475000D02*
X178900000Y-87475000D01*
X176925000Y-94375000D02*
X176925000Y-93375000D01*
X175575000Y-93375000D02*
X175575000Y-94375000D01*
X178450000Y-95075000D02*
X179450000Y-95075000D01*
X179450000Y-93725000D02*
X178450000Y-93725000D01*
X173200000Y-92550000D02*
X173200000Y-91850000D01*
X172000000Y-91850000D02*
X172000000Y-92550000D01*
X151900000Y-93100000D02*
X152600000Y-93100000D01*
X152600000Y-91900000D02*
X151900000Y-91900000D01*
D16*
X174172500Y-90948500D02*
X174172500Y-91608900D01*
X176077500Y-90948500D02*
X176077500Y-91608900D01*
X175125000Y-89551500D02*
X175125000Y-88891100D01*
X176623600Y-89551500D02*
X173626400Y-89551500D01*
X173626400Y-89551500D02*
X173626400Y-90948500D01*
X173626400Y-90948500D02*
X176623600Y-90948500D01*
X176623600Y-90948500D02*
X176623600Y-89551500D01*
X179702500Y-90726500D02*
X179702500Y-90066100D01*
X177797500Y-90726500D02*
X177797500Y-90066100D01*
X178750000Y-92123500D02*
X178750000Y-92783900D01*
X177251400Y-92123500D02*
X180248600Y-92123500D01*
X180248600Y-92123500D02*
X180248600Y-90726500D01*
X180248600Y-90726500D02*
X177251400Y-90726500D01*
X177251400Y-90726500D02*
X177251400Y-92123500D01*
D17*
X186778000Y-81698000D02*
X162140000Y-81698000D01*
X162140000Y-81698000D02*
X162140000Y-95922000D01*
X162140000Y-95922000D02*
X186778000Y-95922000D01*
X186778000Y-95922000D02*
X186778000Y-81698000D01*
X183730000Y-83730000D02*
X186270000Y-83730000D01*
X186270000Y-83730000D02*
X186270000Y-86270000D01*
X186270000Y-86270000D02*
X186270000Y-93890000D01*
X186270000Y-93890000D02*
X181190000Y-93890000D01*
X181190000Y-93890000D02*
X181190000Y-83730000D01*
X181190000Y-83730000D02*
X183730000Y-83730000D01*
X186778000Y-101248000D02*
X162140000Y-101248000D01*
X162140000Y-101248000D02*
X162140000Y-115472000D01*
X162140000Y-115472000D02*
X186778000Y-115472000D01*
X186778000Y-115472000D02*
X186778000Y-101248000D01*
X183730000Y-103280000D02*
X186270000Y-103280000D01*
X186270000Y-103280000D02*
X186270000Y-105820000D01*
X186270000Y-105820000D02*
X186270000Y-113440000D01*
X186270000Y-113440000D02*
X181190000Y-113440000D01*
X181190000Y-113440000D02*
X181190000Y-103280000D01*
X181190000Y-103280000D02*
X183730000Y-103280000D01*
D16*
X179702500Y-110276500D02*
X179702500Y-109616100D01*
X177797500Y-110276500D02*
X177797500Y-109616100D01*
X178750000Y-111673500D02*
X178750000Y-112333900D01*
X177251400Y-111673500D02*
X180248600Y-111673500D01*
X180248600Y-111673500D02*
X180248600Y-110276500D01*
X180248600Y-110276500D02*
X177251400Y-110276500D01*
X177251400Y-110276500D02*
X177251400Y-111673500D01*
X174172500Y-110498500D02*
X174172500Y-111158900D01*
X176077500Y-110498500D02*
X176077500Y-111158900D01*
X175125000Y-109101500D02*
X175125000Y-108441100D01*
X176623600Y-109101500D02*
X173626400Y-109101500D01*
X173626400Y-109101500D02*
X173626400Y-110498500D01*
X173626400Y-110498500D02*
X176623600Y-110498500D01*
X176623600Y-110498500D02*
X176623600Y-109101500D01*
D12*
X151900000Y-112650000D02*
X152600000Y-112650000D01*
X152600000Y-111450000D02*
X151900000Y-111450000D01*
X173200000Y-112100000D02*
X173200000Y-111400000D01*
X172000000Y-111400000D02*
X172000000Y-112100000D01*
X178450000Y-114625000D02*
X179450000Y-114625000D01*
X179450000Y-113275000D02*
X178450000Y-113275000D01*
X176925000Y-113925000D02*
X176925000Y-112925000D01*
X175575000Y-112925000D02*
X175575000Y-113925000D01*
X178900000Y-105675000D02*
X177900000Y-105675000D01*
X177900000Y-107025000D02*
X178900000Y-107025000D01*
X200500760Y-109550000D02*
G75*
G03X200500760Y-109550000I-1000760J0D01*
G01*
X205700140Y-109550000D02*
G75*
G03X205700140Y-109550000I-6200140J0D01*
G01*
D15*
X147798960Y-109850480D02*
X147100460Y-111150960D01*
X149201040Y-109850480D02*
X149899540Y-111150960D01*
X149201040Y-107249520D02*
X149899540Y-105949040D01*
X147100460Y-105949040D02*
X147798960Y-107249520D01*
X147100460Y-105949040D02*
X147100460Y-111150960D01*
X147100460Y-111150960D02*
X149899540Y-111150960D01*
X149899540Y-111150960D02*
X149899540Y-105949040D01*
X149899540Y-105949040D02*
X147100460Y-105949040D01*
X147798960Y-107249520D02*
X147798960Y-109850480D01*
X147798960Y-109850480D02*
X149201040Y-109850480D01*
X149201040Y-109850480D02*
X149201040Y-107249520D01*
X149201040Y-107249520D02*
X147798960Y-107249520D01*
X146699140Y-105550260D02*
X146699140Y-111549740D01*
X146699140Y-111549740D02*
X150300860Y-111549740D01*
X150300860Y-111549740D02*
X150300860Y-105550260D01*
X150300860Y-105550260D02*
X146699140Y-105550260D01*
D13*
X192090000Y-101670000D02*
X192090000Y-102130000D01*
X192000000Y-101670000D02*
X191950000Y-101670000D01*
X192050000Y-101700000D02*
X192000000Y-101670000D01*
X192070000Y-101720000D02*
X192050000Y-101700000D01*
X192090000Y-101790000D02*
X192070000Y-101720000D01*
X191650000Y-102130000D02*
X191600000Y-102100000D01*
X191750000Y-102130000D02*
X191650000Y-102130000D01*
X191790000Y-102100000D02*
X191750000Y-102130000D01*
X191810000Y-102030000D02*
X191790000Y-102100000D01*
X191810000Y-101760000D02*
X191810000Y-102030000D01*
X191780000Y-101700000D02*
X191810000Y-101760000D01*
X191740000Y-101670000D02*
X191780000Y-101700000D01*
X191640000Y-101670000D02*
X191740000Y-101670000D01*
X191600000Y-101710000D02*
X191640000Y-101670000D01*
X191580000Y-101780000D02*
X191600000Y-101710000D01*
X191580000Y-101900000D02*
X191580000Y-101780000D01*
X191580000Y-101900000D02*
X191810000Y-101900000D01*
X192330000Y-101760000D02*
X192330000Y-102130000D01*
X192360000Y-101700000D02*
X192330000Y-101760000D01*
X192400000Y-101670000D02*
X192360000Y-101700000D01*
X192500000Y-101670000D02*
X192400000Y-101670000D01*
X192550000Y-101700000D02*
X192500000Y-101670000D01*
X192490000Y-101860000D02*
X192540000Y-101890000D01*
X192370000Y-101860000D02*
X192490000Y-101860000D01*
X192330000Y-101830000D02*
X192370000Y-101860000D01*
X192380000Y-102130000D02*
X192330000Y-102090000D01*
X192500000Y-102130000D02*
X192380000Y-102130000D01*
X192550000Y-102090000D02*
X192500000Y-102130000D01*
X192570000Y-102030000D02*
X192550000Y-102090000D01*
X192570000Y-101960000D02*
X192570000Y-102030000D01*
X192540000Y-101890000D02*
X192570000Y-101960000D01*
X193120000Y-101670000D02*
X193020000Y-102130000D01*
X193020000Y-102130000D02*
X192930000Y-101790000D01*
X192930000Y-101790000D02*
X192830000Y-102130000D01*
X192830000Y-102130000D02*
X192730000Y-101670000D01*
X193310000Y-102100000D02*
X193350000Y-102130000D01*
X193350000Y-102130000D02*
X193460000Y-102130000D01*
X193460000Y-102130000D02*
X193500000Y-102100000D01*
X193500000Y-102100000D02*
X193520000Y-102070000D01*
X193520000Y-102070000D02*
X193550000Y-102000000D01*
X193550000Y-102000000D02*
X193550000Y-101800000D01*
X193550000Y-101800000D02*
X193520000Y-101730000D01*
X193520000Y-101730000D02*
X193500000Y-101700000D01*
X193500000Y-101700000D02*
X193440000Y-101660000D01*
X193440000Y-101660000D02*
X193370000Y-101660000D01*
X193370000Y-101660000D02*
X193310000Y-101700000D01*
X193310000Y-101430000D02*
X193310000Y-102130000D01*
X193830000Y-101790000D02*
X193810000Y-101720000D01*
X193810000Y-101720000D02*
X193790000Y-101700000D01*
X193790000Y-101700000D02*
X193740000Y-101670000D01*
X193740000Y-101670000D02*
X193690000Y-101670000D01*
X193830000Y-101670000D02*
X193830000Y-102130000D01*
X194280000Y-101890000D02*
X194310000Y-101960000D01*
X194310000Y-101960000D02*
X194310000Y-102030000D01*
X194310000Y-102030000D02*
X194290000Y-102090000D01*
X194290000Y-102090000D02*
X194240000Y-102130000D01*
X194240000Y-102130000D02*
X194120000Y-102130000D01*
X194120000Y-102130000D02*
X194070000Y-102090000D01*
X194070000Y-101830000D02*
X194110000Y-101860000D01*
X194110000Y-101860000D02*
X194230000Y-101860000D01*
X194230000Y-101860000D02*
X194280000Y-101890000D01*
X194290000Y-101700000D02*
X194240000Y-101670000D01*
X194240000Y-101670000D02*
X194140000Y-101670000D01*
X194140000Y-101670000D02*
X194100000Y-101700000D01*
X194100000Y-101700000D02*
X194070000Y-101760000D01*
X194070000Y-101760000D02*
X194070000Y-102130000D01*
X194740000Y-101740000D02*
X194720000Y-101700000D01*
X194720000Y-101700000D02*
X194670000Y-101670000D01*
X194670000Y-101670000D02*
X194590000Y-101670000D01*
X194590000Y-101670000D02*
X194550000Y-101700000D01*
X194550000Y-101700000D02*
X194530000Y-101760000D01*
X194530000Y-101760000D02*
X194530000Y-102130000D01*
X194740000Y-101430000D02*
X194740000Y-102130000D01*
X195790000Y-101900000D02*
X196020000Y-101900000D01*
X195570000Y-101730000D02*
X195550000Y-101700000D01*
X195550000Y-101700000D02*
X195510000Y-101670000D01*
X195510000Y-101670000D02*
X195420000Y-101670000D01*
X195420000Y-101670000D02*
X195380000Y-101700000D01*
X195380000Y-101700000D02*
X195360000Y-101760000D01*
X195360000Y-101760000D02*
X195360000Y-102130000D01*
X195570000Y-101670000D02*
X195570000Y-102130000D01*
X195790000Y-101900000D02*
X195790000Y-101780000D01*
X195790000Y-101780000D02*
X195810000Y-101710000D01*
X195810000Y-101710000D02*
X195850000Y-101670000D01*
X195850000Y-101670000D02*
X195950000Y-101670000D01*
X195950000Y-101670000D02*
X195990000Y-101700000D01*
X195990000Y-101700000D02*
X196020000Y-101760000D01*
X196020000Y-101760000D02*
X196020000Y-102030000D01*
X196020000Y-102030000D02*
X196000000Y-102100000D01*
X196000000Y-102100000D02*
X195960000Y-102130000D01*
X195960000Y-102130000D02*
X195860000Y-102130000D01*
X195860000Y-102130000D02*
X195810000Y-102100000D01*
X196450000Y-101700000D02*
X196410000Y-101670000D01*
X196410000Y-101670000D02*
X196310000Y-101670000D01*
X196310000Y-101670000D02*
X196270000Y-101700000D01*
X196270000Y-101700000D02*
X196240000Y-101730000D01*
X196240000Y-101730000D02*
X196220000Y-101790000D01*
X196220000Y-101790000D02*
X196220000Y-102010000D01*
X196220000Y-102010000D02*
X196240000Y-102070000D01*
X196240000Y-102070000D02*
X196260000Y-102100000D01*
X196260000Y-102100000D02*
X196300000Y-102130000D01*
X196300000Y-102130000D02*
X196400000Y-102130000D01*
X196400000Y-102130000D02*
X196450000Y-102100000D01*
X196450000Y-102370000D02*
X196450000Y-101670000D01*
X196760000Y-101670000D02*
X196840000Y-101670000D01*
X196840000Y-101670000D02*
X196880000Y-101700000D01*
X196880000Y-101700000D02*
X196900000Y-101730000D01*
X196900000Y-101730000D02*
X196930000Y-101800000D01*
X196840000Y-102130000D02*
X196760000Y-102130000D01*
X196760000Y-102130000D02*
X196710000Y-102100000D01*
X196710000Y-102100000D02*
X196690000Y-102070000D01*
X196690000Y-102070000D02*
X196670000Y-102000000D01*
X196670000Y-102000000D02*
X196670000Y-101800000D01*
X196670000Y-101800000D02*
X196690000Y-101740000D01*
X196690000Y-101740000D02*
X196710000Y-101710000D01*
X196710000Y-101710000D02*
X196760000Y-101670000D01*
X196930000Y-101800000D02*
X196930000Y-102000000D01*
X196930000Y-102000000D02*
X196910000Y-102060000D01*
X196910000Y-102060000D02*
X196890000Y-102090000D01*
X196890000Y-102090000D02*
X196840000Y-102130000D01*
D14*
G36*
X195763840Y-101295360D02*
X195738440Y-101280120D01*
X195680020Y-101244560D01*
X195596200Y-101188680D01*
X195497140Y-101122640D01*
X195398080Y-101056600D01*
X195316800Y-101003260D01*
X195260920Y-100965160D01*
X195235520Y-100952460D01*
X195222820Y-100957540D01*
X195177100Y-100980400D01*
X195108520Y-101015960D01*
X195067880Y-101036280D01*
X195006920Y-101061680D01*
X194973900Y-101069300D01*
X194968820Y-101059140D01*
X194945960Y-101010880D01*
X194910400Y-100929600D01*
X194864680Y-100820380D01*
X194808800Y-100693380D01*
X194752920Y-100558760D01*
X194694500Y-100419060D01*
X194638620Y-100284440D01*
X194590360Y-100165060D01*
X194549720Y-100068540D01*
X194524320Y-99999960D01*
X194514160Y-99972020D01*
X194516700Y-99964400D01*
X194549720Y-99933920D01*
X194603060Y-99893280D01*
X194722440Y-99796760D01*
X194839280Y-99651980D01*
X194910400Y-99486880D01*
X194933260Y-99301460D01*
X194912940Y-99131280D01*
X194846900Y-98968720D01*
X194732600Y-98821400D01*
X194592900Y-98712180D01*
X194430340Y-98643600D01*
X194250000Y-98620740D01*
X194077280Y-98641060D01*
X193909640Y-98707100D01*
X193762320Y-98818860D01*
X193698820Y-98889980D01*
X193612460Y-99039840D01*
X193564200Y-99197320D01*
X193559120Y-99237960D01*
X193566740Y-99413220D01*
X193617540Y-99583400D01*
X193711520Y-99733260D01*
X193841060Y-99857720D01*
X193856300Y-99867880D01*
X193914720Y-99913600D01*
X193955360Y-99944080D01*
X193985840Y-99969480D01*
X193762320Y-100507960D01*
X193726760Y-100591780D01*
X193665800Y-100739100D01*
X193612460Y-100866100D01*
X193569280Y-100967700D01*
X193538800Y-101033740D01*
X193526100Y-101061680D01*
X193526100Y-101064220D01*
X193505780Y-101066760D01*
X193465140Y-101051520D01*
X193388940Y-101015960D01*
X193340680Y-100990560D01*
X193282260Y-100962620D01*
X193256860Y-100952460D01*
X193234000Y-100965160D01*
X193180660Y-101000720D01*
X193099380Y-101054060D01*
X193002860Y-101117560D01*
X192911420Y-101181060D01*
X192827600Y-101236940D01*
X192766640Y-101275040D01*
X192736160Y-101292820D01*
X192731080Y-101292820D01*
X192705680Y-101277580D01*
X192657420Y-101236940D01*
X192583760Y-101168360D01*
X192479620Y-101064220D01*
X192464380Y-101048980D01*
X192378020Y-100962620D01*
X192309440Y-100888960D01*
X192263720Y-100838160D01*
X192245940Y-100815300D01*
X192245940Y-100815300D01*
X192261180Y-100784820D01*
X192299280Y-100723860D01*
X192355160Y-100637500D01*
X192423740Y-100538440D01*
X192601540Y-100279360D01*
X192505020Y-100035520D01*
X192474540Y-99959320D01*
X192436440Y-99870420D01*
X192408500Y-99804380D01*
X192393260Y-99776440D01*
X192367860Y-99766280D01*
X192299280Y-99751040D01*
X192202760Y-99730720D01*
X192088460Y-99710400D01*
X191976700Y-99690080D01*
X191877640Y-99669760D01*
X191806520Y-99657060D01*
X191773500Y-99649440D01*
X191765880Y-99644360D01*
X191758260Y-99629120D01*
X191755720Y-99596100D01*
X191753180Y-99535140D01*
X191750640Y-99441160D01*
X191750640Y-99301460D01*
X191750640Y-99286220D01*
X191753180Y-99156680D01*
X191755720Y-99050000D01*
X191758260Y-98983960D01*
X191763340Y-98956020D01*
X191763340Y-98956020D01*
X191793820Y-98948400D01*
X191864940Y-98933160D01*
X191964000Y-98915380D01*
X192083380Y-98892520D01*
X192091000Y-98889980D01*
X192207840Y-98867120D01*
X192306900Y-98846800D01*
X192378020Y-98831560D01*
X192405960Y-98821400D01*
X192413580Y-98813780D01*
X192436440Y-98768060D01*
X192469460Y-98694400D01*
X192510100Y-98605500D01*
X192548200Y-98511520D01*
X192581220Y-98427700D01*
X192604080Y-98366740D01*
X192611700Y-98338800D01*
X192609160Y-98336260D01*
X192591380Y-98308320D01*
X192550740Y-98247360D01*
X192494860Y-98163540D01*
X192426280Y-98061940D01*
X192421200Y-98054320D01*
X192352620Y-97955260D01*
X192296740Y-97868900D01*
X192261180Y-97810480D01*
X192245940Y-97782540D01*
X192245940Y-97780000D01*
X192268800Y-97749520D01*
X192319600Y-97693640D01*
X192393260Y-97617440D01*
X192479620Y-97528540D01*
X192507560Y-97503140D01*
X192606620Y-97406620D01*
X192672660Y-97345660D01*
X192715840Y-97312640D01*
X192736160Y-97305020D01*
X192736160Y-97305020D01*
X192766640Y-97322800D01*
X192830140Y-97363440D01*
X192913960Y-97421860D01*
X193015560Y-97490440D01*
X193023180Y-97495520D01*
X193122240Y-97564100D01*
X193206060Y-97619980D01*
X193264480Y-97660620D01*
X193292420Y-97675860D01*
X193294960Y-97675860D01*
X193335600Y-97663160D01*
X193406720Y-97637760D01*
X193495620Y-97604740D01*
X193587060Y-97566640D01*
X193670880Y-97531080D01*
X193734380Y-97503140D01*
X193764860Y-97485360D01*
X193764860Y-97485360D01*
X193775020Y-97449800D01*
X193792800Y-97373600D01*
X193813120Y-97272000D01*
X193838520Y-97150080D01*
X193841060Y-97129760D01*
X193863920Y-97010380D01*
X193881700Y-96911320D01*
X193896940Y-96842740D01*
X193904560Y-96814800D01*
X193919800Y-96812260D01*
X193978220Y-96807180D01*
X194067120Y-96804640D01*
X194176340Y-96804640D01*
X194288100Y-96804640D01*
X194397320Y-96807180D01*
X194491300Y-96809720D01*
X194559880Y-96814800D01*
X194587820Y-96819880D01*
X194587820Y-96822420D01*
X194597980Y-96860520D01*
X194615760Y-96934180D01*
X194636080Y-97038320D01*
X194658940Y-97160240D01*
X194664020Y-97183100D01*
X194686880Y-97299940D01*
X194707200Y-97399000D01*
X194719900Y-97465040D01*
X194727520Y-97492980D01*
X194740220Y-97498060D01*
X194788480Y-97518380D01*
X194867220Y-97551400D01*
X194966280Y-97592040D01*
X195194880Y-97683480D01*
X195476820Y-97492980D01*
X195502220Y-97475200D01*
X195603820Y-97406620D01*
X195685100Y-97350740D01*
X195743520Y-97312640D01*
X195766380Y-97299940D01*
X195768920Y-97299940D01*
X195796860Y-97325340D01*
X195852740Y-97378680D01*
X195928940Y-97452340D01*
X196017840Y-97538700D01*
X196081340Y-97604740D01*
X196160080Y-97683480D01*
X196208340Y-97736820D01*
X196236280Y-97769840D01*
X196243900Y-97790160D01*
X196241360Y-97805400D01*
X196223580Y-97833340D01*
X196182940Y-97894300D01*
X196124520Y-97980660D01*
X196055940Y-98079720D01*
X196000060Y-98163540D01*
X195939100Y-98257520D01*
X195901000Y-98323560D01*
X195885760Y-98356580D01*
X195890840Y-98369280D01*
X195908620Y-98425160D01*
X195944180Y-98508980D01*
X195984820Y-98608040D01*
X196083880Y-98829020D01*
X196228660Y-98856960D01*
X196317560Y-98874740D01*
X196439480Y-98897600D01*
X196558860Y-98920460D01*
X196741740Y-98956020D01*
X196749360Y-99631660D01*
X196721420Y-99644360D01*
X196693480Y-99651980D01*
X196624900Y-99667220D01*
X196528380Y-99687540D01*
X196411540Y-99707860D01*
X196315020Y-99725640D01*
X196215960Y-99745960D01*
X196144840Y-99758660D01*
X196114360Y-99766280D01*
X196104200Y-99776440D01*
X196081340Y-99824700D01*
X196045780Y-99900900D01*
X196005140Y-99992340D01*
X195967040Y-100086320D01*
X195931480Y-100175220D01*
X195908620Y-100241260D01*
X195898460Y-100274280D01*
X195911160Y-100302220D01*
X195949260Y-100360640D01*
X196002600Y-100441920D01*
X196071180Y-100540980D01*
X196137220Y-100637500D01*
X196195640Y-100721320D01*
X196233740Y-100782280D01*
X196251520Y-100810220D01*
X196241360Y-100828000D01*
X196203260Y-100876260D01*
X196129600Y-100952460D01*
X196017840Y-101061680D01*
X196000060Y-101079460D01*
X195913700Y-101163280D01*
X195840040Y-101231860D01*
X195786700Y-101277580D01*
X195763840Y-101295360D01*
X195763840Y-101295360D01*
G37*
X195763840Y-101295360D02*
X195738440Y-101280120D01*
X195680020Y-101244560D01*
X195596200Y-101188680D01*
X195497140Y-101122640D01*
X195398080Y-101056600D01*
X195316800Y-101003260D01*
X195260920Y-100965160D01*
X195235520Y-100952460D01*
X195222820Y-100957540D01*
X195177100Y-100980400D01*
X195108520Y-101015960D01*
X195067880Y-101036280D01*
X195006920Y-101061680D01*
X194973900Y-101069300D01*
X194968820Y-101059140D01*
X194945960Y-101010880D01*
X194910400Y-100929600D01*
X194864680Y-100820380D01*
X194808800Y-100693380D01*
X194752920Y-100558760D01*
X194694500Y-100419060D01*
X194638620Y-100284440D01*
X194590360Y-100165060D01*
X194549720Y-100068540D01*
X194524320Y-99999960D01*
X194514160Y-99972020D01*
X194516700Y-99964400D01*
X194549720Y-99933920D01*
X194603060Y-99893280D01*
X194722440Y-99796760D01*
X194839280Y-99651980D01*
X194910400Y-99486880D01*
X194933260Y-99301460D01*
X194912940Y-99131280D01*
X194846900Y-98968720D01*
X194732600Y-98821400D01*
X194592900Y-98712180D01*
X194430340Y-98643600D01*
X194250000Y-98620740D01*
X194077280Y-98641060D01*
X193909640Y-98707100D01*
X193762320Y-98818860D01*
X193698820Y-98889980D01*
X193612460Y-99039840D01*
X193564200Y-99197320D01*
X193559120Y-99237960D01*
X193566740Y-99413220D01*
X193617540Y-99583400D01*
X193711520Y-99733260D01*
X193841060Y-99857720D01*
X193856300Y-99867880D01*
X193914720Y-99913600D01*
X193955360Y-99944080D01*
X193985840Y-99969480D01*
X193762320Y-100507960D01*
X193726760Y-100591780D01*
X193665800Y-100739100D01*
X193612460Y-100866100D01*
X193569280Y-100967700D01*
X193538800Y-101033740D01*
X193526100Y-101061680D01*
X193526100Y-101064220D01*
X193505780Y-101066760D01*
X193465140Y-101051520D01*
X193388940Y-101015960D01*
X193340680Y-100990560D01*
X193282260Y-100962620D01*
X193256860Y-100952460D01*
X193234000Y-100965160D01*
X193180660Y-101000720D01*
X193099380Y-101054060D01*
X193002860Y-101117560D01*
X192911420Y-101181060D01*
X192827600Y-101236940D01*
X192766640Y-101275040D01*
X192736160Y-101292820D01*
X192731080Y-101292820D01*
X192705680Y-101277580D01*
X192657420Y-101236940D01*
X192583760Y-101168360D01*
X192479620Y-101064220D01*
X192464380Y-101048980D01*
X192378020Y-100962620D01*
X192309440Y-100888960D01*
X192263720Y-100838160D01*
X192245940Y-100815300D01*
X192245940Y-100815300D01*
X192261180Y-100784820D01*
X192299280Y-100723860D01*
X192355160Y-100637500D01*
X192423740Y-100538440D01*
X192601540Y-100279360D01*
X192505020Y-100035520D01*
X192474540Y-99959320D01*
X192436440Y-99870420D01*
X192408500Y-99804380D01*
X192393260Y-99776440D01*
X192367860Y-99766280D01*
X192299280Y-99751040D01*
X192202760Y-99730720D01*
X192088460Y-99710400D01*
X191976700Y-99690080D01*
X191877640Y-99669760D01*
X191806520Y-99657060D01*
X191773500Y-99649440D01*
X191765880Y-99644360D01*
X191758260Y-99629120D01*
X191755720Y-99596100D01*
X191753180Y-99535140D01*
X191750640Y-99441160D01*
X191750640Y-99301460D01*
X191750640Y-99286220D01*
X191753180Y-99156680D01*
X191755720Y-99050000D01*
X191758260Y-98983960D01*
X191763340Y-98956020D01*
X191763340Y-98956020D01*
X191793820Y-98948400D01*
X191864940Y-98933160D01*
X191964000Y-98915380D01*
X192083380Y-98892520D01*
X192091000Y-98889980D01*
X192207840Y-98867120D01*
X192306900Y-98846800D01*
X192378020Y-98831560D01*
X192405960Y-98821400D01*
X192413580Y-98813780D01*
X192436440Y-98768060D01*
X192469460Y-98694400D01*
X192510100Y-98605500D01*
X192548200Y-98511520D01*
X192581220Y-98427700D01*
X192604080Y-98366740D01*
X192611700Y-98338800D01*
X192609160Y-98336260D01*
X192591380Y-98308320D01*
X192550740Y-98247360D01*
X192494860Y-98163540D01*
X192426280Y-98061940D01*
X192421200Y-98054320D01*
X192352620Y-97955260D01*
X192296740Y-97868900D01*
X192261180Y-97810480D01*
X192245940Y-97782540D01*
X192245940Y-97780000D01*
X192268800Y-97749520D01*
X192319600Y-97693640D01*
X192393260Y-97617440D01*
X192479620Y-97528540D01*
X192507560Y-97503140D01*
X192606620Y-97406620D01*
X192672660Y-97345660D01*
X192715840Y-97312640D01*
X192736160Y-97305020D01*
X192736160Y-97305020D01*
X192766640Y-97322800D01*
X192830140Y-97363440D01*
X192913960Y-97421860D01*
X193015560Y-97490440D01*
X193023180Y-97495520D01*
X193122240Y-97564100D01*
X193206060Y-97619980D01*
X193264480Y-97660620D01*
X193292420Y-97675860D01*
X193294960Y-97675860D01*
X193335600Y-97663160D01*
X193406720Y-97637760D01*
X193495620Y-97604740D01*
X193587060Y-97566640D01*
X193670880Y-97531080D01*
X193734380Y-97503140D01*
X193764860Y-97485360D01*
X193764860Y-97485360D01*
X193775020Y-97449800D01*
X193792800Y-97373600D01*
X193813120Y-97272000D01*
X193838520Y-97150080D01*
X193841060Y-97129760D01*
X193863920Y-97010380D01*
X193881700Y-96911320D01*
X193896940Y-96842740D01*
X193904560Y-96814800D01*
X193919800Y-96812260D01*
X193978220Y-96807180D01*
X194067120Y-96804640D01*
X194176340Y-96804640D01*
X194288100Y-96804640D01*
X194397320Y-96807180D01*
X194491300Y-96809720D01*
X194559880Y-96814800D01*
X194587820Y-96819880D01*
X194587820Y-96822420D01*
X194597980Y-96860520D01*
X194615760Y-96934180D01*
X194636080Y-97038320D01*
X194658940Y-97160240D01*
X194664020Y-97183100D01*
X194686880Y-97299940D01*
X194707200Y-97399000D01*
X194719900Y-97465040D01*
X194727520Y-97492980D01*
X194740220Y-97498060D01*
X194788480Y-97518380D01*
X194867220Y-97551400D01*
X194966280Y-97592040D01*
X195194880Y-97683480D01*
X195476820Y-97492980D01*
X195502220Y-97475200D01*
X195603820Y-97406620D01*
X195685100Y-97350740D01*
X195743520Y-97312640D01*
X195766380Y-97299940D01*
X195768920Y-97299940D01*
X195796860Y-97325340D01*
X195852740Y-97378680D01*
X195928940Y-97452340D01*
X196017840Y-97538700D01*
X196081340Y-97604740D01*
X196160080Y-97683480D01*
X196208340Y-97736820D01*
X196236280Y-97769840D01*
X196243900Y-97790160D01*
X196241360Y-97805400D01*
X196223580Y-97833340D01*
X196182940Y-97894300D01*
X196124520Y-97980660D01*
X196055940Y-98079720D01*
X196000060Y-98163540D01*
X195939100Y-98257520D01*
X195901000Y-98323560D01*
X195885760Y-98356580D01*
X195890840Y-98369280D01*
X195908620Y-98425160D01*
X195944180Y-98508980D01*
X195984820Y-98608040D01*
X196083880Y-98829020D01*
X196228660Y-98856960D01*
X196317560Y-98874740D01*
X196439480Y-98897600D01*
X196558860Y-98920460D01*
X196741740Y-98956020D01*
X196749360Y-99631660D01*
X196721420Y-99644360D01*
X196693480Y-99651980D01*
X196624900Y-99667220D01*
X196528380Y-99687540D01*
X196411540Y-99707860D01*
X196315020Y-99725640D01*
X196215960Y-99745960D01*
X196144840Y-99758660D01*
X196114360Y-99766280D01*
X196104200Y-99776440D01*
X196081340Y-99824700D01*
X196045780Y-99900900D01*
X196005140Y-99992340D01*
X195967040Y-100086320D01*
X195931480Y-100175220D01*
X195908620Y-100241260D01*
X195898460Y-100274280D01*
X195911160Y-100302220D01*
X195949260Y-100360640D01*
X196002600Y-100441920D01*
X196071180Y-100540980D01*
X196137220Y-100637500D01*
X196195640Y-100721320D01*
X196233740Y-100782280D01*
X196251520Y-100810220D01*
X196241360Y-100828000D01*
X196203260Y-100876260D01*
X196129600Y-100952460D01*
X196017840Y-101061680D01*
X196000060Y-101079460D01*
X195913700Y-101163280D01*
X195840040Y-101231860D01*
X195786700Y-101277580D01*
X195763840Y-101295360D01*
D12*
X187480000Y-102320000D02*
X187480000Y-115020000D01*
X187480000Y-115020000D02*
X190020000Y-115020000D01*
X190020000Y-115020000D02*
X190020000Y-102320000D01*
X187200000Y-99500000D02*
X187200000Y-101050000D01*
X187480000Y-102320000D02*
X190020000Y-102320000D01*
X190300000Y-101050000D02*
X190300000Y-99500000D01*
X190300000Y-99500000D02*
X187200000Y-99500000D01*
X127480000Y-102320000D02*
X127480000Y-115020000D01*
X127480000Y-115020000D02*
X130020000Y-115020000D01*
X130020000Y-115020000D02*
X130020000Y-102320000D01*
X127200000Y-99500000D02*
X127200000Y-101050000D01*
X127480000Y-102320000D02*
X130020000Y-102320000D01*
X130300000Y-101050000D02*
X130300000Y-99500000D01*
X130300000Y-99500000D02*
X127200000Y-99500000D01*
D13*
X132090000Y-101670000D02*
X132090000Y-102130000D01*
X132000000Y-101670000D02*
X131950000Y-101670000D01*
X132050000Y-101700000D02*
X132000000Y-101670000D01*
X132070000Y-101720000D02*
X132050000Y-101700000D01*
X132090000Y-101790000D02*
X132070000Y-101720000D01*
X131650000Y-102130000D02*
X131600000Y-102100000D01*
X131750000Y-102130000D02*
X131650000Y-102130000D01*
X131790000Y-102100000D02*
X131750000Y-102130000D01*
X131810000Y-102030000D02*
X131790000Y-102100000D01*
X131810000Y-101760000D02*
X131810000Y-102030000D01*
X131780000Y-101700000D02*
X131810000Y-101760000D01*
X131740000Y-101670000D02*
X131780000Y-101700000D01*
X131640000Y-101670000D02*
X131740000Y-101670000D01*
X131600000Y-101710000D02*
X131640000Y-101670000D01*
X131580000Y-101780000D02*
X131600000Y-101710000D01*
X131580000Y-101900000D02*
X131580000Y-101780000D01*
X131580000Y-101900000D02*
X131810000Y-101900000D01*
X132330000Y-101760000D02*
X132330000Y-102130000D01*
X132360000Y-101700000D02*
X132330000Y-101760000D01*
X132400000Y-101670000D02*
X132360000Y-101700000D01*
X132500000Y-101670000D02*
X132400000Y-101670000D01*
X132550000Y-101700000D02*
X132500000Y-101670000D01*
X132490000Y-101860000D02*
X132540000Y-101890000D01*
X132370000Y-101860000D02*
X132490000Y-101860000D01*
X132330000Y-101830000D02*
X132370000Y-101860000D01*
X132380000Y-102130000D02*
X132330000Y-102090000D01*
X132500000Y-102130000D02*
X132380000Y-102130000D01*
X132550000Y-102090000D02*
X132500000Y-102130000D01*
X132570000Y-102030000D02*
X132550000Y-102090000D01*
X132570000Y-101960000D02*
X132570000Y-102030000D01*
X132540000Y-101890000D02*
X132570000Y-101960000D01*
X133120000Y-101670000D02*
X133020000Y-102130000D01*
X133020000Y-102130000D02*
X132930000Y-101790000D01*
X132930000Y-101790000D02*
X132830000Y-102130000D01*
X132830000Y-102130000D02*
X132730000Y-101670000D01*
X133310000Y-102100000D02*
X133350000Y-102130000D01*
X133350000Y-102130000D02*
X133460000Y-102130000D01*
X133460000Y-102130000D02*
X133500000Y-102100000D01*
X133500000Y-102100000D02*
X133520000Y-102070000D01*
X133520000Y-102070000D02*
X133550000Y-102000000D01*
X133550000Y-102000000D02*
X133550000Y-101800000D01*
X133550000Y-101800000D02*
X133520000Y-101730000D01*
X133520000Y-101730000D02*
X133500000Y-101700000D01*
X133500000Y-101700000D02*
X133440000Y-101660000D01*
X133440000Y-101660000D02*
X133370000Y-101660000D01*
X133370000Y-101660000D02*
X133310000Y-101700000D01*
X133310000Y-101430000D02*
X133310000Y-102130000D01*
X133830000Y-101790000D02*
X133810000Y-101720000D01*
X133810000Y-101720000D02*
X133790000Y-101700000D01*
X133790000Y-101700000D02*
X133740000Y-101670000D01*
X133740000Y-101670000D02*
X133690000Y-101670000D01*
X133830000Y-101670000D02*
X133830000Y-102130000D01*
X134280000Y-101890000D02*
X134310000Y-101960000D01*
X134310000Y-101960000D02*
X134310000Y-102030000D01*
X134310000Y-102030000D02*
X134290000Y-102090000D01*
X134290000Y-102090000D02*
X134240000Y-102130000D01*
X134240000Y-102130000D02*
X134120000Y-102130000D01*
X134120000Y-102130000D02*
X134070000Y-102090000D01*
X134070000Y-101830000D02*
X134110000Y-101860000D01*
X134110000Y-101860000D02*
X134230000Y-101860000D01*
X134230000Y-101860000D02*
X134280000Y-101890000D01*
X134290000Y-101700000D02*
X134240000Y-101670000D01*
X134240000Y-101670000D02*
X134140000Y-101670000D01*
X134140000Y-101670000D02*
X134100000Y-101700000D01*
X134100000Y-101700000D02*
X134070000Y-101760000D01*
X134070000Y-101760000D02*
X134070000Y-102130000D01*
X134740000Y-101740000D02*
X134720000Y-101700000D01*
X134720000Y-101700000D02*
X134670000Y-101670000D01*
X134670000Y-101670000D02*
X134590000Y-101670000D01*
X134590000Y-101670000D02*
X134550000Y-101700000D01*
X134550000Y-101700000D02*
X134530000Y-101760000D01*
X134530000Y-101760000D02*
X134530000Y-102130000D01*
X134740000Y-101430000D02*
X134740000Y-102130000D01*
X135790000Y-101900000D02*
X136020000Y-101900000D01*
X135570000Y-101730000D02*
X135550000Y-101700000D01*
X135550000Y-101700000D02*
X135510000Y-101670000D01*
X135510000Y-101670000D02*
X135420000Y-101670000D01*
X135420000Y-101670000D02*
X135380000Y-101700000D01*
X135380000Y-101700000D02*
X135360000Y-101760000D01*
X135360000Y-101760000D02*
X135360000Y-102130000D01*
X135570000Y-101670000D02*
X135570000Y-102130000D01*
X135790000Y-101900000D02*
X135790000Y-101780000D01*
X135790000Y-101780000D02*
X135810000Y-101710000D01*
X135810000Y-101710000D02*
X135850000Y-101670000D01*
X135850000Y-101670000D02*
X135950000Y-101670000D01*
X135950000Y-101670000D02*
X135990000Y-101700000D01*
X135990000Y-101700000D02*
X136020000Y-101760000D01*
X136020000Y-101760000D02*
X136020000Y-102030000D01*
X136020000Y-102030000D02*
X136000000Y-102100000D01*
X136000000Y-102100000D02*
X135960000Y-102130000D01*
X135960000Y-102130000D02*
X135860000Y-102130000D01*
X135860000Y-102130000D02*
X135810000Y-102100000D01*
X136450000Y-101700000D02*
X136410000Y-101670000D01*
X136410000Y-101670000D02*
X136310000Y-101670000D01*
X136310000Y-101670000D02*
X136270000Y-101700000D01*
X136270000Y-101700000D02*
X136240000Y-101730000D01*
X136240000Y-101730000D02*
X136220000Y-101790000D01*
X136220000Y-101790000D02*
X136220000Y-102010000D01*
X136220000Y-102010000D02*
X136240000Y-102070000D01*
X136240000Y-102070000D02*
X136260000Y-102100000D01*
X136260000Y-102100000D02*
X136300000Y-102130000D01*
X136300000Y-102130000D02*
X136400000Y-102130000D01*
X136400000Y-102130000D02*
X136450000Y-102100000D01*
X136450000Y-102370000D02*
X136450000Y-101670000D01*
X136760000Y-101670000D02*
X136840000Y-101670000D01*
X136840000Y-101670000D02*
X136880000Y-101700000D01*
X136880000Y-101700000D02*
X136900000Y-101730000D01*
X136900000Y-101730000D02*
X136930000Y-101800000D01*
X136840000Y-102130000D02*
X136760000Y-102130000D01*
X136760000Y-102130000D02*
X136710000Y-102100000D01*
X136710000Y-102100000D02*
X136690000Y-102070000D01*
X136690000Y-102070000D02*
X136670000Y-102000000D01*
X136670000Y-102000000D02*
X136670000Y-101800000D01*
X136670000Y-101800000D02*
X136690000Y-101740000D01*
X136690000Y-101740000D02*
X136710000Y-101710000D01*
X136710000Y-101710000D02*
X136760000Y-101670000D01*
X136930000Y-101800000D02*
X136930000Y-102000000D01*
X136930000Y-102000000D02*
X136910000Y-102060000D01*
X136910000Y-102060000D02*
X136890000Y-102090000D01*
X136890000Y-102090000D02*
X136840000Y-102130000D01*
D14*
G36*
X135763840Y-101295360D02*
X135738440Y-101280120D01*
X135680020Y-101244560D01*
X135596200Y-101188680D01*
X135497140Y-101122640D01*
X135398080Y-101056600D01*
X135316800Y-101003260D01*
X135260920Y-100965160D01*
X135235520Y-100952460D01*
X135222820Y-100957540D01*
X135177100Y-100980400D01*
X135108520Y-101015960D01*
X135067880Y-101036280D01*
X135006920Y-101061680D01*
X134973900Y-101069300D01*
X134968820Y-101059140D01*
X134945960Y-101010880D01*
X134910400Y-100929600D01*
X134864680Y-100820380D01*
X134808800Y-100693380D01*
X134752920Y-100558760D01*
X134694500Y-100419060D01*
X134638620Y-100284440D01*
X134590360Y-100165060D01*
X134549720Y-100068540D01*
X134524320Y-99999960D01*
X134514160Y-99972020D01*
X134516700Y-99964400D01*
X134549720Y-99933920D01*
X134603060Y-99893280D01*
X134722440Y-99796760D01*
X134839280Y-99651980D01*
X134910400Y-99486880D01*
X134933260Y-99301460D01*
X134912940Y-99131280D01*
X134846900Y-98968720D01*
X134732600Y-98821400D01*
X134592900Y-98712180D01*
X134430340Y-98643600D01*
X134250000Y-98620740D01*
X134077280Y-98641060D01*
X133909640Y-98707100D01*
X133762320Y-98818860D01*
X133698820Y-98889980D01*
X133612460Y-99039840D01*
X133564200Y-99197320D01*
X133559120Y-99237960D01*
X133566740Y-99413220D01*
X133617540Y-99583400D01*
X133711520Y-99733260D01*
X133841060Y-99857720D01*
X133856300Y-99867880D01*
X133914720Y-99913600D01*
X133955360Y-99944080D01*
X133985840Y-99969480D01*
X133762320Y-100507960D01*
X133726760Y-100591780D01*
X133665800Y-100739100D01*
X133612460Y-100866100D01*
X133569280Y-100967700D01*
X133538800Y-101033740D01*
X133526100Y-101061680D01*
X133526100Y-101064220D01*
X133505780Y-101066760D01*
X133465140Y-101051520D01*
X133388940Y-101015960D01*
X133340680Y-100990560D01*
X133282260Y-100962620D01*
X133256860Y-100952460D01*
X133234000Y-100965160D01*
X133180660Y-101000720D01*
X133099380Y-101054060D01*
X133002860Y-101117560D01*
X132911420Y-101181060D01*
X132827600Y-101236940D01*
X132766640Y-101275040D01*
X132736160Y-101292820D01*
X132731080Y-101292820D01*
X132705680Y-101277580D01*
X132657420Y-101236940D01*
X132583760Y-101168360D01*
X132479620Y-101064220D01*
X132464380Y-101048980D01*
X132378020Y-100962620D01*
X132309440Y-100888960D01*
X132263720Y-100838160D01*
X132245940Y-100815300D01*
X132245940Y-100815300D01*
X132261180Y-100784820D01*
X132299280Y-100723860D01*
X132355160Y-100637500D01*
X132423740Y-100538440D01*
X132601540Y-100279360D01*
X132505020Y-100035520D01*
X132474540Y-99959320D01*
X132436440Y-99870420D01*
X132408500Y-99804380D01*
X132393260Y-99776440D01*
X132367860Y-99766280D01*
X132299280Y-99751040D01*
X132202760Y-99730720D01*
X132088460Y-99710400D01*
X131976700Y-99690080D01*
X131877640Y-99669760D01*
X131806520Y-99657060D01*
X131773500Y-99649440D01*
X131765880Y-99644360D01*
X131758260Y-99629120D01*
X131755720Y-99596100D01*
X131753180Y-99535140D01*
X131750640Y-99441160D01*
X131750640Y-99301460D01*
X131750640Y-99286220D01*
X131753180Y-99156680D01*
X131755720Y-99050000D01*
X131758260Y-98983960D01*
X131763340Y-98956020D01*
X131763340Y-98956020D01*
X131793820Y-98948400D01*
X131864940Y-98933160D01*
X131964000Y-98915380D01*
X132083380Y-98892520D01*
X132091000Y-98889980D01*
X132207840Y-98867120D01*
X132306900Y-98846800D01*
X132378020Y-98831560D01*
X132405960Y-98821400D01*
X132413580Y-98813780D01*
X132436440Y-98768060D01*
X132469460Y-98694400D01*
X132510100Y-98605500D01*
X132548200Y-98511520D01*
X132581220Y-98427700D01*
X132604080Y-98366740D01*
X132611700Y-98338800D01*
X132609160Y-98336260D01*
X132591380Y-98308320D01*
X132550740Y-98247360D01*
X132494860Y-98163540D01*
X132426280Y-98061940D01*
X132421200Y-98054320D01*
X132352620Y-97955260D01*
X132296740Y-97868900D01*
X132261180Y-97810480D01*
X132245940Y-97782540D01*
X132245940Y-97780000D01*
X132268800Y-97749520D01*
X132319600Y-97693640D01*
X132393260Y-97617440D01*
X132479620Y-97528540D01*
X132507560Y-97503140D01*
X132606620Y-97406620D01*
X132672660Y-97345660D01*
X132715840Y-97312640D01*
X132736160Y-97305020D01*
X132736160Y-97305020D01*
X132766640Y-97322800D01*
X132830140Y-97363440D01*
X132913960Y-97421860D01*
X133015560Y-97490440D01*
X133023180Y-97495520D01*
X133122240Y-97564100D01*
X133206060Y-97619980D01*
X133264480Y-97660620D01*
X133292420Y-97675860D01*
X133294960Y-97675860D01*
X133335600Y-97663160D01*
X133406720Y-97637760D01*
X133495620Y-97604740D01*
X133587060Y-97566640D01*
X133670880Y-97531080D01*
X133734380Y-97503140D01*
X133764860Y-97485360D01*
X133764860Y-97485360D01*
X133775020Y-97449800D01*
X133792800Y-97373600D01*
X133813120Y-97272000D01*
X133838520Y-97150080D01*
X133841060Y-97129760D01*
X133863920Y-97010380D01*
X133881700Y-96911320D01*
X133896940Y-96842740D01*
X133904560Y-96814800D01*
X133919800Y-96812260D01*
X133978220Y-96807180D01*
X134067120Y-96804640D01*
X134176340Y-96804640D01*
X134288100Y-96804640D01*
X134397320Y-96807180D01*
X134491300Y-96809720D01*
X134559880Y-96814800D01*
X134587820Y-96819880D01*
X134587820Y-96822420D01*
X134597980Y-96860520D01*
X134615760Y-96934180D01*
X134636080Y-97038320D01*
X134658940Y-97160240D01*
X134664020Y-97183100D01*
X134686880Y-97299940D01*
X134707200Y-97399000D01*
X134719900Y-97465040D01*
X134727520Y-97492980D01*
X134740220Y-97498060D01*
X134788480Y-97518380D01*
X134867220Y-97551400D01*
X134966280Y-97592040D01*
X135194880Y-97683480D01*
X135476820Y-97492980D01*
X135502220Y-97475200D01*
X135603820Y-97406620D01*
X135685100Y-97350740D01*
X135743520Y-97312640D01*
X135766380Y-97299940D01*
X135768920Y-97299940D01*
X135796860Y-97325340D01*
X135852740Y-97378680D01*
X135928940Y-97452340D01*
X136017840Y-97538700D01*
X136081340Y-97604740D01*
X136160080Y-97683480D01*
X136208340Y-97736820D01*
X136236280Y-97769840D01*
X136243900Y-97790160D01*
X136241360Y-97805400D01*
X136223580Y-97833340D01*
X136182940Y-97894300D01*
X136124520Y-97980660D01*
X136055940Y-98079720D01*
X136000060Y-98163540D01*
X135939100Y-98257520D01*
X135901000Y-98323560D01*
X135885760Y-98356580D01*
X135890840Y-98369280D01*
X135908620Y-98425160D01*
X135944180Y-98508980D01*
X135984820Y-98608040D01*
X136083880Y-98829020D01*
X136228660Y-98856960D01*
X136317560Y-98874740D01*
X136439480Y-98897600D01*
X136558860Y-98920460D01*
X136741740Y-98956020D01*
X136749360Y-99631660D01*
X136721420Y-99644360D01*
X136693480Y-99651980D01*
X136624900Y-99667220D01*
X136528380Y-99687540D01*
X136411540Y-99707860D01*
X136315020Y-99725640D01*
X136215960Y-99745960D01*
X136144840Y-99758660D01*
X136114360Y-99766280D01*
X136104200Y-99776440D01*
X136081340Y-99824700D01*
X136045780Y-99900900D01*
X136005140Y-99992340D01*
X135967040Y-100086320D01*
X135931480Y-100175220D01*
X135908620Y-100241260D01*
X135898460Y-100274280D01*
X135911160Y-100302220D01*
X135949260Y-100360640D01*
X136002600Y-100441920D01*
X136071180Y-100540980D01*
X136137220Y-100637500D01*
X136195640Y-100721320D01*
X136233740Y-100782280D01*
X136251520Y-100810220D01*
X136241360Y-100828000D01*
X136203260Y-100876260D01*
X136129600Y-100952460D01*
X136017840Y-101061680D01*
X136000060Y-101079460D01*
X135913700Y-101163280D01*
X135840040Y-101231860D01*
X135786700Y-101277580D01*
X135763840Y-101295360D01*
X135763840Y-101295360D01*
G37*
X135763840Y-101295360D02*
X135738440Y-101280120D01*
X135680020Y-101244560D01*
X135596200Y-101188680D01*
X135497140Y-101122640D01*
X135398080Y-101056600D01*
X135316800Y-101003260D01*
X135260920Y-100965160D01*
X135235520Y-100952460D01*
X135222820Y-100957540D01*
X135177100Y-100980400D01*
X135108520Y-101015960D01*
X135067880Y-101036280D01*
X135006920Y-101061680D01*
X134973900Y-101069300D01*
X134968820Y-101059140D01*
X134945960Y-101010880D01*
X134910400Y-100929600D01*
X134864680Y-100820380D01*
X134808800Y-100693380D01*
X134752920Y-100558760D01*
X134694500Y-100419060D01*
X134638620Y-100284440D01*
X134590360Y-100165060D01*
X134549720Y-100068540D01*
X134524320Y-99999960D01*
X134514160Y-99972020D01*
X134516700Y-99964400D01*
X134549720Y-99933920D01*
X134603060Y-99893280D01*
X134722440Y-99796760D01*
X134839280Y-99651980D01*
X134910400Y-99486880D01*
X134933260Y-99301460D01*
X134912940Y-99131280D01*
X134846900Y-98968720D01*
X134732600Y-98821400D01*
X134592900Y-98712180D01*
X134430340Y-98643600D01*
X134250000Y-98620740D01*
X134077280Y-98641060D01*
X133909640Y-98707100D01*
X133762320Y-98818860D01*
X133698820Y-98889980D01*
X133612460Y-99039840D01*
X133564200Y-99197320D01*
X133559120Y-99237960D01*
X133566740Y-99413220D01*
X133617540Y-99583400D01*
X133711520Y-99733260D01*
X133841060Y-99857720D01*
X133856300Y-99867880D01*
X133914720Y-99913600D01*
X133955360Y-99944080D01*
X133985840Y-99969480D01*
X133762320Y-100507960D01*
X133726760Y-100591780D01*
X133665800Y-100739100D01*
X133612460Y-100866100D01*
X133569280Y-100967700D01*
X133538800Y-101033740D01*
X133526100Y-101061680D01*
X133526100Y-101064220D01*
X133505780Y-101066760D01*
X133465140Y-101051520D01*
X133388940Y-101015960D01*
X133340680Y-100990560D01*
X133282260Y-100962620D01*
X133256860Y-100952460D01*
X133234000Y-100965160D01*
X133180660Y-101000720D01*
X133099380Y-101054060D01*
X133002860Y-101117560D01*
X132911420Y-101181060D01*
X132827600Y-101236940D01*
X132766640Y-101275040D01*
X132736160Y-101292820D01*
X132731080Y-101292820D01*
X132705680Y-101277580D01*
X132657420Y-101236940D01*
X132583760Y-101168360D01*
X132479620Y-101064220D01*
X132464380Y-101048980D01*
X132378020Y-100962620D01*
X132309440Y-100888960D01*
X132263720Y-100838160D01*
X132245940Y-100815300D01*
X132245940Y-100815300D01*
X132261180Y-100784820D01*
X132299280Y-100723860D01*
X132355160Y-100637500D01*
X132423740Y-100538440D01*
X132601540Y-100279360D01*
X132505020Y-100035520D01*
X132474540Y-99959320D01*
X132436440Y-99870420D01*
X132408500Y-99804380D01*
X132393260Y-99776440D01*
X132367860Y-99766280D01*
X132299280Y-99751040D01*
X132202760Y-99730720D01*
X132088460Y-99710400D01*
X131976700Y-99690080D01*
X131877640Y-99669760D01*
X131806520Y-99657060D01*
X131773500Y-99649440D01*
X131765880Y-99644360D01*
X131758260Y-99629120D01*
X131755720Y-99596100D01*
X131753180Y-99535140D01*
X131750640Y-99441160D01*
X131750640Y-99301460D01*
X131750640Y-99286220D01*
X131753180Y-99156680D01*
X131755720Y-99050000D01*
X131758260Y-98983960D01*
X131763340Y-98956020D01*
X131763340Y-98956020D01*
X131793820Y-98948400D01*
X131864940Y-98933160D01*
X131964000Y-98915380D01*
X132083380Y-98892520D01*
X132091000Y-98889980D01*
X132207840Y-98867120D01*
X132306900Y-98846800D01*
X132378020Y-98831560D01*
X132405960Y-98821400D01*
X132413580Y-98813780D01*
X132436440Y-98768060D01*
X132469460Y-98694400D01*
X132510100Y-98605500D01*
X132548200Y-98511520D01*
X132581220Y-98427700D01*
X132604080Y-98366740D01*
X132611700Y-98338800D01*
X132609160Y-98336260D01*
X132591380Y-98308320D01*
X132550740Y-98247360D01*
X132494860Y-98163540D01*
X132426280Y-98061940D01*
X132421200Y-98054320D01*
X132352620Y-97955260D01*
X132296740Y-97868900D01*
X132261180Y-97810480D01*
X132245940Y-97782540D01*
X132245940Y-97780000D01*
X132268800Y-97749520D01*
X132319600Y-97693640D01*
X132393260Y-97617440D01*
X132479620Y-97528540D01*
X132507560Y-97503140D01*
X132606620Y-97406620D01*
X132672660Y-97345660D01*
X132715840Y-97312640D01*
X132736160Y-97305020D01*
X132736160Y-97305020D01*
X132766640Y-97322800D01*
X132830140Y-97363440D01*
X132913960Y-97421860D01*
X133015560Y-97490440D01*
X133023180Y-97495520D01*
X133122240Y-97564100D01*
X133206060Y-97619980D01*
X133264480Y-97660620D01*
X133292420Y-97675860D01*
X133294960Y-97675860D01*
X133335600Y-97663160D01*
X133406720Y-97637760D01*
X133495620Y-97604740D01*
X133587060Y-97566640D01*
X133670880Y-97531080D01*
X133734380Y-97503140D01*
X133764860Y-97485360D01*
X133764860Y-97485360D01*
X133775020Y-97449800D01*
X133792800Y-97373600D01*
X133813120Y-97272000D01*
X133838520Y-97150080D01*
X133841060Y-97129760D01*
X133863920Y-97010380D01*
X133881700Y-96911320D01*
X133896940Y-96842740D01*
X133904560Y-96814800D01*
X133919800Y-96812260D01*
X133978220Y-96807180D01*
X134067120Y-96804640D01*
X134176340Y-96804640D01*
X134288100Y-96804640D01*
X134397320Y-96807180D01*
X134491300Y-96809720D01*
X134559880Y-96814800D01*
X134587820Y-96819880D01*
X134587820Y-96822420D01*
X134597980Y-96860520D01*
X134615760Y-96934180D01*
X134636080Y-97038320D01*
X134658940Y-97160240D01*
X134664020Y-97183100D01*
X134686880Y-97299940D01*
X134707200Y-97399000D01*
X134719900Y-97465040D01*
X134727520Y-97492980D01*
X134740220Y-97498060D01*
X134788480Y-97518380D01*
X134867220Y-97551400D01*
X134966280Y-97592040D01*
X135194880Y-97683480D01*
X135476820Y-97492980D01*
X135502220Y-97475200D01*
X135603820Y-97406620D01*
X135685100Y-97350740D01*
X135743520Y-97312640D01*
X135766380Y-97299940D01*
X135768920Y-97299940D01*
X135796860Y-97325340D01*
X135852740Y-97378680D01*
X135928940Y-97452340D01*
X136017840Y-97538700D01*
X136081340Y-97604740D01*
X136160080Y-97683480D01*
X136208340Y-97736820D01*
X136236280Y-97769840D01*
X136243900Y-97790160D01*
X136241360Y-97805400D01*
X136223580Y-97833340D01*
X136182940Y-97894300D01*
X136124520Y-97980660D01*
X136055940Y-98079720D01*
X136000060Y-98163540D01*
X135939100Y-98257520D01*
X135901000Y-98323560D01*
X135885760Y-98356580D01*
X135890840Y-98369280D01*
X135908620Y-98425160D01*
X135944180Y-98508980D01*
X135984820Y-98608040D01*
X136083880Y-98829020D01*
X136228660Y-98856960D01*
X136317560Y-98874740D01*
X136439480Y-98897600D01*
X136558860Y-98920460D01*
X136741740Y-98956020D01*
X136749360Y-99631660D01*
X136721420Y-99644360D01*
X136693480Y-99651980D01*
X136624900Y-99667220D01*
X136528380Y-99687540D01*
X136411540Y-99707860D01*
X136315020Y-99725640D01*
X136215960Y-99745960D01*
X136144840Y-99758660D01*
X136114360Y-99766280D01*
X136104200Y-99776440D01*
X136081340Y-99824700D01*
X136045780Y-99900900D01*
X136005140Y-99992340D01*
X135967040Y-100086320D01*
X135931480Y-100175220D01*
X135908620Y-100241260D01*
X135898460Y-100274280D01*
X135911160Y-100302220D01*
X135949260Y-100360640D01*
X136002600Y-100441920D01*
X136071180Y-100540980D01*
X136137220Y-100637500D01*
X136195640Y-100721320D01*
X136233740Y-100782280D01*
X136251520Y-100810220D01*
X136241360Y-100828000D01*
X136203260Y-100876260D01*
X136129600Y-100952460D01*
X136017840Y-101061680D01*
X136000060Y-101079460D01*
X135913700Y-101163280D01*
X135840040Y-101231860D01*
X135786700Y-101277580D01*
X135763840Y-101295360D01*
D15*
X87798960Y-109850480D02*
X87100460Y-111150960D01*
X89201040Y-109850480D02*
X89899540Y-111150960D01*
X89201040Y-107249520D02*
X89899540Y-105949040D01*
X87100460Y-105949040D02*
X87798960Y-107249520D01*
X87100460Y-105949040D02*
X87100460Y-111150960D01*
X87100460Y-111150960D02*
X89899540Y-111150960D01*
X89899540Y-111150960D02*
X89899540Y-105949040D01*
X89899540Y-105949040D02*
X87100460Y-105949040D01*
X87798960Y-107249520D02*
X87798960Y-109850480D01*
X87798960Y-109850480D02*
X89201040Y-109850480D01*
X89201040Y-109850480D02*
X89201040Y-107249520D01*
X89201040Y-107249520D02*
X87798960Y-107249520D01*
X86699140Y-105550260D02*
X86699140Y-111549740D01*
X86699140Y-111549740D02*
X90300860Y-111549740D01*
X90300860Y-111549740D02*
X90300860Y-105550260D01*
X90300860Y-105550260D02*
X86699140Y-105550260D01*
D12*
X140500760Y-109550000D02*
G75*
G03X140500760Y-109550000I-1000760J0D01*
G01*
X145700140Y-109550000D02*
G75*
G03X145700140Y-109550000I-6200140J0D01*
G01*
X118900000Y-105675000D02*
X117900000Y-105675000D01*
X117900000Y-107025000D02*
X118900000Y-107025000D01*
X116925000Y-113925000D02*
X116925000Y-112925000D01*
X115575000Y-112925000D02*
X115575000Y-113925000D01*
X118450000Y-114625000D02*
X119450000Y-114625000D01*
X119450000Y-113275000D02*
X118450000Y-113275000D01*
X113200000Y-112100000D02*
X113200000Y-111400000D01*
X112000000Y-111400000D02*
X112000000Y-112100000D01*
X91900000Y-112650000D02*
X92600000Y-112650000D01*
X92600000Y-111450000D02*
X91900000Y-111450000D01*
D16*
X114172500Y-110498500D02*
X114172500Y-111158900D01*
X116077500Y-110498500D02*
X116077500Y-111158900D01*
X115125000Y-109101500D02*
X115125000Y-108441100D01*
X116623600Y-109101500D02*
X113626400Y-109101500D01*
X113626400Y-109101500D02*
X113626400Y-110498500D01*
X113626400Y-110498500D02*
X116623600Y-110498500D01*
X116623600Y-110498500D02*
X116623600Y-109101500D01*
X119702500Y-110276500D02*
X119702500Y-109616100D01*
X117797500Y-110276500D02*
X117797500Y-109616100D01*
X118750000Y-111673500D02*
X118750000Y-112333900D01*
X117251400Y-111673500D02*
X120248600Y-111673500D01*
X120248600Y-111673500D02*
X120248600Y-110276500D01*
X120248600Y-110276500D02*
X117251400Y-110276500D01*
X117251400Y-110276500D02*
X117251400Y-111673500D01*
D17*
X126778000Y-101248000D02*
X102140000Y-101248000D01*
X102140000Y-101248000D02*
X102140000Y-115472000D01*
X102140000Y-115472000D02*
X126778000Y-115472000D01*
X126778000Y-115472000D02*
X126778000Y-101248000D01*
X123730000Y-103280000D02*
X126270000Y-103280000D01*
X126270000Y-103280000D02*
X126270000Y-105820000D01*
X126270000Y-105820000D02*
X126270000Y-113440000D01*
X126270000Y-113440000D02*
X121190000Y-113440000D01*
X121190000Y-113440000D02*
X121190000Y-103280000D01*
X121190000Y-103280000D02*
X123730000Y-103280000D01*
X126778000Y-81698000D02*
X102140000Y-81698000D01*
X102140000Y-81698000D02*
X102140000Y-95922000D01*
X102140000Y-95922000D02*
X126778000Y-95922000D01*
X126778000Y-95922000D02*
X126778000Y-81698000D01*
X123730000Y-83730000D02*
X126270000Y-83730000D01*
X126270000Y-83730000D02*
X126270000Y-86270000D01*
X126270000Y-86270000D02*
X126270000Y-93890000D01*
X126270000Y-93890000D02*
X121190000Y-93890000D01*
X121190000Y-93890000D02*
X121190000Y-83730000D01*
X121190000Y-83730000D02*
X123730000Y-83730000D01*
D16*
X119702500Y-90726500D02*
X119702500Y-90066100D01*
X117797500Y-90726500D02*
X117797500Y-90066100D01*
X118750000Y-92123500D02*
X118750000Y-92783900D01*
X117251400Y-92123500D02*
X120248600Y-92123500D01*
X120248600Y-92123500D02*
X120248600Y-90726500D01*
X120248600Y-90726500D02*
X117251400Y-90726500D01*
X117251400Y-90726500D02*
X117251400Y-92123500D01*
X114172500Y-90948500D02*
X114172500Y-91608900D01*
X116077500Y-90948500D02*
X116077500Y-91608900D01*
X115125000Y-89551500D02*
X115125000Y-88891100D01*
X116623600Y-89551500D02*
X113626400Y-89551500D01*
X113626400Y-89551500D02*
X113626400Y-90948500D01*
X113626400Y-90948500D02*
X116623600Y-90948500D01*
X116623600Y-90948500D02*
X116623600Y-89551500D01*
D12*
X91900000Y-93100000D02*
X92600000Y-93100000D01*
X92600000Y-91900000D02*
X91900000Y-91900000D01*
X113200000Y-92550000D02*
X113200000Y-91850000D01*
X112000000Y-91850000D02*
X112000000Y-92550000D01*
X118450000Y-95075000D02*
X119450000Y-95075000D01*
X119450000Y-93725000D02*
X118450000Y-93725000D01*
X116925000Y-94375000D02*
X116925000Y-93375000D01*
X115575000Y-93375000D02*
X115575000Y-94375000D01*
X118900000Y-86125000D02*
X117900000Y-86125000D01*
X117900000Y-87475000D02*
X118900000Y-87475000D01*
X140500760Y-90000000D02*
G75*
G03X140500760Y-90000000I-1000760J0D01*
G01*
X145700140Y-90000000D02*
G75*
G03X145700140Y-90000000I-6200140J0D01*
G01*
D15*
X87798960Y-90300480D02*
X87100460Y-91600960D01*
X89201040Y-90300480D02*
X89899540Y-91600960D01*
X89201040Y-87699520D02*
X89899540Y-86399040D01*
X87100460Y-86399040D02*
X87798960Y-87699520D01*
X87100460Y-86399040D02*
X87100460Y-91600960D01*
X87100460Y-91600960D02*
X89899540Y-91600960D01*
X89899540Y-91600960D02*
X89899540Y-86399040D01*
X89899540Y-86399040D02*
X87100460Y-86399040D01*
X87798960Y-87699520D02*
X87798960Y-90300480D01*
X87798960Y-90300480D02*
X89201040Y-90300480D01*
X89201040Y-90300480D02*
X89201040Y-87699520D01*
X89201040Y-87699520D02*
X87798960Y-87699520D01*
X86699140Y-86000260D02*
X86699140Y-91999740D01*
X86699140Y-91999740D02*
X90300860Y-91999740D01*
X90300860Y-91999740D02*
X90300860Y-86000260D01*
X90300860Y-86000260D02*
X86699140Y-86000260D01*
D13*
X132090000Y-82120000D02*
X132090000Y-82580000D01*
X132000000Y-82120000D02*
X131950000Y-82120000D01*
X132050000Y-82150000D02*
X132000000Y-82120000D01*
X132070000Y-82170000D02*
X132050000Y-82150000D01*
X132090000Y-82240000D02*
X132070000Y-82170000D01*
X131650000Y-82580000D02*
X131600000Y-82550000D01*
X131750000Y-82580000D02*
X131650000Y-82580000D01*
X131790000Y-82550000D02*
X131750000Y-82580000D01*
X131810000Y-82480000D02*
X131790000Y-82550000D01*
X131810000Y-82210000D02*
X131810000Y-82480000D01*
X131780000Y-82150000D02*
X131810000Y-82210000D01*
X131740000Y-82120000D02*
X131780000Y-82150000D01*
X131640000Y-82120000D02*
X131740000Y-82120000D01*
X131600000Y-82160000D02*
X131640000Y-82120000D01*
X131580000Y-82230000D02*
X131600000Y-82160000D01*
X131580000Y-82350000D02*
X131580000Y-82230000D01*
X131580000Y-82350000D02*
X131810000Y-82350000D01*
X132330000Y-82210000D02*
X132330000Y-82580000D01*
X132360000Y-82150000D02*
X132330000Y-82210000D01*
X132400000Y-82120000D02*
X132360000Y-82150000D01*
X132500000Y-82120000D02*
X132400000Y-82120000D01*
X132550000Y-82150000D02*
X132500000Y-82120000D01*
X132490000Y-82310000D02*
X132540000Y-82340000D01*
X132370000Y-82310000D02*
X132490000Y-82310000D01*
X132330000Y-82280000D02*
X132370000Y-82310000D01*
X132380000Y-82580000D02*
X132330000Y-82540000D01*
X132500000Y-82580000D02*
X132380000Y-82580000D01*
X132550000Y-82540000D02*
X132500000Y-82580000D01*
X132570000Y-82480000D02*
X132550000Y-82540000D01*
X132570000Y-82410000D02*
X132570000Y-82480000D01*
X132540000Y-82340000D02*
X132570000Y-82410000D01*
X133120000Y-82120000D02*
X133020000Y-82580000D01*
X133020000Y-82580000D02*
X132930000Y-82240000D01*
X132930000Y-82240000D02*
X132830000Y-82580000D01*
X132830000Y-82580000D02*
X132730000Y-82120000D01*
X133310000Y-82550000D02*
X133350000Y-82580000D01*
X133350000Y-82580000D02*
X133460000Y-82580000D01*
X133460000Y-82580000D02*
X133500000Y-82550000D01*
X133500000Y-82550000D02*
X133520000Y-82520000D01*
X133520000Y-82520000D02*
X133550000Y-82450000D01*
X133550000Y-82450000D02*
X133550000Y-82250000D01*
X133550000Y-82250000D02*
X133520000Y-82180000D01*
X133520000Y-82180000D02*
X133500000Y-82150000D01*
X133500000Y-82150000D02*
X133440000Y-82110000D01*
X133440000Y-82110000D02*
X133370000Y-82110000D01*
X133370000Y-82110000D02*
X133310000Y-82150000D01*
X133310000Y-81880000D02*
X133310000Y-82580000D01*
X133830000Y-82240000D02*
X133810000Y-82170000D01*
X133810000Y-82170000D02*
X133790000Y-82150000D01*
X133790000Y-82150000D02*
X133740000Y-82120000D01*
X133740000Y-82120000D02*
X133690000Y-82120000D01*
X133830000Y-82120000D02*
X133830000Y-82580000D01*
X134280000Y-82340000D02*
X134310000Y-82410000D01*
X134310000Y-82410000D02*
X134310000Y-82480000D01*
X134310000Y-82480000D02*
X134290000Y-82540000D01*
X134290000Y-82540000D02*
X134240000Y-82580000D01*
X134240000Y-82580000D02*
X134120000Y-82580000D01*
X134120000Y-82580000D02*
X134070000Y-82540000D01*
X134070000Y-82280000D02*
X134110000Y-82310000D01*
X134110000Y-82310000D02*
X134230000Y-82310000D01*
X134230000Y-82310000D02*
X134280000Y-82340000D01*
X134290000Y-82150000D02*
X134240000Y-82120000D01*
X134240000Y-82120000D02*
X134140000Y-82120000D01*
X134140000Y-82120000D02*
X134100000Y-82150000D01*
X134100000Y-82150000D02*
X134070000Y-82210000D01*
X134070000Y-82210000D02*
X134070000Y-82580000D01*
X134740000Y-82190000D02*
X134720000Y-82150000D01*
X134720000Y-82150000D02*
X134670000Y-82120000D01*
X134670000Y-82120000D02*
X134590000Y-82120000D01*
X134590000Y-82120000D02*
X134550000Y-82150000D01*
X134550000Y-82150000D02*
X134530000Y-82210000D01*
X134530000Y-82210000D02*
X134530000Y-82580000D01*
X134740000Y-81880000D02*
X134740000Y-82580000D01*
X135790000Y-82350000D02*
X136020000Y-82350000D01*
X135570000Y-82180000D02*
X135550000Y-82150000D01*
X135550000Y-82150000D02*
X135510000Y-82120000D01*
X135510000Y-82120000D02*
X135420000Y-82120000D01*
X135420000Y-82120000D02*
X135380000Y-82150000D01*
X135380000Y-82150000D02*
X135360000Y-82210000D01*
X135360000Y-82210000D02*
X135360000Y-82580000D01*
X135570000Y-82120000D02*
X135570000Y-82580000D01*
X135790000Y-82350000D02*
X135790000Y-82230000D01*
X135790000Y-82230000D02*
X135810000Y-82160000D01*
X135810000Y-82160000D02*
X135850000Y-82120000D01*
X135850000Y-82120000D02*
X135950000Y-82120000D01*
X135950000Y-82120000D02*
X135990000Y-82150000D01*
X135990000Y-82150000D02*
X136020000Y-82210000D01*
X136020000Y-82210000D02*
X136020000Y-82480000D01*
X136020000Y-82480000D02*
X136000000Y-82550000D01*
X136000000Y-82550000D02*
X135960000Y-82580000D01*
X135960000Y-82580000D02*
X135860000Y-82580000D01*
X135860000Y-82580000D02*
X135810000Y-82550000D01*
X136450000Y-82150000D02*
X136410000Y-82120000D01*
X136410000Y-82120000D02*
X136310000Y-82120000D01*
X136310000Y-82120000D02*
X136270000Y-82150000D01*
X136270000Y-82150000D02*
X136240000Y-82180000D01*
X136240000Y-82180000D02*
X136220000Y-82240000D01*
X136220000Y-82240000D02*
X136220000Y-82460000D01*
X136220000Y-82460000D02*
X136240000Y-82520000D01*
X136240000Y-82520000D02*
X136260000Y-82550000D01*
X136260000Y-82550000D02*
X136300000Y-82580000D01*
X136300000Y-82580000D02*
X136400000Y-82580000D01*
X136400000Y-82580000D02*
X136450000Y-82550000D01*
X136450000Y-82820000D02*
X136450000Y-82120000D01*
X136760000Y-82120000D02*
X136840000Y-82120000D01*
X136840000Y-82120000D02*
X136880000Y-82150000D01*
X136880000Y-82150000D02*
X136900000Y-82180000D01*
X136900000Y-82180000D02*
X136930000Y-82250000D01*
X136840000Y-82580000D02*
X136760000Y-82580000D01*
X136760000Y-82580000D02*
X136710000Y-82550000D01*
X136710000Y-82550000D02*
X136690000Y-82520000D01*
X136690000Y-82520000D02*
X136670000Y-82450000D01*
X136670000Y-82450000D02*
X136670000Y-82250000D01*
X136670000Y-82250000D02*
X136690000Y-82190000D01*
X136690000Y-82190000D02*
X136710000Y-82160000D01*
X136710000Y-82160000D02*
X136760000Y-82120000D01*
X136930000Y-82250000D02*
X136930000Y-82450000D01*
X136930000Y-82450000D02*
X136910000Y-82510000D01*
X136910000Y-82510000D02*
X136890000Y-82540000D01*
X136890000Y-82540000D02*
X136840000Y-82580000D01*
D14*
G36*
X135763840Y-81745360D02*
X135738440Y-81730120D01*
X135680020Y-81694560D01*
X135596200Y-81638680D01*
X135497140Y-81572640D01*
X135398080Y-81506600D01*
X135316800Y-81453260D01*
X135260920Y-81415160D01*
X135235520Y-81402460D01*
X135222820Y-81407540D01*
X135177100Y-81430400D01*
X135108520Y-81465960D01*
X135067880Y-81486280D01*
X135006920Y-81511680D01*
X134973900Y-81519300D01*
X134968820Y-81509140D01*
X134945960Y-81460880D01*
X134910400Y-81379600D01*
X134864680Y-81270380D01*
X134808800Y-81143380D01*
X134752920Y-81008760D01*
X134694500Y-80869060D01*
X134638620Y-80734440D01*
X134590360Y-80615060D01*
X134549720Y-80518540D01*
X134524320Y-80449960D01*
X134514160Y-80422020D01*
X134516700Y-80414400D01*
X134549720Y-80383920D01*
X134603060Y-80343280D01*
X134722440Y-80246760D01*
X134839280Y-80101980D01*
X134910400Y-79936880D01*
X134933260Y-79751460D01*
X134912940Y-79581280D01*
X134846900Y-79418720D01*
X134732600Y-79271400D01*
X134592900Y-79162180D01*
X134430340Y-79093600D01*
X134250000Y-79070740D01*
X134077280Y-79091060D01*
X133909640Y-79157100D01*
X133762320Y-79268860D01*
X133698820Y-79339980D01*
X133612460Y-79489840D01*
X133564200Y-79647320D01*
X133559120Y-79687960D01*
X133566740Y-79863220D01*
X133617540Y-80033400D01*
X133711520Y-80183260D01*
X133841060Y-80307720D01*
X133856300Y-80317880D01*
X133914720Y-80363600D01*
X133955360Y-80394080D01*
X133985840Y-80419480D01*
X133762320Y-80957960D01*
X133726760Y-81041780D01*
X133665800Y-81189100D01*
X133612460Y-81316100D01*
X133569280Y-81417700D01*
X133538800Y-81483740D01*
X133526100Y-81511680D01*
X133526100Y-81514220D01*
X133505780Y-81516760D01*
X133465140Y-81501520D01*
X133388940Y-81465960D01*
X133340680Y-81440560D01*
X133282260Y-81412620D01*
X133256860Y-81402460D01*
X133234000Y-81415160D01*
X133180660Y-81450720D01*
X133099380Y-81504060D01*
X133002860Y-81567560D01*
X132911420Y-81631060D01*
X132827600Y-81686940D01*
X132766640Y-81725040D01*
X132736160Y-81742820D01*
X132731080Y-81742820D01*
X132705680Y-81727580D01*
X132657420Y-81686940D01*
X132583760Y-81618360D01*
X132479620Y-81514220D01*
X132464380Y-81498980D01*
X132378020Y-81412620D01*
X132309440Y-81338960D01*
X132263720Y-81288160D01*
X132245940Y-81265300D01*
X132245940Y-81265300D01*
X132261180Y-81234820D01*
X132299280Y-81173860D01*
X132355160Y-81087500D01*
X132423740Y-80988440D01*
X132601540Y-80729360D01*
X132505020Y-80485520D01*
X132474540Y-80409320D01*
X132436440Y-80320420D01*
X132408500Y-80254380D01*
X132393260Y-80226440D01*
X132367860Y-80216280D01*
X132299280Y-80201040D01*
X132202760Y-80180720D01*
X132088460Y-80160400D01*
X131976700Y-80140080D01*
X131877640Y-80119760D01*
X131806520Y-80107060D01*
X131773500Y-80099440D01*
X131765880Y-80094360D01*
X131758260Y-80079120D01*
X131755720Y-80046100D01*
X131753180Y-79985140D01*
X131750640Y-79891160D01*
X131750640Y-79751460D01*
X131750640Y-79736220D01*
X131753180Y-79606680D01*
X131755720Y-79500000D01*
X131758260Y-79433960D01*
X131763340Y-79406020D01*
X131763340Y-79406020D01*
X131793820Y-79398400D01*
X131864940Y-79383160D01*
X131964000Y-79365380D01*
X132083380Y-79342520D01*
X132091000Y-79339980D01*
X132207840Y-79317120D01*
X132306900Y-79296800D01*
X132378020Y-79281560D01*
X132405960Y-79271400D01*
X132413580Y-79263780D01*
X132436440Y-79218060D01*
X132469460Y-79144400D01*
X132510100Y-79055500D01*
X132548200Y-78961520D01*
X132581220Y-78877700D01*
X132604080Y-78816740D01*
X132611700Y-78788800D01*
X132609160Y-78786260D01*
X132591380Y-78758320D01*
X132550740Y-78697360D01*
X132494860Y-78613540D01*
X132426280Y-78511940D01*
X132421200Y-78504320D01*
X132352620Y-78405260D01*
X132296740Y-78318900D01*
X132261180Y-78260480D01*
X132245940Y-78232540D01*
X132245940Y-78230000D01*
X132268800Y-78199520D01*
X132319600Y-78143640D01*
X132393260Y-78067440D01*
X132479620Y-77978540D01*
X132507560Y-77953140D01*
X132606620Y-77856620D01*
X132672660Y-77795660D01*
X132715840Y-77762640D01*
X132736160Y-77755020D01*
X132736160Y-77755020D01*
X132766640Y-77772800D01*
X132830140Y-77813440D01*
X132913960Y-77871860D01*
X133015560Y-77940440D01*
X133023180Y-77945520D01*
X133122240Y-78014100D01*
X133206060Y-78069980D01*
X133264480Y-78110620D01*
X133292420Y-78125860D01*
X133294960Y-78125860D01*
X133335600Y-78113160D01*
X133406720Y-78087760D01*
X133495620Y-78054740D01*
X133587060Y-78016640D01*
X133670880Y-77981080D01*
X133734380Y-77953140D01*
X133764860Y-77935360D01*
X133764860Y-77935360D01*
X133775020Y-77899800D01*
X133792800Y-77823600D01*
X133813120Y-77722000D01*
X133838520Y-77600080D01*
X133841060Y-77579760D01*
X133863920Y-77460380D01*
X133881700Y-77361320D01*
X133896940Y-77292740D01*
X133904560Y-77264800D01*
X133919800Y-77262260D01*
X133978220Y-77257180D01*
X134067120Y-77254640D01*
X134176340Y-77254640D01*
X134288100Y-77254640D01*
X134397320Y-77257180D01*
X134491300Y-77259720D01*
X134559880Y-77264800D01*
X134587820Y-77269880D01*
X134587820Y-77272420D01*
X134597980Y-77310520D01*
X134615760Y-77384180D01*
X134636080Y-77488320D01*
X134658940Y-77610240D01*
X134664020Y-77633100D01*
X134686880Y-77749940D01*
X134707200Y-77849000D01*
X134719900Y-77915040D01*
X134727520Y-77942980D01*
X134740220Y-77948060D01*
X134788480Y-77968380D01*
X134867220Y-78001400D01*
X134966280Y-78042040D01*
X135194880Y-78133480D01*
X135476820Y-77942980D01*
X135502220Y-77925200D01*
X135603820Y-77856620D01*
X135685100Y-77800740D01*
X135743520Y-77762640D01*
X135766380Y-77749940D01*
X135768920Y-77749940D01*
X135796860Y-77775340D01*
X135852740Y-77828680D01*
X135928940Y-77902340D01*
X136017840Y-77988700D01*
X136081340Y-78054740D01*
X136160080Y-78133480D01*
X136208340Y-78186820D01*
X136236280Y-78219840D01*
X136243900Y-78240160D01*
X136241360Y-78255400D01*
X136223580Y-78283340D01*
X136182940Y-78344300D01*
X136124520Y-78430660D01*
X136055940Y-78529720D01*
X136000060Y-78613540D01*
X135939100Y-78707520D01*
X135901000Y-78773560D01*
X135885760Y-78806580D01*
X135890840Y-78819280D01*
X135908620Y-78875160D01*
X135944180Y-78958980D01*
X135984820Y-79058040D01*
X136083880Y-79279020D01*
X136228660Y-79306960D01*
X136317560Y-79324740D01*
X136439480Y-79347600D01*
X136558860Y-79370460D01*
X136741740Y-79406020D01*
X136749360Y-80081660D01*
X136721420Y-80094360D01*
X136693480Y-80101980D01*
X136624900Y-80117220D01*
X136528380Y-80137540D01*
X136411540Y-80157860D01*
X136315020Y-80175640D01*
X136215960Y-80195960D01*
X136144840Y-80208660D01*
X136114360Y-80216280D01*
X136104200Y-80226440D01*
X136081340Y-80274700D01*
X136045780Y-80350900D01*
X136005140Y-80442340D01*
X135967040Y-80536320D01*
X135931480Y-80625220D01*
X135908620Y-80691260D01*
X135898460Y-80724280D01*
X135911160Y-80752220D01*
X135949260Y-80810640D01*
X136002600Y-80891920D01*
X136071180Y-80990980D01*
X136137220Y-81087500D01*
X136195640Y-81171320D01*
X136233740Y-81232280D01*
X136251520Y-81260220D01*
X136241360Y-81278000D01*
X136203260Y-81326260D01*
X136129600Y-81402460D01*
X136017840Y-81511680D01*
X136000060Y-81529460D01*
X135913700Y-81613280D01*
X135840040Y-81681860D01*
X135786700Y-81727580D01*
X135763840Y-81745360D01*
X135763840Y-81745360D01*
G37*
X135763840Y-81745360D02*
X135738440Y-81730120D01*
X135680020Y-81694560D01*
X135596200Y-81638680D01*
X135497140Y-81572640D01*
X135398080Y-81506600D01*
X135316800Y-81453260D01*
X135260920Y-81415160D01*
X135235520Y-81402460D01*
X135222820Y-81407540D01*
X135177100Y-81430400D01*
X135108520Y-81465960D01*
X135067880Y-81486280D01*
X135006920Y-81511680D01*
X134973900Y-81519300D01*
X134968820Y-81509140D01*
X134945960Y-81460880D01*
X134910400Y-81379600D01*
X134864680Y-81270380D01*
X134808800Y-81143380D01*
X134752920Y-81008760D01*
X134694500Y-80869060D01*
X134638620Y-80734440D01*
X134590360Y-80615060D01*
X134549720Y-80518540D01*
X134524320Y-80449960D01*
X134514160Y-80422020D01*
X134516700Y-80414400D01*
X134549720Y-80383920D01*
X134603060Y-80343280D01*
X134722440Y-80246760D01*
X134839280Y-80101980D01*
X134910400Y-79936880D01*
X134933260Y-79751460D01*
X134912940Y-79581280D01*
X134846900Y-79418720D01*
X134732600Y-79271400D01*
X134592900Y-79162180D01*
X134430340Y-79093600D01*
X134250000Y-79070740D01*
X134077280Y-79091060D01*
X133909640Y-79157100D01*
X133762320Y-79268860D01*
X133698820Y-79339980D01*
X133612460Y-79489840D01*
X133564200Y-79647320D01*
X133559120Y-79687960D01*
X133566740Y-79863220D01*
X133617540Y-80033400D01*
X133711520Y-80183260D01*
X133841060Y-80307720D01*
X133856300Y-80317880D01*
X133914720Y-80363600D01*
X133955360Y-80394080D01*
X133985840Y-80419480D01*
X133762320Y-80957960D01*
X133726760Y-81041780D01*
X133665800Y-81189100D01*
X133612460Y-81316100D01*
X133569280Y-81417700D01*
X133538800Y-81483740D01*
X133526100Y-81511680D01*
X133526100Y-81514220D01*
X133505780Y-81516760D01*
X133465140Y-81501520D01*
X133388940Y-81465960D01*
X133340680Y-81440560D01*
X133282260Y-81412620D01*
X133256860Y-81402460D01*
X133234000Y-81415160D01*
X133180660Y-81450720D01*
X133099380Y-81504060D01*
X133002860Y-81567560D01*
X132911420Y-81631060D01*
X132827600Y-81686940D01*
X132766640Y-81725040D01*
X132736160Y-81742820D01*
X132731080Y-81742820D01*
X132705680Y-81727580D01*
X132657420Y-81686940D01*
X132583760Y-81618360D01*
X132479620Y-81514220D01*
X132464380Y-81498980D01*
X132378020Y-81412620D01*
X132309440Y-81338960D01*
X132263720Y-81288160D01*
X132245940Y-81265300D01*
X132245940Y-81265300D01*
X132261180Y-81234820D01*
X132299280Y-81173860D01*
X132355160Y-81087500D01*
X132423740Y-80988440D01*
X132601540Y-80729360D01*
X132505020Y-80485520D01*
X132474540Y-80409320D01*
X132436440Y-80320420D01*
X132408500Y-80254380D01*
X132393260Y-80226440D01*
X132367860Y-80216280D01*
X132299280Y-80201040D01*
X132202760Y-80180720D01*
X132088460Y-80160400D01*
X131976700Y-80140080D01*
X131877640Y-80119760D01*
X131806520Y-80107060D01*
X131773500Y-80099440D01*
X131765880Y-80094360D01*
X131758260Y-80079120D01*
X131755720Y-80046100D01*
X131753180Y-79985140D01*
X131750640Y-79891160D01*
X131750640Y-79751460D01*
X131750640Y-79736220D01*
X131753180Y-79606680D01*
X131755720Y-79500000D01*
X131758260Y-79433960D01*
X131763340Y-79406020D01*
X131763340Y-79406020D01*
X131793820Y-79398400D01*
X131864940Y-79383160D01*
X131964000Y-79365380D01*
X132083380Y-79342520D01*
X132091000Y-79339980D01*
X132207840Y-79317120D01*
X132306900Y-79296800D01*
X132378020Y-79281560D01*
X132405960Y-79271400D01*
X132413580Y-79263780D01*
X132436440Y-79218060D01*
X132469460Y-79144400D01*
X132510100Y-79055500D01*
X132548200Y-78961520D01*
X132581220Y-78877700D01*
X132604080Y-78816740D01*
X132611700Y-78788800D01*
X132609160Y-78786260D01*
X132591380Y-78758320D01*
X132550740Y-78697360D01*
X132494860Y-78613540D01*
X132426280Y-78511940D01*
X132421200Y-78504320D01*
X132352620Y-78405260D01*
X132296740Y-78318900D01*
X132261180Y-78260480D01*
X132245940Y-78232540D01*
X132245940Y-78230000D01*
X132268800Y-78199520D01*
X132319600Y-78143640D01*
X132393260Y-78067440D01*
X132479620Y-77978540D01*
X132507560Y-77953140D01*
X132606620Y-77856620D01*
X132672660Y-77795660D01*
X132715840Y-77762640D01*
X132736160Y-77755020D01*
X132736160Y-77755020D01*
X132766640Y-77772800D01*
X132830140Y-77813440D01*
X132913960Y-77871860D01*
X133015560Y-77940440D01*
X133023180Y-77945520D01*
X133122240Y-78014100D01*
X133206060Y-78069980D01*
X133264480Y-78110620D01*
X133292420Y-78125860D01*
X133294960Y-78125860D01*
X133335600Y-78113160D01*
X133406720Y-78087760D01*
X133495620Y-78054740D01*
X133587060Y-78016640D01*
X133670880Y-77981080D01*
X133734380Y-77953140D01*
X133764860Y-77935360D01*
X133764860Y-77935360D01*
X133775020Y-77899800D01*
X133792800Y-77823600D01*
X133813120Y-77722000D01*
X133838520Y-77600080D01*
X133841060Y-77579760D01*
X133863920Y-77460380D01*
X133881700Y-77361320D01*
X133896940Y-77292740D01*
X133904560Y-77264800D01*
X133919800Y-77262260D01*
X133978220Y-77257180D01*
X134067120Y-77254640D01*
X134176340Y-77254640D01*
X134288100Y-77254640D01*
X134397320Y-77257180D01*
X134491300Y-77259720D01*
X134559880Y-77264800D01*
X134587820Y-77269880D01*
X134587820Y-77272420D01*
X134597980Y-77310520D01*
X134615760Y-77384180D01*
X134636080Y-77488320D01*
X134658940Y-77610240D01*
X134664020Y-77633100D01*
X134686880Y-77749940D01*
X134707200Y-77849000D01*
X134719900Y-77915040D01*
X134727520Y-77942980D01*
X134740220Y-77948060D01*
X134788480Y-77968380D01*
X134867220Y-78001400D01*
X134966280Y-78042040D01*
X135194880Y-78133480D01*
X135476820Y-77942980D01*
X135502220Y-77925200D01*
X135603820Y-77856620D01*
X135685100Y-77800740D01*
X135743520Y-77762640D01*
X135766380Y-77749940D01*
X135768920Y-77749940D01*
X135796860Y-77775340D01*
X135852740Y-77828680D01*
X135928940Y-77902340D01*
X136017840Y-77988700D01*
X136081340Y-78054740D01*
X136160080Y-78133480D01*
X136208340Y-78186820D01*
X136236280Y-78219840D01*
X136243900Y-78240160D01*
X136241360Y-78255400D01*
X136223580Y-78283340D01*
X136182940Y-78344300D01*
X136124520Y-78430660D01*
X136055940Y-78529720D01*
X136000060Y-78613540D01*
X135939100Y-78707520D01*
X135901000Y-78773560D01*
X135885760Y-78806580D01*
X135890840Y-78819280D01*
X135908620Y-78875160D01*
X135944180Y-78958980D01*
X135984820Y-79058040D01*
X136083880Y-79279020D01*
X136228660Y-79306960D01*
X136317560Y-79324740D01*
X136439480Y-79347600D01*
X136558860Y-79370460D01*
X136741740Y-79406020D01*
X136749360Y-80081660D01*
X136721420Y-80094360D01*
X136693480Y-80101980D01*
X136624900Y-80117220D01*
X136528380Y-80137540D01*
X136411540Y-80157860D01*
X136315020Y-80175640D01*
X136215960Y-80195960D01*
X136144840Y-80208660D01*
X136114360Y-80216280D01*
X136104200Y-80226440D01*
X136081340Y-80274700D01*
X136045780Y-80350900D01*
X136005140Y-80442340D01*
X135967040Y-80536320D01*
X135931480Y-80625220D01*
X135908620Y-80691260D01*
X135898460Y-80724280D01*
X135911160Y-80752220D01*
X135949260Y-80810640D01*
X136002600Y-80891920D01*
X136071180Y-80990980D01*
X136137220Y-81087500D01*
X136195640Y-81171320D01*
X136233740Y-81232280D01*
X136251520Y-81260220D01*
X136241360Y-81278000D01*
X136203260Y-81326260D01*
X136129600Y-81402460D01*
X136017840Y-81511680D01*
X136000060Y-81529460D01*
X135913700Y-81613280D01*
X135840040Y-81681860D01*
X135786700Y-81727580D01*
X135763840Y-81745360D01*
D12*
X127480000Y-82770000D02*
X127480000Y-95470000D01*
X127480000Y-95470000D02*
X130020000Y-95470000D01*
X130020000Y-95470000D02*
X130020000Y-82770000D01*
X127200000Y-79950000D02*
X127200000Y-81500000D01*
X127480000Y-82770000D02*
X130020000Y-82770000D01*
X130300000Y-81500000D02*
X130300000Y-79950000D01*
X130300000Y-79950000D02*
X127200000Y-79950000D01*
X189488095Y-79702381D02*
X189488095Y-78702381D01*
X189107142Y-78702381D01*
X189011904Y-78750000D01*
X188964285Y-78797619D01*
X188916666Y-78892857D01*
X188916666Y-79035714D01*
X188964285Y-79130952D01*
X189011904Y-79178571D01*
X189107142Y-79226190D01*
X189488095Y-79226190D01*
X187964285Y-79702381D02*
X188535714Y-79702381D01*
X188250000Y-79702381D02*
X188250000Y-78702381D01*
X188345238Y-78845238D01*
X188440476Y-78940476D01*
X188535714Y-78988095D01*
X196086905Y-84554762D02*
X195944048Y-84602381D01*
X195705952Y-84602381D01*
X195610714Y-84554762D01*
X195563095Y-84507143D01*
X195515476Y-84411905D01*
X195515476Y-84316667D01*
X195563095Y-84221429D01*
X195610714Y-84173810D01*
X195705952Y-84126190D01*
X195896429Y-84078571D01*
X195991667Y-84030952D01*
X196039286Y-83983333D01*
X196086905Y-83888095D01*
X196086905Y-83792857D01*
X196039286Y-83697619D01*
X195991667Y-83650000D01*
X195896429Y-83602381D01*
X195658333Y-83602381D01*
X195515476Y-83650000D01*
X195086905Y-84602381D02*
X195086905Y-83602381D01*
X194705952Y-83602381D01*
X194610714Y-83650000D01*
X194563095Y-83697619D01*
X194515476Y-83792857D01*
X194515476Y-83935714D01*
X194563095Y-84030952D01*
X194610714Y-84078571D01*
X194705952Y-84126190D01*
X195086905Y-84126190D01*
X193563095Y-84602381D02*
X194134524Y-84602381D01*
X193848810Y-84602381D02*
X193848810Y-83602381D01*
X193944048Y-83745238D01*
X194039286Y-83840476D01*
X194134524Y-83888095D01*
X202111429Y-93429048D02*
X202111429Y-94190953D01*
X202492381Y-93810001D02*
X201730476Y-93810001D01*
X175766666Y-87252381D02*
X176100000Y-86776190D01*
X176338095Y-87252381D02*
X176338095Y-86252381D01*
X175957142Y-86252381D01*
X175861904Y-86300000D01*
X175814285Y-86347619D01*
X175766666Y-86442857D01*
X175766666Y-86585714D01*
X175814285Y-86680952D01*
X175861904Y-86728571D01*
X175957142Y-86776190D01*
X176338095Y-86776190D01*
X175433333Y-86252381D02*
X174814285Y-86252381D01*
X175147619Y-86633333D01*
X175004761Y-86633333D01*
X174909523Y-86680952D01*
X174861904Y-86728571D01*
X174814285Y-86823810D01*
X174814285Y-87061905D01*
X174861904Y-87157143D01*
X174909523Y-87204762D01*
X175004761Y-87252381D01*
X175290476Y-87252381D01*
X175385714Y-87204762D01*
X175433333Y-87157143D01*
X174266666Y-94352381D02*
X174600000Y-93876190D01*
X174838095Y-94352381D02*
X174838095Y-93352381D01*
X174457142Y-93352381D01*
X174361904Y-93400000D01*
X174314285Y-93447619D01*
X174266666Y-93542857D01*
X174266666Y-93685714D01*
X174314285Y-93780952D01*
X174361904Y-93828571D01*
X174457142Y-93876190D01*
X174838095Y-93876190D01*
X173885714Y-93447619D02*
X173838095Y-93400000D01*
X173742857Y-93352381D01*
X173504761Y-93352381D01*
X173409523Y-93400000D01*
X173361904Y-93447619D01*
X173314285Y-93542857D01*
X173314285Y-93638095D01*
X173361904Y-93780952D01*
X173933333Y-94352381D01*
X173314285Y-94352381D01*
X181391666Y-95227381D02*
X181725000Y-94751190D01*
X181963095Y-95227381D02*
X181963095Y-94227381D01*
X181582142Y-94227381D01*
X181486904Y-94275000D01*
X181439285Y-94322619D01*
X181391666Y-94417857D01*
X181391666Y-94560714D01*
X181439285Y-94655952D01*
X181486904Y-94703571D01*
X181582142Y-94751190D01*
X181963095Y-94751190D01*
X180439285Y-95227381D02*
X181010714Y-95227381D01*
X180725000Y-95227381D02*
X180725000Y-94227381D01*
X180820238Y-94370238D01*
X180915476Y-94465476D01*
X181010714Y-94513095D01*
X174632143Y-91983334D02*
X174679762Y-91935715D01*
X174727381Y-91792858D01*
X174727381Y-91697620D01*
X174679762Y-91554762D01*
X174584524Y-91459524D01*
X174489286Y-91411905D01*
X174298810Y-91364286D01*
X174155952Y-91364286D01*
X173965476Y-91411905D01*
X173870238Y-91459524D01*
X173775000Y-91554762D01*
X173727381Y-91697620D01*
X173727381Y-91792858D01*
X173775000Y-91935715D01*
X173822619Y-91983334D01*
X173727381Y-92840477D02*
X173727381Y-92650000D01*
X173775000Y-92554762D01*
X173822619Y-92507143D01*
X173965476Y-92411905D01*
X174155952Y-92364286D01*
X174536905Y-92364286D01*
X174632143Y-92411905D01*
X174679762Y-92459524D01*
X174727381Y-92554762D01*
X174727381Y-92745239D01*
X174679762Y-92840477D01*
X174632143Y-92888096D01*
X174536905Y-92935715D01*
X174298810Y-92935715D01*
X174203571Y-92888096D01*
X174155952Y-92840477D01*
X174108333Y-92745239D01*
X174108333Y-92554762D01*
X174155952Y-92459524D01*
X174203571Y-92411905D01*
X174298810Y-92364286D01*
X152666666Y-94357143D02*
X152714285Y-94404762D01*
X152857142Y-94452381D01*
X152952380Y-94452381D01*
X153095238Y-94404762D01*
X153190476Y-94309524D01*
X153238095Y-94214286D01*
X153285714Y-94023810D01*
X153285714Y-93880952D01*
X153238095Y-93690476D01*
X153190476Y-93595238D01*
X153095238Y-93500000D01*
X152952380Y-93452381D01*
X152857142Y-93452381D01*
X152714285Y-93500000D01*
X152666666Y-93547619D01*
X151761904Y-93452381D02*
X152238095Y-93452381D01*
X152285714Y-93928571D01*
X152238095Y-93880952D01*
X152142857Y-93833333D01*
X151904761Y-93833333D01*
X151809523Y-93880952D01*
X151761904Y-93928571D01*
X151714285Y-94023810D01*
X151714285Y-94261905D01*
X151761904Y-94357143D01*
X151809523Y-94404762D01*
X151904761Y-94452381D01*
X152142857Y-94452381D01*
X152238095Y-94404762D01*
X152285714Y-94357143D01*
D18*
X172722655Y-91699018D02*
X172770310Y-91675190D01*
X172817966Y-91627535D01*
X172889449Y-91556052D01*
X172937104Y-91532224D01*
X172984759Y-91532224D01*
X172960931Y-91651362D02*
X173008587Y-91627535D01*
X173056242Y-91579880D01*
X173080070Y-91484569D01*
X173080070Y-91317776D01*
X173056242Y-91222465D01*
X173008587Y-91174810D01*
X172960931Y-91150982D01*
X172865621Y-91150982D01*
X172817966Y-91174810D01*
X172770310Y-91222465D01*
X172746483Y-91317776D01*
X172746483Y-91484569D01*
X172770310Y-91579880D01*
X172817966Y-91627535D01*
X172865621Y-91651362D01*
X172960931Y-91651362D01*
X172555862Y-91198638D02*
X172532034Y-91174810D01*
X172484379Y-91150982D01*
X172365241Y-91150982D01*
X172317585Y-91174810D01*
X172293758Y-91198638D01*
X172269930Y-91246293D01*
X172269930Y-91293948D01*
X172293758Y-91365431D01*
X172579689Y-91651362D01*
X172269930Y-91651362D01*
X180047655Y-93024018D02*
X180095310Y-93000190D01*
X180142966Y-92952535D01*
X180214449Y-92881052D01*
X180262104Y-92857224D01*
X180309759Y-92857224D01*
X180285931Y-92976362D02*
X180333587Y-92952535D01*
X180381242Y-92904880D01*
X180405070Y-92809569D01*
X180405070Y-92642776D01*
X180381242Y-92547465D01*
X180333587Y-92499810D01*
X180285931Y-92475982D01*
X180190621Y-92475982D01*
X180142966Y-92499810D01*
X180095310Y-92547465D01*
X180071483Y-92642776D01*
X180071483Y-92809569D01*
X180095310Y-92904880D01*
X180142966Y-92952535D01*
X180190621Y-92976362D01*
X180285931Y-92976362D01*
X179594930Y-92976362D02*
X179880862Y-92976362D01*
X179737896Y-92976362D02*
X179737896Y-92475982D01*
X179785551Y-92547465D01*
X179833206Y-92595120D01*
X179880862Y-92618948D01*
D12*
X184813095Y-82977381D02*
X184813095Y-81977381D01*
X184432142Y-81977381D01*
X184336904Y-82025000D01*
X184289285Y-82072619D01*
X184241666Y-82167857D01*
X184241666Y-82310714D01*
X184289285Y-82405952D01*
X184336904Y-82453571D01*
X184432142Y-82501190D01*
X184813095Y-82501190D01*
X183860714Y-82072619D02*
X183813095Y-82025000D01*
X183717857Y-81977381D01*
X183479761Y-81977381D01*
X183384523Y-82025000D01*
X183336904Y-82072619D01*
X183289285Y-82167857D01*
X183289285Y-82263095D01*
X183336904Y-82405952D01*
X183908333Y-82977381D01*
X183289285Y-82977381D01*
X184813095Y-102527381D02*
X184813095Y-101527381D01*
X184432142Y-101527381D01*
X184336904Y-101575000D01*
X184289285Y-101622619D01*
X184241666Y-101717857D01*
X184241666Y-101860714D01*
X184289285Y-101955952D01*
X184336904Y-102003571D01*
X184432142Y-102051190D01*
X184813095Y-102051190D01*
X183860714Y-101622619D02*
X183813095Y-101575000D01*
X183717857Y-101527381D01*
X183479761Y-101527381D01*
X183384523Y-101575000D01*
X183336904Y-101622619D01*
X183289285Y-101717857D01*
X183289285Y-101813095D01*
X183336904Y-101955952D01*
X183908333Y-102527381D01*
X183289285Y-102527381D01*
D18*
X180047655Y-112574018D02*
X180095310Y-112550190D01*
X180142966Y-112502535D01*
X180214449Y-112431052D01*
X180262104Y-112407224D01*
X180309759Y-112407224D01*
X180285931Y-112526362D02*
X180333587Y-112502535D01*
X180381242Y-112454880D01*
X180405070Y-112359569D01*
X180405070Y-112192776D01*
X180381242Y-112097465D01*
X180333587Y-112049810D01*
X180285931Y-112025982D01*
X180190621Y-112025982D01*
X180142966Y-112049810D01*
X180095310Y-112097465D01*
X180071483Y-112192776D01*
X180071483Y-112359569D01*
X180095310Y-112454880D01*
X180142966Y-112502535D01*
X180190621Y-112526362D01*
X180285931Y-112526362D01*
X179594930Y-112526362D02*
X179880862Y-112526362D01*
X179737896Y-112526362D02*
X179737896Y-112025982D01*
X179785551Y-112097465D01*
X179833206Y-112145120D01*
X179880862Y-112168948D01*
X172722655Y-111249018D02*
X172770310Y-111225190D01*
X172817966Y-111177535D01*
X172889449Y-111106052D01*
X172937104Y-111082224D01*
X172984759Y-111082224D01*
X172960931Y-111201362D02*
X173008587Y-111177535D01*
X173056242Y-111129880D01*
X173080070Y-111034569D01*
X173080070Y-110867776D01*
X173056242Y-110772465D01*
X173008587Y-110724810D01*
X172960931Y-110700982D01*
X172865621Y-110700982D01*
X172817966Y-110724810D01*
X172770310Y-110772465D01*
X172746483Y-110867776D01*
X172746483Y-111034569D01*
X172770310Y-111129880D01*
X172817966Y-111177535D01*
X172865621Y-111201362D01*
X172960931Y-111201362D01*
X172555862Y-110748638D02*
X172532034Y-110724810D01*
X172484379Y-110700982D01*
X172365241Y-110700982D01*
X172317585Y-110724810D01*
X172293758Y-110748638D01*
X172269930Y-110796293D01*
X172269930Y-110843948D01*
X172293758Y-110915431D01*
X172579689Y-111201362D01*
X172269930Y-111201362D01*
D12*
X152666666Y-113907143D02*
X152714285Y-113954762D01*
X152857142Y-114002381D01*
X152952380Y-114002381D01*
X153095238Y-113954762D01*
X153190476Y-113859524D01*
X153238095Y-113764286D01*
X153285714Y-113573810D01*
X153285714Y-113430952D01*
X153238095Y-113240476D01*
X153190476Y-113145238D01*
X153095238Y-113050000D01*
X152952380Y-113002381D01*
X152857142Y-113002381D01*
X152714285Y-113050000D01*
X152666666Y-113097619D01*
X151761904Y-113002381D02*
X152238095Y-113002381D01*
X152285714Y-113478571D01*
X152238095Y-113430952D01*
X152142857Y-113383333D01*
X151904761Y-113383333D01*
X151809523Y-113430952D01*
X151761904Y-113478571D01*
X151714285Y-113573810D01*
X151714285Y-113811905D01*
X151761904Y-113907143D01*
X151809523Y-113954762D01*
X151904761Y-114002381D01*
X152142857Y-114002381D01*
X152238095Y-113954762D01*
X152285714Y-113907143D01*
X174632143Y-111533334D02*
X174679762Y-111485715D01*
X174727381Y-111342858D01*
X174727381Y-111247620D01*
X174679762Y-111104762D01*
X174584524Y-111009524D01*
X174489286Y-110961905D01*
X174298810Y-110914286D01*
X174155952Y-110914286D01*
X173965476Y-110961905D01*
X173870238Y-111009524D01*
X173775000Y-111104762D01*
X173727381Y-111247620D01*
X173727381Y-111342858D01*
X173775000Y-111485715D01*
X173822619Y-111533334D01*
X173727381Y-112390477D02*
X173727381Y-112200000D01*
X173775000Y-112104762D01*
X173822619Y-112057143D01*
X173965476Y-111961905D01*
X174155952Y-111914286D01*
X174536905Y-111914286D01*
X174632143Y-111961905D01*
X174679762Y-112009524D01*
X174727381Y-112104762D01*
X174727381Y-112295239D01*
X174679762Y-112390477D01*
X174632143Y-112438096D01*
X174536905Y-112485715D01*
X174298810Y-112485715D01*
X174203571Y-112438096D01*
X174155952Y-112390477D01*
X174108333Y-112295239D01*
X174108333Y-112104762D01*
X174155952Y-112009524D01*
X174203571Y-111961905D01*
X174298810Y-111914286D01*
X181391666Y-114777381D02*
X181725000Y-114301190D01*
X181963095Y-114777381D02*
X181963095Y-113777381D01*
X181582142Y-113777381D01*
X181486904Y-113825000D01*
X181439285Y-113872619D01*
X181391666Y-113967857D01*
X181391666Y-114110714D01*
X181439285Y-114205952D01*
X181486904Y-114253571D01*
X181582142Y-114301190D01*
X181963095Y-114301190D01*
X180439285Y-114777381D02*
X181010714Y-114777381D01*
X180725000Y-114777381D02*
X180725000Y-113777381D01*
X180820238Y-113920238D01*
X180915476Y-114015476D01*
X181010714Y-114063095D01*
X174266666Y-113902381D02*
X174600000Y-113426190D01*
X174838095Y-113902381D02*
X174838095Y-112902381D01*
X174457142Y-112902381D01*
X174361904Y-112950000D01*
X174314285Y-112997619D01*
X174266666Y-113092857D01*
X174266666Y-113235714D01*
X174314285Y-113330952D01*
X174361904Y-113378571D01*
X174457142Y-113426190D01*
X174838095Y-113426190D01*
X173885714Y-112997619D02*
X173838095Y-112950000D01*
X173742857Y-112902381D01*
X173504761Y-112902381D01*
X173409523Y-112950000D01*
X173361904Y-112997619D01*
X173314285Y-113092857D01*
X173314285Y-113188095D01*
X173361904Y-113330952D01*
X173933333Y-113902381D01*
X173314285Y-113902381D01*
X175766666Y-106802381D02*
X176100000Y-106326190D01*
X176338095Y-106802381D02*
X176338095Y-105802381D01*
X175957142Y-105802381D01*
X175861904Y-105850000D01*
X175814285Y-105897619D01*
X175766666Y-105992857D01*
X175766666Y-106135714D01*
X175814285Y-106230952D01*
X175861904Y-106278571D01*
X175957142Y-106326190D01*
X176338095Y-106326190D01*
X175433333Y-105802381D02*
X174814285Y-105802381D01*
X175147619Y-106183333D01*
X175004761Y-106183333D01*
X174909523Y-106230952D01*
X174861904Y-106278571D01*
X174814285Y-106373810D01*
X174814285Y-106611905D01*
X174861904Y-106707143D01*
X174909523Y-106754762D01*
X175004761Y-106802381D01*
X175290476Y-106802381D01*
X175385714Y-106754762D01*
X175433333Y-106707143D01*
X196086905Y-104104762D02*
X195944048Y-104152381D01*
X195705952Y-104152381D01*
X195610714Y-104104762D01*
X195563095Y-104057143D01*
X195515476Y-103961905D01*
X195515476Y-103866667D01*
X195563095Y-103771429D01*
X195610714Y-103723810D01*
X195705952Y-103676190D01*
X195896429Y-103628571D01*
X195991667Y-103580952D01*
X196039286Y-103533333D01*
X196086905Y-103438095D01*
X196086905Y-103342857D01*
X196039286Y-103247619D01*
X195991667Y-103200000D01*
X195896429Y-103152381D01*
X195658333Y-103152381D01*
X195515476Y-103200000D01*
X195086905Y-104152381D02*
X195086905Y-103152381D01*
X194705952Y-103152381D01*
X194610714Y-103200000D01*
X194563095Y-103247619D01*
X194515476Y-103342857D01*
X194515476Y-103485714D01*
X194563095Y-103580952D01*
X194610714Y-103628571D01*
X194705952Y-103676190D01*
X195086905Y-103676190D01*
X193563095Y-104152381D02*
X194134524Y-104152381D01*
X193848810Y-104152381D02*
X193848810Y-103152381D01*
X193944048Y-103295238D01*
X194039286Y-103390476D01*
X194134524Y-103438095D01*
X202111429Y-112979048D02*
X202111429Y-113740953D01*
X202492381Y-113360001D02*
X201730476Y-113360001D01*
X189488095Y-99252381D02*
X189488095Y-98252381D01*
X189107142Y-98252381D01*
X189011904Y-98300000D01*
X188964285Y-98347619D01*
X188916666Y-98442857D01*
X188916666Y-98585714D01*
X188964285Y-98680952D01*
X189011904Y-98728571D01*
X189107142Y-98776190D01*
X189488095Y-98776190D01*
X187964285Y-99252381D02*
X188535714Y-99252381D01*
X188250000Y-99252381D02*
X188250000Y-98252381D01*
X188345238Y-98395238D01*
X188440476Y-98490476D01*
X188535714Y-98538095D01*
X129488095Y-99252381D02*
X129488095Y-98252381D01*
X129107142Y-98252381D01*
X129011904Y-98300000D01*
X128964285Y-98347619D01*
X128916666Y-98442857D01*
X128916666Y-98585714D01*
X128964285Y-98680952D01*
X129011904Y-98728571D01*
X129107142Y-98776190D01*
X129488095Y-98776190D01*
X127964285Y-99252381D02*
X128535714Y-99252381D01*
X128250000Y-99252381D02*
X128250000Y-98252381D01*
X128345238Y-98395238D01*
X128440476Y-98490476D01*
X128535714Y-98538095D01*
X136086905Y-104104762D02*
X135944048Y-104152381D01*
X135705952Y-104152381D01*
X135610714Y-104104762D01*
X135563095Y-104057143D01*
X135515476Y-103961905D01*
X135515476Y-103866667D01*
X135563095Y-103771429D01*
X135610714Y-103723810D01*
X135705952Y-103676190D01*
X135896429Y-103628571D01*
X135991667Y-103580952D01*
X136039286Y-103533333D01*
X136086905Y-103438095D01*
X136086905Y-103342857D01*
X136039286Y-103247619D01*
X135991667Y-103200000D01*
X135896429Y-103152381D01*
X135658333Y-103152381D01*
X135515476Y-103200000D01*
X135086905Y-104152381D02*
X135086905Y-103152381D01*
X134705952Y-103152381D01*
X134610714Y-103200000D01*
X134563095Y-103247619D01*
X134515476Y-103342857D01*
X134515476Y-103485714D01*
X134563095Y-103580952D01*
X134610714Y-103628571D01*
X134705952Y-103676190D01*
X135086905Y-103676190D01*
X133563095Y-104152381D02*
X134134524Y-104152381D01*
X133848810Y-104152381D02*
X133848810Y-103152381D01*
X133944048Y-103295238D01*
X134039286Y-103390476D01*
X134134524Y-103438095D01*
X142111429Y-112979048D02*
X142111429Y-113740953D01*
X142492381Y-113360001D02*
X141730476Y-113360001D01*
X115766666Y-106802381D02*
X116100000Y-106326190D01*
X116338095Y-106802381D02*
X116338095Y-105802381D01*
X115957142Y-105802381D01*
X115861904Y-105850000D01*
X115814285Y-105897619D01*
X115766666Y-105992857D01*
X115766666Y-106135714D01*
X115814285Y-106230952D01*
X115861904Y-106278571D01*
X115957142Y-106326190D01*
X116338095Y-106326190D01*
X115433333Y-105802381D02*
X114814285Y-105802381D01*
X115147619Y-106183333D01*
X115004761Y-106183333D01*
X114909523Y-106230952D01*
X114861904Y-106278571D01*
X114814285Y-106373810D01*
X114814285Y-106611905D01*
X114861904Y-106707143D01*
X114909523Y-106754762D01*
X115004761Y-106802381D01*
X115290476Y-106802381D01*
X115385714Y-106754762D01*
X115433333Y-106707143D01*
X114266666Y-113902381D02*
X114600000Y-113426190D01*
X114838095Y-113902381D02*
X114838095Y-112902381D01*
X114457142Y-112902381D01*
X114361904Y-112950000D01*
X114314285Y-112997619D01*
X114266666Y-113092857D01*
X114266666Y-113235714D01*
X114314285Y-113330952D01*
X114361904Y-113378571D01*
X114457142Y-113426190D01*
X114838095Y-113426190D01*
X113885714Y-112997619D02*
X113838095Y-112950000D01*
X113742857Y-112902381D01*
X113504761Y-112902381D01*
X113409523Y-112950000D01*
X113361904Y-112997619D01*
X113314285Y-113092857D01*
X113314285Y-113188095D01*
X113361904Y-113330952D01*
X113933333Y-113902381D01*
X113314285Y-113902381D01*
X121391666Y-114777381D02*
X121725000Y-114301190D01*
X121963095Y-114777381D02*
X121963095Y-113777381D01*
X121582142Y-113777381D01*
X121486904Y-113825000D01*
X121439285Y-113872619D01*
X121391666Y-113967857D01*
X121391666Y-114110714D01*
X121439285Y-114205952D01*
X121486904Y-114253571D01*
X121582142Y-114301190D01*
X121963095Y-114301190D01*
X120439285Y-114777381D02*
X121010714Y-114777381D01*
X120725000Y-114777381D02*
X120725000Y-113777381D01*
X120820238Y-113920238D01*
X120915476Y-114015476D01*
X121010714Y-114063095D01*
X114632143Y-111533334D02*
X114679762Y-111485715D01*
X114727381Y-111342858D01*
X114727381Y-111247620D01*
X114679762Y-111104762D01*
X114584524Y-111009524D01*
X114489286Y-110961905D01*
X114298810Y-110914286D01*
X114155952Y-110914286D01*
X113965476Y-110961905D01*
X113870238Y-111009524D01*
X113775000Y-111104762D01*
X113727381Y-111247620D01*
X113727381Y-111342858D01*
X113775000Y-111485715D01*
X113822619Y-111533334D01*
X113727381Y-112390477D02*
X113727381Y-112200000D01*
X113775000Y-112104762D01*
X113822619Y-112057143D01*
X113965476Y-111961905D01*
X114155952Y-111914286D01*
X114536905Y-111914286D01*
X114632143Y-111961905D01*
X114679762Y-112009524D01*
X114727381Y-112104762D01*
X114727381Y-112295239D01*
X114679762Y-112390477D01*
X114632143Y-112438096D01*
X114536905Y-112485715D01*
X114298810Y-112485715D01*
X114203571Y-112438096D01*
X114155952Y-112390477D01*
X114108333Y-112295239D01*
X114108333Y-112104762D01*
X114155952Y-112009524D01*
X114203571Y-111961905D01*
X114298810Y-111914286D01*
X92666666Y-113907143D02*
X92714285Y-113954762D01*
X92857142Y-114002381D01*
X92952380Y-114002381D01*
X93095238Y-113954762D01*
X93190476Y-113859524D01*
X93238095Y-113764286D01*
X93285714Y-113573810D01*
X93285714Y-113430952D01*
X93238095Y-113240476D01*
X93190476Y-113145238D01*
X93095238Y-113050000D01*
X92952380Y-113002381D01*
X92857142Y-113002381D01*
X92714285Y-113050000D01*
X92666666Y-113097619D01*
X91761904Y-113002381D02*
X92238095Y-113002381D01*
X92285714Y-113478571D01*
X92238095Y-113430952D01*
X92142857Y-113383333D01*
X91904761Y-113383333D01*
X91809523Y-113430952D01*
X91761904Y-113478571D01*
X91714285Y-113573810D01*
X91714285Y-113811905D01*
X91761904Y-113907143D01*
X91809523Y-113954762D01*
X91904761Y-114002381D01*
X92142857Y-114002381D01*
X92238095Y-113954762D01*
X92285714Y-113907143D01*
D18*
X112722655Y-111249018D02*
X112770310Y-111225190D01*
X112817966Y-111177535D01*
X112889449Y-111106052D01*
X112937104Y-111082224D01*
X112984759Y-111082224D01*
X112960931Y-111201362D02*
X113008587Y-111177535D01*
X113056242Y-111129880D01*
X113080070Y-111034569D01*
X113080070Y-110867776D01*
X113056242Y-110772465D01*
X113008587Y-110724810D01*
X112960931Y-110700982D01*
X112865621Y-110700982D01*
X112817966Y-110724810D01*
X112770310Y-110772465D01*
X112746483Y-110867776D01*
X112746483Y-111034569D01*
X112770310Y-111129880D01*
X112817966Y-111177535D01*
X112865621Y-111201362D01*
X112960931Y-111201362D01*
X112555862Y-110748638D02*
X112532034Y-110724810D01*
X112484379Y-110700982D01*
X112365241Y-110700982D01*
X112317585Y-110724810D01*
X112293758Y-110748638D01*
X112269930Y-110796293D01*
X112269930Y-110843948D01*
X112293758Y-110915431D01*
X112579689Y-111201362D01*
X112269930Y-111201362D01*
X120047655Y-112574018D02*
X120095310Y-112550190D01*
X120142966Y-112502535D01*
X120214449Y-112431052D01*
X120262104Y-112407224D01*
X120309759Y-112407224D01*
X120285931Y-112526362D02*
X120333587Y-112502535D01*
X120381242Y-112454880D01*
X120405070Y-112359569D01*
X120405070Y-112192776D01*
X120381242Y-112097465D01*
X120333587Y-112049810D01*
X120285931Y-112025982D01*
X120190621Y-112025982D01*
X120142966Y-112049810D01*
X120095310Y-112097465D01*
X120071483Y-112192776D01*
X120071483Y-112359569D01*
X120095310Y-112454880D01*
X120142966Y-112502535D01*
X120190621Y-112526362D01*
X120285931Y-112526362D01*
X119594930Y-112526362D02*
X119880862Y-112526362D01*
X119737896Y-112526362D02*
X119737896Y-112025982D01*
X119785551Y-112097465D01*
X119833206Y-112145120D01*
X119880862Y-112168948D01*
D12*
X124813095Y-102527381D02*
X124813095Y-101527381D01*
X124432142Y-101527381D01*
X124336904Y-101575000D01*
X124289285Y-101622619D01*
X124241666Y-101717857D01*
X124241666Y-101860714D01*
X124289285Y-101955952D01*
X124336904Y-102003571D01*
X124432142Y-102051190D01*
X124813095Y-102051190D01*
X123860714Y-101622619D02*
X123813095Y-101575000D01*
X123717857Y-101527381D01*
X123479761Y-101527381D01*
X123384523Y-101575000D01*
X123336904Y-101622619D01*
X123289285Y-101717857D01*
X123289285Y-101813095D01*
X123336904Y-101955952D01*
X123908333Y-102527381D01*
X123289285Y-102527381D01*
X124813095Y-82977381D02*
X124813095Y-81977381D01*
X124432142Y-81977381D01*
X124336904Y-82025000D01*
X124289285Y-82072619D01*
X124241666Y-82167857D01*
X124241666Y-82310714D01*
X124289285Y-82405952D01*
X124336904Y-82453571D01*
X124432142Y-82501190D01*
X124813095Y-82501190D01*
X123860714Y-82072619D02*
X123813095Y-82025000D01*
X123717857Y-81977381D01*
X123479761Y-81977381D01*
X123384523Y-82025000D01*
X123336904Y-82072619D01*
X123289285Y-82167857D01*
X123289285Y-82263095D01*
X123336904Y-82405952D01*
X123908333Y-82977381D01*
X123289285Y-82977381D01*
D18*
X120047655Y-93024018D02*
X120095310Y-93000190D01*
X120142966Y-92952535D01*
X120214449Y-92881052D01*
X120262104Y-92857224D01*
X120309759Y-92857224D01*
X120285931Y-92976362D02*
X120333587Y-92952535D01*
X120381242Y-92904880D01*
X120405070Y-92809569D01*
X120405070Y-92642776D01*
X120381242Y-92547465D01*
X120333587Y-92499810D01*
X120285931Y-92475982D01*
X120190621Y-92475982D01*
X120142966Y-92499810D01*
X120095310Y-92547465D01*
X120071483Y-92642776D01*
X120071483Y-92809569D01*
X120095310Y-92904880D01*
X120142966Y-92952535D01*
X120190621Y-92976362D01*
X120285931Y-92976362D01*
X119594930Y-92976362D02*
X119880862Y-92976362D01*
X119737896Y-92976362D02*
X119737896Y-92475982D01*
X119785551Y-92547465D01*
X119833206Y-92595120D01*
X119880862Y-92618948D01*
X112722655Y-91699018D02*
X112770310Y-91675190D01*
X112817966Y-91627535D01*
X112889449Y-91556052D01*
X112937104Y-91532224D01*
X112984759Y-91532224D01*
X112960931Y-91651362D02*
X113008587Y-91627535D01*
X113056242Y-91579880D01*
X113080070Y-91484569D01*
X113080070Y-91317776D01*
X113056242Y-91222465D01*
X113008587Y-91174810D01*
X112960931Y-91150982D01*
X112865621Y-91150982D01*
X112817966Y-91174810D01*
X112770310Y-91222465D01*
X112746483Y-91317776D01*
X112746483Y-91484569D01*
X112770310Y-91579880D01*
X112817966Y-91627535D01*
X112865621Y-91651362D01*
X112960931Y-91651362D01*
X112555862Y-91198638D02*
X112532034Y-91174810D01*
X112484379Y-91150982D01*
X112365241Y-91150982D01*
X112317585Y-91174810D01*
X112293758Y-91198638D01*
X112269930Y-91246293D01*
X112269930Y-91293948D01*
X112293758Y-91365431D01*
X112579689Y-91651362D01*
X112269930Y-91651362D01*
D12*
X92666666Y-94357143D02*
X92714285Y-94404762D01*
X92857142Y-94452381D01*
X92952380Y-94452381D01*
X93095238Y-94404762D01*
X93190476Y-94309524D01*
X93238095Y-94214286D01*
X93285714Y-94023810D01*
X93285714Y-93880952D01*
X93238095Y-93690476D01*
X93190476Y-93595238D01*
X93095238Y-93500000D01*
X92952380Y-93452381D01*
X92857142Y-93452381D01*
X92714285Y-93500000D01*
X92666666Y-93547619D01*
X91761904Y-93452381D02*
X92238095Y-93452381D01*
X92285714Y-93928571D01*
X92238095Y-93880952D01*
X92142857Y-93833333D01*
X91904761Y-93833333D01*
X91809523Y-93880952D01*
X91761904Y-93928571D01*
X91714285Y-94023810D01*
X91714285Y-94261905D01*
X91761904Y-94357143D01*
X91809523Y-94404762D01*
X91904761Y-94452381D01*
X92142857Y-94452381D01*
X92238095Y-94404762D01*
X92285714Y-94357143D01*
X114632143Y-91983334D02*
X114679762Y-91935715D01*
X114727381Y-91792858D01*
X114727381Y-91697620D01*
X114679762Y-91554762D01*
X114584524Y-91459524D01*
X114489286Y-91411905D01*
X114298810Y-91364286D01*
X114155952Y-91364286D01*
X113965476Y-91411905D01*
X113870238Y-91459524D01*
X113775000Y-91554762D01*
X113727381Y-91697620D01*
X113727381Y-91792858D01*
X113775000Y-91935715D01*
X113822619Y-91983334D01*
X113727381Y-92840477D02*
X113727381Y-92650000D01*
X113775000Y-92554762D01*
X113822619Y-92507143D01*
X113965476Y-92411905D01*
X114155952Y-92364286D01*
X114536905Y-92364286D01*
X114632143Y-92411905D01*
X114679762Y-92459524D01*
X114727381Y-92554762D01*
X114727381Y-92745239D01*
X114679762Y-92840477D01*
X114632143Y-92888096D01*
X114536905Y-92935715D01*
X114298810Y-92935715D01*
X114203571Y-92888096D01*
X114155952Y-92840477D01*
X114108333Y-92745239D01*
X114108333Y-92554762D01*
X114155952Y-92459524D01*
X114203571Y-92411905D01*
X114298810Y-92364286D01*
X121391666Y-95227381D02*
X121725000Y-94751190D01*
X121963095Y-95227381D02*
X121963095Y-94227381D01*
X121582142Y-94227381D01*
X121486904Y-94275000D01*
X121439285Y-94322619D01*
X121391666Y-94417857D01*
X121391666Y-94560714D01*
X121439285Y-94655952D01*
X121486904Y-94703571D01*
X121582142Y-94751190D01*
X121963095Y-94751190D01*
X120439285Y-95227381D02*
X121010714Y-95227381D01*
X120725000Y-95227381D02*
X120725000Y-94227381D01*
X120820238Y-94370238D01*
X120915476Y-94465476D01*
X121010714Y-94513095D01*
X114266666Y-94352381D02*
X114600000Y-93876190D01*
X114838095Y-94352381D02*
X114838095Y-93352381D01*
X114457142Y-93352381D01*
X114361904Y-93400000D01*
X114314285Y-93447619D01*
X114266666Y-93542857D01*
X114266666Y-93685714D01*
X114314285Y-93780952D01*
X114361904Y-93828571D01*
X114457142Y-93876190D01*
X114838095Y-93876190D01*
X113885714Y-93447619D02*
X113838095Y-93400000D01*
X113742857Y-93352381D01*
X113504761Y-93352381D01*
X113409523Y-93400000D01*
X113361904Y-93447619D01*
X113314285Y-93542857D01*
X113314285Y-93638095D01*
X113361904Y-93780952D01*
X113933333Y-94352381D01*
X113314285Y-94352381D01*
X115766666Y-87252381D02*
X116100000Y-86776190D01*
X116338095Y-87252381D02*
X116338095Y-86252381D01*
X115957142Y-86252381D01*
X115861904Y-86300000D01*
X115814285Y-86347619D01*
X115766666Y-86442857D01*
X115766666Y-86585714D01*
X115814285Y-86680952D01*
X115861904Y-86728571D01*
X115957142Y-86776190D01*
X116338095Y-86776190D01*
X115433333Y-86252381D02*
X114814285Y-86252381D01*
X115147619Y-86633333D01*
X115004761Y-86633333D01*
X114909523Y-86680952D01*
X114861904Y-86728571D01*
X114814285Y-86823810D01*
X114814285Y-87061905D01*
X114861904Y-87157143D01*
X114909523Y-87204762D01*
X115004761Y-87252381D01*
X115290476Y-87252381D01*
X115385714Y-87204762D01*
X115433333Y-87157143D01*
X136086905Y-84554762D02*
X135944048Y-84602381D01*
X135705952Y-84602381D01*
X135610714Y-84554762D01*
X135563095Y-84507143D01*
X135515476Y-84411905D01*
X135515476Y-84316667D01*
X135563095Y-84221429D01*
X135610714Y-84173810D01*
X135705952Y-84126190D01*
X135896429Y-84078571D01*
X135991667Y-84030952D01*
X136039286Y-83983333D01*
X136086905Y-83888095D01*
X136086905Y-83792857D01*
X136039286Y-83697619D01*
X135991667Y-83650000D01*
X135896429Y-83602381D01*
X135658333Y-83602381D01*
X135515476Y-83650000D01*
X135086905Y-84602381D02*
X135086905Y-83602381D01*
X134705952Y-83602381D01*
X134610714Y-83650000D01*
X134563095Y-83697619D01*
X134515476Y-83792857D01*
X134515476Y-83935714D01*
X134563095Y-84030952D01*
X134610714Y-84078571D01*
X134705952Y-84126190D01*
X135086905Y-84126190D01*
X133563095Y-84602381D02*
X134134524Y-84602381D01*
X133848810Y-84602381D02*
X133848810Y-83602381D01*
X133944048Y-83745238D01*
X134039286Y-83840476D01*
X134134524Y-83888095D01*
X142111429Y-93429048D02*
X142111429Y-94190953D01*
X142492381Y-93810001D02*
X141730476Y-93810001D01*
X129488095Y-79702381D02*
X129488095Y-78702381D01*
X129107142Y-78702381D01*
X129011904Y-78750000D01*
X128964285Y-78797619D01*
X128916666Y-78892857D01*
X128916666Y-79035714D01*
X128964285Y-79130952D01*
X129011904Y-79178571D01*
X129107142Y-79226190D01*
X129488095Y-79226190D01*
X127964285Y-79702381D02*
X128535714Y-79702381D01*
X128250000Y-79702381D02*
X128250000Y-78702381D01*
X128345238Y-78845238D01*
X128440476Y-78940476D01*
X128535714Y-78988095D01*
M02*
