G04 #@! TF.FileFunction,Copper,L1,Top,Signal*
%FSLAX46Y46*%
G04 Gerber Fmt 4.6, Leading zero omitted, Abs format (unit mm)*
G04 Created by KiCad (PCBNEW (2015-01-16 BZR 5376)-product) date 1/21/2016 3:46:14 PM*
%MOMM*%
G01*
G04 APERTURE LIST*
%ADD10C,0.100000*%
%ADD11C,0.150000*%
%ADD12C,0.300000*%
%ADD13C,3.200000*%
%ADD14R,2.032000X1.727200*%
%ADD15O,2.032000X1.727200*%
%ADD16R,4.600000X1.390000*%
%ADD17R,9.400000X10.800000*%
%ADD18R,0.500000X0.900000*%
%ADD19R,2.148840X1.501140*%
%ADD20R,3.657600X2.032000*%
%ADD21R,1.016000X2.032000*%
%ADD22C,2.000000*%
%ADD23R,0.900000X0.500000*%
%ADD24R,0.800100X0.800100*%
%ADD25R,1.727200X2.032000*%
%ADD26O,1.727200X2.032000*%
%ADD27R,3.500120X3.500120*%
%ADD28R,0.800000X0.750000*%
%ADD29R,1.727200X1.727200*%
%ADD30O,1.727200X1.727200*%
%ADD31C,1.200000*%
%ADD32C,0.500000*%
%ADD33C,0.350000*%
%ADD34C,0.250000*%
G04 APERTURE END LIST*
D10*
D11*
X206000000Y-77500000D02*
X206000000Y-77000000D01*
X206000000Y-77000000D02*
X146000000Y-77000000D01*
X146000000Y-77000000D02*
X146000000Y-96500000D01*
X146000000Y-96500000D02*
X206000000Y-96500000D01*
X206000000Y-96500000D02*
X206000000Y-77500000D01*
D12*
X201485715Y-88028571D02*
X201428572Y-88085714D01*
X201257143Y-88142857D01*
X201142857Y-88142857D01*
X200971429Y-88085714D01*
X200857143Y-87971429D01*
X200800000Y-87857143D01*
X200742857Y-87628571D01*
X200742857Y-87457143D01*
X200800000Y-87228571D01*
X200857143Y-87114286D01*
X200971429Y-87000000D01*
X201142857Y-86942857D01*
X201257143Y-86942857D01*
X201428572Y-87000000D01*
X201485715Y-87057143D01*
X202171429Y-88142857D02*
X202057143Y-88085714D01*
X202000000Y-88028571D01*
X201942857Y-87914286D01*
X201942857Y-87571429D01*
X202000000Y-87457143D01*
X202057143Y-87400000D01*
X202171429Y-87342857D01*
X202342857Y-87342857D01*
X202457143Y-87400000D01*
X202514286Y-87457143D01*
X202571429Y-87571429D01*
X202571429Y-87914286D01*
X202514286Y-88028571D01*
X202457143Y-88085714D01*
X202342857Y-88142857D01*
X202171429Y-88142857D01*
X203085714Y-88142857D02*
X203085714Y-87342857D01*
X203085714Y-87457143D02*
X203142857Y-87400000D01*
X203257143Y-87342857D01*
X203428571Y-87342857D01*
X203542857Y-87400000D01*
X203600000Y-87514286D01*
X203600000Y-88142857D01*
X203600000Y-87514286D02*
X203657143Y-87400000D01*
X203771429Y-87342857D01*
X203942857Y-87342857D01*
X204057143Y-87400000D01*
X204114286Y-87514286D01*
X204114286Y-88142857D01*
X204685714Y-87342857D02*
X204685714Y-88542857D01*
X204685714Y-87400000D02*
X204800000Y-87342857D01*
X205028571Y-87342857D01*
X205142857Y-87400000D01*
X205200000Y-87457143D01*
X205257143Y-87571429D01*
X205257143Y-87914286D01*
X205200000Y-88028571D01*
X205142857Y-88085714D01*
X205028571Y-88142857D01*
X204800000Y-88142857D01*
X204685714Y-88085714D01*
X201485715Y-107578571D02*
X201428572Y-107635714D01*
X201257143Y-107692857D01*
X201142857Y-107692857D01*
X200971429Y-107635714D01*
X200857143Y-107521429D01*
X200800000Y-107407143D01*
X200742857Y-107178571D01*
X200742857Y-107007143D01*
X200800000Y-106778571D01*
X200857143Y-106664286D01*
X200971429Y-106550000D01*
X201142857Y-106492857D01*
X201257143Y-106492857D01*
X201428572Y-106550000D01*
X201485715Y-106607143D01*
X202171429Y-107692857D02*
X202057143Y-107635714D01*
X202000000Y-107578571D01*
X201942857Y-107464286D01*
X201942857Y-107121429D01*
X202000000Y-107007143D01*
X202057143Y-106950000D01*
X202171429Y-106892857D01*
X202342857Y-106892857D01*
X202457143Y-106950000D01*
X202514286Y-107007143D01*
X202571429Y-107121429D01*
X202571429Y-107464286D01*
X202514286Y-107578571D01*
X202457143Y-107635714D01*
X202342857Y-107692857D01*
X202171429Y-107692857D01*
X203085714Y-107692857D02*
X203085714Y-106892857D01*
X203085714Y-107007143D02*
X203142857Y-106950000D01*
X203257143Y-106892857D01*
X203428571Y-106892857D01*
X203542857Y-106950000D01*
X203600000Y-107064286D01*
X203600000Y-107692857D01*
X203600000Y-107064286D02*
X203657143Y-106950000D01*
X203771429Y-106892857D01*
X203942857Y-106892857D01*
X204057143Y-106950000D01*
X204114286Y-107064286D01*
X204114286Y-107692857D01*
X204685714Y-106892857D02*
X204685714Y-108092857D01*
X204685714Y-106950000D02*
X204800000Y-106892857D01*
X205028571Y-106892857D01*
X205142857Y-106950000D01*
X205200000Y-107007143D01*
X205257143Y-107121429D01*
X205257143Y-107464286D01*
X205200000Y-107578571D01*
X205142857Y-107635714D01*
X205028571Y-107692857D01*
X204800000Y-107692857D01*
X204685714Y-107635714D01*
D11*
X206000000Y-116050000D02*
X206000000Y-97050000D01*
X146000000Y-116050000D02*
X206000000Y-116050000D01*
X146000000Y-96550000D02*
X146000000Y-116050000D01*
X206000000Y-96550000D02*
X146000000Y-96550000D01*
X206000000Y-97050000D02*
X206000000Y-96550000D01*
X146000000Y-97050000D02*
X146000000Y-96550000D01*
X146000000Y-96550000D02*
X86000000Y-96550000D01*
X86000000Y-96550000D02*
X86000000Y-116050000D01*
X86000000Y-116050000D02*
X146000000Y-116050000D01*
X146000000Y-116050000D02*
X146000000Y-97050000D01*
D12*
X141485715Y-107578571D02*
X141428572Y-107635714D01*
X141257143Y-107692857D01*
X141142857Y-107692857D01*
X140971429Y-107635714D01*
X140857143Y-107521429D01*
X140800000Y-107407143D01*
X140742857Y-107178571D01*
X140742857Y-107007143D01*
X140800000Y-106778571D01*
X140857143Y-106664286D01*
X140971429Y-106550000D01*
X141142857Y-106492857D01*
X141257143Y-106492857D01*
X141428572Y-106550000D01*
X141485715Y-106607143D01*
X142171429Y-107692857D02*
X142057143Y-107635714D01*
X142000000Y-107578571D01*
X141942857Y-107464286D01*
X141942857Y-107121429D01*
X142000000Y-107007143D01*
X142057143Y-106950000D01*
X142171429Y-106892857D01*
X142342857Y-106892857D01*
X142457143Y-106950000D01*
X142514286Y-107007143D01*
X142571429Y-107121429D01*
X142571429Y-107464286D01*
X142514286Y-107578571D01*
X142457143Y-107635714D01*
X142342857Y-107692857D01*
X142171429Y-107692857D01*
X143085714Y-107692857D02*
X143085714Y-106892857D01*
X143085714Y-107007143D02*
X143142857Y-106950000D01*
X143257143Y-106892857D01*
X143428571Y-106892857D01*
X143542857Y-106950000D01*
X143600000Y-107064286D01*
X143600000Y-107692857D01*
X143600000Y-107064286D02*
X143657143Y-106950000D01*
X143771429Y-106892857D01*
X143942857Y-106892857D01*
X144057143Y-106950000D01*
X144114286Y-107064286D01*
X144114286Y-107692857D01*
X144685714Y-106892857D02*
X144685714Y-108092857D01*
X144685714Y-106950000D02*
X144800000Y-106892857D01*
X145028571Y-106892857D01*
X145142857Y-106950000D01*
X145200000Y-107007143D01*
X145257143Y-107121429D01*
X145257143Y-107464286D01*
X145200000Y-107578571D01*
X145142857Y-107635714D01*
X145028571Y-107692857D01*
X144800000Y-107692857D01*
X144685714Y-107635714D01*
X141485715Y-88028571D02*
X141428572Y-88085714D01*
X141257143Y-88142857D01*
X141142857Y-88142857D01*
X140971429Y-88085714D01*
X140857143Y-87971429D01*
X140800000Y-87857143D01*
X140742857Y-87628571D01*
X140742857Y-87457143D01*
X140800000Y-87228571D01*
X140857143Y-87114286D01*
X140971429Y-87000000D01*
X141142857Y-86942857D01*
X141257143Y-86942857D01*
X141428572Y-87000000D01*
X141485715Y-87057143D01*
X142171429Y-88142857D02*
X142057143Y-88085714D01*
X142000000Y-88028571D01*
X141942857Y-87914286D01*
X141942857Y-87571429D01*
X142000000Y-87457143D01*
X142057143Y-87400000D01*
X142171429Y-87342857D01*
X142342857Y-87342857D01*
X142457143Y-87400000D01*
X142514286Y-87457143D01*
X142571429Y-87571429D01*
X142571429Y-87914286D01*
X142514286Y-88028571D01*
X142457143Y-88085714D01*
X142342857Y-88142857D01*
X142171429Y-88142857D01*
X143085714Y-88142857D02*
X143085714Y-87342857D01*
X143085714Y-87457143D02*
X143142857Y-87400000D01*
X143257143Y-87342857D01*
X143428571Y-87342857D01*
X143542857Y-87400000D01*
X143600000Y-87514286D01*
X143600000Y-88142857D01*
X143600000Y-87514286D02*
X143657143Y-87400000D01*
X143771429Y-87342857D01*
X143942857Y-87342857D01*
X144057143Y-87400000D01*
X144114286Y-87514286D01*
X144114286Y-88142857D01*
X144685714Y-87342857D02*
X144685714Y-88542857D01*
X144685714Y-87400000D02*
X144800000Y-87342857D01*
X145028571Y-87342857D01*
X145142857Y-87400000D01*
X145200000Y-87457143D01*
X145257143Y-87571429D01*
X145257143Y-87914286D01*
X145200000Y-88028571D01*
X145142857Y-88085714D01*
X145028571Y-88142857D01*
X144800000Y-88142857D01*
X144685714Y-88085714D01*
D11*
X146000000Y-96500000D02*
X146000000Y-77500000D01*
X86000000Y-96500000D02*
X146000000Y-96500000D01*
X86000000Y-77000000D02*
X86000000Y-96500000D01*
X146000000Y-77000000D02*
X86000000Y-77000000D01*
X146000000Y-77500000D02*
X146000000Y-77000000D01*
D13*
X149750000Y-80750000D03*
D14*
X188750000Y-81500000D03*
D15*
X188750000Y-84040000D03*
X188750000Y-86580000D03*
X188750000Y-89120000D03*
X188750000Y-91660000D03*
X188750000Y-94200000D03*
D16*
X165775000Y-89475000D03*
D17*
X174925000Y-89475000D03*
D16*
X165775000Y-92015000D03*
X165775000Y-86935000D03*
D18*
X164300000Y-82675000D03*
X165800000Y-82675000D03*
X165750000Y-84500000D03*
X167250000Y-84500000D03*
D19*
X156998860Y-82500000D03*
X160001140Y-82500000D03*
D20*
X194000000Y-84198000D03*
D21*
X194000000Y-90802000D03*
X196286000Y-90802000D03*
X191714000Y-90802000D03*
D22*
X199500000Y-93799840D03*
X199500000Y-86200160D03*
D23*
X181250000Y-80500000D03*
X181250000Y-82000000D03*
D24*
X183050000Y-80500760D03*
X184950000Y-80500760D03*
X184000000Y-78501780D03*
D25*
X165600000Y-79075000D03*
D26*
X168140000Y-79075000D03*
X170680000Y-79075000D03*
X173220000Y-79075000D03*
X175760000Y-79075000D03*
X178300000Y-79075000D03*
D13*
X202000000Y-80500000D03*
D27*
X160250140Y-88900000D03*
X154250660Y-88900000D03*
X157250400Y-93599000D03*
D19*
X167998860Y-82000000D03*
X171001140Y-82000000D03*
X156998860Y-79500000D03*
X160001140Y-79500000D03*
D28*
X165250000Y-94500000D03*
X163750000Y-94500000D03*
D29*
X185000000Y-85000000D03*
D30*
X182460000Y-85000000D03*
X185000000Y-87540000D03*
X182460000Y-87540000D03*
X185000000Y-90080000D03*
X182460000Y-90080000D03*
X185000000Y-92620000D03*
X182460000Y-92620000D03*
D29*
X185000000Y-104550000D03*
D30*
X182460000Y-104550000D03*
X185000000Y-107090000D03*
X182460000Y-107090000D03*
X185000000Y-109630000D03*
X182460000Y-109630000D03*
X185000000Y-112170000D03*
X182460000Y-112170000D03*
D28*
X165250000Y-114050000D03*
X163750000Y-114050000D03*
D19*
X156998860Y-99050000D03*
X160001140Y-99050000D03*
X167998860Y-101550000D03*
X171001140Y-101550000D03*
D27*
X160250140Y-108450000D03*
X154250660Y-108450000D03*
X157250400Y-113149000D03*
D13*
X202000000Y-100050000D03*
D25*
X165600000Y-98625000D03*
D26*
X168140000Y-98625000D03*
X170680000Y-98625000D03*
X173220000Y-98625000D03*
X175760000Y-98625000D03*
X178300000Y-98625000D03*
D24*
X183050000Y-100050760D03*
X184950000Y-100050760D03*
X184000000Y-98051780D03*
D23*
X181250000Y-100050000D03*
X181250000Y-101550000D03*
D22*
X199500000Y-113349840D03*
X199500000Y-105750160D03*
D20*
X194000000Y-103748000D03*
D21*
X194000000Y-110352000D03*
X196286000Y-110352000D03*
X191714000Y-110352000D03*
D19*
X156998860Y-102050000D03*
X160001140Y-102050000D03*
D18*
X165750000Y-104050000D03*
X167250000Y-104050000D03*
X164300000Y-102225000D03*
X165800000Y-102225000D03*
D16*
X165775000Y-109025000D03*
D17*
X174925000Y-109025000D03*
D16*
X165775000Y-111565000D03*
X165775000Y-106485000D03*
D14*
X188750000Y-101050000D03*
D15*
X188750000Y-103590000D03*
X188750000Y-106130000D03*
X188750000Y-108670000D03*
X188750000Y-111210000D03*
X188750000Y-113750000D03*
D13*
X149750000Y-100300000D03*
X89750000Y-100300000D03*
D14*
X128750000Y-101050000D03*
D15*
X128750000Y-103590000D03*
X128750000Y-106130000D03*
X128750000Y-108670000D03*
X128750000Y-111210000D03*
X128750000Y-113750000D03*
D16*
X105775000Y-109025000D03*
D17*
X114925000Y-109025000D03*
D16*
X105775000Y-111565000D03*
X105775000Y-106485000D03*
D18*
X104300000Y-102225000D03*
X105800000Y-102225000D03*
X105750000Y-104050000D03*
X107250000Y-104050000D03*
D19*
X96998860Y-102050000D03*
X100001140Y-102050000D03*
D20*
X134000000Y-103748000D03*
D21*
X134000000Y-110352000D03*
X136286000Y-110352000D03*
X131714000Y-110352000D03*
D22*
X139500000Y-113349840D03*
X139500000Y-105750160D03*
D23*
X121250000Y-100050000D03*
X121250000Y-101550000D03*
D24*
X123050000Y-100050760D03*
X124950000Y-100050760D03*
X124000000Y-98051780D03*
D25*
X105600000Y-98625000D03*
D26*
X108140000Y-98625000D03*
X110680000Y-98625000D03*
X113220000Y-98625000D03*
X115760000Y-98625000D03*
X118300000Y-98625000D03*
D13*
X142000000Y-100050000D03*
D27*
X100250140Y-108450000D03*
X94250660Y-108450000D03*
X97250400Y-113149000D03*
D19*
X107998860Y-101550000D03*
X111001140Y-101550000D03*
X96998860Y-99050000D03*
X100001140Y-99050000D03*
D28*
X105250000Y-114050000D03*
X103750000Y-114050000D03*
D29*
X125000000Y-104550000D03*
D30*
X122460000Y-104550000D03*
X125000000Y-107090000D03*
X122460000Y-107090000D03*
X125000000Y-109630000D03*
X122460000Y-109630000D03*
X125000000Y-112170000D03*
X122460000Y-112170000D03*
D29*
X125000000Y-85000000D03*
D30*
X122460000Y-85000000D03*
X125000000Y-87540000D03*
X122460000Y-87540000D03*
X125000000Y-90080000D03*
X122460000Y-90080000D03*
X125000000Y-92620000D03*
X122460000Y-92620000D03*
D28*
X105250000Y-94500000D03*
X103750000Y-94500000D03*
D19*
X96998860Y-79500000D03*
X100001140Y-79500000D03*
X107998860Y-82000000D03*
X111001140Y-82000000D03*
D27*
X100250140Y-88900000D03*
X94250660Y-88900000D03*
X97250400Y-93599000D03*
D13*
X142000000Y-80500000D03*
D25*
X105600000Y-79075000D03*
D26*
X108140000Y-79075000D03*
X110680000Y-79075000D03*
X113220000Y-79075000D03*
X115760000Y-79075000D03*
X118300000Y-79075000D03*
D24*
X123050000Y-80500760D03*
X124950000Y-80500760D03*
X124000000Y-78501780D03*
D23*
X121250000Y-80500000D03*
X121250000Y-82000000D03*
D22*
X139500000Y-93799840D03*
X139500000Y-86200160D03*
D20*
X134000000Y-84198000D03*
D21*
X134000000Y-90802000D03*
X136286000Y-90802000D03*
X131714000Y-90802000D03*
D19*
X96998860Y-82500000D03*
X100001140Y-82500000D03*
D18*
X105750000Y-84500000D03*
X107250000Y-84500000D03*
X104300000Y-82675000D03*
X105800000Y-82675000D03*
D16*
X105775000Y-89475000D03*
D17*
X114925000Y-89475000D03*
D16*
X105775000Y-92015000D03*
X105775000Y-86935000D03*
D14*
X128750000Y-81500000D03*
D15*
X128750000Y-84040000D03*
X128750000Y-86580000D03*
X128750000Y-89120000D03*
X128750000Y-91660000D03*
X128750000Y-94200000D03*
D13*
X89750000Y-80750000D03*
D31*
X158400000Y-81000000D03*
X163000000Y-81000000D03*
X180600000Y-91050000D03*
X180600000Y-110600000D03*
X163000000Y-100550000D03*
X158400000Y-100550000D03*
X98400000Y-100550000D03*
X103000000Y-100550000D03*
X120600000Y-110600000D03*
X120600000Y-91050000D03*
X103000000Y-81000000D03*
X98400000Y-81000000D03*
X196200000Y-88800000D03*
X196200000Y-108350000D03*
X136200000Y-108350000D03*
X136200000Y-88800000D03*
X186600000Y-95400000D03*
X169000000Y-83800000D03*
X169050000Y-95450000D03*
X169050000Y-115000000D03*
X169000000Y-103350000D03*
X186600000Y-114950000D03*
X126600000Y-114950000D03*
X109000000Y-103350000D03*
X109050000Y-115000000D03*
X109050000Y-95450000D03*
X109000000Y-83800000D03*
X126600000Y-95400000D03*
D32*
X165250000Y-94500000D02*
X165250000Y-92540000D01*
X165250000Y-92540000D02*
X165775000Y-92015000D01*
X165775000Y-92015000D02*
X160765000Y-92015000D01*
X160250140Y-91500140D02*
X160250140Y-88900000D01*
X160765000Y-92015000D02*
X160250140Y-91500140D01*
X160765000Y-111565000D02*
X160250140Y-111050140D01*
X160250140Y-111050140D02*
X160250140Y-108450000D01*
X165775000Y-111565000D02*
X160765000Y-111565000D01*
X165250000Y-112090000D02*
X165775000Y-111565000D01*
X165250000Y-114050000D02*
X165250000Y-112090000D01*
X105250000Y-114050000D02*
X105250000Y-112090000D01*
X105250000Y-112090000D02*
X105775000Y-111565000D01*
X105775000Y-111565000D02*
X100765000Y-111565000D01*
X100250140Y-111050140D02*
X100250140Y-108450000D01*
X100765000Y-111565000D02*
X100250140Y-111050140D01*
X100765000Y-92015000D02*
X100250140Y-91500140D01*
X100250140Y-91500140D02*
X100250140Y-88900000D01*
X105775000Y-92015000D02*
X100765000Y-92015000D01*
X105250000Y-92540000D02*
X105775000Y-92015000D01*
X105250000Y-94500000D02*
X105250000Y-92540000D01*
D33*
X188750000Y-89120000D02*
X190032000Y-89120000D01*
X190032000Y-89120000D02*
X191714000Y-90802000D01*
D32*
X163800000Y-94550000D02*
X163750000Y-94500000D01*
X191714000Y-90802000D02*
X191714000Y-87914000D01*
X191714000Y-87914000D02*
X191000000Y-87200000D01*
X191000000Y-87200000D02*
X191000000Y-80000000D01*
X191000000Y-80000000D02*
X190400000Y-79400000D01*
X190400000Y-79400000D02*
X186200000Y-79400000D01*
X186200000Y-79400000D02*
X185099240Y-80500760D01*
X185099240Y-80500760D02*
X184950000Y-80500760D01*
X163750000Y-94500000D02*
X158151400Y-94500000D01*
X158151400Y-94500000D02*
X157250400Y-93599000D01*
X182460000Y-85000000D02*
X182460000Y-83790000D01*
X184950000Y-81300000D02*
X184950000Y-80500760D01*
X182460000Y-83790000D02*
X184950000Y-81300000D01*
X167998860Y-82000000D02*
X167200000Y-82000000D01*
X167200000Y-82000000D02*
X166200000Y-81000000D01*
X158400000Y-81000000D02*
X156998860Y-79598860D01*
X166200000Y-81000000D02*
X163000000Y-81000000D01*
X156998860Y-79598860D02*
X156998860Y-79500000D01*
X168140000Y-79075000D02*
X168140000Y-81858860D01*
X168140000Y-81858860D02*
X167998860Y-82000000D01*
X156998860Y-82500000D02*
X156000000Y-82500000D01*
X156000000Y-82500000D02*
X154250660Y-84249340D01*
X154250660Y-84249340D02*
X154250660Y-88900000D01*
X156998860Y-82500000D02*
X156998860Y-79500000D01*
X167250000Y-84500000D02*
X167250000Y-82748860D01*
X167250000Y-82748860D02*
X167998860Y-82000000D01*
D33*
X180600000Y-91050000D02*
X180800000Y-90850000D01*
X180800000Y-90850000D02*
X180800000Y-89000000D01*
X188750000Y-89120000D02*
X186820000Y-89120000D01*
X181000000Y-88800000D02*
X180800000Y-89000000D01*
X186500000Y-88800000D02*
X181000000Y-88800000D01*
X186820000Y-89120000D02*
X186500000Y-88800000D01*
X186820000Y-108670000D02*
X186500000Y-108350000D01*
X186500000Y-108350000D02*
X181000000Y-108350000D01*
X181000000Y-108350000D02*
X180800000Y-108550000D01*
X188750000Y-108670000D02*
X186820000Y-108670000D01*
X180800000Y-110400000D02*
X180800000Y-108550000D01*
X180600000Y-110600000D02*
X180800000Y-110400000D01*
D32*
X167250000Y-102298860D02*
X167998860Y-101550000D01*
X167250000Y-104050000D02*
X167250000Y-102298860D01*
X156998860Y-102050000D02*
X156998860Y-99050000D01*
X154250660Y-103799340D02*
X154250660Y-108450000D01*
X156000000Y-102050000D02*
X154250660Y-103799340D01*
X156998860Y-102050000D02*
X156000000Y-102050000D01*
X168140000Y-101408860D02*
X167998860Y-101550000D01*
X168140000Y-98625000D02*
X168140000Y-101408860D01*
X156998860Y-99148860D02*
X156998860Y-99050000D01*
X166200000Y-100550000D02*
X163000000Y-100550000D01*
X158400000Y-100550000D02*
X156998860Y-99148860D01*
X167200000Y-101550000D02*
X166200000Y-100550000D01*
X167998860Y-101550000D02*
X167200000Y-101550000D01*
X182460000Y-103340000D02*
X184950000Y-100850000D01*
X184950000Y-100850000D02*
X184950000Y-100050760D01*
X182460000Y-104550000D02*
X182460000Y-103340000D01*
X158151400Y-114050000D02*
X157250400Y-113149000D01*
X163750000Y-114050000D02*
X158151400Y-114050000D01*
X185099240Y-100050760D02*
X184950000Y-100050760D01*
X186200000Y-98950000D02*
X185099240Y-100050760D01*
X190400000Y-98950000D02*
X186200000Y-98950000D01*
X191000000Y-99550000D02*
X190400000Y-98950000D01*
X191000000Y-106750000D02*
X191000000Y-99550000D01*
X191714000Y-107464000D02*
X191000000Y-106750000D01*
X191714000Y-110352000D02*
X191714000Y-107464000D01*
X163800000Y-114100000D02*
X163750000Y-114050000D01*
D33*
X190032000Y-108670000D02*
X191714000Y-110352000D01*
X188750000Y-108670000D02*
X190032000Y-108670000D01*
X128750000Y-108670000D02*
X130032000Y-108670000D01*
X130032000Y-108670000D02*
X131714000Y-110352000D01*
D32*
X103800000Y-114100000D02*
X103750000Y-114050000D01*
X131714000Y-110352000D02*
X131714000Y-107464000D01*
X131714000Y-107464000D02*
X131000000Y-106750000D01*
X131000000Y-106750000D02*
X131000000Y-99550000D01*
X131000000Y-99550000D02*
X130400000Y-98950000D01*
X130400000Y-98950000D02*
X126200000Y-98950000D01*
X126200000Y-98950000D02*
X125099240Y-100050760D01*
X125099240Y-100050760D02*
X124950000Y-100050760D01*
X103750000Y-114050000D02*
X98151400Y-114050000D01*
X98151400Y-114050000D02*
X97250400Y-113149000D01*
X122460000Y-104550000D02*
X122460000Y-103340000D01*
X124950000Y-100850000D02*
X124950000Y-100050760D01*
X122460000Y-103340000D02*
X124950000Y-100850000D01*
X107998860Y-101550000D02*
X107200000Y-101550000D01*
X107200000Y-101550000D02*
X106200000Y-100550000D01*
X98400000Y-100550000D02*
X96998860Y-99148860D01*
X106200000Y-100550000D02*
X103000000Y-100550000D01*
X96998860Y-99148860D02*
X96998860Y-99050000D01*
X108140000Y-98625000D02*
X108140000Y-101408860D01*
X108140000Y-101408860D02*
X107998860Y-101550000D01*
X96998860Y-102050000D02*
X96000000Y-102050000D01*
X96000000Y-102050000D02*
X94250660Y-103799340D01*
X94250660Y-103799340D02*
X94250660Y-108450000D01*
X96998860Y-102050000D02*
X96998860Y-99050000D01*
X107250000Y-104050000D02*
X107250000Y-102298860D01*
X107250000Y-102298860D02*
X107998860Y-101550000D01*
D33*
X120600000Y-110600000D02*
X120800000Y-110400000D01*
X120800000Y-110400000D02*
X120800000Y-108550000D01*
X128750000Y-108670000D02*
X126820000Y-108670000D01*
X121000000Y-108350000D02*
X120800000Y-108550000D01*
X126500000Y-108350000D02*
X121000000Y-108350000D01*
X126820000Y-108670000D02*
X126500000Y-108350000D01*
X126820000Y-89120000D02*
X126500000Y-88800000D01*
X126500000Y-88800000D02*
X121000000Y-88800000D01*
X121000000Y-88800000D02*
X120800000Y-89000000D01*
X128750000Y-89120000D02*
X126820000Y-89120000D01*
X120800000Y-90850000D02*
X120800000Y-89000000D01*
X120600000Y-91050000D02*
X120800000Y-90850000D01*
D32*
X107250000Y-82748860D02*
X107998860Y-82000000D01*
X107250000Y-84500000D02*
X107250000Y-82748860D01*
X96998860Y-82500000D02*
X96998860Y-79500000D01*
X94250660Y-84249340D02*
X94250660Y-88900000D01*
X96000000Y-82500000D02*
X94250660Y-84249340D01*
X96998860Y-82500000D02*
X96000000Y-82500000D01*
X108140000Y-81858860D02*
X107998860Y-82000000D01*
X108140000Y-79075000D02*
X108140000Y-81858860D01*
X96998860Y-79598860D02*
X96998860Y-79500000D01*
X106200000Y-81000000D02*
X103000000Y-81000000D01*
X98400000Y-81000000D02*
X96998860Y-79598860D01*
X107200000Y-82000000D02*
X106200000Y-81000000D01*
X107998860Y-82000000D02*
X107200000Y-82000000D01*
X122460000Y-83790000D02*
X124950000Y-81300000D01*
X124950000Y-81300000D02*
X124950000Y-80500760D01*
X122460000Y-85000000D02*
X122460000Y-83790000D01*
X98151400Y-94500000D02*
X97250400Y-93599000D01*
X103750000Y-94500000D02*
X98151400Y-94500000D01*
X125099240Y-80500760D02*
X124950000Y-80500760D01*
X126200000Y-79400000D02*
X125099240Y-80500760D01*
X130400000Y-79400000D02*
X126200000Y-79400000D01*
X131000000Y-80000000D02*
X130400000Y-79400000D01*
X131000000Y-87200000D02*
X131000000Y-80000000D01*
X131714000Y-87914000D02*
X131000000Y-87200000D01*
X131714000Y-90802000D02*
X131714000Y-87914000D01*
X103800000Y-94550000D02*
X103750000Y-94500000D01*
D33*
X130032000Y-89120000D02*
X131714000Y-90802000D01*
X128750000Y-89120000D02*
X130032000Y-89120000D01*
D32*
X165600000Y-79075000D02*
X165600000Y-77800000D01*
X175760000Y-77760000D02*
X175760000Y-79075000D01*
X175600000Y-77600000D02*
X175760000Y-77760000D01*
X165800000Y-77600000D02*
X175600000Y-77600000D01*
X165600000Y-77800000D02*
X165800000Y-77600000D01*
X175760000Y-79075000D02*
X178300000Y-79075000D01*
X162250000Y-82500000D02*
X162750000Y-83000000D01*
X162750000Y-83000000D02*
X162750000Y-83250000D01*
X162750000Y-83250000D02*
X162750000Y-82500000D01*
X165775000Y-89475000D02*
X163275000Y-89475000D01*
X162750000Y-83250000D02*
X163500000Y-82500000D01*
X160001140Y-82500000D02*
X162250000Y-82500000D01*
X162250000Y-82500000D02*
X162750000Y-82500000D01*
X162750000Y-82500000D02*
X163500000Y-82500000D01*
X163500000Y-82500000D02*
X164125000Y-82500000D01*
X164125000Y-82500000D02*
X164300000Y-82675000D01*
X160001140Y-79500000D02*
X160001140Y-82500000D01*
X165600000Y-79075000D02*
X160426140Y-79075000D01*
X160426140Y-79075000D02*
X160001140Y-79500000D01*
X196200000Y-88800000D02*
X196286000Y-88886000D01*
X196286000Y-88886000D02*
X196286000Y-90802000D01*
X196286000Y-92500000D02*
X196286000Y-92964000D01*
X191500000Y-93750000D02*
X189410000Y-91660000D01*
X195500000Y-93750000D02*
X191500000Y-93750000D01*
X196286000Y-92964000D02*
X195500000Y-93750000D01*
X189410000Y-91660000D02*
X188750000Y-91660000D01*
X199500000Y-93799840D02*
X197299840Y-93799840D01*
X196286000Y-92786000D02*
X196286000Y-92500000D01*
X196286000Y-92500000D02*
X196286000Y-90802000D01*
X197299840Y-93799840D02*
X196286000Y-92786000D01*
X163275000Y-89475000D02*
X163050000Y-89250000D01*
X163050000Y-89250000D02*
X163000000Y-89250000D01*
X163000000Y-89250000D02*
X162750000Y-89000000D01*
X162750000Y-89000000D02*
X162750000Y-83250000D01*
X162750000Y-108550000D02*
X162750000Y-102800000D01*
X163000000Y-108800000D02*
X162750000Y-108550000D01*
X163050000Y-108800000D02*
X163000000Y-108800000D01*
X163275000Y-109025000D02*
X163050000Y-108800000D01*
X197299840Y-113349840D02*
X196286000Y-112336000D01*
X196286000Y-112050000D02*
X196286000Y-110352000D01*
X196286000Y-112336000D02*
X196286000Y-112050000D01*
X199500000Y-113349840D02*
X197299840Y-113349840D01*
X189410000Y-111210000D02*
X188750000Y-111210000D01*
X196286000Y-112514000D02*
X195500000Y-113300000D01*
X195500000Y-113300000D02*
X191500000Y-113300000D01*
X191500000Y-113300000D02*
X189410000Y-111210000D01*
X196286000Y-112050000D02*
X196286000Y-112514000D01*
X196286000Y-108436000D02*
X196286000Y-110352000D01*
X196200000Y-108350000D02*
X196286000Y-108436000D01*
X160426140Y-98625000D02*
X160001140Y-99050000D01*
X165600000Y-98625000D02*
X160426140Y-98625000D01*
X160001140Y-99050000D02*
X160001140Y-102050000D01*
X164125000Y-102050000D02*
X164300000Y-102225000D01*
X163500000Y-102050000D02*
X164125000Y-102050000D01*
X162750000Y-102050000D02*
X163500000Y-102050000D01*
X162250000Y-102050000D02*
X162750000Y-102050000D01*
X160001140Y-102050000D02*
X162250000Y-102050000D01*
X162750000Y-102800000D02*
X163500000Y-102050000D01*
X165775000Y-109025000D02*
X163275000Y-109025000D01*
X162750000Y-102800000D02*
X162750000Y-102050000D01*
X162750000Y-102550000D02*
X162750000Y-102800000D01*
X162250000Y-102050000D02*
X162750000Y-102550000D01*
X175760000Y-98625000D02*
X178300000Y-98625000D01*
X165600000Y-97350000D02*
X165800000Y-97150000D01*
X165800000Y-97150000D02*
X175600000Y-97150000D01*
X175600000Y-97150000D02*
X175760000Y-97310000D01*
X175760000Y-97310000D02*
X175760000Y-98625000D01*
X165600000Y-98625000D02*
X165600000Y-97350000D01*
X105600000Y-98625000D02*
X105600000Y-97350000D01*
X115760000Y-97310000D02*
X115760000Y-98625000D01*
X115600000Y-97150000D02*
X115760000Y-97310000D01*
X105800000Y-97150000D02*
X115600000Y-97150000D01*
X105600000Y-97350000D02*
X105800000Y-97150000D01*
X115760000Y-98625000D02*
X118300000Y-98625000D01*
X102250000Y-102050000D02*
X102750000Y-102550000D01*
X102750000Y-102550000D02*
X102750000Y-102800000D01*
X102750000Y-102800000D02*
X102750000Y-102050000D01*
X105775000Y-109025000D02*
X103275000Y-109025000D01*
X102750000Y-102800000D02*
X103500000Y-102050000D01*
X100001140Y-102050000D02*
X102250000Y-102050000D01*
X102250000Y-102050000D02*
X102750000Y-102050000D01*
X102750000Y-102050000D02*
X103500000Y-102050000D01*
X103500000Y-102050000D02*
X104125000Y-102050000D01*
X104125000Y-102050000D02*
X104300000Y-102225000D01*
X100001140Y-99050000D02*
X100001140Y-102050000D01*
X105600000Y-98625000D02*
X100426140Y-98625000D01*
X100426140Y-98625000D02*
X100001140Y-99050000D01*
X136200000Y-108350000D02*
X136286000Y-108436000D01*
X136286000Y-108436000D02*
X136286000Y-110352000D01*
X136286000Y-112050000D02*
X136286000Y-112514000D01*
X131500000Y-113300000D02*
X129410000Y-111210000D01*
X135500000Y-113300000D02*
X131500000Y-113300000D01*
X136286000Y-112514000D02*
X135500000Y-113300000D01*
X129410000Y-111210000D02*
X128750000Y-111210000D01*
X139500000Y-113349840D02*
X137299840Y-113349840D01*
X136286000Y-112336000D02*
X136286000Y-112050000D01*
X136286000Y-112050000D02*
X136286000Y-110352000D01*
X137299840Y-113349840D02*
X136286000Y-112336000D01*
X103275000Y-109025000D02*
X103050000Y-108800000D01*
X103050000Y-108800000D02*
X103000000Y-108800000D01*
X103000000Y-108800000D02*
X102750000Y-108550000D01*
X102750000Y-108550000D02*
X102750000Y-102800000D01*
X102750000Y-89000000D02*
X102750000Y-83250000D01*
X103000000Y-89250000D02*
X102750000Y-89000000D01*
X103050000Y-89250000D02*
X103000000Y-89250000D01*
X103275000Y-89475000D02*
X103050000Y-89250000D01*
X137299840Y-93799840D02*
X136286000Y-92786000D01*
X136286000Y-92500000D02*
X136286000Y-90802000D01*
X136286000Y-92786000D02*
X136286000Y-92500000D01*
X139500000Y-93799840D02*
X137299840Y-93799840D01*
X129410000Y-91660000D02*
X128750000Y-91660000D01*
X136286000Y-92964000D02*
X135500000Y-93750000D01*
X135500000Y-93750000D02*
X131500000Y-93750000D01*
X131500000Y-93750000D02*
X129410000Y-91660000D01*
X136286000Y-92500000D02*
X136286000Y-92964000D01*
X136286000Y-88886000D02*
X136286000Y-90802000D01*
X136200000Y-88800000D02*
X136286000Y-88886000D01*
X100426140Y-79075000D02*
X100001140Y-79500000D01*
X105600000Y-79075000D02*
X100426140Y-79075000D01*
X100001140Y-79500000D02*
X100001140Y-82500000D01*
X104125000Y-82500000D02*
X104300000Y-82675000D01*
X103500000Y-82500000D02*
X104125000Y-82500000D01*
X102750000Y-82500000D02*
X103500000Y-82500000D01*
X102250000Y-82500000D02*
X102750000Y-82500000D01*
X100001140Y-82500000D02*
X102250000Y-82500000D01*
X102750000Y-83250000D02*
X103500000Y-82500000D01*
X105775000Y-89475000D02*
X103275000Y-89475000D01*
X102750000Y-83250000D02*
X102750000Y-82500000D01*
X102750000Y-83000000D02*
X102750000Y-83250000D01*
X102250000Y-82500000D02*
X102750000Y-83000000D01*
X115760000Y-79075000D02*
X118300000Y-79075000D01*
X105600000Y-77800000D02*
X105800000Y-77600000D01*
X105800000Y-77600000D02*
X115600000Y-77600000D01*
X115600000Y-77600000D02*
X115760000Y-77760000D01*
X115760000Y-77760000D02*
X115760000Y-79075000D01*
X105600000Y-79075000D02*
X105600000Y-77800000D01*
D34*
X186600000Y-95400000D02*
X186625000Y-95375000D01*
X186625000Y-95375000D02*
X186600000Y-95400000D01*
X186600000Y-95400000D02*
X186600000Y-95350000D01*
X171001140Y-82998860D02*
X171001140Y-82000000D01*
X170400000Y-83600000D02*
X171001140Y-82998860D01*
X169200000Y-83600000D02*
X170400000Y-83600000D01*
X169000000Y-83800000D02*
X169200000Y-83600000D01*
D33*
X185000000Y-92620000D02*
X185870000Y-92620000D01*
X194000000Y-89000000D02*
X194000000Y-90802000D01*
X195300000Y-87700000D02*
X194000000Y-89000000D01*
X199200000Y-87700000D02*
X195300000Y-87700000D01*
X202250000Y-90750000D02*
X199200000Y-87700000D01*
X202250000Y-94500000D02*
X202250000Y-90750000D01*
X201000000Y-95750000D02*
X202250000Y-94500000D01*
X187000000Y-95750000D02*
X201000000Y-95750000D01*
D34*
X186500000Y-95250000D02*
X186600000Y-95350000D01*
D33*
X186600000Y-95350000D02*
X187000000Y-95750000D01*
X186500000Y-93250000D02*
X186500000Y-95250000D01*
X185870000Y-92620000D02*
X186500000Y-93250000D01*
X169000000Y-95400000D02*
X169050000Y-95450000D01*
X169000000Y-83800000D02*
X169000000Y-95400000D01*
X169000000Y-103350000D02*
X169000000Y-114950000D01*
X169000000Y-114950000D02*
X169050000Y-115000000D01*
X185870000Y-112170000D02*
X186500000Y-112800000D01*
X186500000Y-112800000D02*
X186500000Y-114800000D01*
X186600000Y-114900000D02*
X187000000Y-115300000D01*
D34*
X186500000Y-114800000D02*
X186600000Y-114900000D01*
D33*
X187000000Y-115300000D02*
X201000000Y-115300000D01*
X201000000Y-115300000D02*
X202250000Y-114050000D01*
X202250000Y-114050000D02*
X202250000Y-110300000D01*
X202250000Y-110300000D02*
X199200000Y-107250000D01*
X199200000Y-107250000D02*
X195300000Y-107250000D01*
X195300000Y-107250000D02*
X194000000Y-108550000D01*
X194000000Y-108550000D02*
X194000000Y-110352000D01*
X185000000Y-112170000D02*
X185870000Y-112170000D01*
D34*
X169000000Y-103350000D02*
X169200000Y-103150000D01*
X169200000Y-103150000D02*
X170400000Y-103150000D01*
X170400000Y-103150000D02*
X171001140Y-102548860D01*
X171001140Y-102548860D02*
X171001140Y-101550000D01*
X186600000Y-114950000D02*
X186600000Y-114900000D01*
X186625000Y-114925000D02*
X186600000Y-114950000D01*
X186600000Y-114950000D02*
X186625000Y-114925000D01*
X126600000Y-114950000D02*
X126625000Y-114925000D01*
X126625000Y-114925000D02*
X126600000Y-114950000D01*
X126600000Y-114950000D02*
X126600000Y-114900000D01*
X111001140Y-102548860D02*
X111001140Y-101550000D01*
X110400000Y-103150000D02*
X111001140Y-102548860D01*
X109200000Y-103150000D02*
X110400000Y-103150000D01*
X109000000Y-103350000D02*
X109200000Y-103150000D01*
D33*
X125000000Y-112170000D02*
X125870000Y-112170000D01*
X134000000Y-108550000D02*
X134000000Y-110352000D01*
X135300000Y-107250000D02*
X134000000Y-108550000D01*
X139200000Y-107250000D02*
X135300000Y-107250000D01*
X142250000Y-110300000D02*
X139200000Y-107250000D01*
X142250000Y-114050000D02*
X142250000Y-110300000D01*
X141000000Y-115300000D02*
X142250000Y-114050000D01*
X127000000Y-115300000D02*
X141000000Y-115300000D01*
D34*
X126500000Y-114800000D02*
X126600000Y-114900000D01*
D33*
X126600000Y-114900000D02*
X127000000Y-115300000D01*
X126500000Y-112800000D02*
X126500000Y-114800000D01*
X125870000Y-112170000D02*
X126500000Y-112800000D01*
X109000000Y-114950000D02*
X109050000Y-115000000D01*
X109000000Y-103350000D02*
X109000000Y-114950000D01*
X109000000Y-83800000D02*
X109000000Y-95400000D01*
X109000000Y-95400000D02*
X109050000Y-95450000D01*
X125870000Y-92620000D02*
X126500000Y-93250000D01*
X126500000Y-93250000D02*
X126500000Y-95250000D01*
X126600000Y-95350000D02*
X127000000Y-95750000D01*
D34*
X126500000Y-95250000D02*
X126600000Y-95350000D01*
D33*
X127000000Y-95750000D02*
X141000000Y-95750000D01*
X141000000Y-95750000D02*
X142250000Y-94500000D01*
X142250000Y-94500000D02*
X142250000Y-90750000D01*
X142250000Y-90750000D02*
X139200000Y-87700000D01*
X139200000Y-87700000D02*
X135300000Y-87700000D01*
X135300000Y-87700000D02*
X134000000Y-89000000D01*
X134000000Y-89000000D02*
X134000000Y-90802000D01*
X125000000Y-92620000D02*
X125870000Y-92620000D01*
D34*
X109000000Y-83800000D02*
X109200000Y-83600000D01*
X109200000Y-83600000D02*
X110400000Y-83600000D01*
X110400000Y-83600000D02*
X111001140Y-82998860D01*
X111001140Y-82998860D02*
X111001140Y-82000000D01*
X126600000Y-95400000D02*
X126600000Y-95350000D01*
X126625000Y-95375000D02*
X126600000Y-95400000D01*
X126600000Y-95400000D02*
X126625000Y-95375000D01*
D32*
X185000000Y-85000000D02*
X186250000Y-85000000D01*
X187210000Y-84040000D02*
X188750000Y-84040000D01*
X186250000Y-85000000D02*
X187210000Y-84040000D01*
X186250000Y-104550000D02*
X187210000Y-103590000D01*
X187210000Y-103590000D02*
X188750000Y-103590000D01*
X185000000Y-104550000D02*
X186250000Y-104550000D01*
X125000000Y-104550000D02*
X126250000Y-104550000D01*
X127210000Y-103590000D02*
X128750000Y-103590000D01*
X126250000Y-104550000D02*
X127210000Y-103590000D01*
X126250000Y-85000000D02*
X127210000Y-84040000D01*
X127210000Y-84040000D02*
X128750000Y-84040000D01*
X125000000Y-85000000D02*
X126250000Y-85000000D01*
D33*
X181250000Y-82000000D02*
X180500000Y-82000000D01*
X181000000Y-87500000D02*
X182420000Y-87500000D01*
X180500000Y-87000000D02*
X181000000Y-87500000D01*
X180500000Y-82000000D02*
X180500000Y-87000000D01*
D34*
X182420000Y-87500000D02*
X182460000Y-87540000D01*
X182420000Y-107050000D02*
X182460000Y-107090000D01*
D33*
X180500000Y-101550000D02*
X180500000Y-106550000D01*
X180500000Y-106550000D02*
X181000000Y-107050000D01*
X181000000Y-107050000D02*
X182420000Y-107050000D01*
X181250000Y-101550000D02*
X180500000Y-101550000D01*
X121250000Y-101550000D02*
X120500000Y-101550000D01*
X121000000Y-107050000D02*
X122420000Y-107050000D01*
X120500000Y-106550000D02*
X121000000Y-107050000D01*
X120500000Y-101550000D02*
X120500000Y-106550000D01*
D34*
X122420000Y-107050000D02*
X122460000Y-107090000D01*
X122420000Y-87500000D02*
X122460000Y-87540000D01*
D33*
X120500000Y-82000000D02*
X120500000Y-87000000D01*
X120500000Y-87000000D02*
X121000000Y-87500000D01*
X121000000Y-87500000D02*
X122420000Y-87500000D01*
X121250000Y-82000000D02*
X120500000Y-82000000D01*
X181250000Y-80500000D02*
X183049240Y-80500000D01*
D34*
X183049240Y-80500000D02*
X183050000Y-80500760D01*
X183049240Y-100050000D02*
X183050000Y-100050760D01*
D33*
X181250000Y-100050000D02*
X183049240Y-100050000D01*
X121250000Y-100050000D02*
X123049240Y-100050000D01*
D34*
X123049240Y-100050000D02*
X123050000Y-100050760D01*
X123049240Y-80500000D02*
X123050000Y-80500760D01*
D33*
X121250000Y-80500000D02*
X123049240Y-80500000D01*
X184000000Y-78501780D02*
X194251780Y-78501780D01*
X199500000Y-83750000D02*
X199500000Y-86200160D01*
X194251780Y-78501780D02*
X199500000Y-83750000D01*
X194251780Y-98051780D02*
X199500000Y-103300000D01*
X199500000Y-103300000D02*
X199500000Y-105750160D01*
X184000000Y-98051780D02*
X194251780Y-98051780D01*
X124000000Y-98051780D02*
X134251780Y-98051780D01*
X139500000Y-103300000D02*
X139500000Y-105750160D01*
X134251780Y-98051780D02*
X139500000Y-103300000D01*
X134251780Y-78501780D02*
X139500000Y-83750000D01*
X139500000Y-83750000D02*
X139500000Y-86200160D01*
X124000000Y-78501780D02*
X134251780Y-78501780D01*
X165750000Y-84500000D02*
X165750000Y-86910000D01*
D34*
X165750000Y-86910000D02*
X165775000Y-86935000D01*
D33*
X165800000Y-82675000D02*
X165800000Y-84450000D01*
D34*
X165800000Y-84450000D02*
X165750000Y-84500000D01*
X165800000Y-104000000D02*
X165750000Y-104050000D01*
D33*
X165800000Y-102225000D02*
X165800000Y-104000000D01*
D34*
X165750000Y-106460000D02*
X165775000Y-106485000D01*
D33*
X165750000Y-104050000D02*
X165750000Y-106460000D01*
X105750000Y-104050000D02*
X105750000Y-106460000D01*
D34*
X105750000Y-106460000D02*
X105775000Y-106485000D01*
D33*
X105800000Y-102225000D02*
X105800000Y-104000000D01*
D34*
X105800000Y-104000000D02*
X105750000Y-104050000D01*
X105800000Y-84450000D02*
X105750000Y-84500000D01*
D33*
X105800000Y-82675000D02*
X105800000Y-84450000D01*
D34*
X105750000Y-86910000D02*
X105775000Y-86935000D01*
D33*
X105750000Y-84500000D02*
X105750000Y-86910000D01*
M02*
