G04 #@! TF.FileFunction,Legend,Top*
%FSLAX46Y46*%
G04 Gerber Fmt 4.6, Leading zero omitted, Abs format (unit mm)*
G04 Created by KiCad (PCBNEW (2015-01-16 BZR 5376)-product) date 1/21/2016 3:46:14 PM*
%MOMM*%
G01*
G04 APERTURE LIST*
%ADD10C,0.100000*%
%ADD11C,0.150000*%
G04 APERTURE END LIST*
D10*
D11*
X206000000Y-77500000D02*
X206000000Y-77000000D01*
X206000000Y-77000000D02*
X146000000Y-77000000D01*
X146000000Y-77000000D02*
X146000000Y-96500000D01*
X146000000Y-96500000D02*
X206000000Y-96500000D01*
X206000000Y-96500000D02*
X206000000Y-77500000D01*
X206000000Y-116050000D02*
X206000000Y-97050000D01*
X146000000Y-116050000D02*
X206000000Y-116050000D01*
X146000000Y-96550000D02*
X146000000Y-116050000D01*
X206000000Y-96550000D02*
X146000000Y-96550000D01*
X206000000Y-97050000D02*
X206000000Y-96550000D01*
X146000000Y-97050000D02*
X146000000Y-96550000D01*
X146000000Y-96550000D02*
X86000000Y-96550000D01*
X86000000Y-96550000D02*
X86000000Y-116050000D01*
X86000000Y-116050000D02*
X146000000Y-116050000D01*
X146000000Y-116050000D02*
X146000000Y-97050000D01*
X146000000Y-96500000D02*
X146000000Y-77500000D01*
X86000000Y-96500000D02*
X146000000Y-96500000D01*
X86000000Y-77000000D02*
X86000000Y-96500000D01*
X146000000Y-77000000D02*
X86000000Y-77000000D01*
X146000000Y-77500000D02*
X146000000Y-77000000D01*
X149750000Y-83850000D02*
X152150000Y-82550000D01*
X147250000Y-82450000D02*
X149750000Y-83850000D01*
X147250000Y-78950000D02*
X149750000Y-77650000D01*
X147250000Y-82550000D02*
X147250000Y-78950000D01*
X152150000Y-78950000D02*
X149750000Y-77650000D01*
X152150000Y-82550000D02*
X152150000Y-78850000D01*
X152874100Y-80750000D02*
G75*
G03X152874100Y-80750000I-3124100J0D01*
G01*
X152850000Y-80750000D02*
X152850000Y-80950000D01*
X151588478Y-80750000D02*
G75*
G03X151588478Y-80750000I-1838478J0D01*
G01*
X168275000Y-94475000D02*
X168275000Y-93225000D01*
X168275000Y-94475000D02*
X169775000Y-94475000D01*
X168275000Y-84475000D02*
X169775000Y-84475000D01*
X168275000Y-84475000D02*
X168275000Y-85725000D01*
X165550000Y-83350000D02*
X164550000Y-83350000D01*
X164550000Y-82000000D02*
X165550000Y-82000000D01*
X167000000Y-85175000D02*
X166000000Y-85175000D01*
X166000000Y-83825000D02*
X167000000Y-83825000D01*
X161100960Y-81301120D02*
X155899040Y-81301120D01*
X155899040Y-83698880D02*
X161100960Y-83698880D01*
X162099180Y-84798700D02*
X162099180Y-83698880D01*
X162698620Y-84298320D02*
X161499740Y-84298320D01*
X161596260Y-83698880D02*
X161596260Y-81301120D01*
X190444000Y-89024000D02*
X190444000Y-92072000D01*
X190444000Y-92072000D02*
X197556000Y-92072000D01*
X197556000Y-92072000D02*
X197556000Y-89024000D01*
X190444000Y-85976000D02*
X190444000Y-85214000D01*
X190444000Y-85214000D02*
X191968000Y-82928000D01*
X191968000Y-82928000D02*
X196032000Y-82928000D01*
X196032000Y-82928000D02*
X197556000Y-85214000D01*
X197556000Y-85214000D02*
X197556000Y-85976000D01*
X180575000Y-81750000D02*
X180575000Y-80750000D01*
X181925000Y-80750000D02*
X181925000Y-81750000D01*
X185299160Y-78849760D02*
X185250900Y-78849760D01*
X182500180Y-79550800D02*
X182500180Y-78849760D01*
X182500180Y-78849760D02*
X182749100Y-78849760D01*
X185299160Y-78849760D02*
X185499820Y-78849760D01*
X185499820Y-78849760D02*
X185499820Y-79550800D01*
X166870000Y-77805000D02*
X179570000Y-77805000D01*
X179570000Y-77805000D02*
X179570000Y-80345000D01*
X179570000Y-80345000D02*
X166870000Y-80345000D01*
X164050000Y-77525000D02*
X165600000Y-77525000D01*
X166870000Y-77805000D02*
X166870000Y-80345000D01*
X165600000Y-80625000D02*
X164050000Y-80625000D01*
X164050000Y-80625000D02*
X164050000Y-77525000D01*
X202000000Y-83600000D02*
X204400000Y-82300000D01*
X199500000Y-82200000D02*
X202000000Y-83600000D01*
X199500000Y-78700000D02*
X202000000Y-77400000D01*
X199500000Y-82300000D02*
X199500000Y-78700000D01*
X204400000Y-78700000D02*
X202000000Y-77400000D01*
X204400000Y-82300000D02*
X204400000Y-78600000D01*
X205124100Y-80500000D02*
G75*
G03X205124100Y-80500000I-3124100J0D01*
G01*
X205100000Y-80500000D02*
X205100000Y-80700000D01*
X203838478Y-80500000D02*
G75*
G03X203838478Y-80500000I-1838478J0D01*
G01*
X150049500Y-84399120D02*
X150049500Y-93400880D01*
X146549380Y-84399120D02*
X146549380Y-93400880D01*
X146549380Y-93400880D02*
X161050240Y-93400880D01*
X161050240Y-93400880D02*
X161050240Y-84399120D01*
X161050240Y-84399120D02*
X146549380Y-84399120D01*
X172100960Y-80801120D02*
X166899040Y-80801120D01*
X166899040Y-83198880D02*
X172100960Y-83198880D01*
X173099180Y-84298700D02*
X173099180Y-83198880D01*
X173698620Y-83798320D02*
X172499740Y-83798320D01*
X172596260Y-83198880D02*
X172596260Y-80801120D01*
X161100960Y-78301120D02*
X155899040Y-78301120D01*
X155899040Y-80698880D02*
X161100960Y-80698880D01*
X162099180Y-81798700D02*
X162099180Y-80698880D01*
X162698620Y-81298320D02*
X161499740Y-81298320D01*
X161596260Y-80698880D02*
X161596260Y-78301120D01*
X164850000Y-95100000D02*
X164150000Y-95100000D01*
X164150000Y-93900000D02*
X164850000Y-93900000D01*
X164850000Y-114650000D02*
X164150000Y-114650000D01*
X164150000Y-113450000D02*
X164850000Y-113450000D01*
X161100960Y-97851120D02*
X155899040Y-97851120D01*
X155899040Y-100248880D02*
X161100960Y-100248880D01*
X162099180Y-101348700D02*
X162099180Y-100248880D01*
X162698620Y-100848320D02*
X161499740Y-100848320D01*
X161596260Y-100248880D02*
X161596260Y-97851120D01*
X172100960Y-100351120D02*
X166899040Y-100351120D01*
X166899040Y-102748880D02*
X172100960Y-102748880D01*
X173099180Y-103848700D02*
X173099180Y-102748880D01*
X173698620Y-103348320D02*
X172499740Y-103348320D01*
X172596260Y-102748880D02*
X172596260Y-100351120D01*
X150049500Y-103949120D02*
X150049500Y-112950880D01*
X146549380Y-103949120D02*
X146549380Y-112950880D01*
X146549380Y-112950880D02*
X161050240Y-112950880D01*
X161050240Y-112950880D02*
X161050240Y-103949120D01*
X161050240Y-103949120D02*
X146549380Y-103949120D01*
X202000000Y-103150000D02*
X204400000Y-101850000D01*
X199500000Y-101750000D02*
X202000000Y-103150000D01*
X199500000Y-98250000D02*
X202000000Y-96950000D01*
X199500000Y-101850000D02*
X199500000Y-98250000D01*
X204400000Y-98250000D02*
X202000000Y-96950000D01*
X204400000Y-101850000D02*
X204400000Y-98150000D01*
X205124100Y-100050000D02*
G75*
G03X205124100Y-100050000I-3124100J0D01*
G01*
X205100000Y-100050000D02*
X205100000Y-100250000D01*
X203838478Y-100050000D02*
G75*
G03X203838478Y-100050000I-1838478J0D01*
G01*
X166870000Y-97355000D02*
X179570000Y-97355000D01*
X179570000Y-97355000D02*
X179570000Y-99895000D01*
X179570000Y-99895000D02*
X166870000Y-99895000D01*
X164050000Y-97075000D02*
X165600000Y-97075000D01*
X166870000Y-97355000D02*
X166870000Y-99895000D01*
X165600000Y-100175000D02*
X164050000Y-100175000D01*
X164050000Y-100175000D02*
X164050000Y-97075000D01*
X185299160Y-98399760D02*
X185250900Y-98399760D01*
X182500180Y-99100800D02*
X182500180Y-98399760D01*
X182500180Y-98399760D02*
X182749100Y-98399760D01*
X185299160Y-98399760D02*
X185499820Y-98399760D01*
X185499820Y-98399760D02*
X185499820Y-99100800D01*
X180575000Y-101300000D02*
X180575000Y-100300000D01*
X181925000Y-100300000D02*
X181925000Y-101300000D01*
X190444000Y-108574000D02*
X190444000Y-111622000D01*
X190444000Y-111622000D02*
X197556000Y-111622000D01*
X197556000Y-111622000D02*
X197556000Y-108574000D01*
X190444000Y-105526000D02*
X190444000Y-104764000D01*
X190444000Y-104764000D02*
X191968000Y-102478000D01*
X191968000Y-102478000D02*
X196032000Y-102478000D01*
X196032000Y-102478000D02*
X197556000Y-104764000D01*
X197556000Y-104764000D02*
X197556000Y-105526000D01*
X161100960Y-100851120D02*
X155899040Y-100851120D01*
X155899040Y-103248880D02*
X161100960Y-103248880D01*
X162099180Y-104348700D02*
X162099180Y-103248880D01*
X162698620Y-103848320D02*
X161499740Y-103848320D01*
X161596260Y-103248880D02*
X161596260Y-100851120D01*
X167000000Y-104725000D02*
X166000000Y-104725000D01*
X166000000Y-103375000D02*
X167000000Y-103375000D01*
X165550000Y-102900000D02*
X164550000Y-102900000D01*
X164550000Y-101550000D02*
X165550000Y-101550000D01*
X168275000Y-114025000D02*
X168275000Y-112775000D01*
X168275000Y-114025000D02*
X169775000Y-114025000D01*
X168275000Y-104025000D02*
X169775000Y-104025000D01*
X168275000Y-104025000D02*
X168275000Y-105275000D01*
X149750000Y-103400000D02*
X152150000Y-102100000D01*
X147250000Y-102000000D02*
X149750000Y-103400000D01*
X147250000Y-98500000D02*
X149750000Y-97200000D01*
X147250000Y-102100000D02*
X147250000Y-98500000D01*
X152150000Y-98500000D02*
X149750000Y-97200000D01*
X152150000Y-102100000D02*
X152150000Y-98400000D01*
X152874100Y-100300000D02*
G75*
G03X152874100Y-100300000I-3124100J0D01*
G01*
X152850000Y-100300000D02*
X152850000Y-100500000D01*
X151588478Y-100300000D02*
G75*
G03X151588478Y-100300000I-1838478J0D01*
G01*
X89750000Y-103400000D02*
X92150000Y-102100000D01*
X87250000Y-102000000D02*
X89750000Y-103400000D01*
X87250000Y-98500000D02*
X89750000Y-97200000D01*
X87250000Y-102100000D02*
X87250000Y-98500000D01*
X92150000Y-98500000D02*
X89750000Y-97200000D01*
X92150000Y-102100000D02*
X92150000Y-98400000D01*
X92874100Y-100300000D02*
G75*
G03X92874100Y-100300000I-3124100J0D01*
G01*
X92850000Y-100300000D02*
X92850000Y-100500000D01*
X91588478Y-100300000D02*
G75*
G03X91588478Y-100300000I-1838478J0D01*
G01*
X108275000Y-114025000D02*
X108275000Y-112775000D01*
X108275000Y-114025000D02*
X109775000Y-114025000D01*
X108275000Y-104025000D02*
X109775000Y-104025000D01*
X108275000Y-104025000D02*
X108275000Y-105275000D01*
X105550000Y-102900000D02*
X104550000Y-102900000D01*
X104550000Y-101550000D02*
X105550000Y-101550000D01*
X107000000Y-104725000D02*
X106000000Y-104725000D01*
X106000000Y-103375000D02*
X107000000Y-103375000D01*
X101100960Y-100851120D02*
X95899040Y-100851120D01*
X95899040Y-103248880D02*
X101100960Y-103248880D01*
X102099180Y-104348700D02*
X102099180Y-103248880D01*
X102698620Y-103848320D02*
X101499740Y-103848320D01*
X101596260Y-103248880D02*
X101596260Y-100851120D01*
X130444000Y-108574000D02*
X130444000Y-111622000D01*
X130444000Y-111622000D02*
X137556000Y-111622000D01*
X137556000Y-111622000D02*
X137556000Y-108574000D01*
X130444000Y-105526000D02*
X130444000Y-104764000D01*
X130444000Y-104764000D02*
X131968000Y-102478000D01*
X131968000Y-102478000D02*
X136032000Y-102478000D01*
X136032000Y-102478000D02*
X137556000Y-104764000D01*
X137556000Y-104764000D02*
X137556000Y-105526000D01*
X120575000Y-101300000D02*
X120575000Y-100300000D01*
X121925000Y-100300000D02*
X121925000Y-101300000D01*
X125299160Y-98399760D02*
X125250900Y-98399760D01*
X122500180Y-99100800D02*
X122500180Y-98399760D01*
X122500180Y-98399760D02*
X122749100Y-98399760D01*
X125299160Y-98399760D02*
X125499820Y-98399760D01*
X125499820Y-98399760D02*
X125499820Y-99100800D01*
X106870000Y-97355000D02*
X119570000Y-97355000D01*
X119570000Y-97355000D02*
X119570000Y-99895000D01*
X119570000Y-99895000D02*
X106870000Y-99895000D01*
X104050000Y-97075000D02*
X105600000Y-97075000D01*
X106870000Y-97355000D02*
X106870000Y-99895000D01*
X105600000Y-100175000D02*
X104050000Y-100175000D01*
X104050000Y-100175000D02*
X104050000Y-97075000D01*
X142000000Y-103150000D02*
X144400000Y-101850000D01*
X139500000Y-101750000D02*
X142000000Y-103150000D01*
X139500000Y-98250000D02*
X142000000Y-96950000D01*
X139500000Y-101850000D02*
X139500000Y-98250000D01*
X144400000Y-98250000D02*
X142000000Y-96950000D01*
X144400000Y-101850000D02*
X144400000Y-98150000D01*
X145124100Y-100050000D02*
G75*
G03X145124100Y-100050000I-3124100J0D01*
G01*
X145100000Y-100050000D02*
X145100000Y-100250000D01*
X143838478Y-100050000D02*
G75*
G03X143838478Y-100050000I-1838478J0D01*
G01*
X90049500Y-103949120D02*
X90049500Y-112950880D01*
X86549380Y-103949120D02*
X86549380Y-112950880D01*
X86549380Y-112950880D02*
X101050240Y-112950880D01*
X101050240Y-112950880D02*
X101050240Y-103949120D01*
X101050240Y-103949120D02*
X86549380Y-103949120D01*
X112100960Y-100351120D02*
X106899040Y-100351120D01*
X106899040Y-102748880D02*
X112100960Y-102748880D01*
X113099180Y-103848700D02*
X113099180Y-102748880D01*
X113698620Y-103348320D02*
X112499740Y-103348320D01*
X112596260Y-102748880D02*
X112596260Y-100351120D01*
X101100960Y-97851120D02*
X95899040Y-97851120D01*
X95899040Y-100248880D02*
X101100960Y-100248880D01*
X102099180Y-101348700D02*
X102099180Y-100248880D01*
X102698620Y-100848320D02*
X101499740Y-100848320D01*
X101596260Y-100248880D02*
X101596260Y-97851120D01*
X104850000Y-114650000D02*
X104150000Y-114650000D01*
X104150000Y-113450000D02*
X104850000Y-113450000D01*
X104850000Y-95100000D02*
X104150000Y-95100000D01*
X104150000Y-93900000D02*
X104850000Y-93900000D01*
X101100960Y-78301120D02*
X95899040Y-78301120D01*
X95899040Y-80698880D02*
X101100960Y-80698880D01*
X102099180Y-81798700D02*
X102099180Y-80698880D01*
X102698620Y-81298320D02*
X101499740Y-81298320D01*
X101596260Y-80698880D02*
X101596260Y-78301120D01*
X112100960Y-80801120D02*
X106899040Y-80801120D01*
X106899040Y-83198880D02*
X112100960Y-83198880D01*
X113099180Y-84298700D02*
X113099180Y-83198880D01*
X113698620Y-83798320D02*
X112499740Y-83798320D01*
X112596260Y-83198880D02*
X112596260Y-80801120D01*
X90049500Y-84399120D02*
X90049500Y-93400880D01*
X86549380Y-84399120D02*
X86549380Y-93400880D01*
X86549380Y-93400880D02*
X101050240Y-93400880D01*
X101050240Y-93400880D02*
X101050240Y-84399120D01*
X101050240Y-84399120D02*
X86549380Y-84399120D01*
X142000000Y-83600000D02*
X144400000Y-82300000D01*
X139500000Y-82200000D02*
X142000000Y-83600000D01*
X139500000Y-78700000D02*
X142000000Y-77400000D01*
X139500000Y-82300000D02*
X139500000Y-78700000D01*
X144400000Y-78700000D02*
X142000000Y-77400000D01*
X144400000Y-82300000D02*
X144400000Y-78600000D01*
X145124100Y-80500000D02*
G75*
G03X145124100Y-80500000I-3124100J0D01*
G01*
X145100000Y-80500000D02*
X145100000Y-80700000D01*
X143838478Y-80500000D02*
G75*
G03X143838478Y-80500000I-1838478J0D01*
G01*
X106870000Y-77805000D02*
X119570000Y-77805000D01*
X119570000Y-77805000D02*
X119570000Y-80345000D01*
X119570000Y-80345000D02*
X106870000Y-80345000D01*
X104050000Y-77525000D02*
X105600000Y-77525000D01*
X106870000Y-77805000D02*
X106870000Y-80345000D01*
X105600000Y-80625000D02*
X104050000Y-80625000D01*
X104050000Y-80625000D02*
X104050000Y-77525000D01*
X125299160Y-78849760D02*
X125250900Y-78849760D01*
X122500180Y-79550800D02*
X122500180Y-78849760D01*
X122500180Y-78849760D02*
X122749100Y-78849760D01*
X125299160Y-78849760D02*
X125499820Y-78849760D01*
X125499820Y-78849760D02*
X125499820Y-79550800D01*
X120575000Y-81750000D02*
X120575000Y-80750000D01*
X121925000Y-80750000D02*
X121925000Y-81750000D01*
X130444000Y-89024000D02*
X130444000Y-92072000D01*
X130444000Y-92072000D02*
X137556000Y-92072000D01*
X137556000Y-92072000D02*
X137556000Y-89024000D01*
X130444000Y-85976000D02*
X130444000Y-85214000D01*
X130444000Y-85214000D02*
X131968000Y-82928000D01*
X131968000Y-82928000D02*
X136032000Y-82928000D01*
X136032000Y-82928000D02*
X137556000Y-85214000D01*
X137556000Y-85214000D02*
X137556000Y-85976000D01*
X101100960Y-81301120D02*
X95899040Y-81301120D01*
X95899040Y-83698880D02*
X101100960Y-83698880D01*
X102099180Y-84798700D02*
X102099180Y-83698880D01*
X102698620Y-84298320D02*
X101499740Y-84298320D01*
X101596260Y-83698880D02*
X101596260Y-81301120D01*
X107000000Y-85175000D02*
X106000000Y-85175000D01*
X106000000Y-83825000D02*
X107000000Y-83825000D01*
X105550000Y-83350000D02*
X104550000Y-83350000D01*
X104550000Y-82000000D02*
X105550000Y-82000000D01*
X108275000Y-94475000D02*
X108275000Y-93225000D01*
X108275000Y-94475000D02*
X109775000Y-94475000D01*
X108275000Y-84475000D02*
X109775000Y-84475000D01*
X108275000Y-84475000D02*
X108275000Y-85725000D01*
X89750000Y-83850000D02*
X92150000Y-82550000D01*
X87250000Y-82450000D02*
X89750000Y-83850000D01*
X87250000Y-78950000D02*
X89750000Y-77650000D01*
X87250000Y-82550000D02*
X87250000Y-78950000D01*
X92150000Y-78950000D02*
X89750000Y-77650000D01*
X92150000Y-82550000D02*
X92150000Y-78850000D01*
X92874100Y-80750000D02*
G75*
G03X92874100Y-80750000I-3124100J0D01*
G01*
X92850000Y-80750000D02*
X92850000Y-80950000D01*
X91588478Y-80750000D02*
G75*
G03X91588478Y-80750000I-1838478J0D01*
G01*
X176238095Y-80702381D02*
X176238095Y-81511905D01*
X176285714Y-81607143D01*
X176333333Y-81654762D01*
X176428571Y-81702381D01*
X176619048Y-81702381D01*
X176714286Y-81654762D01*
X176761905Y-81607143D01*
X176809524Y-81511905D01*
X176809524Y-80702381D01*
X177809524Y-81702381D02*
X177238095Y-81702381D01*
X177523809Y-81702381D02*
X177523809Y-80702381D01*
X177428571Y-80845238D01*
X177333333Y-80940476D01*
X177238095Y-80988095D01*
X162583334Y-83202381D02*
X162250000Y-82726190D01*
X162011905Y-83202381D02*
X162011905Y-82202381D01*
X162392858Y-82202381D01*
X162488096Y-82250000D01*
X162535715Y-82297619D01*
X162583334Y-82392857D01*
X162583334Y-82535714D01*
X162535715Y-82630952D01*
X162488096Y-82678571D01*
X162392858Y-82726190D01*
X162011905Y-82726190D01*
X163440477Y-82202381D02*
X163250000Y-82202381D01*
X163154762Y-82250000D01*
X163107143Y-82297619D01*
X163011905Y-82440476D01*
X162964286Y-82630952D01*
X162964286Y-83011905D01*
X163011905Y-83107143D01*
X163059524Y-83154762D01*
X163154762Y-83202381D01*
X163345239Y-83202381D01*
X163440477Y-83154762D01*
X163488096Y-83107143D01*
X163535715Y-83011905D01*
X163535715Y-82773810D01*
X163488096Y-82678571D01*
X163440477Y-82630952D01*
X163345239Y-82583333D01*
X163154762Y-82583333D01*
X163059524Y-82630952D01*
X163011905Y-82678571D01*
X162964286Y-82773810D01*
X163833334Y-84952381D02*
X163500000Y-84476190D01*
X163261905Y-84952381D02*
X163261905Y-83952381D01*
X163642858Y-83952381D01*
X163738096Y-84000000D01*
X163785715Y-84047619D01*
X163833334Y-84142857D01*
X163833334Y-84285714D01*
X163785715Y-84380952D01*
X163738096Y-84428571D01*
X163642858Y-84476190D01*
X163261905Y-84476190D01*
X164738096Y-83952381D02*
X164261905Y-83952381D01*
X164214286Y-84428571D01*
X164261905Y-84380952D01*
X164357143Y-84333333D01*
X164595239Y-84333333D01*
X164690477Y-84380952D01*
X164738096Y-84428571D01*
X164785715Y-84523810D01*
X164785715Y-84761905D01*
X164738096Y-84857143D01*
X164690477Y-84904762D01*
X164595239Y-84952381D01*
X164357143Y-84952381D01*
X164261905Y-84904762D01*
X164214286Y-84857143D01*
X154333334Y-82857143D02*
X154285715Y-82904762D01*
X154142858Y-82952381D01*
X154047620Y-82952381D01*
X153904762Y-82904762D01*
X153809524Y-82809524D01*
X153761905Y-82714286D01*
X153714286Y-82523810D01*
X153714286Y-82380952D01*
X153761905Y-82190476D01*
X153809524Y-82095238D01*
X153904762Y-82000000D01*
X154047620Y-81952381D01*
X154142858Y-81952381D01*
X154285715Y-82000000D01*
X154333334Y-82047619D01*
X154714286Y-82047619D02*
X154761905Y-82000000D01*
X154857143Y-81952381D01*
X155095239Y-81952381D01*
X155190477Y-82000000D01*
X155238096Y-82047619D01*
X155285715Y-82142857D01*
X155285715Y-82238095D01*
X155238096Y-82380952D01*
X154666667Y-82952381D01*
X155285715Y-82952381D01*
X161718228Y-84372289D02*
X162480133Y-84372289D01*
X162099181Y-84753241D02*
X162099181Y-83991336D01*
X193238095Y-92452381D02*
X193238095Y-93261905D01*
X193285714Y-93357143D01*
X193333333Y-93404762D01*
X193428571Y-93452381D01*
X193619048Y-93452381D01*
X193714286Y-93404762D01*
X193761905Y-93357143D01*
X193809524Y-93261905D01*
X193809524Y-92452381D01*
X194238095Y-92547619D02*
X194285714Y-92500000D01*
X194380952Y-92452381D01*
X194619048Y-92452381D01*
X194714286Y-92500000D01*
X194761905Y-92547619D01*
X194809524Y-92642857D01*
X194809524Y-92738095D01*
X194761905Y-92880952D01*
X194190476Y-93452381D01*
X194809524Y-93452381D01*
X179083334Y-82952381D02*
X178750000Y-82476190D01*
X178511905Y-82952381D02*
X178511905Y-81952381D01*
X178892858Y-81952381D01*
X178988096Y-82000000D01*
X179035715Y-82047619D01*
X179083334Y-82142857D01*
X179083334Y-82285714D01*
X179035715Y-82380952D01*
X178988096Y-82428571D01*
X178892858Y-82476190D01*
X178511905Y-82476190D01*
X179940477Y-82285714D02*
X179940477Y-82952381D01*
X179702381Y-81904762D02*
X179464286Y-82619048D01*
X180083334Y-82619048D01*
X186904762Y-78797619D02*
X186809524Y-78750000D01*
X186714286Y-78654762D01*
X186571429Y-78511905D01*
X186476190Y-78464286D01*
X186380952Y-78464286D01*
X186428571Y-78702381D02*
X186333333Y-78654762D01*
X186238095Y-78559524D01*
X186190476Y-78369048D01*
X186190476Y-78035714D01*
X186238095Y-77845238D01*
X186333333Y-77750000D01*
X186428571Y-77702381D01*
X186619048Y-77702381D01*
X186714286Y-77750000D01*
X186809524Y-77845238D01*
X186857143Y-78035714D01*
X186857143Y-78369048D01*
X186809524Y-78559524D01*
X186714286Y-78654762D01*
X186619048Y-78702381D01*
X186428571Y-78702381D01*
X187190476Y-77702381D02*
X187809524Y-77702381D01*
X187476190Y-78083333D01*
X187619048Y-78083333D01*
X187714286Y-78130952D01*
X187761905Y-78178571D01*
X187809524Y-78273810D01*
X187809524Y-78511905D01*
X187761905Y-78607143D01*
X187714286Y-78654762D01*
X187619048Y-78702381D01*
X187333333Y-78702381D01*
X187238095Y-78654762D01*
X187190476Y-78607143D01*
X180261905Y-79202381D02*
X180261905Y-78202381D01*
X180642858Y-78202381D01*
X180738096Y-78250000D01*
X180785715Y-78297619D01*
X180833334Y-78392857D01*
X180833334Y-78535714D01*
X180785715Y-78630952D01*
X180738096Y-78678571D01*
X180642858Y-78726190D01*
X180261905Y-78726190D01*
X181690477Y-78202381D02*
X181500000Y-78202381D01*
X181404762Y-78250000D01*
X181357143Y-78297619D01*
X181261905Y-78440476D01*
X181214286Y-78630952D01*
X181214286Y-79011905D01*
X181261905Y-79107143D01*
X181309524Y-79154762D01*
X181404762Y-79202381D01*
X181595239Y-79202381D01*
X181690477Y-79154762D01*
X181738096Y-79107143D01*
X181785715Y-79011905D01*
X181785715Y-78773810D01*
X181738096Y-78678571D01*
X181690477Y-78630952D01*
X181595239Y-78583333D01*
X181404762Y-78583333D01*
X181309524Y-78630952D01*
X181261905Y-78678571D01*
X181214286Y-78773810D01*
X151985715Y-84157143D02*
X151938096Y-84204762D01*
X151795239Y-84252381D01*
X151700001Y-84252381D01*
X151557143Y-84204762D01*
X151461905Y-84109524D01*
X151414286Y-84014286D01*
X151366667Y-83823810D01*
X151366667Y-83680952D01*
X151414286Y-83490476D01*
X151461905Y-83395238D01*
X151557143Y-83300000D01*
X151700001Y-83252381D01*
X151795239Y-83252381D01*
X151938096Y-83300000D01*
X151985715Y-83347619D01*
X152604762Y-83252381D02*
X152795239Y-83252381D01*
X152890477Y-83300000D01*
X152985715Y-83395238D01*
X153033334Y-83585714D01*
X153033334Y-83919048D01*
X152985715Y-84109524D01*
X152890477Y-84204762D01*
X152795239Y-84252381D01*
X152604762Y-84252381D01*
X152509524Y-84204762D01*
X152414286Y-84109524D01*
X152366667Y-83919048D01*
X152366667Y-83585714D01*
X152414286Y-83395238D01*
X152509524Y-83300000D01*
X152604762Y-83252381D01*
X153461905Y-84252381D02*
X153461905Y-83252381D01*
X154033334Y-84252381D01*
X154033334Y-83252381D01*
X155033334Y-84252381D02*
X154461905Y-84252381D01*
X154747619Y-84252381D02*
X154747619Y-83252381D01*
X154652381Y-83395238D01*
X154557143Y-83490476D01*
X154461905Y-83538095D01*
X173583334Y-82857143D02*
X173535715Y-82904762D01*
X173392858Y-82952381D01*
X173297620Y-82952381D01*
X173154762Y-82904762D01*
X173059524Y-82809524D01*
X173011905Y-82714286D01*
X172964286Y-82523810D01*
X172964286Y-82380952D01*
X173011905Y-82190476D01*
X173059524Y-82095238D01*
X173154762Y-82000000D01*
X173297620Y-81952381D01*
X173392858Y-81952381D01*
X173535715Y-82000000D01*
X173583334Y-82047619D01*
X174440477Y-82285714D02*
X174440477Y-82952381D01*
X174202381Y-81904762D02*
X173964286Y-82619048D01*
X174583334Y-82619048D01*
X172718228Y-83872289D02*
X173480133Y-83872289D01*
X173099181Y-84253241D02*
X173099181Y-83491336D01*
X154333334Y-80107143D02*
X154285715Y-80154762D01*
X154142858Y-80202381D01*
X154047620Y-80202381D01*
X153904762Y-80154762D01*
X153809524Y-80059524D01*
X153761905Y-79964286D01*
X153714286Y-79773810D01*
X153714286Y-79630952D01*
X153761905Y-79440476D01*
X153809524Y-79345238D01*
X153904762Y-79250000D01*
X154047620Y-79202381D01*
X154142858Y-79202381D01*
X154285715Y-79250000D01*
X154333334Y-79297619D01*
X154666667Y-79202381D02*
X155285715Y-79202381D01*
X154952381Y-79583333D01*
X155095239Y-79583333D01*
X155190477Y-79630952D01*
X155238096Y-79678571D01*
X155285715Y-79773810D01*
X155285715Y-80011905D01*
X155238096Y-80107143D01*
X155190477Y-80154762D01*
X155095239Y-80202381D01*
X154809524Y-80202381D01*
X154714286Y-80154762D01*
X154666667Y-80107143D01*
X161718228Y-81372289D02*
X162480133Y-81372289D01*
X162099181Y-81753241D02*
X162099181Y-80991336D01*
X161833334Y-94907143D02*
X161785715Y-94954762D01*
X161642858Y-95002381D01*
X161547620Y-95002381D01*
X161404762Y-94954762D01*
X161309524Y-94859524D01*
X161261905Y-94764286D01*
X161214286Y-94573810D01*
X161214286Y-94430952D01*
X161261905Y-94240476D01*
X161309524Y-94145238D01*
X161404762Y-94050000D01*
X161547620Y-94002381D01*
X161642858Y-94002381D01*
X161785715Y-94050000D01*
X161833334Y-94097619D01*
X162785715Y-95002381D02*
X162214286Y-95002381D01*
X162500000Y-95002381D02*
X162500000Y-94002381D01*
X162404762Y-94145238D01*
X162309524Y-94240476D01*
X162214286Y-94288095D01*
X161833334Y-114457143D02*
X161785715Y-114504762D01*
X161642858Y-114552381D01*
X161547620Y-114552381D01*
X161404762Y-114504762D01*
X161309524Y-114409524D01*
X161261905Y-114314286D01*
X161214286Y-114123810D01*
X161214286Y-113980952D01*
X161261905Y-113790476D01*
X161309524Y-113695238D01*
X161404762Y-113600000D01*
X161547620Y-113552381D01*
X161642858Y-113552381D01*
X161785715Y-113600000D01*
X161833334Y-113647619D01*
X162785715Y-114552381D02*
X162214286Y-114552381D01*
X162500000Y-114552381D02*
X162500000Y-113552381D01*
X162404762Y-113695238D01*
X162309524Y-113790476D01*
X162214286Y-113838095D01*
X154333334Y-99657143D02*
X154285715Y-99704762D01*
X154142858Y-99752381D01*
X154047620Y-99752381D01*
X153904762Y-99704762D01*
X153809524Y-99609524D01*
X153761905Y-99514286D01*
X153714286Y-99323810D01*
X153714286Y-99180952D01*
X153761905Y-98990476D01*
X153809524Y-98895238D01*
X153904762Y-98800000D01*
X154047620Y-98752381D01*
X154142858Y-98752381D01*
X154285715Y-98800000D01*
X154333334Y-98847619D01*
X154666667Y-98752381D02*
X155285715Y-98752381D01*
X154952381Y-99133333D01*
X155095239Y-99133333D01*
X155190477Y-99180952D01*
X155238096Y-99228571D01*
X155285715Y-99323810D01*
X155285715Y-99561905D01*
X155238096Y-99657143D01*
X155190477Y-99704762D01*
X155095239Y-99752381D01*
X154809524Y-99752381D01*
X154714286Y-99704762D01*
X154666667Y-99657143D01*
X161718228Y-100922289D02*
X162480133Y-100922289D01*
X162099181Y-101303241D02*
X162099181Y-100541336D01*
X173583334Y-102407143D02*
X173535715Y-102454762D01*
X173392858Y-102502381D01*
X173297620Y-102502381D01*
X173154762Y-102454762D01*
X173059524Y-102359524D01*
X173011905Y-102264286D01*
X172964286Y-102073810D01*
X172964286Y-101930952D01*
X173011905Y-101740476D01*
X173059524Y-101645238D01*
X173154762Y-101550000D01*
X173297620Y-101502381D01*
X173392858Y-101502381D01*
X173535715Y-101550000D01*
X173583334Y-101597619D01*
X174440477Y-101835714D02*
X174440477Y-102502381D01*
X174202381Y-101454762D02*
X173964286Y-102169048D01*
X174583334Y-102169048D01*
X172718228Y-103422289D02*
X173480133Y-103422289D01*
X173099181Y-103803241D02*
X173099181Y-103041336D01*
X151985715Y-103707143D02*
X151938096Y-103754762D01*
X151795239Y-103802381D01*
X151700001Y-103802381D01*
X151557143Y-103754762D01*
X151461905Y-103659524D01*
X151414286Y-103564286D01*
X151366667Y-103373810D01*
X151366667Y-103230952D01*
X151414286Y-103040476D01*
X151461905Y-102945238D01*
X151557143Y-102850000D01*
X151700001Y-102802381D01*
X151795239Y-102802381D01*
X151938096Y-102850000D01*
X151985715Y-102897619D01*
X152604762Y-102802381D02*
X152795239Y-102802381D01*
X152890477Y-102850000D01*
X152985715Y-102945238D01*
X153033334Y-103135714D01*
X153033334Y-103469048D01*
X152985715Y-103659524D01*
X152890477Y-103754762D01*
X152795239Y-103802381D01*
X152604762Y-103802381D01*
X152509524Y-103754762D01*
X152414286Y-103659524D01*
X152366667Y-103469048D01*
X152366667Y-103135714D01*
X152414286Y-102945238D01*
X152509524Y-102850000D01*
X152604762Y-102802381D01*
X153461905Y-103802381D02*
X153461905Y-102802381D01*
X154033334Y-103802381D01*
X154033334Y-102802381D01*
X155033334Y-103802381D02*
X154461905Y-103802381D01*
X154747619Y-103802381D02*
X154747619Y-102802381D01*
X154652381Y-102945238D01*
X154557143Y-103040476D01*
X154461905Y-103088095D01*
X180261905Y-98752381D02*
X180261905Y-97752381D01*
X180642858Y-97752381D01*
X180738096Y-97800000D01*
X180785715Y-97847619D01*
X180833334Y-97942857D01*
X180833334Y-98085714D01*
X180785715Y-98180952D01*
X180738096Y-98228571D01*
X180642858Y-98276190D01*
X180261905Y-98276190D01*
X181690477Y-97752381D02*
X181500000Y-97752381D01*
X181404762Y-97800000D01*
X181357143Y-97847619D01*
X181261905Y-97990476D01*
X181214286Y-98180952D01*
X181214286Y-98561905D01*
X181261905Y-98657143D01*
X181309524Y-98704762D01*
X181404762Y-98752381D01*
X181595239Y-98752381D01*
X181690477Y-98704762D01*
X181738096Y-98657143D01*
X181785715Y-98561905D01*
X181785715Y-98323810D01*
X181738096Y-98228571D01*
X181690477Y-98180952D01*
X181595239Y-98133333D01*
X181404762Y-98133333D01*
X181309524Y-98180952D01*
X181261905Y-98228571D01*
X181214286Y-98323810D01*
X186904762Y-98347619D02*
X186809524Y-98300000D01*
X186714286Y-98204762D01*
X186571429Y-98061905D01*
X186476190Y-98014286D01*
X186380952Y-98014286D01*
X186428571Y-98252381D02*
X186333333Y-98204762D01*
X186238095Y-98109524D01*
X186190476Y-97919048D01*
X186190476Y-97585714D01*
X186238095Y-97395238D01*
X186333333Y-97300000D01*
X186428571Y-97252381D01*
X186619048Y-97252381D01*
X186714286Y-97300000D01*
X186809524Y-97395238D01*
X186857143Y-97585714D01*
X186857143Y-97919048D01*
X186809524Y-98109524D01*
X186714286Y-98204762D01*
X186619048Y-98252381D01*
X186428571Y-98252381D01*
X187190476Y-97252381D02*
X187809524Y-97252381D01*
X187476190Y-97633333D01*
X187619048Y-97633333D01*
X187714286Y-97680952D01*
X187761905Y-97728571D01*
X187809524Y-97823810D01*
X187809524Y-98061905D01*
X187761905Y-98157143D01*
X187714286Y-98204762D01*
X187619048Y-98252381D01*
X187333333Y-98252381D01*
X187238095Y-98204762D01*
X187190476Y-98157143D01*
X179083334Y-102502381D02*
X178750000Y-102026190D01*
X178511905Y-102502381D02*
X178511905Y-101502381D01*
X178892858Y-101502381D01*
X178988096Y-101550000D01*
X179035715Y-101597619D01*
X179083334Y-101692857D01*
X179083334Y-101835714D01*
X179035715Y-101930952D01*
X178988096Y-101978571D01*
X178892858Y-102026190D01*
X178511905Y-102026190D01*
X179940477Y-101835714D02*
X179940477Y-102502381D01*
X179702381Y-101454762D02*
X179464286Y-102169048D01*
X180083334Y-102169048D01*
X193238095Y-112002381D02*
X193238095Y-112811905D01*
X193285714Y-112907143D01*
X193333333Y-112954762D01*
X193428571Y-113002381D01*
X193619048Y-113002381D01*
X193714286Y-112954762D01*
X193761905Y-112907143D01*
X193809524Y-112811905D01*
X193809524Y-112002381D01*
X194238095Y-112097619D02*
X194285714Y-112050000D01*
X194380952Y-112002381D01*
X194619048Y-112002381D01*
X194714286Y-112050000D01*
X194761905Y-112097619D01*
X194809524Y-112192857D01*
X194809524Y-112288095D01*
X194761905Y-112430952D01*
X194190476Y-113002381D01*
X194809524Y-113002381D01*
X154333334Y-102407143D02*
X154285715Y-102454762D01*
X154142858Y-102502381D01*
X154047620Y-102502381D01*
X153904762Y-102454762D01*
X153809524Y-102359524D01*
X153761905Y-102264286D01*
X153714286Y-102073810D01*
X153714286Y-101930952D01*
X153761905Y-101740476D01*
X153809524Y-101645238D01*
X153904762Y-101550000D01*
X154047620Y-101502381D01*
X154142858Y-101502381D01*
X154285715Y-101550000D01*
X154333334Y-101597619D01*
X154714286Y-101597619D02*
X154761905Y-101550000D01*
X154857143Y-101502381D01*
X155095239Y-101502381D01*
X155190477Y-101550000D01*
X155238096Y-101597619D01*
X155285715Y-101692857D01*
X155285715Y-101788095D01*
X155238096Y-101930952D01*
X154666667Y-102502381D01*
X155285715Y-102502381D01*
X161718228Y-103922289D02*
X162480133Y-103922289D01*
X162099181Y-104303241D02*
X162099181Y-103541336D01*
X163833334Y-104502381D02*
X163500000Y-104026190D01*
X163261905Y-104502381D02*
X163261905Y-103502381D01*
X163642858Y-103502381D01*
X163738096Y-103550000D01*
X163785715Y-103597619D01*
X163833334Y-103692857D01*
X163833334Y-103835714D01*
X163785715Y-103930952D01*
X163738096Y-103978571D01*
X163642858Y-104026190D01*
X163261905Y-104026190D01*
X164738096Y-103502381D02*
X164261905Y-103502381D01*
X164214286Y-103978571D01*
X164261905Y-103930952D01*
X164357143Y-103883333D01*
X164595239Y-103883333D01*
X164690477Y-103930952D01*
X164738096Y-103978571D01*
X164785715Y-104073810D01*
X164785715Y-104311905D01*
X164738096Y-104407143D01*
X164690477Y-104454762D01*
X164595239Y-104502381D01*
X164357143Y-104502381D01*
X164261905Y-104454762D01*
X164214286Y-104407143D01*
X162583334Y-102752381D02*
X162250000Y-102276190D01*
X162011905Y-102752381D02*
X162011905Y-101752381D01*
X162392858Y-101752381D01*
X162488096Y-101800000D01*
X162535715Y-101847619D01*
X162583334Y-101942857D01*
X162583334Y-102085714D01*
X162535715Y-102180952D01*
X162488096Y-102228571D01*
X162392858Y-102276190D01*
X162011905Y-102276190D01*
X163440477Y-101752381D02*
X163250000Y-101752381D01*
X163154762Y-101800000D01*
X163107143Y-101847619D01*
X163011905Y-101990476D01*
X162964286Y-102180952D01*
X162964286Y-102561905D01*
X163011905Y-102657143D01*
X163059524Y-102704762D01*
X163154762Y-102752381D01*
X163345239Y-102752381D01*
X163440477Y-102704762D01*
X163488096Y-102657143D01*
X163535715Y-102561905D01*
X163535715Y-102323810D01*
X163488096Y-102228571D01*
X163440477Y-102180952D01*
X163345239Y-102133333D01*
X163154762Y-102133333D01*
X163059524Y-102180952D01*
X163011905Y-102228571D01*
X162964286Y-102323810D01*
X176238095Y-100252381D02*
X176238095Y-101061905D01*
X176285714Y-101157143D01*
X176333333Y-101204762D01*
X176428571Y-101252381D01*
X176619048Y-101252381D01*
X176714286Y-101204762D01*
X176761905Y-101157143D01*
X176809524Y-101061905D01*
X176809524Y-100252381D01*
X177809524Y-101252381D02*
X177238095Y-101252381D01*
X177523809Y-101252381D02*
X177523809Y-100252381D01*
X177428571Y-100395238D01*
X177333333Y-100490476D01*
X177238095Y-100538095D01*
X116238095Y-100252381D02*
X116238095Y-101061905D01*
X116285714Y-101157143D01*
X116333333Y-101204762D01*
X116428571Y-101252381D01*
X116619048Y-101252381D01*
X116714286Y-101204762D01*
X116761905Y-101157143D01*
X116809524Y-101061905D01*
X116809524Y-100252381D01*
X117809524Y-101252381D02*
X117238095Y-101252381D01*
X117523809Y-101252381D02*
X117523809Y-100252381D01*
X117428571Y-100395238D01*
X117333333Y-100490476D01*
X117238095Y-100538095D01*
X102583334Y-102752381D02*
X102250000Y-102276190D01*
X102011905Y-102752381D02*
X102011905Y-101752381D01*
X102392858Y-101752381D01*
X102488096Y-101800000D01*
X102535715Y-101847619D01*
X102583334Y-101942857D01*
X102583334Y-102085714D01*
X102535715Y-102180952D01*
X102488096Y-102228571D01*
X102392858Y-102276190D01*
X102011905Y-102276190D01*
X103440477Y-101752381D02*
X103250000Y-101752381D01*
X103154762Y-101800000D01*
X103107143Y-101847619D01*
X103011905Y-101990476D01*
X102964286Y-102180952D01*
X102964286Y-102561905D01*
X103011905Y-102657143D01*
X103059524Y-102704762D01*
X103154762Y-102752381D01*
X103345239Y-102752381D01*
X103440477Y-102704762D01*
X103488096Y-102657143D01*
X103535715Y-102561905D01*
X103535715Y-102323810D01*
X103488096Y-102228571D01*
X103440477Y-102180952D01*
X103345239Y-102133333D01*
X103154762Y-102133333D01*
X103059524Y-102180952D01*
X103011905Y-102228571D01*
X102964286Y-102323810D01*
X103833334Y-104502381D02*
X103500000Y-104026190D01*
X103261905Y-104502381D02*
X103261905Y-103502381D01*
X103642858Y-103502381D01*
X103738096Y-103550000D01*
X103785715Y-103597619D01*
X103833334Y-103692857D01*
X103833334Y-103835714D01*
X103785715Y-103930952D01*
X103738096Y-103978571D01*
X103642858Y-104026190D01*
X103261905Y-104026190D01*
X104738096Y-103502381D02*
X104261905Y-103502381D01*
X104214286Y-103978571D01*
X104261905Y-103930952D01*
X104357143Y-103883333D01*
X104595239Y-103883333D01*
X104690477Y-103930952D01*
X104738096Y-103978571D01*
X104785715Y-104073810D01*
X104785715Y-104311905D01*
X104738096Y-104407143D01*
X104690477Y-104454762D01*
X104595239Y-104502381D01*
X104357143Y-104502381D01*
X104261905Y-104454762D01*
X104214286Y-104407143D01*
X94333334Y-102407143D02*
X94285715Y-102454762D01*
X94142858Y-102502381D01*
X94047620Y-102502381D01*
X93904762Y-102454762D01*
X93809524Y-102359524D01*
X93761905Y-102264286D01*
X93714286Y-102073810D01*
X93714286Y-101930952D01*
X93761905Y-101740476D01*
X93809524Y-101645238D01*
X93904762Y-101550000D01*
X94047620Y-101502381D01*
X94142858Y-101502381D01*
X94285715Y-101550000D01*
X94333334Y-101597619D01*
X94714286Y-101597619D02*
X94761905Y-101550000D01*
X94857143Y-101502381D01*
X95095239Y-101502381D01*
X95190477Y-101550000D01*
X95238096Y-101597619D01*
X95285715Y-101692857D01*
X95285715Y-101788095D01*
X95238096Y-101930952D01*
X94666667Y-102502381D01*
X95285715Y-102502381D01*
X101718228Y-103922289D02*
X102480133Y-103922289D01*
X102099181Y-104303241D02*
X102099181Y-103541336D01*
X133238095Y-112002381D02*
X133238095Y-112811905D01*
X133285714Y-112907143D01*
X133333333Y-112954762D01*
X133428571Y-113002381D01*
X133619048Y-113002381D01*
X133714286Y-112954762D01*
X133761905Y-112907143D01*
X133809524Y-112811905D01*
X133809524Y-112002381D01*
X134238095Y-112097619D02*
X134285714Y-112050000D01*
X134380952Y-112002381D01*
X134619048Y-112002381D01*
X134714286Y-112050000D01*
X134761905Y-112097619D01*
X134809524Y-112192857D01*
X134809524Y-112288095D01*
X134761905Y-112430952D01*
X134190476Y-113002381D01*
X134809524Y-113002381D01*
X119083334Y-102502381D02*
X118750000Y-102026190D01*
X118511905Y-102502381D02*
X118511905Y-101502381D01*
X118892858Y-101502381D01*
X118988096Y-101550000D01*
X119035715Y-101597619D01*
X119083334Y-101692857D01*
X119083334Y-101835714D01*
X119035715Y-101930952D01*
X118988096Y-101978571D01*
X118892858Y-102026190D01*
X118511905Y-102026190D01*
X119940477Y-101835714D02*
X119940477Y-102502381D01*
X119702381Y-101454762D02*
X119464286Y-102169048D01*
X120083334Y-102169048D01*
X126904762Y-98347619D02*
X126809524Y-98300000D01*
X126714286Y-98204762D01*
X126571429Y-98061905D01*
X126476190Y-98014286D01*
X126380952Y-98014286D01*
X126428571Y-98252381D02*
X126333333Y-98204762D01*
X126238095Y-98109524D01*
X126190476Y-97919048D01*
X126190476Y-97585714D01*
X126238095Y-97395238D01*
X126333333Y-97300000D01*
X126428571Y-97252381D01*
X126619048Y-97252381D01*
X126714286Y-97300000D01*
X126809524Y-97395238D01*
X126857143Y-97585714D01*
X126857143Y-97919048D01*
X126809524Y-98109524D01*
X126714286Y-98204762D01*
X126619048Y-98252381D01*
X126428571Y-98252381D01*
X127190476Y-97252381D02*
X127809524Y-97252381D01*
X127476190Y-97633333D01*
X127619048Y-97633333D01*
X127714286Y-97680952D01*
X127761905Y-97728571D01*
X127809524Y-97823810D01*
X127809524Y-98061905D01*
X127761905Y-98157143D01*
X127714286Y-98204762D01*
X127619048Y-98252381D01*
X127333333Y-98252381D01*
X127238095Y-98204762D01*
X127190476Y-98157143D01*
X120261905Y-98752381D02*
X120261905Y-97752381D01*
X120642858Y-97752381D01*
X120738096Y-97800000D01*
X120785715Y-97847619D01*
X120833334Y-97942857D01*
X120833334Y-98085714D01*
X120785715Y-98180952D01*
X120738096Y-98228571D01*
X120642858Y-98276190D01*
X120261905Y-98276190D01*
X121690477Y-97752381D02*
X121500000Y-97752381D01*
X121404762Y-97800000D01*
X121357143Y-97847619D01*
X121261905Y-97990476D01*
X121214286Y-98180952D01*
X121214286Y-98561905D01*
X121261905Y-98657143D01*
X121309524Y-98704762D01*
X121404762Y-98752381D01*
X121595239Y-98752381D01*
X121690477Y-98704762D01*
X121738096Y-98657143D01*
X121785715Y-98561905D01*
X121785715Y-98323810D01*
X121738096Y-98228571D01*
X121690477Y-98180952D01*
X121595239Y-98133333D01*
X121404762Y-98133333D01*
X121309524Y-98180952D01*
X121261905Y-98228571D01*
X121214286Y-98323810D01*
X91985715Y-103707143D02*
X91938096Y-103754762D01*
X91795239Y-103802381D01*
X91700001Y-103802381D01*
X91557143Y-103754762D01*
X91461905Y-103659524D01*
X91414286Y-103564286D01*
X91366667Y-103373810D01*
X91366667Y-103230952D01*
X91414286Y-103040476D01*
X91461905Y-102945238D01*
X91557143Y-102850000D01*
X91700001Y-102802381D01*
X91795239Y-102802381D01*
X91938096Y-102850000D01*
X91985715Y-102897619D01*
X92604762Y-102802381D02*
X92795239Y-102802381D01*
X92890477Y-102850000D01*
X92985715Y-102945238D01*
X93033334Y-103135714D01*
X93033334Y-103469048D01*
X92985715Y-103659524D01*
X92890477Y-103754762D01*
X92795239Y-103802381D01*
X92604762Y-103802381D01*
X92509524Y-103754762D01*
X92414286Y-103659524D01*
X92366667Y-103469048D01*
X92366667Y-103135714D01*
X92414286Y-102945238D01*
X92509524Y-102850000D01*
X92604762Y-102802381D01*
X93461905Y-103802381D02*
X93461905Y-102802381D01*
X94033334Y-103802381D01*
X94033334Y-102802381D01*
X95033334Y-103802381D02*
X94461905Y-103802381D01*
X94747619Y-103802381D02*
X94747619Y-102802381D01*
X94652381Y-102945238D01*
X94557143Y-103040476D01*
X94461905Y-103088095D01*
X113583334Y-102407143D02*
X113535715Y-102454762D01*
X113392858Y-102502381D01*
X113297620Y-102502381D01*
X113154762Y-102454762D01*
X113059524Y-102359524D01*
X113011905Y-102264286D01*
X112964286Y-102073810D01*
X112964286Y-101930952D01*
X113011905Y-101740476D01*
X113059524Y-101645238D01*
X113154762Y-101550000D01*
X113297620Y-101502381D01*
X113392858Y-101502381D01*
X113535715Y-101550000D01*
X113583334Y-101597619D01*
X114440477Y-101835714D02*
X114440477Y-102502381D01*
X114202381Y-101454762D02*
X113964286Y-102169048D01*
X114583334Y-102169048D01*
X112718228Y-103422289D02*
X113480133Y-103422289D01*
X113099181Y-103803241D02*
X113099181Y-103041336D01*
X94333334Y-99657143D02*
X94285715Y-99704762D01*
X94142858Y-99752381D01*
X94047620Y-99752381D01*
X93904762Y-99704762D01*
X93809524Y-99609524D01*
X93761905Y-99514286D01*
X93714286Y-99323810D01*
X93714286Y-99180952D01*
X93761905Y-98990476D01*
X93809524Y-98895238D01*
X93904762Y-98800000D01*
X94047620Y-98752381D01*
X94142858Y-98752381D01*
X94285715Y-98800000D01*
X94333334Y-98847619D01*
X94666667Y-98752381D02*
X95285715Y-98752381D01*
X94952381Y-99133333D01*
X95095239Y-99133333D01*
X95190477Y-99180952D01*
X95238096Y-99228571D01*
X95285715Y-99323810D01*
X95285715Y-99561905D01*
X95238096Y-99657143D01*
X95190477Y-99704762D01*
X95095239Y-99752381D01*
X94809524Y-99752381D01*
X94714286Y-99704762D01*
X94666667Y-99657143D01*
X101718228Y-100922289D02*
X102480133Y-100922289D01*
X102099181Y-101303241D02*
X102099181Y-100541336D01*
X101833334Y-114457143D02*
X101785715Y-114504762D01*
X101642858Y-114552381D01*
X101547620Y-114552381D01*
X101404762Y-114504762D01*
X101309524Y-114409524D01*
X101261905Y-114314286D01*
X101214286Y-114123810D01*
X101214286Y-113980952D01*
X101261905Y-113790476D01*
X101309524Y-113695238D01*
X101404762Y-113600000D01*
X101547620Y-113552381D01*
X101642858Y-113552381D01*
X101785715Y-113600000D01*
X101833334Y-113647619D01*
X102785715Y-114552381D02*
X102214286Y-114552381D01*
X102500000Y-114552381D02*
X102500000Y-113552381D01*
X102404762Y-113695238D01*
X102309524Y-113790476D01*
X102214286Y-113838095D01*
X101833334Y-94907143D02*
X101785715Y-94954762D01*
X101642858Y-95002381D01*
X101547620Y-95002381D01*
X101404762Y-94954762D01*
X101309524Y-94859524D01*
X101261905Y-94764286D01*
X101214286Y-94573810D01*
X101214286Y-94430952D01*
X101261905Y-94240476D01*
X101309524Y-94145238D01*
X101404762Y-94050000D01*
X101547620Y-94002381D01*
X101642858Y-94002381D01*
X101785715Y-94050000D01*
X101833334Y-94097619D01*
X102785715Y-95002381D02*
X102214286Y-95002381D01*
X102500000Y-95002381D02*
X102500000Y-94002381D01*
X102404762Y-94145238D01*
X102309524Y-94240476D01*
X102214286Y-94288095D01*
X94333334Y-80107143D02*
X94285715Y-80154762D01*
X94142858Y-80202381D01*
X94047620Y-80202381D01*
X93904762Y-80154762D01*
X93809524Y-80059524D01*
X93761905Y-79964286D01*
X93714286Y-79773810D01*
X93714286Y-79630952D01*
X93761905Y-79440476D01*
X93809524Y-79345238D01*
X93904762Y-79250000D01*
X94047620Y-79202381D01*
X94142858Y-79202381D01*
X94285715Y-79250000D01*
X94333334Y-79297619D01*
X94666667Y-79202381D02*
X95285715Y-79202381D01*
X94952381Y-79583333D01*
X95095239Y-79583333D01*
X95190477Y-79630952D01*
X95238096Y-79678571D01*
X95285715Y-79773810D01*
X95285715Y-80011905D01*
X95238096Y-80107143D01*
X95190477Y-80154762D01*
X95095239Y-80202381D01*
X94809524Y-80202381D01*
X94714286Y-80154762D01*
X94666667Y-80107143D01*
X101718228Y-81372289D02*
X102480133Y-81372289D01*
X102099181Y-81753241D02*
X102099181Y-80991336D01*
X113583334Y-82857143D02*
X113535715Y-82904762D01*
X113392858Y-82952381D01*
X113297620Y-82952381D01*
X113154762Y-82904762D01*
X113059524Y-82809524D01*
X113011905Y-82714286D01*
X112964286Y-82523810D01*
X112964286Y-82380952D01*
X113011905Y-82190476D01*
X113059524Y-82095238D01*
X113154762Y-82000000D01*
X113297620Y-81952381D01*
X113392858Y-81952381D01*
X113535715Y-82000000D01*
X113583334Y-82047619D01*
X114440477Y-82285714D02*
X114440477Y-82952381D01*
X114202381Y-81904762D02*
X113964286Y-82619048D01*
X114583334Y-82619048D01*
X112718228Y-83872289D02*
X113480133Y-83872289D01*
X113099181Y-84253241D02*
X113099181Y-83491336D01*
X91985715Y-84157143D02*
X91938096Y-84204762D01*
X91795239Y-84252381D01*
X91700001Y-84252381D01*
X91557143Y-84204762D01*
X91461905Y-84109524D01*
X91414286Y-84014286D01*
X91366667Y-83823810D01*
X91366667Y-83680952D01*
X91414286Y-83490476D01*
X91461905Y-83395238D01*
X91557143Y-83300000D01*
X91700001Y-83252381D01*
X91795239Y-83252381D01*
X91938096Y-83300000D01*
X91985715Y-83347619D01*
X92604762Y-83252381D02*
X92795239Y-83252381D01*
X92890477Y-83300000D01*
X92985715Y-83395238D01*
X93033334Y-83585714D01*
X93033334Y-83919048D01*
X92985715Y-84109524D01*
X92890477Y-84204762D01*
X92795239Y-84252381D01*
X92604762Y-84252381D01*
X92509524Y-84204762D01*
X92414286Y-84109524D01*
X92366667Y-83919048D01*
X92366667Y-83585714D01*
X92414286Y-83395238D01*
X92509524Y-83300000D01*
X92604762Y-83252381D01*
X93461905Y-84252381D02*
X93461905Y-83252381D01*
X94033334Y-84252381D01*
X94033334Y-83252381D01*
X95033334Y-84252381D02*
X94461905Y-84252381D01*
X94747619Y-84252381D02*
X94747619Y-83252381D01*
X94652381Y-83395238D01*
X94557143Y-83490476D01*
X94461905Y-83538095D01*
X120261905Y-79202381D02*
X120261905Y-78202381D01*
X120642858Y-78202381D01*
X120738096Y-78250000D01*
X120785715Y-78297619D01*
X120833334Y-78392857D01*
X120833334Y-78535714D01*
X120785715Y-78630952D01*
X120738096Y-78678571D01*
X120642858Y-78726190D01*
X120261905Y-78726190D01*
X121690477Y-78202381D02*
X121500000Y-78202381D01*
X121404762Y-78250000D01*
X121357143Y-78297619D01*
X121261905Y-78440476D01*
X121214286Y-78630952D01*
X121214286Y-79011905D01*
X121261905Y-79107143D01*
X121309524Y-79154762D01*
X121404762Y-79202381D01*
X121595239Y-79202381D01*
X121690477Y-79154762D01*
X121738096Y-79107143D01*
X121785715Y-79011905D01*
X121785715Y-78773810D01*
X121738096Y-78678571D01*
X121690477Y-78630952D01*
X121595239Y-78583333D01*
X121404762Y-78583333D01*
X121309524Y-78630952D01*
X121261905Y-78678571D01*
X121214286Y-78773810D01*
X126904762Y-78797619D02*
X126809524Y-78750000D01*
X126714286Y-78654762D01*
X126571429Y-78511905D01*
X126476190Y-78464286D01*
X126380952Y-78464286D01*
X126428571Y-78702381D02*
X126333333Y-78654762D01*
X126238095Y-78559524D01*
X126190476Y-78369048D01*
X126190476Y-78035714D01*
X126238095Y-77845238D01*
X126333333Y-77750000D01*
X126428571Y-77702381D01*
X126619048Y-77702381D01*
X126714286Y-77750000D01*
X126809524Y-77845238D01*
X126857143Y-78035714D01*
X126857143Y-78369048D01*
X126809524Y-78559524D01*
X126714286Y-78654762D01*
X126619048Y-78702381D01*
X126428571Y-78702381D01*
X127190476Y-77702381D02*
X127809524Y-77702381D01*
X127476190Y-78083333D01*
X127619048Y-78083333D01*
X127714286Y-78130952D01*
X127761905Y-78178571D01*
X127809524Y-78273810D01*
X127809524Y-78511905D01*
X127761905Y-78607143D01*
X127714286Y-78654762D01*
X127619048Y-78702381D01*
X127333333Y-78702381D01*
X127238095Y-78654762D01*
X127190476Y-78607143D01*
X119083334Y-82952381D02*
X118750000Y-82476190D01*
X118511905Y-82952381D02*
X118511905Y-81952381D01*
X118892858Y-81952381D01*
X118988096Y-82000000D01*
X119035715Y-82047619D01*
X119083334Y-82142857D01*
X119083334Y-82285714D01*
X119035715Y-82380952D01*
X118988096Y-82428571D01*
X118892858Y-82476190D01*
X118511905Y-82476190D01*
X119940477Y-82285714D02*
X119940477Y-82952381D01*
X119702381Y-81904762D02*
X119464286Y-82619048D01*
X120083334Y-82619048D01*
X133238095Y-92452381D02*
X133238095Y-93261905D01*
X133285714Y-93357143D01*
X133333333Y-93404762D01*
X133428571Y-93452381D01*
X133619048Y-93452381D01*
X133714286Y-93404762D01*
X133761905Y-93357143D01*
X133809524Y-93261905D01*
X133809524Y-92452381D01*
X134238095Y-92547619D02*
X134285714Y-92500000D01*
X134380952Y-92452381D01*
X134619048Y-92452381D01*
X134714286Y-92500000D01*
X134761905Y-92547619D01*
X134809524Y-92642857D01*
X134809524Y-92738095D01*
X134761905Y-92880952D01*
X134190476Y-93452381D01*
X134809524Y-93452381D01*
X94333334Y-82857143D02*
X94285715Y-82904762D01*
X94142858Y-82952381D01*
X94047620Y-82952381D01*
X93904762Y-82904762D01*
X93809524Y-82809524D01*
X93761905Y-82714286D01*
X93714286Y-82523810D01*
X93714286Y-82380952D01*
X93761905Y-82190476D01*
X93809524Y-82095238D01*
X93904762Y-82000000D01*
X94047620Y-81952381D01*
X94142858Y-81952381D01*
X94285715Y-82000000D01*
X94333334Y-82047619D01*
X94714286Y-82047619D02*
X94761905Y-82000000D01*
X94857143Y-81952381D01*
X95095239Y-81952381D01*
X95190477Y-82000000D01*
X95238096Y-82047619D01*
X95285715Y-82142857D01*
X95285715Y-82238095D01*
X95238096Y-82380952D01*
X94666667Y-82952381D01*
X95285715Y-82952381D01*
X101718228Y-84372289D02*
X102480133Y-84372289D01*
X102099181Y-84753241D02*
X102099181Y-83991336D01*
X103833334Y-84952381D02*
X103500000Y-84476190D01*
X103261905Y-84952381D02*
X103261905Y-83952381D01*
X103642858Y-83952381D01*
X103738096Y-84000000D01*
X103785715Y-84047619D01*
X103833334Y-84142857D01*
X103833334Y-84285714D01*
X103785715Y-84380952D01*
X103738096Y-84428571D01*
X103642858Y-84476190D01*
X103261905Y-84476190D01*
X104738096Y-83952381D02*
X104261905Y-83952381D01*
X104214286Y-84428571D01*
X104261905Y-84380952D01*
X104357143Y-84333333D01*
X104595239Y-84333333D01*
X104690477Y-84380952D01*
X104738096Y-84428571D01*
X104785715Y-84523810D01*
X104785715Y-84761905D01*
X104738096Y-84857143D01*
X104690477Y-84904762D01*
X104595239Y-84952381D01*
X104357143Y-84952381D01*
X104261905Y-84904762D01*
X104214286Y-84857143D01*
X102583334Y-83202381D02*
X102250000Y-82726190D01*
X102011905Y-83202381D02*
X102011905Y-82202381D01*
X102392858Y-82202381D01*
X102488096Y-82250000D01*
X102535715Y-82297619D01*
X102583334Y-82392857D01*
X102583334Y-82535714D01*
X102535715Y-82630952D01*
X102488096Y-82678571D01*
X102392858Y-82726190D01*
X102011905Y-82726190D01*
X103440477Y-82202381D02*
X103250000Y-82202381D01*
X103154762Y-82250000D01*
X103107143Y-82297619D01*
X103011905Y-82440476D01*
X102964286Y-82630952D01*
X102964286Y-83011905D01*
X103011905Y-83107143D01*
X103059524Y-83154762D01*
X103154762Y-83202381D01*
X103345239Y-83202381D01*
X103440477Y-83154762D01*
X103488096Y-83107143D01*
X103535715Y-83011905D01*
X103535715Y-82773810D01*
X103488096Y-82678571D01*
X103440477Y-82630952D01*
X103345239Y-82583333D01*
X103154762Y-82583333D01*
X103059524Y-82630952D01*
X103011905Y-82678571D01*
X102964286Y-82773810D01*
X116238095Y-80702381D02*
X116238095Y-81511905D01*
X116285714Y-81607143D01*
X116333333Y-81654762D01*
X116428571Y-81702381D01*
X116619048Y-81702381D01*
X116714286Y-81654762D01*
X116761905Y-81607143D01*
X116809524Y-81511905D01*
X116809524Y-80702381D01*
X117809524Y-81702381D02*
X117238095Y-81702381D01*
X117523809Y-81702381D02*
X117523809Y-80702381D01*
X117428571Y-80845238D01*
X117333333Y-80940476D01*
X117238095Y-80988095D01*
M02*
