M48
;DRILL file {kicad (2015-01-16 BZR 5376)-product} date 1/21/2016 3:46:17 PM
;FORMAT={-:-/ absolute / metric / decimal}
FMAT,2
METRIC,TZ
T1C0.800
T2C1.001
T3C1.016
T4C2.500
%
G90
G05
M71
T1
X98.4Y-81.
X98.4Y-100.55
X103.Y-81.
X103.Y-100.55
X109.Y-83.8
X109.Y-103.35
X109.05Y-95.45
X109.05Y-115.
X120.6Y-91.05
X120.6Y-110.6
X126.6Y-95.4
X126.6Y-114.95
X136.2Y-88.8
X136.2Y-108.35
X158.4Y-81.
X158.4Y-100.55
X163.Y-81.
X163.Y-100.55
X169.Y-83.8
X169.Y-103.35
X169.05Y-95.45
X169.05Y-115.
X180.6Y-91.05
X180.6Y-110.6
X186.6Y-95.4
X186.6Y-114.95
X196.2Y-88.8
X196.2Y-108.35
T2
X139.5Y-86.2
X139.5Y-93.8
X139.5Y-105.75
X139.5Y-113.35
X199.5Y-86.2
X199.5Y-93.8
X199.5Y-105.75
X199.5Y-113.35
T3
X105.6Y-79.075
X105.6Y-98.625
X108.14Y-79.075
X108.14Y-98.625
X110.68Y-79.075
X110.68Y-98.625
X113.22Y-79.075
X113.22Y-98.625
X115.76Y-79.075
X115.76Y-98.625
X118.3Y-79.075
X118.3Y-98.625
X122.46Y-85.
X122.46Y-87.54
X122.46Y-90.08
X122.46Y-92.62
X122.46Y-104.55
X122.46Y-107.09
X122.46Y-109.63
X122.46Y-112.17
X125.Y-85.
X125.Y-87.54
X125.Y-90.08
X125.Y-92.62
X125.Y-104.55
X125.Y-107.09
X125.Y-109.63
X125.Y-112.17
X128.75Y-81.5
X128.75Y-84.04
X128.75Y-86.58
X128.75Y-89.12
X128.75Y-91.66
X128.75Y-94.2
X128.75Y-101.05
X128.75Y-103.59
X128.75Y-106.13
X128.75Y-108.67
X128.75Y-111.21
X128.75Y-113.75
X165.6Y-79.075
X165.6Y-98.625
X168.14Y-79.075
X168.14Y-98.625
X170.68Y-79.075
X170.68Y-98.625
X173.22Y-79.075
X173.22Y-98.625
X175.76Y-79.075
X175.76Y-98.625
X178.3Y-79.075
X178.3Y-98.625
X182.46Y-85.
X182.46Y-87.54
X182.46Y-90.08
X182.46Y-92.62
X182.46Y-104.55
X182.46Y-107.09
X182.46Y-109.63
X182.46Y-112.17
X185.Y-85.
X185.Y-87.54
X185.Y-90.08
X185.Y-92.62
X185.Y-104.55
X185.Y-107.09
X185.Y-109.63
X185.Y-112.17
X188.75Y-81.5
X188.75Y-84.04
X188.75Y-86.58
X188.75Y-89.12
X188.75Y-91.66
X188.75Y-94.2
X188.75Y-101.05
X188.75Y-103.59
X188.75Y-106.13
X188.75Y-108.67
X188.75Y-111.21
X188.75Y-113.75
T4
X94.251Y-88.9
X94.251Y-108.45
X97.25Y-93.599
X97.25Y-113.149
X100.25Y-88.9
X100.25Y-108.45
X154.251Y-88.9
X154.251Y-108.45
X157.25Y-93.599
X157.25Y-113.149
X160.25Y-88.9
X160.25Y-108.45
T0
M30
