G04 #@! TF.FileFunction,Copper,L2,Bot,Signal*
%FSLAX46Y46*%
G04 Gerber Fmt 4.6, Leading zero omitted, Abs format (unit mm)*
G04 Created by KiCad (PCBNEW (2015-01-16 BZR 5376)-product) date 1/21/2016 3:46:14 PM*
%MOMM*%
G01*
G04 APERTURE LIST*
%ADD10C,0.100000*%
%ADD11C,0.150000*%
%ADD12C,0.300000*%
%ADD13C,3.200000*%
%ADD14R,2.032000X1.727200*%
%ADD15O,2.032000X1.727200*%
%ADD16R,1.000760X1.000760*%
%ADD17C,2.000000*%
%ADD18R,0.500000X0.900000*%
%ADD19R,0.900000X0.500000*%
%ADD20R,1.727200X2.032000*%
%ADD21O,1.727200X2.032000*%
%ADD22R,3.500120X3.500120*%
%ADD23R,0.750000X0.800000*%
%ADD24R,0.800000X0.750000*%
%ADD25R,0.599440X1.000760*%
%ADD26R,1.727200X1.727200*%
%ADD27O,1.727200X1.727200*%
%ADD28C,1.200000*%
%ADD29C,0.350000*%
%ADD30C,0.250000*%
%ADD31C,0.500000*%
G04 APERTURE END LIST*
D10*
D11*
X206000000Y-77500000D02*
X206000000Y-77000000D01*
X206000000Y-77000000D02*
X146000000Y-77000000D01*
X146000000Y-77000000D02*
X146000000Y-96500000D01*
X146000000Y-96500000D02*
X206000000Y-96500000D01*
X206000000Y-96500000D02*
X206000000Y-77500000D01*
D12*
X205178571Y-88407143D02*
X204964285Y-88478571D01*
X204607142Y-88478571D01*
X204464285Y-88407143D01*
X204392856Y-88335714D01*
X204321428Y-88192857D01*
X204321428Y-88050000D01*
X204392856Y-87907143D01*
X204464285Y-87835714D01*
X204607142Y-87764286D01*
X204892856Y-87692857D01*
X205035714Y-87621429D01*
X205107142Y-87550000D01*
X205178571Y-87407143D01*
X205178571Y-87264286D01*
X205107142Y-87121429D01*
X205035714Y-87050000D01*
X204892856Y-86978571D01*
X204535714Y-86978571D01*
X204321428Y-87050000D01*
X203464285Y-88478571D02*
X203607143Y-88407143D01*
X203678571Y-88335714D01*
X203750000Y-88192857D01*
X203750000Y-87764286D01*
X203678571Y-87621429D01*
X203607143Y-87550000D01*
X203464285Y-87478571D01*
X203250000Y-87478571D01*
X203107143Y-87550000D01*
X203035714Y-87621429D01*
X202964285Y-87764286D01*
X202964285Y-88192857D01*
X203035714Y-88335714D01*
X203107143Y-88407143D01*
X203250000Y-88478571D01*
X203464285Y-88478571D01*
X202107142Y-88478571D02*
X202250000Y-88407143D01*
X202321428Y-88264286D01*
X202321428Y-86978571D01*
X200892857Y-88478571D02*
X200892857Y-86978571D01*
X200892857Y-88407143D02*
X201035714Y-88478571D01*
X201321428Y-88478571D01*
X201464286Y-88407143D01*
X201535714Y-88335714D01*
X201607143Y-88192857D01*
X201607143Y-87764286D01*
X201535714Y-87621429D01*
X201464286Y-87550000D01*
X201321428Y-87478571D01*
X201035714Y-87478571D01*
X200892857Y-87550000D01*
X205178571Y-107957143D02*
X204964285Y-108028571D01*
X204607142Y-108028571D01*
X204464285Y-107957143D01*
X204392856Y-107885714D01*
X204321428Y-107742857D01*
X204321428Y-107600000D01*
X204392856Y-107457143D01*
X204464285Y-107385714D01*
X204607142Y-107314286D01*
X204892856Y-107242857D01*
X205035714Y-107171429D01*
X205107142Y-107100000D01*
X205178571Y-106957143D01*
X205178571Y-106814286D01*
X205107142Y-106671429D01*
X205035714Y-106600000D01*
X204892856Y-106528571D01*
X204535714Y-106528571D01*
X204321428Y-106600000D01*
X203464285Y-108028571D02*
X203607143Y-107957143D01*
X203678571Y-107885714D01*
X203750000Y-107742857D01*
X203750000Y-107314286D01*
X203678571Y-107171429D01*
X203607143Y-107100000D01*
X203464285Y-107028571D01*
X203250000Y-107028571D01*
X203107143Y-107100000D01*
X203035714Y-107171429D01*
X202964285Y-107314286D01*
X202964285Y-107742857D01*
X203035714Y-107885714D01*
X203107143Y-107957143D01*
X203250000Y-108028571D01*
X203464285Y-108028571D01*
X202107142Y-108028571D02*
X202250000Y-107957143D01*
X202321428Y-107814286D01*
X202321428Y-106528571D01*
X200892857Y-108028571D02*
X200892857Y-106528571D01*
X200892857Y-107957143D02*
X201035714Y-108028571D01*
X201321428Y-108028571D01*
X201464286Y-107957143D01*
X201535714Y-107885714D01*
X201607143Y-107742857D01*
X201607143Y-107314286D01*
X201535714Y-107171429D01*
X201464286Y-107100000D01*
X201321428Y-107028571D01*
X201035714Y-107028571D01*
X200892857Y-107100000D01*
D11*
X206000000Y-116050000D02*
X206000000Y-97050000D01*
X146000000Y-116050000D02*
X206000000Y-116050000D01*
X146000000Y-96550000D02*
X146000000Y-116050000D01*
X206000000Y-96550000D02*
X146000000Y-96550000D01*
X206000000Y-97050000D02*
X206000000Y-96550000D01*
X146000000Y-97050000D02*
X146000000Y-96550000D01*
X146000000Y-96550000D02*
X86000000Y-96550000D01*
X86000000Y-96550000D02*
X86000000Y-116050000D01*
X86000000Y-116050000D02*
X146000000Y-116050000D01*
X146000000Y-116050000D02*
X146000000Y-97050000D01*
D12*
X145178571Y-107957143D02*
X144964285Y-108028571D01*
X144607142Y-108028571D01*
X144464285Y-107957143D01*
X144392856Y-107885714D01*
X144321428Y-107742857D01*
X144321428Y-107600000D01*
X144392856Y-107457143D01*
X144464285Y-107385714D01*
X144607142Y-107314286D01*
X144892856Y-107242857D01*
X145035714Y-107171429D01*
X145107142Y-107100000D01*
X145178571Y-106957143D01*
X145178571Y-106814286D01*
X145107142Y-106671429D01*
X145035714Y-106600000D01*
X144892856Y-106528571D01*
X144535714Y-106528571D01*
X144321428Y-106600000D01*
X143464285Y-108028571D02*
X143607143Y-107957143D01*
X143678571Y-107885714D01*
X143750000Y-107742857D01*
X143750000Y-107314286D01*
X143678571Y-107171429D01*
X143607143Y-107100000D01*
X143464285Y-107028571D01*
X143250000Y-107028571D01*
X143107143Y-107100000D01*
X143035714Y-107171429D01*
X142964285Y-107314286D01*
X142964285Y-107742857D01*
X143035714Y-107885714D01*
X143107143Y-107957143D01*
X143250000Y-108028571D01*
X143464285Y-108028571D01*
X142107142Y-108028571D02*
X142250000Y-107957143D01*
X142321428Y-107814286D01*
X142321428Y-106528571D01*
X140892857Y-108028571D02*
X140892857Y-106528571D01*
X140892857Y-107957143D02*
X141035714Y-108028571D01*
X141321428Y-108028571D01*
X141464286Y-107957143D01*
X141535714Y-107885714D01*
X141607143Y-107742857D01*
X141607143Y-107314286D01*
X141535714Y-107171429D01*
X141464286Y-107100000D01*
X141321428Y-107028571D01*
X141035714Y-107028571D01*
X140892857Y-107100000D01*
X145178571Y-88407143D02*
X144964285Y-88478571D01*
X144607142Y-88478571D01*
X144464285Y-88407143D01*
X144392856Y-88335714D01*
X144321428Y-88192857D01*
X144321428Y-88050000D01*
X144392856Y-87907143D01*
X144464285Y-87835714D01*
X144607142Y-87764286D01*
X144892856Y-87692857D01*
X145035714Y-87621429D01*
X145107142Y-87550000D01*
X145178571Y-87407143D01*
X145178571Y-87264286D01*
X145107142Y-87121429D01*
X145035714Y-87050000D01*
X144892856Y-86978571D01*
X144535714Y-86978571D01*
X144321428Y-87050000D01*
X143464285Y-88478571D02*
X143607143Y-88407143D01*
X143678571Y-88335714D01*
X143750000Y-88192857D01*
X143750000Y-87764286D01*
X143678571Y-87621429D01*
X143607143Y-87550000D01*
X143464285Y-87478571D01*
X143250000Y-87478571D01*
X143107143Y-87550000D01*
X143035714Y-87621429D01*
X142964285Y-87764286D01*
X142964285Y-88192857D01*
X143035714Y-88335714D01*
X143107143Y-88407143D01*
X143250000Y-88478571D01*
X143464285Y-88478571D01*
X142107142Y-88478571D02*
X142250000Y-88407143D01*
X142321428Y-88264286D01*
X142321428Y-86978571D01*
X140892857Y-88478571D02*
X140892857Y-86978571D01*
X140892857Y-88407143D02*
X141035714Y-88478571D01*
X141321428Y-88478571D01*
X141464286Y-88407143D01*
X141535714Y-88335714D01*
X141607143Y-88192857D01*
X141607143Y-87764286D01*
X141535714Y-87621429D01*
X141464286Y-87550000D01*
X141321428Y-87478571D01*
X141035714Y-87478571D01*
X140892857Y-87550000D01*
D11*
X146000000Y-96500000D02*
X146000000Y-77500000D01*
X86000000Y-96500000D02*
X146000000Y-96500000D01*
X86000000Y-77000000D02*
X86000000Y-96500000D01*
X146000000Y-77000000D02*
X86000000Y-77000000D01*
X146000000Y-77500000D02*
X146000000Y-77000000D01*
D13*
X149750000Y-80750000D03*
D14*
X188750000Y-81500000D03*
D15*
X188750000Y-84040000D03*
X188750000Y-86580000D03*
X188750000Y-89120000D03*
X188750000Y-91660000D03*
X188750000Y-94200000D03*
D16*
X148500000Y-85400820D03*
X148500000Y-92599180D03*
D17*
X199500000Y-93799840D03*
X199500000Y-86200160D03*
D18*
X177650000Y-86800000D03*
X179150000Y-86800000D03*
D19*
X176250000Y-93125000D03*
X176250000Y-94625000D03*
D18*
X179700000Y-94400000D03*
X178200000Y-94400000D03*
D20*
X165600000Y-79075000D03*
D21*
X168140000Y-79075000D03*
X170680000Y-79075000D03*
X173220000Y-79075000D03*
X175760000Y-79075000D03*
X178300000Y-79075000D03*
D13*
X202000000Y-80500000D03*
D22*
X160250140Y-88900000D03*
X154250660Y-88900000D03*
X157250400Y-93599000D03*
D23*
X172600000Y-92950000D03*
X172600000Y-91450000D03*
D24*
X151500000Y-92500000D03*
X153000000Y-92500000D03*
D25*
X176077500Y-91306640D03*
X175125000Y-89193360D03*
X174172500Y-91306640D03*
X177797500Y-90368360D03*
X178750000Y-92481640D03*
X179702500Y-90368360D03*
D26*
X185000000Y-85000000D03*
D27*
X182460000Y-85000000D03*
X185000000Y-87540000D03*
X182460000Y-87540000D03*
X185000000Y-90080000D03*
X182460000Y-90080000D03*
X185000000Y-92620000D03*
X182460000Y-92620000D03*
D26*
X185000000Y-104550000D03*
D27*
X182460000Y-104550000D03*
X185000000Y-107090000D03*
X182460000Y-107090000D03*
X185000000Y-109630000D03*
X182460000Y-109630000D03*
X185000000Y-112170000D03*
X182460000Y-112170000D03*
D25*
X177797500Y-109918360D03*
X178750000Y-112031640D03*
X179702500Y-109918360D03*
X176077500Y-110856640D03*
X175125000Y-108743360D03*
X174172500Y-110856640D03*
D24*
X151500000Y-112050000D03*
X153000000Y-112050000D03*
D23*
X172600000Y-112500000D03*
X172600000Y-111000000D03*
D22*
X160250140Y-108450000D03*
X154250660Y-108450000D03*
X157250400Y-113149000D03*
D13*
X202000000Y-100050000D03*
D20*
X165600000Y-98625000D03*
D21*
X168140000Y-98625000D03*
X170680000Y-98625000D03*
X173220000Y-98625000D03*
X175760000Y-98625000D03*
X178300000Y-98625000D03*
D18*
X179700000Y-113950000D03*
X178200000Y-113950000D03*
D19*
X176250000Y-112675000D03*
X176250000Y-114175000D03*
D18*
X177650000Y-106350000D03*
X179150000Y-106350000D03*
D17*
X199500000Y-113349840D03*
X199500000Y-105750160D03*
D16*
X148500000Y-104950820D03*
X148500000Y-112149180D03*
D14*
X188750000Y-101050000D03*
D15*
X188750000Y-103590000D03*
X188750000Y-106130000D03*
X188750000Y-108670000D03*
X188750000Y-111210000D03*
X188750000Y-113750000D03*
D13*
X149750000Y-100300000D03*
X89750000Y-100300000D03*
D14*
X128750000Y-101050000D03*
D15*
X128750000Y-103590000D03*
X128750000Y-106130000D03*
X128750000Y-108670000D03*
X128750000Y-111210000D03*
X128750000Y-113750000D03*
D16*
X88500000Y-104950820D03*
X88500000Y-112149180D03*
D17*
X139500000Y-113349840D03*
X139500000Y-105750160D03*
D18*
X117650000Y-106350000D03*
X119150000Y-106350000D03*
D19*
X116250000Y-112675000D03*
X116250000Y-114175000D03*
D18*
X119700000Y-113950000D03*
X118200000Y-113950000D03*
D20*
X105600000Y-98625000D03*
D21*
X108140000Y-98625000D03*
X110680000Y-98625000D03*
X113220000Y-98625000D03*
X115760000Y-98625000D03*
X118300000Y-98625000D03*
D13*
X142000000Y-100050000D03*
D22*
X100250140Y-108450000D03*
X94250660Y-108450000D03*
X97250400Y-113149000D03*
D23*
X112600000Y-112500000D03*
X112600000Y-111000000D03*
D24*
X91500000Y-112050000D03*
X93000000Y-112050000D03*
D25*
X116077500Y-110856640D03*
X115125000Y-108743360D03*
X114172500Y-110856640D03*
X117797500Y-109918360D03*
X118750000Y-112031640D03*
X119702500Y-109918360D03*
D26*
X125000000Y-104550000D03*
D27*
X122460000Y-104550000D03*
X125000000Y-107090000D03*
X122460000Y-107090000D03*
X125000000Y-109630000D03*
X122460000Y-109630000D03*
X125000000Y-112170000D03*
X122460000Y-112170000D03*
D26*
X125000000Y-85000000D03*
D27*
X122460000Y-85000000D03*
X125000000Y-87540000D03*
X122460000Y-87540000D03*
X125000000Y-90080000D03*
X122460000Y-90080000D03*
X125000000Y-92620000D03*
X122460000Y-92620000D03*
D25*
X117797500Y-90368360D03*
X118750000Y-92481640D03*
X119702500Y-90368360D03*
X116077500Y-91306640D03*
X115125000Y-89193360D03*
X114172500Y-91306640D03*
D24*
X91500000Y-92500000D03*
X93000000Y-92500000D03*
D23*
X112600000Y-92950000D03*
X112600000Y-91450000D03*
D22*
X100250140Y-88900000D03*
X94250660Y-88900000D03*
X97250400Y-93599000D03*
D13*
X142000000Y-80500000D03*
D20*
X105600000Y-79075000D03*
D21*
X108140000Y-79075000D03*
X110680000Y-79075000D03*
X113220000Y-79075000D03*
X115760000Y-79075000D03*
X118300000Y-79075000D03*
D18*
X119700000Y-94400000D03*
X118200000Y-94400000D03*
D19*
X116250000Y-93125000D03*
X116250000Y-94625000D03*
D18*
X117650000Y-86800000D03*
X119150000Y-86800000D03*
D17*
X139500000Y-93799840D03*
X139500000Y-86200160D03*
D16*
X88500000Y-85400820D03*
X88500000Y-92599180D03*
D14*
X128750000Y-81500000D03*
D15*
X128750000Y-84040000D03*
X128750000Y-86580000D03*
X128750000Y-89120000D03*
X128750000Y-91660000D03*
X128750000Y-94200000D03*
D13*
X89750000Y-80750000D03*
D28*
X158400000Y-81000000D03*
X163000000Y-81000000D03*
X180600000Y-91050000D03*
X180600000Y-110600000D03*
X163000000Y-100550000D03*
X158400000Y-100550000D03*
X98400000Y-100550000D03*
X103000000Y-100550000D03*
X120600000Y-110600000D03*
X120600000Y-91050000D03*
X103000000Y-81000000D03*
X98400000Y-81000000D03*
X196200000Y-88800000D03*
X196200000Y-108350000D03*
X136200000Y-108350000D03*
X136200000Y-88800000D03*
X186600000Y-95400000D03*
X169000000Y-83800000D03*
X169050000Y-95450000D03*
X169050000Y-115000000D03*
X169000000Y-103350000D03*
X186600000Y-114950000D03*
X126600000Y-114950000D03*
X109000000Y-103350000D03*
X109050000Y-115000000D03*
X109050000Y-95450000D03*
X109000000Y-83800000D03*
X126600000Y-95400000D03*
D29*
X153000000Y-92500000D02*
X156151400Y-92500000D01*
X172600000Y-91450000D02*
X174029140Y-91450000D01*
D30*
X174029140Y-91450000D02*
X174172500Y-91306640D01*
X174493360Y-91306640D02*
X174172500Y-91306640D01*
X174029140Y-91450000D02*
X174172500Y-91306640D01*
X174300000Y-91179140D02*
X174172500Y-91306640D01*
D29*
X177000000Y-88800000D02*
X174493360Y-91306640D01*
X179400000Y-88800000D02*
X177000000Y-88800000D01*
X179702500Y-89102500D02*
X179400000Y-88800000D01*
X179702500Y-90368360D02*
X179702500Y-89102500D01*
D31*
X163000000Y-81000000D02*
X158400000Y-81000000D01*
X154250660Y-88900000D02*
X154250660Y-90599260D01*
X154250660Y-90599260D02*
X157250400Y-93599000D01*
X156151400Y-92500000D02*
X157250400Y-93599000D01*
X154250660Y-88900000D02*
X149900000Y-88900000D01*
X148500000Y-87500000D02*
X148500000Y-85400820D01*
X149900000Y-88900000D02*
X148500000Y-87500000D01*
D29*
X179918360Y-90368360D02*
X180600000Y-91050000D01*
X179702500Y-90368360D02*
X179918360Y-90368360D01*
X157499400Y-93350000D02*
X157250400Y-93599000D01*
X167200000Y-91450000D02*
X165300000Y-93350000D01*
X165300000Y-93350000D02*
X157499400Y-93350000D01*
X172600000Y-91450000D02*
X167200000Y-91450000D01*
X172600000Y-111000000D02*
X167200000Y-111000000D01*
X165300000Y-112900000D02*
X157499400Y-112900000D01*
X167200000Y-111000000D02*
X165300000Y-112900000D01*
X157499400Y-112900000D02*
X157250400Y-113149000D01*
X179702500Y-109918360D02*
X179918360Y-109918360D01*
X179918360Y-109918360D02*
X180600000Y-110600000D01*
D31*
X149900000Y-108450000D02*
X148500000Y-107050000D01*
X148500000Y-107050000D02*
X148500000Y-104950820D01*
X154250660Y-108450000D02*
X149900000Y-108450000D01*
X156151400Y-112050000D02*
X157250400Y-113149000D01*
X154250660Y-110149260D02*
X157250400Y-113149000D01*
X154250660Y-108450000D02*
X154250660Y-110149260D01*
X163000000Y-100550000D02*
X158400000Y-100550000D01*
D29*
X179702500Y-109918360D02*
X179702500Y-108652500D01*
X179702500Y-108652500D02*
X179400000Y-108350000D01*
X179400000Y-108350000D02*
X177000000Y-108350000D01*
X177000000Y-108350000D02*
X174493360Y-110856640D01*
D30*
X174300000Y-110729140D02*
X174172500Y-110856640D01*
X174029140Y-111000000D02*
X174172500Y-110856640D01*
X174493360Y-110856640D02*
X174172500Y-110856640D01*
X174029140Y-111000000D02*
X174172500Y-110856640D01*
D29*
X172600000Y-111000000D02*
X174029140Y-111000000D01*
X153000000Y-112050000D02*
X156151400Y-112050000D01*
X93000000Y-112050000D02*
X96151400Y-112050000D01*
X112600000Y-111000000D02*
X114029140Y-111000000D01*
D30*
X114029140Y-111000000D02*
X114172500Y-110856640D01*
X114493360Y-110856640D02*
X114172500Y-110856640D01*
X114029140Y-111000000D02*
X114172500Y-110856640D01*
X114300000Y-110729140D02*
X114172500Y-110856640D01*
D29*
X117000000Y-108350000D02*
X114493360Y-110856640D01*
X119400000Y-108350000D02*
X117000000Y-108350000D01*
X119702500Y-108652500D02*
X119400000Y-108350000D01*
X119702500Y-109918360D02*
X119702500Y-108652500D01*
D31*
X103000000Y-100550000D02*
X98400000Y-100550000D01*
X94250660Y-108450000D02*
X94250660Y-110149260D01*
X94250660Y-110149260D02*
X97250400Y-113149000D01*
X96151400Y-112050000D02*
X97250400Y-113149000D01*
X94250660Y-108450000D02*
X89900000Y-108450000D01*
X88500000Y-107050000D02*
X88500000Y-104950820D01*
X89900000Y-108450000D02*
X88500000Y-107050000D01*
D29*
X119918360Y-109918360D02*
X120600000Y-110600000D01*
X119702500Y-109918360D02*
X119918360Y-109918360D01*
X97499400Y-112900000D02*
X97250400Y-113149000D01*
X107200000Y-111000000D02*
X105300000Y-112900000D01*
X105300000Y-112900000D02*
X97499400Y-112900000D01*
X112600000Y-111000000D02*
X107200000Y-111000000D01*
X112600000Y-91450000D02*
X107200000Y-91450000D01*
X105300000Y-93350000D02*
X97499400Y-93350000D01*
X107200000Y-91450000D02*
X105300000Y-93350000D01*
X97499400Y-93350000D02*
X97250400Y-93599000D01*
X119702500Y-90368360D02*
X119918360Y-90368360D01*
X119918360Y-90368360D02*
X120600000Y-91050000D01*
D31*
X89900000Y-88900000D02*
X88500000Y-87500000D01*
X88500000Y-87500000D02*
X88500000Y-85400820D01*
X94250660Y-88900000D02*
X89900000Y-88900000D01*
X96151400Y-92500000D02*
X97250400Y-93599000D01*
X94250660Y-90599260D02*
X97250400Y-93599000D01*
X94250660Y-88900000D02*
X94250660Y-90599260D01*
X103000000Y-81000000D02*
X98400000Y-81000000D01*
D29*
X119702500Y-90368360D02*
X119702500Y-89102500D01*
X119702500Y-89102500D02*
X119400000Y-88800000D01*
X119400000Y-88800000D02*
X117000000Y-88800000D01*
X117000000Y-88800000D02*
X114493360Y-91306640D01*
D30*
X114300000Y-91179140D02*
X114172500Y-91306640D01*
X114029140Y-91450000D02*
X114172500Y-91306640D01*
X114493360Y-91306640D02*
X114172500Y-91306640D01*
X114029140Y-91450000D02*
X114172500Y-91306640D01*
D29*
X112600000Y-91450000D02*
X114029140Y-91450000D01*
X93000000Y-92500000D02*
X96151400Y-92500000D01*
D31*
X178300000Y-79075000D02*
X192275000Y-79075000D01*
X192275000Y-79075000D02*
X193800000Y-80600000D01*
X193800000Y-80600000D02*
X193800000Y-86400000D01*
X193800000Y-86400000D02*
X196200000Y-88800000D01*
X193800000Y-105950000D02*
X196200000Y-108350000D01*
X193800000Y-100150000D02*
X193800000Y-105950000D01*
X192275000Y-98625000D02*
X193800000Y-100150000D01*
X178300000Y-98625000D02*
X192275000Y-98625000D01*
X118300000Y-98625000D02*
X132275000Y-98625000D01*
X132275000Y-98625000D02*
X133800000Y-100150000D01*
X133800000Y-100150000D02*
X133800000Y-105950000D01*
X133800000Y-105950000D02*
X136200000Y-108350000D01*
X133800000Y-86400000D02*
X136200000Y-88800000D01*
X133800000Y-80600000D02*
X133800000Y-86400000D01*
X132275000Y-79075000D02*
X133800000Y-80600000D01*
X118300000Y-79075000D02*
X132275000Y-79075000D01*
D29*
X179700000Y-94400000D02*
X179700000Y-95300000D01*
X180200000Y-95800000D02*
X186200000Y-95800000D01*
X186200000Y-95800000D02*
X186600000Y-95400000D01*
X179700000Y-95300000D02*
X180200000Y-95800000D01*
X177650000Y-86800000D02*
X170400000Y-86800000D01*
X169000000Y-85400000D02*
X169000000Y-83800000D01*
X170400000Y-86800000D02*
X169000000Y-85400000D01*
X169050000Y-95450000D02*
X169350000Y-95750000D01*
X169350000Y-95750000D02*
X179450000Y-95750000D01*
X179450000Y-95750000D02*
X179700000Y-95500000D01*
X179700000Y-95500000D02*
X179700000Y-95300000D01*
X179700000Y-115050000D02*
X179700000Y-114850000D01*
X179450000Y-115300000D02*
X179700000Y-115050000D01*
X169350000Y-115300000D02*
X179450000Y-115300000D01*
X169050000Y-115000000D02*
X169350000Y-115300000D01*
X170400000Y-106350000D02*
X169000000Y-104950000D01*
X169000000Y-104950000D02*
X169000000Y-103350000D01*
X177650000Y-106350000D02*
X170400000Y-106350000D01*
X179700000Y-114850000D02*
X180200000Y-115350000D01*
X186200000Y-115350000D02*
X186600000Y-114950000D01*
X180200000Y-115350000D02*
X186200000Y-115350000D01*
X179700000Y-113950000D02*
X179700000Y-114850000D01*
X119700000Y-113950000D02*
X119700000Y-114850000D01*
X120200000Y-115350000D02*
X126200000Y-115350000D01*
X126200000Y-115350000D02*
X126600000Y-114950000D01*
X119700000Y-114850000D02*
X120200000Y-115350000D01*
X117650000Y-106350000D02*
X110400000Y-106350000D01*
X109000000Y-104950000D02*
X109000000Y-103350000D01*
X110400000Y-106350000D02*
X109000000Y-104950000D01*
X109050000Y-115000000D02*
X109350000Y-115300000D01*
X109350000Y-115300000D02*
X119450000Y-115300000D01*
X119450000Y-115300000D02*
X119700000Y-115050000D01*
X119700000Y-115050000D02*
X119700000Y-114850000D01*
X119700000Y-95500000D02*
X119700000Y-95300000D01*
X119450000Y-95750000D02*
X119700000Y-95500000D01*
X109350000Y-95750000D02*
X119450000Y-95750000D01*
X109050000Y-95450000D02*
X109350000Y-95750000D01*
X110400000Y-86800000D02*
X109000000Y-85400000D01*
X109000000Y-85400000D02*
X109000000Y-83800000D01*
X117650000Y-86800000D02*
X110400000Y-86800000D01*
X119700000Y-95300000D02*
X120200000Y-95800000D01*
X126200000Y-95800000D02*
X126600000Y-95400000D01*
X120200000Y-95800000D02*
X126200000Y-95800000D01*
X119700000Y-94400000D02*
X119700000Y-95300000D01*
X148500000Y-92599180D02*
X151400820Y-92599180D01*
D30*
X151400820Y-92599180D02*
X151500000Y-92500000D01*
X151400820Y-92599180D02*
X151500000Y-92500000D01*
X151400820Y-92599180D02*
X151500000Y-92500000D01*
D31*
X148599180Y-92500000D02*
X148500000Y-92599180D01*
D29*
X185000000Y-90080000D02*
X185000000Y-90650000D01*
X181700000Y-91350000D02*
X180750000Y-92300000D01*
X184300000Y-91350000D02*
X182650000Y-91350000D01*
X185000000Y-90650000D02*
X184300000Y-91350000D01*
X177797500Y-90368360D02*
X177797500Y-90900000D01*
X180150000Y-92300000D02*
X179200000Y-91350000D01*
X180750000Y-92300000D02*
X180150000Y-92300000D01*
X179200000Y-91350000D02*
X178700000Y-91350000D01*
X178700000Y-91350000D02*
X178250000Y-90900000D01*
X178250000Y-90900000D02*
X177797500Y-90900000D01*
X182650000Y-91350000D02*
X181700000Y-91350000D01*
X151500000Y-94800000D02*
X152600000Y-95900000D01*
X152600000Y-95900000D02*
X165950000Y-95900000D01*
X165950000Y-95900000D02*
X167650000Y-94200000D01*
X167650000Y-94200000D02*
X174800000Y-94200000D01*
X174800000Y-94200000D02*
X175150000Y-93850000D01*
X175150000Y-93850000D02*
X177050000Y-93850000D01*
X177050000Y-93850000D02*
X177500000Y-93400000D01*
X177500000Y-93400000D02*
X177500000Y-92100000D01*
X177500000Y-92100000D02*
X177797500Y-91802500D01*
X177797500Y-91802500D02*
X177797500Y-90368360D01*
X151500000Y-92500000D02*
X151500000Y-94800000D01*
X151500000Y-112050000D02*
X151500000Y-114350000D01*
X177797500Y-111352500D02*
X177797500Y-109918360D01*
X177500000Y-111650000D02*
X177797500Y-111352500D01*
X177500000Y-112950000D02*
X177500000Y-111650000D01*
X177050000Y-113400000D02*
X177500000Y-112950000D01*
X175150000Y-113400000D02*
X177050000Y-113400000D01*
X174800000Y-113750000D02*
X175150000Y-113400000D01*
X167650000Y-113750000D02*
X174800000Y-113750000D01*
X165950000Y-115450000D02*
X167650000Y-113750000D01*
X152600000Y-115450000D02*
X165950000Y-115450000D01*
X151500000Y-114350000D02*
X152600000Y-115450000D01*
X182650000Y-110900000D02*
X181700000Y-110900000D01*
X178250000Y-110450000D02*
X177797500Y-110450000D01*
X178700000Y-110900000D02*
X178250000Y-110450000D01*
X179200000Y-110900000D02*
X178700000Y-110900000D01*
X180750000Y-111850000D02*
X180150000Y-111850000D01*
X180150000Y-111850000D02*
X179200000Y-110900000D01*
X177797500Y-109918360D02*
X177797500Y-110450000D01*
X185000000Y-110200000D02*
X184300000Y-110900000D01*
X184300000Y-110900000D02*
X182650000Y-110900000D01*
X181700000Y-110900000D02*
X180750000Y-111850000D01*
X185000000Y-109630000D02*
X185000000Y-110200000D01*
D31*
X148599180Y-112050000D02*
X148500000Y-112149180D01*
D30*
X151400820Y-112149180D02*
X151500000Y-112050000D01*
X151400820Y-112149180D02*
X151500000Y-112050000D01*
X151400820Y-112149180D02*
X151500000Y-112050000D01*
D29*
X148500000Y-112149180D02*
X151400820Y-112149180D01*
X88500000Y-112149180D02*
X91400820Y-112149180D01*
D30*
X91400820Y-112149180D02*
X91500000Y-112050000D01*
X91400820Y-112149180D02*
X91500000Y-112050000D01*
X91400820Y-112149180D02*
X91500000Y-112050000D01*
D31*
X88599180Y-112050000D02*
X88500000Y-112149180D01*
D29*
X125000000Y-109630000D02*
X125000000Y-110200000D01*
X121700000Y-110900000D02*
X120750000Y-111850000D01*
X124300000Y-110900000D02*
X122650000Y-110900000D01*
X125000000Y-110200000D02*
X124300000Y-110900000D01*
X117797500Y-109918360D02*
X117797500Y-110450000D01*
X120150000Y-111850000D02*
X119200000Y-110900000D01*
X120750000Y-111850000D02*
X120150000Y-111850000D01*
X119200000Y-110900000D02*
X118700000Y-110900000D01*
X118700000Y-110900000D02*
X118250000Y-110450000D01*
X118250000Y-110450000D02*
X117797500Y-110450000D01*
X122650000Y-110900000D02*
X121700000Y-110900000D01*
X91500000Y-114350000D02*
X92600000Y-115450000D01*
X92600000Y-115450000D02*
X105950000Y-115450000D01*
X105950000Y-115450000D02*
X107650000Y-113750000D01*
X107650000Y-113750000D02*
X114800000Y-113750000D01*
X114800000Y-113750000D02*
X115150000Y-113400000D01*
X115150000Y-113400000D02*
X117050000Y-113400000D01*
X117050000Y-113400000D02*
X117500000Y-112950000D01*
X117500000Y-112950000D02*
X117500000Y-111650000D01*
X117500000Y-111650000D02*
X117797500Y-111352500D01*
X117797500Y-111352500D02*
X117797500Y-109918360D01*
X91500000Y-112050000D02*
X91500000Y-114350000D01*
X91500000Y-92500000D02*
X91500000Y-94800000D01*
X117797500Y-91802500D02*
X117797500Y-90368360D01*
X117500000Y-92100000D02*
X117797500Y-91802500D01*
X117500000Y-93400000D02*
X117500000Y-92100000D01*
X117050000Y-93850000D02*
X117500000Y-93400000D01*
X115150000Y-93850000D02*
X117050000Y-93850000D01*
X114800000Y-94200000D02*
X115150000Y-93850000D01*
X107650000Y-94200000D02*
X114800000Y-94200000D01*
X105950000Y-95900000D02*
X107650000Y-94200000D01*
X92600000Y-95900000D02*
X105950000Y-95900000D01*
X91500000Y-94800000D02*
X92600000Y-95900000D01*
X122650000Y-91350000D02*
X121700000Y-91350000D01*
X118250000Y-90900000D02*
X117797500Y-90900000D01*
X118700000Y-91350000D02*
X118250000Y-90900000D01*
X119200000Y-91350000D02*
X118700000Y-91350000D01*
X120750000Y-92300000D02*
X120150000Y-92300000D01*
X120150000Y-92300000D02*
X119200000Y-91350000D01*
X117797500Y-90368360D02*
X117797500Y-90900000D01*
X125000000Y-90650000D02*
X124300000Y-91350000D01*
X124300000Y-91350000D02*
X122650000Y-91350000D01*
X121700000Y-91350000D02*
X120750000Y-92300000D01*
X125000000Y-90080000D02*
X125000000Y-90650000D01*
D31*
X88599180Y-92500000D02*
X88500000Y-92599180D01*
D30*
X91400820Y-92599180D02*
X91500000Y-92500000D01*
X91400820Y-92599180D02*
X91500000Y-92500000D01*
X91400820Y-92599180D02*
X91500000Y-92500000D01*
D29*
X88500000Y-92599180D02*
X91400820Y-92599180D01*
X172600000Y-92950000D02*
X176075000Y-92950000D01*
D30*
X176075000Y-92950000D02*
X176250000Y-93125000D01*
D29*
X176250000Y-93125000D02*
X176250000Y-91479140D01*
D30*
X176250000Y-91479140D02*
X176077500Y-91306640D01*
X176250000Y-111029140D02*
X176077500Y-110856640D01*
D29*
X176250000Y-112675000D02*
X176250000Y-111029140D01*
D30*
X176075000Y-112500000D02*
X176250000Y-112675000D01*
D29*
X172600000Y-112500000D02*
X176075000Y-112500000D01*
X112600000Y-112500000D02*
X116075000Y-112500000D01*
D30*
X116075000Y-112500000D02*
X116250000Y-112675000D01*
D29*
X116250000Y-112675000D02*
X116250000Y-111029140D01*
D30*
X116250000Y-111029140D02*
X116077500Y-110856640D01*
X116250000Y-91479140D02*
X116077500Y-91306640D01*
D29*
X116250000Y-93125000D02*
X116250000Y-91479140D01*
D30*
X116075000Y-92950000D02*
X116250000Y-93125000D01*
D29*
X112600000Y-92950000D02*
X116075000Y-92950000D01*
X173220000Y-79075000D02*
X173220000Y-83020000D01*
X185000000Y-84000000D02*
X185000000Y-85000000D01*
X184400000Y-83400000D02*
X185000000Y-84000000D01*
X173600000Y-83400000D02*
X184400000Y-83400000D01*
X173220000Y-83020000D02*
X173600000Y-83400000D01*
X173220000Y-102570000D02*
X173600000Y-102950000D01*
X173600000Y-102950000D02*
X184400000Y-102950000D01*
X184400000Y-102950000D02*
X185000000Y-103550000D01*
X185000000Y-103550000D02*
X185000000Y-104550000D01*
X173220000Y-98625000D02*
X173220000Y-102570000D01*
X113220000Y-98625000D02*
X113220000Y-102570000D01*
X125000000Y-103550000D02*
X125000000Y-104550000D01*
X124400000Y-102950000D02*
X125000000Y-103550000D01*
X113600000Y-102950000D02*
X124400000Y-102950000D01*
X113220000Y-102570000D02*
X113600000Y-102950000D01*
X113220000Y-83020000D02*
X113600000Y-83400000D01*
X113600000Y-83400000D02*
X124400000Y-83400000D01*
X124400000Y-83400000D02*
X125000000Y-84000000D01*
X125000000Y-84000000D02*
X125000000Y-85000000D01*
X113220000Y-79075000D02*
X113220000Y-83020000D01*
X179150000Y-86800000D02*
X179600000Y-86800000D01*
X183740000Y-88800000D02*
X185000000Y-87540000D01*
X181600000Y-88800000D02*
X183740000Y-88800000D01*
X179600000Y-86800000D02*
X181600000Y-88800000D01*
X179600000Y-106350000D02*
X181600000Y-108350000D01*
X181600000Y-108350000D02*
X183740000Y-108350000D01*
X183740000Y-108350000D02*
X185000000Y-107090000D01*
X179150000Y-106350000D02*
X179600000Y-106350000D01*
X119150000Y-106350000D02*
X119600000Y-106350000D01*
X123740000Y-108350000D02*
X125000000Y-107090000D01*
X121600000Y-108350000D02*
X123740000Y-108350000D01*
X119600000Y-106350000D02*
X121600000Y-108350000D01*
X119600000Y-86800000D02*
X121600000Y-88800000D01*
X121600000Y-88800000D02*
X123740000Y-88800000D01*
X123740000Y-88800000D02*
X125000000Y-87540000D01*
X119150000Y-86800000D02*
X119600000Y-86800000D01*
X175125000Y-89193360D02*
X175125000Y-88075000D01*
D30*
X182500000Y-90100000D02*
X182460000Y-90080000D01*
D29*
X181200000Y-89300000D02*
X182500000Y-90100000D01*
X181000000Y-89000000D02*
X181200000Y-89300000D01*
X180000000Y-88000000D02*
X181000000Y-89000000D01*
X175200000Y-88000000D02*
X180000000Y-88000000D01*
X175125000Y-88075000D02*
X175200000Y-88000000D01*
X175125000Y-107625000D02*
X175200000Y-107550000D01*
X175200000Y-107550000D02*
X180000000Y-107550000D01*
X180000000Y-107550000D02*
X181000000Y-108550000D01*
X181000000Y-108550000D02*
X181200000Y-108850000D01*
X181200000Y-108850000D02*
X182500000Y-109650000D01*
D30*
X182500000Y-109650000D02*
X182460000Y-109630000D01*
D29*
X175125000Y-108743360D02*
X175125000Y-107625000D01*
X115125000Y-108743360D02*
X115125000Y-107625000D01*
D30*
X122500000Y-109650000D02*
X122460000Y-109630000D01*
D29*
X121200000Y-108850000D02*
X122500000Y-109650000D01*
X121000000Y-108550000D02*
X121200000Y-108850000D01*
X120000000Y-107550000D02*
X121000000Y-108550000D01*
X115200000Y-107550000D02*
X120000000Y-107550000D01*
X115125000Y-107625000D02*
X115200000Y-107550000D01*
X115125000Y-88075000D02*
X115200000Y-88000000D01*
X115200000Y-88000000D02*
X120000000Y-88000000D01*
X120000000Y-88000000D02*
X121000000Y-89000000D01*
X121000000Y-89000000D02*
X121200000Y-89300000D01*
X121200000Y-89300000D02*
X122500000Y-90100000D01*
D30*
X122500000Y-90100000D02*
X122460000Y-90080000D01*
D29*
X115125000Y-89193360D02*
X115125000Y-88075000D01*
X170680000Y-79075000D02*
X170680000Y-83080000D01*
X187380000Y-86580000D02*
X188750000Y-86580000D01*
X179400000Y-84600000D02*
X181000000Y-86200000D01*
X172200000Y-84600000D02*
X179400000Y-84600000D01*
X170680000Y-83080000D02*
X172200000Y-84600000D01*
X187380000Y-86580000D02*
X188750000Y-86580000D01*
X181700000Y-86200000D02*
X181750000Y-86250000D01*
X181750000Y-86250000D02*
X187050000Y-86250000D01*
X187050000Y-86250000D02*
X187380000Y-86580000D01*
X181000000Y-86200000D02*
X181700000Y-86200000D01*
X183000000Y-94400000D02*
X186200000Y-94400000D01*
X187620000Y-86580000D02*
X188750000Y-86580000D01*
X182460000Y-92620000D02*
X182460000Y-93860000D01*
X182460000Y-93860000D02*
X183000000Y-94400000D01*
X186200000Y-94400000D02*
X186800000Y-93800000D01*
X186800000Y-93800000D02*
X186800000Y-87400000D01*
X186800000Y-87400000D02*
X187620000Y-86580000D01*
X186800000Y-106950000D02*
X187620000Y-106130000D01*
X186800000Y-113350000D02*
X186800000Y-106950000D01*
X186200000Y-113950000D02*
X186800000Y-113350000D01*
X182460000Y-113410000D02*
X183000000Y-113950000D01*
X182460000Y-112170000D02*
X182460000Y-113410000D01*
X187620000Y-106130000D02*
X188750000Y-106130000D01*
X183000000Y-113950000D02*
X186200000Y-113950000D01*
X181000000Y-105750000D02*
X181700000Y-105750000D01*
X187050000Y-105800000D02*
X187380000Y-106130000D01*
X181750000Y-105800000D02*
X187050000Y-105800000D01*
X181700000Y-105750000D02*
X181750000Y-105800000D01*
X187380000Y-106130000D02*
X188750000Y-106130000D01*
X170680000Y-102630000D02*
X172200000Y-104150000D01*
X172200000Y-104150000D02*
X179400000Y-104150000D01*
X179400000Y-104150000D02*
X181000000Y-105750000D01*
X187380000Y-106130000D02*
X188750000Y-106130000D01*
X170680000Y-98625000D02*
X170680000Y-102630000D01*
X110680000Y-98625000D02*
X110680000Y-102630000D01*
X127380000Y-106130000D02*
X128750000Y-106130000D01*
X119400000Y-104150000D02*
X121000000Y-105750000D01*
X112200000Y-104150000D02*
X119400000Y-104150000D01*
X110680000Y-102630000D02*
X112200000Y-104150000D01*
X127380000Y-106130000D02*
X128750000Y-106130000D01*
X121700000Y-105750000D02*
X121750000Y-105800000D01*
X121750000Y-105800000D02*
X127050000Y-105800000D01*
X127050000Y-105800000D02*
X127380000Y-106130000D01*
X121000000Y-105750000D02*
X121700000Y-105750000D01*
X123000000Y-113950000D02*
X126200000Y-113950000D01*
X127620000Y-106130000D02*
X128750000Y-106130000D01*
X122460000Y-112170000D02*
X122460000Y-113410000D01*
X122460000Y-113410000D02*
X123000000Y-113950000D01*
X126200000Y-113950000D02*
X126800000Y-113350000D01*
X126800000Y-113350000D02*
X126800000Y-106950000D01*
X126800000Y-106950000D02*
X127620000Y-106130000D01*
X126800000Y-87400000D02*
X127620000Y-86580000D01*
X126800000Y-93800000D02*
X126800000Y-87400000D01*
X126200000Y-94400000D02*
X126800000Y-93800000D01*
X122460000Y-93860000D02*
X123000000Y-94400000D01*
X122460000Y-92620000D02*
X122460000Y-93860000D01*
X127620000Y-86580000D02*
X128750000Y-86580000D01*
X123000000Y-94400000D02*
X126200000Y-94400000D01*
X121000000Y-86200000D02*
X121700000Y-86200000D01*
X127050000Y-86250000D02*
X127380000Y-86580000D01*
X121750000Y-86250000D02*
X127050000Y-86250000D01*
X121700000Y-86200000D02*
X121750000Y-86250000D01*
X127380000Y-86580000D02*
X128750000Y-86580000D01*
X110680000Y-83080000D02*
X112200000Y-84600000D01*
X112200000Y-84600000D02*
X119400000Y-84600000D01*
X119400000Y-84600000D02*
X121000000Y-86200000D01*
X127380000Y-86580000D02*
X128750000Y-86580000D01*
X110680000Y-79075000D02*
X110680000Y-83080000D01*
X178200000Y-94400000D02*
X178200000Y-93031640D01*
X178200000Y-93031640D02*
X178750000Y-92481640D01*
X176250000Y-94625000D02*
X177975000Y-94625000D01*
D30*
X177975000Y-94625000D02*
X178200000Y-94400000D01*
X177975000Y-114175000D02*
X178200000Y-113950000D01*
D29*
X176250000Y-114175000D02*
X177975000Y-114175000D01*
X178200000Y-112581640D02*
X178750000Y-112031640D01*
X178200000Y-113950000D02*
X178200000Y-112581640D01*
X118200000Y-113950000D02*
X118200000Y-112581640D01*
X118200000Y-112581640D02*
X118750000Y-112031640D01*
X116250000Y-114175000D02*
X117975000Y-114175000D01*
D30*
X117975000Y-114175000D02*
X118200000Y-113950000D01*
X117975000Y-94625000D02*
X118200000Y-94400000D01*
D29*
X116250000Y-94625000D02*
X117975000Y-94625000D01*
X118200000Y-93031640D02*
X118750000Y-92481640D01*
X118200000Y-94400000D02*
X118200000Y-93031640D01*
M02*
