<?xml version="1.0" standalone="no"?>
 <!DOCTYPE svg PUBLIC "-//W3C//DTD SVG 1.1//EN" 
 "http://www.w3.org/Graphics/SVG/1.1/DTD/svg11.dtd"> 
<svg xmlns="http://www.w3.org/2000/svg" version="1.1" 
    width="29.7002cm" height="21.0007cm" viewBox="0 0 116930 82680 ">
<title>SVG Picture created as matrix-F_Cu.svg date 2015/10/23 12:11:06 </title>
  <desc>Picture generated by PCBNEW </desc>
<g style="fill:#000000; fill-opacity:1;stroke:#000000; stroke-opacity:1;
stroke-linecap:round; stroke-linejoin:round; "
 transform="translate(0 0) scale(1 1)">
</g>
<g style="fill:#000000; fill-opacity:0.0; 
stroke:#000000; stroke-width:39.3701; stroke-opacity:1; 
stroke-linecap:round; stroke-linejoin:round;">
<path d="M60679 51259
L60659 51259
" />
<path d="M60679 35816
L60679 51259
" />
<path d="M60679 51259
L60679 51250
" />
<path d="M50305 51259
L60679 51259
" />
<path d="M50305 39822
L50305 51259
" />
<path d="M60688 31712
L60688 31722
" />
<path d="M50295 31712
L60688 31712
" />
<path d="M60679 31722
L60688 31722
" />
<path d="M60679 35816
L60679 31722
" />
<path d="M50305 39822
L50305 31722
" />
</g>
<g style="fill:#000000; fill-opacity:0.0; 
stroke:#000000; stroke-width:600; stroke-opacity:1; 
stroke-linecap:round; stroke-linejoin:round;">
<path d="M58933 32423
L58933 32610
" />
<path d="M57933 32423
L57933 32610
" />
<path d="M56933 32423
L56933 32610
" />
<path d="M55933 32423
L55933 32610
" />
<path d="M54933 32423
L54933 32610
" />
<path d="M53933 32423
L53933 32610
" />
<path d="M52933 32423
L52933 32610
" />
<path d="M51933 32423
L51933 32610
" />
<path d="M58933 50370
L58933 50558
" />
<path d="M57933 50422
L57933 50609
" />
<path d="M56933 50422
L56933 50609
" />
<path d="M55933 50422
L55933 50609
" />
<path d="M54933 50422
L54933 50609
" />
<path d="M53933 50422
L53933 50609
" />
<path d="M52933 50422
L52933 50609
" />
<path d="M51933 50422
L51933 50609
" />
</g>
<g style="fill:#000000; fill-opacity:0.0; 
stroke:#000000; stroke-width:39.3701; stroke-opacity:1; 
stroke-linecap:round; stroke-linejoin:round;">
</g>
<g style="fill:#000000; fill-opacity:1.0; 
stroke:#000000; stroke-width:39.3701; stroke-opacity:1; 
stroke-linecap:round; stroke-linejoin:round;">
<polyline style="fill-rule:evenodd;"
points="54826,40440
54952,40315
55369,40732
55244,40858
54826,40440
" /> 
<polyline style="fill-rule:evenodd;"
points="54604,40663
54729,40537
55147,40955
55021,41080
54604,40663
" /> 
<polyline style="fill-rule:evenodd;"
points="54381,40885
54506,40760
54924,41178
54799,41303
54381,40885
" /> 
<polyline style="fill-rule:evenodd;"
points="54158,41108
54284,40983
54701,41400
54576,41526
54158,41108
" /> 
<polyline style="fill-rule:evenodd;"
points="53936,41331
54061,41205
54478,41623
54353,41748
53936,41331
" /> 
<polyline style="fill-rule:evenodd;"
points="53713,41553
53838,41428
54256,41846
54130,41971
53713,41553
" /> 
<polyline style="fill-rule:evenodd;"
points="53490,41776
53615,41651
54033,42068
53908,42194
53490,41776
" /> 
<polyline style="fill-rule:evenodd;"
points="53267,41999
53393,41874
53810,42291
53685,42416
53267,41999
" /> 
<polyline style="fill-rule:evenodd;"
points="53393,43224
53267,43099
53685,42681
53810,42806
53393,43224
" /> 
<polyline style="fill-rule:evenodd;"
points="53615,43447
53490,43321
53908,42904
54033,43029
53615,43447
" /> 
<polyline style="fill-rule:evenodd;"
points="53838,43669
53713,43544
54130,43126
54256,43252
53838,43669
" /> 
<polyline style="fill-rule:evenodd;"
points="54061,43892
53936,43767
54353,43349
54478,43474
54061,43892
" /> 
<polyline style="fill-rule:evenodd;"
points="54284,44115
54158,43989
54576,43572
54701,43697
54284,44115
" /> 
<polyline style="fill-rule:evenodd;"
points="54506,44337
54381,44212
54799,43795
54924,43920
54506,44337
" /> 
<polyline style="fill-rule:evenodd;"
points="54729,44560
54604,44435
55021,44017
55147,44142
54729,44560
" /> 
<polyline style="fill-rule:evenodd;"
points="54952,44783
54826,44658
55244,44240
55369,44365
54952,44783
" /> 
<polyline style="fill-rule:evenodd;"
points="55634,44365
55759,44240
56177,44658
56051,44783
55634,44365
" /> 
<polyline style="fill-rule:evenodd;"
points="55856,44142
55982,44017
56399,44435
56274,44560
55856,44142
" /> 
<polyline style="fill-rule:evenodd;"
points="56079,43920
56204,43795
56622,44212
56497,44337
56079,43920
" /> 
<polyline style="fill-rule:evenodd;"
points="56302,43697
56427,43572
56845,43989
56719,44115
56302,43697
" /> 
<polyline style="fill-rule:evenodd;"
points="56525,43474
56650,43349
57067,43767
56942,43892
56525,43474
" /> 
<polyline style="fill-rule:evenodd;"
points="56747,43252
56873,43126
57290,43544
57165,43669
56747,43252
" /> 
<polyline style="fill-rule:evenodd;"
points="56970,43029
57095,42904
57513,43321
57388,43447
56970,43029
" /> 
<polyline style="fill-rule:evenodd;"
points="57193,42806
57318,42681
57736,43099
57610,43224
57193,42806
" /> 
<polyline style="fill-rule:evenodd;"
points="57318,42416
57193,42291
57610,41874
57736,41999
57318,42416
" /> 
<polyline style="fill-rule:evenodd;"
points="57095,42194
56970,42068
57388,41651
57513,41776
57095,42194
" /> 
<polyline style="fill-rule:evenodd;"
points="56873,41971
56747,41846
57165,41428
57290,41553
56873,41971
" /> 
<polyline style="fill-rule:evenodd;"
points="56650,41748
56525,41623
56942,41205
57067,41331
56650,41748
" /> 
<polyline style="fill-rule:evenodd;"
points="56427,41526
56302,41400
56719,40983
56845,41108
56427,41526
" /> 
<polyline style="fill-rule:evenodd;"
points="56204,41303
56079,41178
56497,40760
56622,40885
56204,41303
" /> 
<polyline style="fill-rule:evenodd;"
points="55982,41080
55856,40955
56274,40537
56399,40663
55982,41080
" /> 
<polyline style="fill-rule:evenodd;"
points="55759,40858
55634,40732
56051,40315
56177,40440
55759,40858
" /> 
<polyline style="fill-rule:evenodd;"
points="50619,45820
50619,45179
51380,45179
51380,45820
50619,45820
" /> 
</g>
<g style="fill:#000000; fill-opacity:1.0; 
stroke:#000000; stroke-width:680; stroke-opacity:1; 
stroke-linecap:round; stroke-linejoin:round;">
</g>
<g style="fill:#000000; fill-opacity:0.0; 
stroke:#000000; stroke-width:680; stroke-opacity:1; 
stroke-linecap:round; stroke-linejoin:round;">
<path d="M50940 46500
L51060 46500
" />
<path d="M50940 47500
L51060 47500
" />
<path d="M50940 48500
L51060 48500
" />
</g>
<g style="fill:#000000; fill-opacity:0.0; 
stroke:#000000; stroke-width:39.3701; stroke-opacity:1; 
stroke-linecap:round; stroke-linejoin:round;">
</g>
<g style="fill:#000000; fill-opacity:1.0; 
stroke:#000000; stroke-width:39.3701; stroke-opacity:1; 
stroke-linecap:round; stroke-linejoin:round;">
<polyline style="fill-rule:evenodd;"
points="59619,40820
59619,40179
60380,40179
60380,40820
59619,40820
" /> 
</g>
<g style="fill:#000000; fill-opacity:1.0; 
stroke:#000000; stroke-width:680; stroke-opacity:1; 
stroke-linecap:round; stroke-linejoin:round;">
</g>
<g style="fill:#000000; fill-opacity:0.0; 
stroke:#000000; stroke-width:680; stroke-opacity:1; 
stroke-linecap:round; stroke-linejoin:round;">
<path d="M59940 41500
L60060 41500
" />
<path d="M59940 42500
L60060 42500
" />
<path d="M59940 43500
L60060 43500
" />
</g>
<g style="fill:#000000; fill-opacity:0.0; 
stroke:#000000; stroke-width:39.3701; stroke-opacity:1; 
stroke-linecap:round; stroke-linejoin:round;">
</g>
<g style="fill:#000000; fill-opacity:1.0; 
stroke:#000000; stroke-width:39.3701; stroke-opacity:1; 
stroke-linecap:round; stroke-linejoin:round;">
<polyline style="fill-rule:evenodd;"
points="50619,40820
50619,40179
51380,40179
51380,40820
50619,40820
" /> 
</g>
<g style="fill:#000000; fill-opacity:1.0; 
stroke:#000000; stroke-width:680; stroke-opacity:1; 
stroke-linecap:round; stroke-linejoin:round;">
</g>
<g style="fill:#000000; fill-opacity:0.0; 
stroke:#000000; stroke-width:680; stroke-opacity:1; 
stroke-linecap:round; stroke-linejoin:round;">
<path d="M50940 41500
L51060 41500
" />
<path d="M50940 42500
L51060 42500
" />
<path d="M50940 43500
L51060 43500
" />
</g>
<g style="fill:#000000; fill-opacity:0.0; 
stroke:#000000; stroke-width:39.3701; stroke-opacity:1; 
stroke-linecap:round; stroke-linejoin:round;">
</g>
<g style="fill:#000000; fill-opacity:1.0; 
stroke:#000000; stroke-width:39.3701; stroke-opacity:1; 
stroke-linecap:round; stroke-linejoin:round;">
<polyline style="fill-rule:evenodd;"
points="60380,37119
60380,37880
59619,37880
59619,37119
60380,37119
" /> 
</g>
<g style="fill:#000000; fill-opacity:1.0; 
stroke:#000000; stroke-width:800; stroke-opacity:1; 
stroke-linecap:round; stroke-linejoin:round;">
</g>
<g style="fill:#000000; fill-opacity:0.0; 
stroke:#000000; stroke-width:800; stroke-opacity:1; 
stroke-linecap:round; stroke-linejoin:round;">
<path d="M60000 36500
L60000 36500
" />
</g>
<g style="fill:#000000; fill-opacity:0.0; 
stroke:#000000; stroke-width:39.3701; stroke-opacity:1; 
stroke-linecap:round; stroke-linejoin:round;">
</g>
<g style="fill:#000000; fill-opacity:1.0; 
stroke:#000000; stroke-width:39.3701; stroke-opacity:1; 
stroke-linecap:round; stroke-linejoin:round;">
<circle cx="53582.7" cy="36338.6" r="155.315" /> 
<circle cx="53435" cy="35236.2" r="155.315" /> 
<circle cx="55147.6" cy="42440.9" r="155.315" /> 
<circle cx="52391.7" cy="40295.3" r="155.315" /> 
<circle cx="55897.6" cy="38590.6" r="155.315" /> 
<circle cx="56141.7" cy="39618.1" r="155.315" /> 
<circle cx="53700.8" cy="40157.5" r="155.315" /> 
<circle cx="55126" cy="39500" r="155.315" /> 
<circle cx="57342.5" cy="38838.6" r="155.315" /> 
<circle cx="54350.4" cy="37864.2" r="155.315" /> 
<circle cx="54202.8" cy="40108.3" r="155.315" /> 
<circle cx="52834.6" cy="39281.5" r="155.315" /> 
<circle cx="53149.6" cy="41240.2" r="155.315" /> 
<circle cx="52785.4" cy="39842.5" r="155.315" /> 
<circle cx="52795.3" cy="41624" r="155.315" /> 
<circle cx="52145.7" cy="44350.4" r="155.315" /> 
<circle cx="52578.7" cy="44015.7" r="155.315" /> 
<circle cx="53051.2" cy="44084.6" r="155.315" /> 
<circle cx="51968.5" cy="45078.7" r="155.315" /> 
<circle cx="52795.3" cy="45334.6" r="155.315" /> 
<circle cx="53415.4" cy="46299.2" r="155.315" /> 
<circle cx="55358.3" cy="46102.4" r="155.315" /> 
<circle cx="56362.2" cy="46901.6" r="155.315" /> 
<circle cx="56476.4" cy="45088.6" r="155.315" /> 
<circle cx="58366.1" cy="44921.3" r="155.315" /> 
<circle cx="57952.8" cy="44025.6" r="155.315" /> 
<circle cx="56555.1" cy="34822.8" r="155.315" /> 
<circle cx="57263.8" cy="35994.1" r="155.315" /> 
<circle cx="56322.8" cy="38212.6" r="155.315" /> 
<circle cx="56244.1" cy="35590.6" r="155.315" /> 
<circle cx="55620.1" cy="43612.2" r="155.315" /> 
<circle cx="57568.9" cy="45905.5" r="155.315" /> 
<circle cx="57765.7" cy="41279.5" r="155.315" /> 
<circle cx="52263.8" cy="43110.2" r="155.315" /> 
<circle cx="57468.5" cy="40929.1" r="155.315" /> 
<circle cx="58996.1" cy="44281.5" r="155.315" /> 
<circle cx="52155.5" cy="42322.8" r="155.315" /> 
<circle cx="58139.8" cy="47411.4" r="155.315" /> 
<circle cx="57141.7" cy="40614.2" r="155.315" /> 
<circle cx="58618.1" cy="38885.8" r="155.315" /> 
<circle cx="56815" cy="40271.7" r="155.315" /> 
<circle cx="58090.6" cy="35255.9" r="155.315" /> 
</g>
<g style="fill:#000000; fill-opacity:1.0; 
stroke:#000000; stroke-width:100; stroke-opacity:1; 
stroke-linecap:round; stroke-linejoin:round;">
</g>
<g style="fill:#000000; fill-opacity:0.0; 
stroke:#000000; stroke-width:100; stroke-opacity:1; 
stroke-linecap:round; stroke-linejoin:round;">
<path d="M56804 37028
L56804 37080
" />
</g>
<g style="fill:#000000; fill-opacity:0.0; 
stroke:#000000; stroke-width:150; stroke-opacity:1; 
stroke-linecap:round; stroke-linejoin:round;">
<path d="M54960 41785
L54430 41254
" />
<path d="M54960 42047
L54960 41785
" />
<path d="M54862 42145
L54960 42047
" />
<path d="M54773 42234
L54862 42145
" />
<path d="M54507 42234
L54773 42234
" />
<path d="M53984 41711
L54507 42234
" />
<path d="M53984 41700
L53984 41711
" />
<path d="M53179 35935
L53582 36338
" />
<path d="M53179 35492
L53179 35935
" />
<path d="M53435 35236
L53179 35492
" />
</g>
<g style="fill:#000000; fill-opacity:0.0; 
stroke:#000000; stroke-width:100; stroke-opacity:1; 
stroke-linecap:round; stroke-linejoin:round;">
<path d="M54862 42155
L55147 42440
" />
<path d="M54862 42145
L54862 42155
" />
<path d="M52391 40295
L51889 39793
" />
<path d="M51889 39793
L51889 35964
" />
<path d="M51889 35964
L52657 35196
" />
<path d="M52657 35196
L53395 35196
" />
<path d="M53395 35196
L53435 35236
" />
</g>
<g style="fill:#000000; fill-opacity:0.0; 
stroke:#000000; stroke-width:150; stroke-opacity:1; 
stroke-linecap:round; stroke-linejoin:round;">
<path d="M55897 39374
L55897 38590
" />
<path d="M56141 39618
L55897 39374
" />
<path d="M53759 41013
L53759 40846
" />
<path d="M53858 40748
L54015 40590
" />
<path d="M53759 40846
L53858 40748
" />
<path d="M54015 40590
L54211 40590
" />
<path d="M54211 40590
L54652 41031
" />
<path d="M54207 41461
L53759 41013
" />
<path d="M54207 41477
L54207 41461
" />
<path d="M53838 40748
L53858 40748
" />
<path d="M53759 40748
L53838 40748
" />
<path d="M53110 40748
L53759 40748
" />
<path d="M52358 41500
L53110 40748
" />
<path d="M51000 41500
L52358 41500
" />
<path d="M53700 40157
L53838 40295
" />
<path d="M53838 40295
L53838 40748
" />
<path d="M51000 40500
L51720 40500
" />
<path d="M53488 39500
L55125 39500
" />
<path d="M53381 39606
L53488 39500
" />
<path d="M53381 40003
L53381 39606
" />
<path d="M52692 40692
L53381 40003
" />
<path d="M51913 40692
L52692 40692
" />
<path d="M51720 40500
L51913 40692
" />
<path d="M57342 38838
L57755 39251
" />
<path d="M57755 39251
L59655 39251
" />
<path d="M59655 39251
L60000 39596
" />
<path d="M60000 39596
L60000 40500
" />
</g>
<g style="fill:#000000; fill-opacity:0.0; 
stroke:#000000; stroke-width:100; stroke-opacity:1; 
stroke-linecap:round; stroke-linejoin:round;">
<path d="M51000 40500
L51001 40500
" />
</g>
<g style="fill:#000000; fill-opacity:0.0; 
stroke:#000000; stroke-width:150; stroke-opacity:1; 
stroke-linecap:round; stroke-linejoin:round;">
<path d="M54875 40781
L54875 40809
" />
<path d="M53933 37446
L54350 37864
" />
<path d="M54202 40108
L54875 40781
" />
<path d="M53933 32501
L53933 37446
" />
<path d="M57933 34448
L55797 36584
" />
<path d="M55797 36584
L55797 37687
" />
<path d="M55797 37687
L54488 38996
" />
<path d="M54488 38996
L53120 38996
" />
<path d="M53120 38996
L52834 39281
" />
<path d="M53149 41240
L53159 41250
" />
<path d="M53159 41250
L53159 41320
" />
<path d="M53159 41320
L53762 41922
" />
<path d="M57933 32501
L57933 34448
" />
<path d="M54933 33265
L54330 33868
" />
<path d="M54330 33868
L54330 37293
" />
<path d="M54330 37293
L54901 37864
" />
<path d="M54901 37864
L54901 38188
" />
<path d="M54901 38188
L54655 38435
" />
<path d="M54655 38435
L52824 38435
" />
<path d="M52824 38435
L52194 39064
" />
<path d="M52194 39064
L52194 39251
" />
<path d="M52194 39251
L52785 39842
" />
<path d="M52795 41624
L52962 41791
" />
<path d="M52962 41791
L53185 41791
" />
<path d="M53185 41791
L53539 42145
" />
<path d="M54933 32501
L54933 33265
" />
<path d="M52145 44350
L52214 44281
" />
<path d="M52214 44281
L52214 43858
" />
<path d="M52214 43858
L52696 43375
" />
<path d="M52696 43375
L53116 43375
" />
<path d="M53116 43375
L53539 42952
" />
<path d="M52578 44015
L52942 43651
" />
<path d="M52942 43651
L53286 43651
" />
<path d="M53286 43651
L53762 43175
" />
<path d="M53396 43986
L53984 43398
" />
<path d="M53149 43986
L53396 43986
" />
<path d="M53051 44084
L53149 43986
" />
<path d="M52539 44507
L51968 45078
" />
<path d="M53316 44507
L52539 44507
" />
<path d="M54203 43621
L53316 44507
" />
<path d="M54207 43621
L54203 43621
" />
<path d="M52795 45334
L52706 45246
" />
<path d="M52706 45246
L52706 45078
" />
<path d="M52706 45078
L52972 44812
" />
<path d="M52972 44812
L53460 44812
" />
<path d="M53460 44812
L54430 43843
" />
<path d="M51350 45500
L51000 45500
" />
<path d="M51464 45500
L51879 45915
" />
<path d="M51879 45915
L52803 45915
" />
<path d="M52803 45915
L54652 44066
" />
<path d="M51000 45500
L51464 45500
" />
<path d="M53125 46039
L54875 44289
" />
<path d="M52274 46889
L53125 46039
" />
<path d="M51564 46889
L52274 46889
" />
<path d="M51175 46500
L51564 46889
" />
<path d="M51000 46500
L51175 46500
" />
<path d="M53415 46299
L53155 46039
" />
<path d="M53155 46039
L53125 46039
" />
<path d="M56082 46594
L54183 46594
" />
<path d="M58933 32501
L58933 34944
" />
<path d="M58933 34944
L57746 36131
" />
<path d="M57746 36131
L57746 37519
" />
<path d="M57746 37519
L57047 38218
" />
<path d="M57047 38218
L57047 38582
" />
<path d="M57047 38582
L56948 38681
" />
<path d="M56948 38681
L56948 38956
" />
<path d="M56948 38956
L58179 40187
" />
<path d="M58179 40187
L58188 40187
" />
<path d="M58188 40187
L58789 40787
" />
<path d="M58789 40787
L58789 43887
" />
<path d="M58789 43887
L56082 46594
" />
<path d="M53789 46358
L53789 45820
" />
<path d="M53789 46368
L53789 46358
" />
<path d="M53789 45820
L55098 44511
" />
<path d="M54015 46594
L53789 46368
" />
<path d="M54183 46594
L54015 46594
" />
<path d="M53277 47500
L54183 46594
" />
<path d="M51000 47500
L53277 47500
" />
<path d="M51000 48500
L53141 48500
" />
<path d="M56372 45088
L56476 45088
" />
<path d="M55358 46102
L56372 45088
" />
<path d="M54740 46901
L56362 46901
" />
<path d="M53141 48500
L54740 46901
" />
</g>
<g style="fill:#000000; fill-opacity:0.0; 
stroke:#000000; stroke-width:100; stroke-opacity:1; 
stroke-linecap:round; stroke-linejoin:round;">
<path d="M55905 44511
L55909 44511
" />
<path d="M55948 44511
L55905 44511
" />
<path d="M55948 44511
L55905 44511
" />
<path d="M55905 44517
L55905 44511
" />
<path d="M56476 45088
L55905 44517
" />
</g>
<g style="fill:#000000; fill-opacity:0.0; 
stroke:#000000; stroke-width:150; stroke-opacity:1; 
stroke-linecap:round; stroke-linejoin:round;">
<path d="M55933 49200
L57338 47795
" />
<path d="M57338 47795
L57338 47503
" />
<path d="M57338 47503
L58366 46476
" />
<path d="M58366 46476
L58366 44921
" />
<path d="M57952 44025
L57716 43789
" />
<path d="M57716 43789
L57716 43650
" />
<path d="M57716 43650
L57241 43175
" />
<path d="M55933 50515
L55933 49200
" />
<path d="M56933 34444
L56555 34822
" />
<path d="M57263 35994
L57253 36003
" />
<path d="M57253 36003
L57253 37391
" />
<path d="M57253 37391
L56673 37972
" />
<path d="M56673 37972
L56673 39173
" />
<path d="M56673 39173
L58533 41033
" />
<path d="M58533 41033
L58533 42844
" />
<path d="M58533 42844
L58051 43326
" />
<path d="M58051 43326
L57838 43326
" />
<path d="M57838 43326
L57464 42952
" />
<path d="M56933 32501
L56933 34444
" />
</g>
<g style="fill:#000000; fill-opacity:0.0; 
stroke:#000000; stroke-width:100; stroke-opacity:1; 
stroke-linecap:round; stroke-linejoin:round;">
<path d="M55933 32516
L55933 34122
" />
<path d="M58181 41484
L57519 42145
" />
<path d="M58181 41110
L58181 41484
" />
<path d="M56759 39688
L58181 41110
" />
<path d="M56677 39688
L56759 39688
" />
<path d="M56413 39425
L56677 39688
" />
<path d="M56413 38303
L56413 39425
" />
<path d="M56322 38212
L56413 38303
" />
<path d="M56106 35452
L56244 35590
" />
<path d="M56106 34295
L56106 35452
" />
<path d="M55933 34122
L56106 34295
" />
<path d="M57519 42145
L57464 42145
" />
<path d="M57241 41922
L57241 41941
" />
<path d="M57241 41922
L57241 41931
" />
<path d="M55620 43572
L55620 43612
" />
<path d="M57568 45905
L57559 45915
" />
<path d="M57559 45915
L57559 46200
" />
<path d="M57559 46200
L54931 48828
" />
<path d="M54931 48828
L53740 48828
" />
<path d="M53740 48828
L52933 49635
" />
<path d="M52933 49635
L52933 50515
" />
<path d="M57241 41951
L55620 43572
" />
<path d="M57241 41922
L57241 41951
" />
<path d="M57086 41575
L57106 41575
" />
</g>
<g style="fill:#000000; fill-opacity:0.0; 
stroke:#000000; stroke-width:150; stroke-opacity:1; 
stroke-linecap:round; stroke-linejoin:round;">
<path d="M57019 41700
L57020 41700
" />
<path d="M57019 41700
L57030 41700
" />
<path d="M57450 41279
L57765 41279
" />
<path d="M57030 41700
L57450 41279
" />
</g>
<g style="fill:#000000; fill-opacity:0.0; 
stroke:#000000; stroke-width:100; stroke-opacity:1; 
stroke-linecap:round; stroke-linejoin:round;">
<path d="M51874 43500
L52263 43110
" />
<path d="M51000 43500
L51874 43500
" />
<path d="M56796 41477
L56806 41477
" />
<path d="M56806 41477
L57354 40929
" />
<path d="M57354 40929
L57468 40929
" />
</g>
<g style="fill:#000000; fill-opacity:0.0; 
stroke:#000000; stroke-width:150; stroke-opacity:1; 
stroke-linecap:round; stroke-linejoin:round;">
<path d="M56796 41477
L56800 41477
" />
</g>
<g style="fill:#000000; fill-opacity:0.0; 
stroke:#000000; stroke-width:100; stroke-opacity:1; 
stroke-linecap:round; stroke-linejoin:round;">
<path d="M58996 44281
L59104 44173
" />
<path d="M59104 44173
L59104 42667
" />
<path d="M59104 42667
L59271 42500
" />
<path d="M59271 42500
L60000 42500
" />
<path d="M51978 42500
L52155 42322
" />
<path d="M58139 47411
L58159 47431
" />
<path d="M58159 47431
L58710 47431
" />
<path d="M58710 47431
L58996 47145
" />
<path d="M58996 47145
L58996 44281
" />
<path d="M51000 42500
L51978 42500
" />
<path d="M56573 41254
L56587 41254
" />
<path d="M56587 41254
L57141 40700
" />
<path d="M57141 40700
L57141 40614
" />
<path d="M56351 41031
L56351 41022
" />
<path d="M56351 41022
L56728 40645
" />
<path d="M59377 37500
L60000 37500
" />
<path d="M59114 37763
L59377 37500
" />
<path d="M59114 38389
L59114 37763
" />
<path d="M58618 38885
L59114 38389
" />
<path d="M56728 40358
L56814 40271
" />
<path d="M56728 40645
L56728 40358
" />
</g>
<g style="fill:#000000; fill-opacity:0.0; 
stroke:#000000; stroke-width:150; stroke-opacity:1; 
stroke-linecap:round; stroke-linejoin:round;">
<path d="M56351 41031
L56359 41031
" />
</g>
<g style="fill:#000000; fill-opacity:0.0; 
stroke:#000000; stroke-width:100; stroke-opacity:1; 
stroke-linecap:round; stroke-linejoin:round;">
<path d="M56128 40809
L56151 40809
" />
<path d="M56151 40809
L56366 40594
" />
<path d="M58059 35287
L58090 35255
" />
<path d="M57464 35287
L58059 35287
" />
<path d="M56562 36188
L57464 35287
" />
<path d="M56562 37377
L56562 36188
" />
<path d="M55318 38622
L56562 37377
" />
<path d="M55318 38641
L55318 38622
" />
<path d="M55496 38818
L55318 38641
" />
<path d="M55496 39673
L55496 38818
" />
<path d="M55783 39960
L55496 39673
" />
<path d="M56078 39960
L55783 39960
" />
<path d="M56366 40248
L56078 39960
" />
<path d="M56366 40594
L56366 40248
" />
</g>
<g style="fill:#000000; fill-opacity:0.0; 
stroke:#000000; stroke-width:150; stroke-opacity:1; 
stroke-linecap:round; stroke-linejoin:round;">
<path d="M56128 40809
L56139 40809
" />
</g> 
</svg>
