<?xml version="1.0" standalone="no"?>
 <!DOCTYPE svg PUBLIC "-//W3C//DTD SVG 1.1//EN" 
 "http://www.w3.org/Graphics/SVG/1.1/DTD/svg11.dtd"> 
<svg xmlns="http://www.w3.org/2000/svg" version="1.1" 
    width="29.7002cm" height="21.0007cm" viewBox="0 0 116930 82680 ">
<title>SVG Picture created as matrix-B_Cu.svg date 2015/10/23 12:11:06 </title>
  <desc>Picture generated by PCBNEW </desc>
<g style="fill:#000000; fill-opacity:1;stroke:#000000; stroke-opacity:1;
stroke-linecap:round; stroke-linejoin:round; "
 transform="translate(0 0) scale(1 1)">
</g>
<g style="fill:#000000; fill-opacity:0.0; 
stroke:#000000; stroke-width:39.3701; stroke-opacity:1; 
stroke-linecap:round; stroke-linejoin:round;">
<path d="M60679 51259
L60659 51259
" />
<path d="M60679 35816
L60679 51259
" />
<path d="M60679 51259
L60679 51250
" />
<path d="M50305 51259
L60679 51259
" />
<path d="M50305 39822
L50305 51259
" />
<path d="M60688 31712
L60688 31722
" />
<path d="M50295 31712
L60688 31712
" />
<path d="M60679 31722
L60688 31722
" />
<path d="M60679 35816
L60679 31722
" />
<path d="M50305 39822
L50305 31722
" />
</g>
<g style="fill:#000000; fill-opacity:0.0; 
stroke:#000000; stroke-width:600; stroke-opacity:1; 
stroke-linecap:round; stroke-linejoin:round;">
<path d="M58933 32423
L58933 32610
" />
<path d="M57933 32423
L57933 32610
" />
<path d="M56933 32423
L56933 32610
" />
<path d="M55933 32423
L55933 32610
" />
<path d="M54933 32423
L54933 32610
" />
<path d="M53933 32423
L53933 32610
" />
<path d="M52933 32423
L52933 32610
" />
<path d="M51933 32423
L51933 32610
" />
<path d="M58933 50370
L58933 50558
" />
<path d="M57933 50422
L57933 50609
" />
<path d="M56933 50422
L56933 50609
" />
<path d="M55933 50422
L55933 50609
" />
<path d="M54933 50422
L54933 50609
" />
<path d="M53933 50422
L53933 50609
" />
<path d="M52933 50422
L52933 50609
" />
<path d="M51933 50422
L51933 50609
" />
</g>
<g style="fill:#000000; fill-opacity:0.0; 
stroke:#000000; stroke-width:39.3701; stroke-opacity:1; 
stroke-linecap:round; stroke-linejoin:round;">
</g>
<g style="fill:#000000; fill-opacity:1.0; 
stroke:#000000; stroke-width:39.3701; stroke-opacity:1; 
stroke-linecap:round; stroke-linejoin:round;">
<polyline style="fill-rule:evenodd;"
points="53966,36830
53966,37086
53533,37086
53533,36830
53966,36830
" /> 
<polyline style="fill-rule:evenodd;"
points="53218,36830
53218,37086
52785,37086
52785,36830
53218,36830
" /> 
<polyline style="fill-rule:evenodd;"
points="53946,37627
53946,37883
53513,37883
53513,37627
53946,37627
" /> 
<polyline style="fill-rule:evenodd;"
points="53198,37627
53198,37883
52765,37883
52765,37627
53198,37627
" /> 
<polyline style="fill-rule:evenodd;"
points="54594,37450
54594,37194
55027,37194
55027,37450
54594,37450
" /> 
<polyline style="fill-rule:evenodd;"
points="55342,37450
55342,37194
55775,37194
55775,37450
55342,37450
" /> 
<polyline style="fill-rule:evenodd;"
points="57116,38257
57116,38001
57549,38001
57549,38257
57116,38257
" /> 
<polyline style="fill-rule:evenodd;"
points="57864,38257
57864,38001
58297,38001
58297,38257
57864,38257
" /> 
<polyline style="fill-rule:evenodd;"
points="54606,34480
54606,34039
54925,34039
54925,34480
54606,34480
" /> 
<polyline style="fill-rule:evenodd;"
points="55893,34480
55893,34039
56212,34039
56212,34480
55893,34480
" /> 
<polyline style="fill-rule:evenodd;"
points="55806,35069
55806,35344
55531,35344
55531,35069
55806,35069
" /> 
<polyline style="fill-rule:evenodd;"
points="55216,35069
55216,35344
54941,35344
54941,35069
55216,35069
" /> 
<polyline style="fill-rule:evenodd;"
points="50619,45820
50619,45179
51380,45179
51380,45820
50619,45820
" /> 
</g>
<g style="fill:#000000; fill-opacity:1.0; 
stroke:#000000; stroke-width:680; stroke-opacity:1; 
stroke-linecap:round; stroke-linejoin:round;">
</g>
<g style="fill:#000000; fill-opacity:0.0; 
stroke:#000000; stroke-width:680; stroke-opacity:1; 
stroke-linecap:round; stroke-linejoin:round;">
<path d="M50940 46500
L51060 46500
" />
<path d="M50940 47500
L51060 47500
" />
<path d="M50940 48500
L51060 48500
" />
</g>
<g style="fill:#000000; fill-opacity:0.0; 
stroke:#000000; stroke-width:39.3701; stroke-opacity:1; 
stroke-linecap:round; stroke-linejoin:round;">
</g>
<g style="fill:#000000; fill-opacity:1.0; 
stroke:#000000; stroke-width:39.3701; stroke-opacity:1; 
stroke-linecap:round; stroke-linejoin:round;">
<polyline style="fill-rule:evenodd;"
points="59619,40820
59619,40179
60380,40179
60380,40820
59619,40820
" /> 
</g>
<g style="fill:#000000; fill-opacity:1.0; 
stroke:#000000; stroke-width:680; stroke-opacity:1; 
stroke-linecap:round; stroke-linejoin:round;">
</g>
<g style="fill:#000000; fill-opacity:0.0; 
stroke:#000000; stroke-width:680; stroke-opacity:1; 
stroke-linecap:round; stroke-linejoin:round;">
<path d="M59940 41500
L60060 41500
" />
<path d="M59940 42500
L60060 42500
" />
<path d="M59940 43500
L60060 43500
" />
</g>
<g style="fill:#000000; fill-opacity:0.0; 
stroke:#000000; stroke-width:39.3701; stroke-opacity:1; 
stroke-linecap:round; stroke-linejoin:round;">
</g>
<g style="fill:#000000; fill-opacity:1.0; 
stroke:#000000; stroke-width:39.3701; stroke-opacity:1; 
stroke-linecap:round; stroke-linejoin:round;">
<polyline style="fill-rule:evenodd;"
points="50619,40820
50619,40179
51380,40179
51380,40820
50619,40820
" /> 
</g>
<g style="fill:#000000; fill-opacity:1.0; 
stroke:#000000; stroke-width:680; stroke-opacity:1; 
stroke-linecap:round; stroke-linejoin:round;">
</g>
<g style="fill:#000000; fill-opacity:0.0; 
stroke:#000000; stroke-width:680; stroke-opacity:1; 
stroke-linecap:round; stroke-linejoin:round;">
<path d="M50940 41500
L51060 41500
" />
<path d="M50940 42500
L51060 42500
" />
<path d="M50940 43500
L51060 43500
" />
</g>
<g style="fill:#000000; fill-opacity:0.0; 
stroke:#000000; stroke-width:39.3701; stroke-opacity:1; 
stroke-linecap:round; stroke-linejoin:round;">
</g>
<g style="fill:#000000; fill-opacity:1.0; 
stroke:#000000; stroke-width:39.3701; stroke-opacity:1; 
stroke-linecap:round; stroke-linejoin:round;">
<polyline style="fill-rule:evenodd;"
points="60380,37119
60380,37880
59619,37880
59619,37119
60380,37119
" /> 
</g>
<g style="fill:#000000; fill-opacity:1.0; 
stroke:#000000; stroke-width:800; stroke-opacity:1; 
stroke-linecap:round; stroke-linejoin:round;">
</g>
<g style="fill:#000000; fill-opacity:0.0; 
stroke:#000000; stroke-width:800; stroke-opacity:1; 
stroke-linecap:round; stroke-linejoin:round;">
<path d="M60000 36500
L60000 36500
" />
</g>
<g style="fill:#000000; fill-opacity:0.0; 
stroke:#000000; stroke-width:39.3701; stroke-opacity:1; 
stroke-linecap:round; stroke-linejoin:round;">
</g>
<g style="fill:#000000; fill-opacity:1.0; 
stroke:#000000; stroke-width:39.3701; stroke-opacity:1; 
stroke-linecap:round; stroke-linejoin:round;">
<polyline style="fill-rule:evenodd;"
points="54685,38011
55000,38011
55000,38169
54685,38169
54685,38011
" /> 
<polyline style="fill-rule:evenodd;"
points="54685,38602
55000,38602
55000,38759
54685,38759
54685,38602
" /> 
<polyline style="fill-rule:evenodd;"
points="58100,46860
58100,46545
58257,46545
58257,46860
58100,46860
" /> 
<polyline style="fill-rule:evenodd;"
points="58690,46860
58690,46545
58848,46545
58848,46860
58690,46860
" /> 
<polyline style="fill-rule:evenodd;"
points="58100,46072
58100,45757
58257,45757
58257,46072
58100,46072
" /> 
<polyline style="fill-rule:evenodd;"
points="58690,46072
58690,45757
58848,45757
58848,46072
58690,46072
" /> 
<polyline style="fill-rule:evenodd;"
points="55783,36275
55783,36590
55625,36590
55625,36275
55783,36275
" /> 
<polyline style="fill-rule:evenodd;"
points="55192,36275
55192,36590
55035,36590
55035,36275
55192,36275
" /> 
<polyline style="fill-rule:evenodd;"
points="58407,34048
58407,34808
57006,34808
57006,34048
58407,34048
" /> 
<polyline style="fill-rule:evenodd;"
points="57887,36648
57887,37408
57526,37408
57526,36648
57887,36648
" /> 
<polyline style="fill-rule:evenodd;"
points="56987,36648
56987,37408
56626,37408
56626,36648
56987,36648
" /> 
<polyline style="fill-rule:evenodd;"
points="58787,36648
58787,37408
58426,37408
58426,36648
58787,36648
" /> 
<circle cx="53582.7" cy="36338.6" r="155.315" /> 
<circle cx="53435" cy="35236.2" r="155.315" /> 
<circle cx="55147.6" cy="42440.9" r="155.315" /> 
<circle cx="52391.7" cy="40295.3" r="155.315" /> 
<circle cx="55897.6" cy="38590.6" r="155.315" /> 
<circle cx="56141.7" cy="39618.1" r="155.315" /> 
<circle cx="53700.8" cy="40157.5" r="155.315" /> 
<circle cx="55126" cy="39500" r="155.315" /> 
<circle cx="57342.5" cy="38838.6" r="155.315" /> 
<circle cx="54350.4" cy="37864.2" r="155.315" /> 
<circle cx="54202.8" cy="40108.3" r="155.315" /> 
<circle cx="52834.6" cy="39281.5" r="155.315" /> 
<circle cx="53149.6" cy="41240.2" r="155.315" /> 
<circle cx="52785.4" cy="39842.5" r="155.315" /> 
<circle cx="52795.3" cy="41624" r="155.315" /> 
<circle cx="52145.7" cy="44350.4" r="155.315" /> 
<circle cx="52578.7" cy="44015.7" r="155.315" /> 
<circle cx="53051.2" cy="44084.6" r="155.315" /> 
<circle cx="51968.5" cy="45078.7" r="155.315" /> 
<circle cx="52795.3" cy="45334.6" r="155.315" /> 
<circle cx="53415.4" cy="46299.2" r="155.315" /> 
<circle cx="55358.3" cy="46102.4" r="155.315" /> 
<circle cx="56362.2" cy="46901.6" r="155.315" /> 
<circle cx="56476.4" cy="45088.6" r="155.315" /> 
<circle cx="58366.1" cy="44921.3" r="155.315" /> 
<circle cx="57952.8" cy="44025.6" r="155.315" /> 
<circle cx="56555.1" cy="34822.8" r="155.315" /> 
<circle cx="57263.8" cy="35994.1" r="155.315" /> 
<circle cx="56322.8" cy="38212.6" r="155.315" /> 
<circle cx="56244.1" cy="35590.6" r="155.315" /> 
<circle cx="55620.1" cy="43612.2" r="155.315" /> 
<circle cx="57568.9" cy="45905.5" r="155.315" /> 
<circle cx="57765.7" cy="41279.5" r="155.315" /> 
<circle cx="52263.8" cy="43110.2" r="155.315" /> 
<circle cx="57468.5" cy="40929.1" r="155.315" /> 
<circle cx="58996.1" cy="44281.5" r="155.315" /> 
<circle cx="52155.5" cy="42322.8" r="155.315" /> 
<circle cx="58139.8" cy="47411.4" r="155.315" /> 
<circle cx="57141.7" cy="40614.2" r="155.315" /> 
<circle cx="58618.1" cy="38885.8" r="155.315" /> 
<circle cx="56815" cy="40271.7" r="155.315" /> 
<circle cx="58090.6" cy="35255.9" r="155.315" /> 
</g>
<g style="fill:#000000; fill-opacity:1.0; 
stroke:#000000; stroke-width:150; stroke-opacity:1; 
stroke-linecap:round; stroke-linejoin:round;">
</g>
<g style="fill:#000000; fill-opacity:0.0; 
stroke:#000000; stroke-width:150; stroke-opacity:1; 
stroke-linecap:round; stroke-linejoin:round;">
<path d="M57706 34428
L57706 37028
" />
<path d="M54811 38059
L54842 38090
" />
<path d="M54811 37322
L54811 38059
" />
<path d="M54765 33856
L55009 33612
" />
<path d="M55009 33612
L56890 33612
" />
<path d="M56890 33612
L57706 34428
" />
<path d="M54765 34259
L54765 33856
" />
</g>
<g style="fill:#000000; fill-opacity:0.0; 
stroke:#000000; stroke-width:100; stroke-opacity:1; 
stroke-linecap:round; stroke-linejoin:round;">
<path d="M54694 34330
L54765 34259
" />
</g>
<g style="fill:#000000; fill-opacity:0.0; 
stroke:#000000; stroke-width:150; stroke-opacity:1; 
stroke-linecap:round; stroke-linejoin:round;">
<path d="M54765 35110
L54765 34259
" />
<path d="M54862 35206
L54765 35110
" />
<path d="M55079 35206
L54862 35206
" />
<path d="M55079 35206
L54970 35206
" />
<path d="M53750 37736
L53730 37755
" />
<path d="M53750 36958
L53750 37736
" />
<path d="M54446 36958
L54811 37322
" />
<path d="M53750 36958
L54446 36958
" />
<path d="M53582 36338
L53750 36505
" />
<path d="M53750 36505
L53750 36958
" />
<path d="M53464 35206
L53435 35236
" />
<path d="M55079 35206
L53464 35206
" />
</g>
<g style="fill:#000000; fill-opacity:0.0; 
stroke:#000000; stroke-width:100; stroke-opacity:1; 
stroke-linecap:round; stroke-linejoin:round;">
<path d="M58179 45915
L58179 46702
" />
<path d="M55147 42440
L58179 45472
" />
<path d="M58179 45472
L58179 45915
" />
<path d="M55127 42440
L54950 42618
" />
<path d="M54950 42618
L54055 42618
" />
<path d="M54055 42618
L53513 42076
" />
<path d="M53513 42076
L52775 42076
" />
<path d="M52775 42076
L52440 41742
" />
<path d="M52440 41742
L52440 40314
" />
<path d="M52440 40314
L52421 40295
" />
<path d="M52421 40295
L52391 40295
" />
<path d="M55147 42440
L55127 42440
" />
</g>
<g style="fill:#000000; fill-opacity:0.0; 
stroke:#000000; stroke-width:150; stroke-opacity:1; 
stroke-linecap:round; stroke-linejoin:round;">
<path d="M58080 38129
L58080 38927
" />
<path d="M55559 38251
L55559 37322
" />
<path d="M55897 38590
L55559 38251
" />
<path d="M56562 39196
L56141 39618
" />
<path d="M57811 39196
L56562 39196
" />
<path d="M58080 38927
L57811 39196
" />
<path d="M55433 37448
L55559 37322
" />
</g>
<g style="fill:#000000; fill-opacity:0.0; 
stroke:#000000; stroke-width:100; stroke-opacity:1; 
stroke-linecap:round; stroke-linejoin:round;">
<path d="M55559 37322
L55559 36877
" />
</g>
<g style="fill:#000000; fill-opacity:0.0; 
stroke:#000000; stroke-width:150; stroke-opacity:1; 
stroke-linecap:round; stroke-linejoin:round;">
<path d="M58543 38129
L58606 38066
" />
<path d="M58606 38066
L58606 37028
" />
<path d="M58080 38129
L58543 38129
" />
<path d="M58080 38405
L58159 38484
" />
<path d="M58159 38484
L59340 38484
" />
<path d="M59340 38484
L59478 38622
" />
<path d="M59478 38622
L59478 39921
" />
<path d="M59478 39921
L59222 40177
" />
<path d="M59222 40177
L59222 40722
" />
<path d="M59222 40722
L60000 41500
" />
<path d="M58080 38129
L58080 38405
" />
<path d="M55559 37094
L55620 37155
" />
<path d="M55559 36877
L55559 37094
" />
<path d="M55114 36433
L55559 36877
" />
<path d="M53700 39311
L53700 40157
" />
<path d="M52982 38592
L53700 39311
" />
<path d="M52982 37755
L52982 38592
" />
<path d="M53001 37736
L52982 37755
" />
<path d="M53001 36958
L53001 37736
" />
<path d="M53001 36141
L53316 35826
" />
<path d="M53316 35826
L54891 35826
" />
<path d="M54891 35826
L55114 36049
" />
<path d="M55114 36049
L55114 36433
" />
<path d="M53001 36958
L53001 36141
" />
<path d="M56429 38838
L57342 38838
" />
<path d="M55944 39322
L56429 38838
" />
<path d="M55303 39322
L55944 39322
" />
<path d="M55125 39500
L55303 39322
" />
<path d="M56053 34901
L56806 35655
" />
<path d="M56806 35655
L56806 37028
" />
<path d="M56053 34259
L56053 34901
" />
<path d="M56806 38007
L56929 38129
" />
<path d="M56929 38129
L57332 38129
" />
<path d="M56806 37028
L56806 38007
" />
<path d="M57332 38828
L57342 38838
" />
<path d="M57332 38129
L57332 38828
" />
</g>
<g style="fill:#000000; fill-opacity:0.0; 
stroke:#000000; stroke-width:100; stroke-opacity:1; 
stroke-linecap:round; stroke-linejoin:round;">
<path d="M55669 36397
L55704 36433
" />
</g>
<g style="fill:#000000; fill-opacity:0.0; 
stroke:#000000; stroke-width:150; stroke-opacity:1; 
stroke-linecap:round; stroke-linejoin:round;">
<path d="M55669 36397
L55704 36433
" />
</g>
<g style="fill:#000000; fill-opacity:0.0; 
stroke:#000000; stroke-width:100; stroke-opacity:1; 
stroke-linecap:round; stroke-linejoin:round;">
<path d="M55669 35944
L55704 35980
" />
<path d="M55704 35980
L55704 36433
" />
<path d="M55669 35206
L55669 35944
" />
</g>
<g style="fill:#000000; fill-opacity:0.0; 
stroke:#000000; stroke-width:150; stroke-opacity:1; 
stroke-linecap:round; stroke-linejoin:round;">
<path d="M54350 37864
L54350 39704
" />
<path d="M54350 39704
L54202 39852
" />
<path d="M54202 39852
L54202 40108
" />
<path d="M52834 39281
L53149 39596
" />
<path d="M53149 39596
L53149 41240
" />
<path d="M52785 39842
L52795 39852
" />
<path d="M52795 39852
L52795 41624
" />
</g>
<g style="fill:#000000; fill-opacity:0.0; 
stroke:#000000; stroke-width:100; stroke-opacity:1; 
stroke-linecap:round; stroke-linejoin:round;">
<path d="M53877 50460
L53933 50515
" />
</g>
<g style="fill:#000000; fill-opacity:0.0; 
stroke:#000000; stroke-width:150; stroke-opacity:1; 
stroke-linecap:round; stroke-linejoin:round;">
<path d="M53933 47417
L52372 45856
" />
<path d="M52372 45856
L52372 44576
" />
<path d="M52372 44576
L52145 44350
" />
<path d="M53933 50515
L53933 47417
" />
<path d="M57933 49763
L52578 44409
" />
<path d="M52578 44409
L52578 44015
" />
<path d="M57933 50515
L57933 49763
" />
<path d="M53110 44144
L53051 44084
" />
<path d="M53110 44370
L53110 44144
" />
<path d="M58933 50192
L53110 44370
" />
<path d="M58933 50464
L58933 50192
" />
<path d="M51933 45114
L51933 50515
" />
<path d="M51968 45078
L51933 45114
" />
<path d="M56933 49196
L53070 45334
" />
<path d="M53070 45334
L52795 45334
" />
<path d="M56933 50515
L56933 49196
" />
</g>
<g style="fill:#000000; fill-opacity:0.0; 
stroke:#000000; stroke-width:100; stroke-opacity:1; 
stroke-linecap:round; stroke-linejoin:round;">
<path d="M51933 34444
L51456 34921
" />
<path d="M51456 34921
L51456 39635
" />
<path d="M51456 39635
L51791 39970
" />
<path d="M51791 39970
L51791 44708
" />
<path d="M51791 44708
L51000 45500
" />
<path d="M51933 32501
L51933 34444
" />
</g>
<g style="fill:#000000; fill-opacity:0.0; 
stroke:#000000; stroke-width:150; stroke-opacity:1; 
stroke-linecap:round; stroke-linejoin:round;">
<path d="M54933 47816
L53415 46299
" />
<path d="M54933 50515
L54933 47816
" />
<path d="M55822 46566
L55358 46102
" />
<path d="M56027 46566
L55822 46566
" />
<path d="M56362 46901
L56027 46566
" />
</g>
<g style="fill:#000000; fill-opacity:0.0; 
stroke:#000000; stroke-width:100; stroke-opacity:1; 
stroke-linecap:round; stroke-linejoin:round;">
<path d="M52933 34350
L51958 35324
" />
<path d="M51958 35324
L51958 39645
" />
<path d="M51958 39645
L52037 39724
" />
<path d="M52037 39724
L52037 41584
" />
<path d="M52037 41584
L52244 41791
" />
<path d="M52244 41791
L52244 41899
" />
<path d="M52244 41899
L52677 42332
" />
<path d="M52677 42332
L53415 42332
" />
<path d="M53415 42332
L55314 44232
" />
<path d="M55314 44232
L55314 44399
" />
<path d="M55314 44399
L56003 45088
" />
<path d="M56003 45088
L56476 45088
" />
<path d="M52933 32516
L52933 34350
" />
</g>
<g style="fill:#000000; fill-opacity:0.0; 
stroke:#000000; stroke-width:150; stroke-opacity:1; 
stroke-linecap:round; stroke-linejoin:round;">
<path d="M58366 44921
L57952 44507
" />
<path d="M57952 44507
L57952 44025
" />
<path d="M56555 34822
L57263 35531
" />
<path d="M57263 35531
L57263 35994
" />
</g>
<g style="fill:#000000; fill-opacity:0.0; 
stroke:#000000; stroke-width:100; stroke-opacity:1; 
stroke-linecap:round; stroke-linejoin:round;">
<path d="M56334 38200
L56322 38212
" />
<path d="M56334 35681
L56334 38200
" />
<path d="M56244 35590
L56334 35681
" />
<path d="M55620 43612
L56988 44980
" />
<path d="M56988 44980
L56988 45324
" />
<path d="M56988 45324
L57568 45905
" />
</g>
<g style="fill:#000000; fill-opacity:0.0; 
stroke:#000000; stroke-width:150; stroke-opacity:1; 
stroke-linecap:round; stroke-linejoin:round;">
<path d="M59090 43500
L60000 43500
" />
<path d="M58828 43238
L59090 43500
" />
<path d="M58828 42342
L58828 43238
" />
<path d="M57765 41279
L58828 42342
" />
</g>
<g style="fill:#000000; fill-opacity:0.0; 
stroke:#000000; stroke-width:100; stroke-opacity:1; 
stroke-linecap:round; stroke-linejoin:round;">
<path d="M59488 44011
L60000 43500
" />
<path d="M59488 46486
L59488 44011
" />
<path d="M59271 46702
L59488 46486
" />
<path d="M58769 46702
L59271 46702
" />
<path d="M52263 43110
L52519 43366
" />
<path d="M52519 43366
L53129 43366
" />
<path d="M53129 43366
L55846 46082
" />
<path d="M55846 46082
L56279 46082
" />
<path d="M56279 46082
L58179 47982
" />
<path d="M58179 47982
L59025 47982
" />
<path d="M59025 47982
L59488 47519
" />
<path d="M59488 47519
L59488 46486
" />
<path d="M58322 40822
L60000 42500
" />
<path d="M57574 40822
L58322 40822
" />
<path d="M57468 40929
L57574 40822
" />
<path d="M58769 44507
L58996 44281
" />
<path d="M58769 45915
L58769 44507
" />
<path d="M52155 42322
L52519 42687
" />
<path d="M52519 42687
L53110 42687
" />
<path d="M53110 42687
L55964 45541
" />
<path d="M55964 45541
L56476 45541
" />
<path d="M56476 45541
L57775 46840
" />
<path d="M57775 46840
L57775 47047
" />
<path d="M57775 47047
L58139 47411
" />
<path d="M57141 40614
L57137 40618
" />
<path d="M57137 40618
L56653 40618
" />
<path d="M56653 40618
L56090 40055
" />
<path d="M56090 40055
L54700 40055
" />
<path d="M54700 40055
L54637 39992
" />
<path d="M54637 39992
L54637 39448
" />
<path d="M54637 39448
L54842 39244
" />
<path d="M54842 39244
L54842 38681
" />
<path d="M58007 39496
L58618 38885
" />
<path d="M56967 39496
L58007 39496
" />
<path d="M56590 39873
L56967 39496
" />
<path d="M56590 40047
L56590 39873
" />
<path d="M56814 40271
L56590 40047
" />
<path d="M59476 35976
L60000 36500
" />
<path d="M59476 35649
L59476 35976
" />
<path d="M59082 35255
L59476 35649
" />
<path d="M58090 35255
L59082 35255
" />
</g> 
</svg>
